<?xml version="1.0" encoding="utf-8"?>
<!-- Generated by IcoMoon.io -->
<!DOCTYPE svg PUBLIC "-//W3C//DTD SVG 1.1//EN" "http://www.w3.org/Graphics/SVG/1.1/DTD/svg11.dtd">
<svg version="1.1" xmlns="http://www.w3.org/2000/svg" xmlns:xlink="http://www.w3.org/1999/xlink" width="512" height="512" viewBox="0 0 512 512">
<path fill="#000000" d="M367.951 354.654l-180.951-180.613v0.346l-110.888-110.856-24.191 24.041 135.079 134.898v28.816c0 37.79 31.121 68.714 68.91 68.714 8.61 0 16.952-1.62 24.565-4.545l32.389 32.274c-17.333 8.793-36.812 13.86-56.782 13.86-62.986 0-121.365-48.59-121.365-116.59h-38.944c0 77.001 62.227 142.702 137.227 153.014v81.987h46v-81.987c22-3.352 43.066-11.222 61.627-22.622l95.278 95.078 24.033-24-33.847-33.785-58.216-57.959 58.224 57.959-58.148-58.030z"></path>
<path fill="#000000" d="M325 251.286v-150.572c0-37.79-31.209-68.714-69-68.714s-69 30.924-69 68.714v25.244l137.109 136.968c0.67-3.791 0.891-7.679 0.891-11.64z"></path>
<path fill="#000000" d="M416.439 245h-38.941c0 20.496-5.498 39.676-14.931 56.197l27.572 27.516c16.523-24.11 26.3-52.787 26.3-83.713z"></path>
<path fill="#000000" d="M459.999 446.427l-33.897-33.743 33.855 33.785z"></path>
</svg>
