<?xml version="1.0" encoding="utf-8"?>
<!-- Generated by IcoMoon.io -->
<!DOCTYPE svg PUBLIC "-//W3C//DTD SVG 1.1//EN" "http://www.w3.org/Graphics/SVG/1.1/DTD/svg11.dtd">
<svg version="1.1" xmlns="http://www.w3.org/2000/svg" xmlns:xlink="http://www.w3.org/1999/xlink" width="512" height="512" viewBox="0 0 512 512">
<path d="M288 112c22.223 0 39.997-17.776 39.997-40s-17.774-40-39.997-40-40.003 17.775-40.003 40c0 22.224 17.78 40 40.003 40z"></path>
<path d="M288 232h104v-40h-72l-44.802-69.333c-7.698-11.667-18.136-18.136-30.933-18.136-3.198 0-8.828 0.531-12.799 1.747l-111.466 37.722v112h40v-80l40.531-16-80.531 320h40l56.698-164.271 50.302 68.271v96h38v-128l-57.031-96 19.745-61.864 20.286 37.864z"></path>
</svg>
