<?xml version="1.0" encoding="utf-8"?>
<!-- Generated by IcoMoon.io -->
<!DOCTYPE svg PUBLIC "-//W3C//DTD SVG 1.1//EN" "http://www.w3.org/Graphics/SVG/1.1/DTD/svg11.dtd">
<svg version="1.1" xmlns="http://www.w3.org/2000/svg" xmlns:xlink="http://www.w3.org/1999/xlink" width="512" height="512" viewBox="0 0 512 512">
<path d="M256 48c-114.4 0-208 93.6-208 208s93.6 208 208 208c114.4 0 208-93.6 208-208s-93.6-208-208-208zM349.6 339.2c0 0-175.759 0-176.799 0-34.318 0-62.4-28.082-62.4-62.399 0-34.319 28.082-62.4 62.4-62.4 1.041 0 2.082 0 3.117 0 9.364-36.4 41.601-62.399 80.083-62.399 45.764 0 83.199 37.435 83.199 83.198h10.4c29.118 0 52 22.882 52 52.001 0 29.117-22.882 51.999-52 51.999z"></path>
</svg>
