<?xml version="1.0" encoding="utf-8"?>
<!-- Generated by IcoMoon.io -->
<!DOCTYPE svg PUBLIC "-//W3C//DTD SVG 1.1//EN" "http://www.w3.org/Graphics/SVG/1.1/DTD/svg11.dtd">
<svg version="1.1" xmlns="http://www.w3.org/2000/svg" xmlns:xlink="http://www.w3.org/1999/xlink" width="512" height="512" viewBox="0 0 512 512">
<path fill="#000000" d="M256 176c-44.004 0-80.001 36-80.001 80 0 44.004 35.997 80 80.001 80s79.999-35.996 79.999-80c0-44-35.994-80-79.999-80zM446.938 234.667c-9.605-88.531-81.074-160-169.605-169.599v-33.068h-42.666v33.067c-88.531 9.599-160 81.068-169.604 169.599h-33.063v42.667h33.062c9.604 88.531 81.072 160 169.604 169.604v33.063h42.666v-33.062c88.531-9.604 160-81.073 169.605-169.604h33.063v-42.667h-33.062zM256 405.333c-82.137 0-149.334-67.198-149.334-149.333s67.197-149.333 149.334-149.333c82.135 0 149.332 67.198 149.332 149.333s-67.197 149.333-149.332 149.333z"></path>
</svg>
