<?xml version="1.0" encoding="utf-8"?>
<!-- Generated by IcoMoon.io -->
<!DOCTYPE svg PUBLIC "-//W3C//DTD SVG 1.1//EN" "http://www.w3.org/Graphics/SVG/1.1/DTD/svg11.dtd">
<svg version="1.1" xmlns="http://www.w3.org/2000/svg" xmlns:xlink="http://www.w3.org/1999/xlink" width="512" height="512" viewBox="0 0 512 512">
<path d="M470 124.837l-98.443-81.78-27.814 32.931 98.442 81.769 27.815-32.92zM167.192 74.919l-27.826-32.919-97.366 82.837 27.814 32.919 97.378-82.837zM266.701 172.628h-32.101v127.446l101.649 60.539 16.051-26.553-85.6-49.917v-111.515zM256 87.665c-107 0-192.601 86.021-192.601 191.166 0 105.149 85.601 191.169 192.601 191.169 105.936 0 192.601-86.020 192.601-191.169 0-105.144-86.665-191.166-192.601-191.166zM256 427.52c-82.393 0-149.8-66.906-149.8-148.688 0-81.777 67.407-148.684 149.8-148.684s149.8 66.906 149.8 148.684c0 82.839-67.406 148.688-149.8 148.688z"></path>
</svg>
