<?xml version="1.0" encoding="utf-8"?>
<!-- Generated by IcoMoon.io -->
<!DOCTYPE svg PUBLIC "-//W3C//DTD SVG 1.1//EN" "http://www.w3.org/Graphics/SVG/1.1/DTD/svg11.dtd">
<svg version="1.1" xmlns="http://www.w3.org/2000/svg" xmlns:xlink="http://www.w3.org/1999/xlink" width="512" height="512" viewBox="0 0 512 512">
<path d="M437.333 64c-2.176 0-4.396 1.369-9.176 3.207s-108.157 41.595-108.157 41.595l-128-44.802-120.531 40.531c-4.272 1.073-7.469 5.333-7.469 10.666v322.136c0 6.396 4.271 10.667 10.666 10.667 1.828 0 6.505-2.33 9.087-3.319s108.247-41.484 108.247-41.484l128 44.803 120.531-40.531c4.271-1.073 7.469-5.334 7.469-10.667v-322.136c0-6.395-4.271-10.666-10.667-10.666zM320 405.333l-128-44.802v-253.865l128 44.803v253.864z"></path>
</svg>
