<?xml version="1.0" encoding="utf-8"?>
<!-- Generated by IcoMoon.io -->
<!DOCTYPE svg PUBLIC "-//W3C//DTD SVG 1.1//EN" "http://www.w3.org/Graphics/SVG/1.1/DTD/svg11.dtd">
<svg version="1.1" xmlns="http://www.w3.org/2000/svg" xmlns:xlink="http://www.w3.org/1999/xlink" width="512" height="512" viewBox="0 0 512 512">
<path d="M319 280c0 34.794-28.206 63-63 63s-63-28.206-63-63c0-34.794 28.206-63 63-63s63 28.206 63 63z"></path>
<path d="M440 96h-88l-32-32h-128l-32 32h-88c-22.092 0-40 17.908-40 40v272c0 22.092 17.908 40 40 40h368c22.092 0 40-17.908 40-40v-272c0-22.092-17.908-40-40-40zM256 392c-61.855 0-112-50.145-112-112s50.145-112 112-112 112 50.145 112 112-50.145 112-112 112z"></path>
</svg>
