<?xml version="1.0" encoding="utf-8"?>
<!-- Generated by IcoMoon.io -->
<!DOCTYPE svg PUBLIC "-//W3C//DTD SVG 1.1//EN" "http://www.w3.org/Graphics/SVG/1.1/DTD/svg11.dtd">
<svg version="1.1" xmlns="http://www.w3.org/2000/svg" xmlns:xlink="http://www.w3.org/1999/xlink" width="512" height="512" viewBox="0 0 512 512">
<path fill="#000000" d="M80 346.666c0 41.604 33.062 74.666 74.667 74.666l-26.667 26.668v16h256v-16l-26.667-26.668c41.604 0 74.667-33.062 74.667-74.666v-213.332c0-74.666-82.136-85.334-176-85.334s-176 10.668-176 85.334v213.332zM256 376c-22.002 0-40-17.997-40-39.999s17.998-40.001 40-40.001 40 17.999 40 40.001-17.998 39.999-40 39.999zM384 224h-256v-96h256v96z"></path>
</svg>
