<?xml version="1.0" encoding="utf-8"?>
<!-- Generated by IcoMoon.io -->
<!DOCTYPE svg PUBLIC "-//W3C//DTD SVG 1.1//EN" "http://www.w3.org/Graphics/SVG/1.1/DTD/svg11.dtd">
<svg version="1.1" xmlns="http://www.w3.org/2000/svg" xmlns:xlink="http://www.w3.org/1999/xlink" width="512" height="512" viewBox="0 0 512 512">
<path fill="#000000" d="M256 463.656c22.814 0 41.475-18.656 41.475-41.656h-82.95c0 23 18.661 41.656 41.475 41.656z"></path>
<path fill="#000000" d="M131.083 107.172l0.053 0.074-33.046-32.969-24.086 24.106 63.042 63.153c-10.158 18.985-16.046 40.66-16.046 63.534v114.555l-41 41.656v20.719h297.743l36.182 36.33 24.079-24.301-12.104-12.029h0.316l-295.133-294.828z"></path>
<path fill="#000000" d="M391 225.070c0-63.526-45-117.677-104-131.218v-14.578c0-17.706-13.371-31.243-31-31.243-17.628 0-31 13.537-31 31.243v14.578c-15 3.438-29.048 9.501-41.75 17.663l207.75 207.84v-94.285z"></path>
</svg>
