<?xml version="1.0" encoding="utf-8"?>
<!-- Generated by IcoMoon.io -->
<!DOCTYPE svg PUBLIC "-//W3C//DTD SVG 1.1//EN" "http://www.w3.org/Graphics/SVG/1.1/DTD/svg11.dtd">
<svg version="1.1" xmlns="http://www.w3.org/2000/svg" xmlns:xlink="http://www.w3.org/1999/xlink" width="512" height="512" viewBox="0 0 512 512">
<path d="M337.509 305.372h-17.501l-6.571-5.486c20.791-25.232 33.922-57.054 33.922-93.257-0.001-78.997-63.463-142.629-142.224-142.629-77.683 0-141.135 63.632-141.135 142.629s63.452 142.628 142.225 142.628c35.011 0 67.831-13.167 92.991-34.008l6.561 5.487v17.551l109.403 109.713 32.82-32.914-110.491-109.714zM206.225 305.372c-54.702 0-98.463-43.887-98.463-98.743 0-54.858 43.761-98.742 98.463-98.742 54.7 0 98.462 43.884 98.462 98.742 0 54.856-43.762 98.743-98.462 98.743z"></path>
</svg>
