<?xml version="1.0" encoding="utf-8"?>
<!-- Generated by IcoMoon.io -->
<!DOCTYPE svg PUBLIC "-//W3C//DTD SVG 1.1//EN" "http://www.w3.org/Graphics/SVG/1.1/DTD/svg11.dtd">
<svg version="1.1" xmlns="http://www.w3.org/2000/svg" xmlns:xlink="http://www.w3.org/1999/xlink" width="512" height="512" viewBox="0 0 512 512">
<path d="M32 384h272v32h-272v-32z"></path>
<path d="M400 384h80v32h-80v-32z"></path>
<path d="M384 447.5c0 17.949-14.327 32.5-32 32.5v0c-17.673 0-32-14.551-32-32.5v-95c0-17.949 14.327-32.5 32-32.5v0c17.673 0 32 14.551 32 32.5v95z"></path>
<path d="M32 240h80v32h-80v-32z"></path>
<path d="M208 240h272v32h-272v-32z"></path>
<path d="M192 303.5c0 17.949-14.327 32.5-32 32.5v0c-17.673 0-32-14.551-32-32.5v-95c0-17.949 14.327-32.5 32-32.5v0c17.673 0 32 14.551 32 32.5v95z"></path>
<path d="M32 96h272v32h-272v-32z"></path>
<path d="M400 96h80v32h-80v-32z"></path>
<path d="M384 159.5c0 17.949-14.327 32.5-32 32.5v0c-17.673 0-32-14.551-32-32.5v-95c0-17.949 14.327-32.5 32-32.5v0c17.673 0 32 14.551 32 32.5v95z"></path>
</svg>
