<?xml version="1.0" encoding="utf-8"?>
<!-- Generated by IcoMoon.io -->
<!DOCTYPE svg PUBLIC "-//W3C//DTD SVG 1.1//EN" "http://www.w3.org/Graphics/SVG/1.1/DTD/svg11.dtd">
<svg version="1.1" xmlns="http://www.w3.org/2000/svg" xmlns:xlink="http://www.w3.org/1999/xlink" width="512" height="512" viewBox="0 0 512 512">
<path d="M256 160c25.499 0 49.567 10.025 67.771 28.229s28.229 42.272 28.229 67.771-10.025 49.567-28.229 67.771c-18.204 18.204-42.272 28.229-67.771 28.229s-49.567-10.025-67.771-28.229c-18.204-18.204-28.229-42.272-28.229-67.771s10.025-49.567 28.229-67.771c18.204-18.204 42.272-28.229 67.771-28.229zM277.333 32h-42.666v64h42.666v-64zM406.396 75.729l-38.396 38.406 29.864 29.865 38.406-38.396-29.874-29.875zM105.604 75.729l-29.875 29.875 38.407 38.396 29.864-29.865-38.396-38.406zM256 128c-70.396 0-128 57.604-128 128s57.604 128 128 128 128-57.604 128-128-57.604-128-128-128v0zM480 234.666h-64v42.668h64v-42.668zM96 234.666h-64v42.668h64v-42.668zM397.864 368l-29.864 29.865 38.396 38.406 29.875-29.875-38.407-38.396zM114.136 368l-38.406 38.396 29.875 29.875 38.395-38.406-29.864-29.865zM277.333 416h-42.666v64c6.396 0 42.666 0 42.666 0v-64z"></path>
</svg>
