<?xml version="1.0" encoding="utf-8"?>
<!-- Generated by IcoMoon.io -->
<!DOCTYPE svg PUBLIC "-//W3C//DTD SVG 1.1//EN" "http://www.w3.org/Graphics/SVG/1.1/DTD/svg11.dtd">
<svg version="1.1" xmlns="http://www.w3.org/2000/svg" xmlns:xlink="http://www.w3.org/1999/xlink" width="512" height="512" viewBox="0 0 512 512">
<path d="M403.001 217.001c-14.004-68.999-74.003-121.001-147.001-121.001-57.998 0-107.999 32.998-132.997 81-60.001 6.002-107.003 56.998-107.003 119 0 65.996 54.004 120 120 120h260c55 0 100-45 100-100.001 0-52.997-40.997-95.999-92.999-98.998zM396 376h-260c-44.004 0-80-35.996-80-80 0-44 35.996-80 80-80h14.004c12.998-46 55-80 105.996-80 60.996 0 110 49 110 110v10h30c32.998 0 60 27.003 60 60s-27.002 60-60 60z"></path>
</svg>
