<?xml version="1.0" encoding="utf-8"?>
<!-- Generated by IcoMoon.io -->
<!DOCTYPE svg PUBLIC "-//W3C//DTD SVG 1.1//EN" "http://www.w3.org/Graphics/SVG/1.1/DTD/svg11.dtd">
<svg version="1.1" xmlns="http://www.w3.org/2000/svg" xmlns:xlink="http://www.w3.org/1999/xlink" width="512" height="512" viewBox="0 0 512 512">
<path fill="#000000" d="M416 256c0-51.001-24.004-96.001-60.996-125l-19.004-115h-160l-19.004 115c-36.992 28.999-60.996 73.999-60.996 125 0 50.996 24.004 95.996 60.996 125l19.004 115h160l19.004-115c36.992-29.004 60.996-74.004 60.996-125zM136 256c0-66.001 54.004-120 120-120s120 53.999 120 120c0 65.996-54.004 120-120 120s-120-54.004-120-120z"></path>
</svg>
