<?xml version="1.0" encoding="utf-8"?>
<!-- Generated by IcoMoon.io -->
<!DOCTYPE svg PUBLIC "-//W3C//DTD SVG 1.1//EN" "http://www.w3.org/Graphics/SVG/1.1/DTD/svg11.dtd">
<svg version="1.1" xmlns="http://www.w3.org/2000/svg" xmlns:xlink="http://www.w3.org/1999/xlink" width="512" height="512" viewBox="0 0 512 512">
<path fill="#000000" d="M257 120.471c7.083 0 23.911 4.479 23.911 4.479 45.589 10.447 77.678 52.439 77.678 99.85v127.612l17.109 17.187h-239.396l17.109-17.187v-127.612c0-47.41 32.089-89.403 77.678-99.85 0 0 18.043-4.479 23.911-4.479zM256 48c-17.602 0-31.059 13.518-31.059 31.2v14.559c-59.015 13.523-103.53 67.601-103.53 131.041v114.4l-41.411 41.6v20.8h352v-20.8l-41.411-41.6v-114.4c0-63.44-44.516-117.518-103.53-131.041v-14.559c0-17.682-13.457-31.2-31.059-31.2v0zM297.411 422.4h-82.823c0 22.881 18.633 41.6 41.412 41.6s41.411-18.719 41.411-41.6v0z"></path>
</svg>
