<?xml version="1.0" encoding="utf-8"?>
<!-- Generated by IcoMoon.io -->
<!DOCTYPE svg PUBLIC "-//W3C//DTD SVG 1.1//EN" "http://www.w3.org/Graphics/SVG/1.1/DTD/svg11.dtd">
<svg version="1.1" xmlns="http://www.w3.org/2000/svg" xmlns:xlink="http://www.w3.org/1999/xlink" width="512" height="512" viewBox="0 0 512 512">
<path fill="#000000" d="M256 48c-93.864 0-176 10.668-176 85.334v213.332c0 41.604 33.062 74.666 74.667 74.666l-26.667 26.668v16h256v-16l-26.667-26.668c41.604 0 74.667-33.062 74.667-74.666v-213.332c0-74.666-82.136-85.334-176-85.334zM160 384c-18.136 0-32-13.865-32-32 0-18.137 13.864-32 32-32s32 13.863 32 32c0 18.135-13.864 32-32 32zM240 240h-112v-96h112v96zM352 384c-18.136 0-32-13.865-32-32 0-18.137 13.864-32 32-32s32 13.863 32 32c0 18.135-13.864 32-32 32zM384 240h-112v-96h112v96z"></path>
</svg>
