<?xml version="1.0" encoding="utf-8"?>
<!-- Generated by IcoMoon.io -->
<!DOCTYPE svg PUBLIC "-//W3C//DTD SVG 1.1//EN" "http://www.w3.org/Graphics/SVG/1.1/DTD/svg11.dtd">
<svg version="1.1" xmlns="http://www.w3.org/2000/svg" xmlns:xlink="http://www.w3.org/1999/xlink" width="512" height="512" viewBox="0 0 512 512">
<path fill="#000000" d="M349.6 64c-36.4 0-70.718 16.742-93.6 43.947-22.883-27.205-57.2-43.947-93.6-43.947-64.482 0-114.4 50.221-114.4 115.095 0 79.516 70.718 143.348 177.836 241.694l30.164 27.211 30.164-27.211c107.117-98.347 177.836-162.179 177.836-241.694 0-64.874-49.918-115.095-114.4-115.095zM268.836 393.257l-4.219 3.873-8.617 7.773-8.616-7.772-4.214-3.869c-50.418-46.282-93.961-86.254-122.746-121.994-27.957-34.713-40.424-63.14-40.424-92.173 0-22.865 8.422-43.931 23.715-59.316 15.242-15.334 36.083-23.779 58.685-23.779 26.134 0 51.97 12.167 69.11 32.545l24.49 29.116 24.489-29.116c17.141-20.378 42.976-32.545 69.111-32.545 22.603 0 43.443 8.445 58.686 23.778 15.292 15.386 23.714 36.451 23.714 59.317 0 29.033-12.467 57.459-40.422 92.171-28.784 35.74-72.325 75.709-122.742 121.991z"></path>
</svg>
