<?xml version="1.0" encoding="utf-8"?>
<!-- Generated by IcoMoon.io -->
<!DOCTYPE svg PUBLIC "-//W3C//DTD SVG 1.1//EN" "http://www.w3.org/Graphics/SVG/1.1/DTD/svg11.dtd">
<svg version="1.1" xmlns="http://www.w3.org/2000/svg" xmlns:xlink="http://www.w3.org/1999/xlink" width="512" height="512" viewBox="0 0 512 512">
<path fill="#000000" d="M84.255 413h1.063c34.123 0 63.977-19.021 85.305-42.494 21.325 23.473 51.18 42.762 85.304 42.762s63.979-19.334 85.305-42.806c21.327 23.472 51.18 42.538 85.303 42.538h1.062l51.253-138.78c2.126-5.329 1.063-11.641-1.070-16.976-2.136-5.333-7.237-8.487-12.567-10.623l-38.213-12.488v-98.15c0-23.473-19.656-42.983-43.116-42.983h-63.979l-15.993-53h-95.969l-15.995 53h-63.979c-23.458 0-42.969 19.51-42.969 42.982v98.15l-38.074 12.533c-5.33 2.136-10.582 5.334-12.718 10.667-2.135 5.335-3.158 10.49-1.031 16.887l51.078 138.781zM128 136h256v84.261l-128-41.605-128 41.605v-84.261z"></path>
<path fill="#000000" d="M341.231 408.007c-52.253 36.267-118.356 36.258-170.608-0.009 0 0-57.638 64.002-106.632 64.002h21.327c29.854 0 58.646-11.726 85.305-25.594 53.315 27.734 117.293 27.728 170.608-0.007 26.659 13.869 55.45 25.601 85.304 25.601h21.328c-47.651 0-106.632-63.993-106.632-63.993z"></path>
</svg>
