<?xml version="1.0" encoding="utf-8"?>
<!-- Generated by IcoMoon.io -->
<!DOCTYPE svg PUBLIC "-//W3C//DTD SVG 1.1//EN" "http://www.w3.org/Graphics/SVG/1.1/DTD/svg11.dtd">
<svg version="1.1" xmlns="http://www.w3.org/2000/svg" xmlns:xlink="http://www.w3.org/1999/xlink" width="512" height="512" viewBox="0 0 512 512">
<path d="M405.5 256c0 22.717-4.883 44.362-13.603 63.855l31.88 31.88c15.506-28.405 24.223-61.082 24.223-95.735 0-93.256-64-172.254-149-192v44.978c62 18.654 106.5 77.904 106.5 147.022z"></path>
<path d="M256 80.458l-51.021 52.48 51.021 51.019z"></path>
<path d="M420.842 396.885l-329.726-329.728-24 24 90.499 90.413-8.28 10.43h-85.335v128h85.334l106.666 111.543v-151.543l94.915 94.686c-15.12 12.757-32.915 22.527-51.915 28.336v44.978c31-7.172 58.996-22.163 82.315-42.809l39.61 39.693 24-24.043-24.002-24.039-0.081 0.083z"></path>
<path d="M352.188 256c0-38.399-21.188-72.407-53.188-88.863v59.82l50.801 50.801c1.554-7.019 2.387-14.304 2.387-21.758z"></path>
</svg>
