<?xml version="1.0" encoding="utf-8"?>
<!-- Generated by IcoMoon.io -->
<!DOCTYPE svg PUBLIC "-//W3C//DTD SVG 1.1//EN" "http://www.w3.org/Graphics/SVG/1.1/DTD/svg11.dtd">
<svg version="1.1" xmlns="http://www.w3.org/2000/svg" xmlns:xlink="http://www.w3.org/1999/xlink" width="512" height="512" viewBox="0 0 512 512">
<path fill="#000000" d="M437.334 416c23.469 0 42.666-19.197 42.666-42.666v-266.666c0-23.469-19.197-42.668-42.666-42.668h-362.668c-23.469 0-42.666 19.199-42.666 42.668v266.666c0 23.469 19.197 42.666 42.666 42.666h-74.666c0 23.469 64 32 96 32h320c32 0 96-8.531 96-32h-74.666zM74.666 106.668h362.668v271.998h-362.668v-271.998zM256 434.666c-11.729 0-21.333-9.604-21.333-21.334 0-11.729 9.604-21.332 21.333-21.332s21.333 9.604 21.333 21.332c0 11.73-9.604 21.334-21.333 21.334z"></path>
</svg>
