<?xml version="1.0" encoding="utf-8"?>
<!-- Generated by IcoMoon.io -->
<!DOCTYPE svg PUBLIC "-//W3C//DTD SVG 1.1//EN" "http://www.w3.org/Graphics/SVG/1.1/DTD/svg11.dtd">
<svg version="1.1" xmlns="http://www.w3.org/2000/svg" xmlns:xlink="http://www.w3.org/1999/xlink" width="512" height="512" viewBox="0 0 512 512">
<path fill="#000000" d="M405.333 80h-87.35c-7.104-27.604-32.162-48-61.983-48s-54.879 20.396-61.983 48h-87.35c-23.469 0-42.667 19.198-42.667 42.667v314.665c0 23.469 19.198 42.668 42.667 42.668h298.666c23.469 0 42.667-19.199 42.667-42.668v-314.665c0-23.469-19.198-42.667-42.667-42.667zM256 80c11.729 0 21.333 9.599 21.333 21.333s-9.604 21.334-21.333 21.334-21.333-9.6-21.333-21.334 9.604-21.333 21.333-21.333zM408 440h-304v-320h40v72h224v-72h40v320z"></path>
</svg>
