<?xml version="1.0" encoding="utf-8"?>
<!-- Generated by IcoMoon.io -->
<!DOCTYPE svg PUBLIC "-//W3C//DTD SVG 1.1//EN" "http://www.w3.org/Graphics/SVG/1.1/DTD/svg11.dtd">
<svg version="1.1" xmlns="http://www.w3.org/2000/svg" xmlns:xlink="http://www.w3.org/1999/xlink" width="512" height="512" viewBox="0 0 512 512">
<path fill="#000000" d="M403.208 117.333c-4.271-12.802-16-21.333-29.875-21.333h-234.666c-13.875 0-25.604 8.531-29.875 21.333l-44.792 117.334v160c0 11.729 9.604 21.333 21.333 21.333h21.334c11.729 0 21.333-9.604 21.333-21.333v-10.667h256v10.667c0 11.729 9.604 21.333 21.333 21.333h21.334c11.729 0 21.333-9.604 21.333-21.333v-160l-44.792-117.334zM138.667 320c-18.125 0-32-13.865-32-32s13.875-32 32-32 32 13.866 32 32-13.875 32-32 32zM373.333 320c-18.125 0-32-13.865-32-32s13.875-32 32-32 32 13.866 32 32-13.875 32-32 32zM106.667 213.333l32-85.333h234.666l32 85.333h-298.666z"></path>
</svg>
