<?xml version="1.0" encoding="utf-8"?>
<!-- Generated by IcoMoon.io -->
<!DOCTYPE svg PUBLIC "-//W3C//DTD SVG 1.1//EN" "http://www.w3.org/Graphics/SVG/1.1/DTD/svg11.dtd">
<svg version="1.1" xmlns="http://www.w3.org/2000/svg" xmlns:xlink="http://www.w3.org/1999/xlink" width="512" height="512" viewBox="0 0 512 512">
<path d="M256 48c-115.437 0-208 93.6-208 208s92.563 208 208 208 208-93.6 208-208c0-114.4-93.599-208-208-208zM256 422.4c-91.518 0-166.404-74.883-166.404-166.4s74.887-166.4 166.404-166.4 166.404 74.882 166.404 166.4c0 91.518-74.886 166.4-166.404 166.4zM328.8 235.2c17.683 0 31.201-13.518 31.201-31.2s-13.519-31.2-31.201-31.2c-17.682 0-31.2 13.518-31.2 31.2s13.518 31.2 31.2 31.2zM183.2 235.2c17.682 0 31.2-13.518 31.2-31.2s-13.519-31.2-31.2-31.2c-17.683 0-31.201 13.518-31.201 31.2s13.519 31.2 31.201 31.2zM256 370.4c48.883 0 89.436-30.164 106.081-72.801h-212.162c16.645 42.637 57.198 72.801 106.081 72.801z"></path>
</svg>
