<?xml version="1.0" encoding="utf-8"?>
<!-- Generated by IcoMoon.io -->
<!DOCTYPE svg PUBLIC "-//W3C//DTD SVG 1.1//EN" "http://www.w3.org/Graphics/SVG/1.1/DTD/svg11.dtd">
<svg version="1.1" xmlns="http://www.w3.org/2000/svg" xmlns:xlink="http://www.w3.org/1999/xlink" width="512" height="512" viewBox="0 0 512 512">
<path fill="#000000" d="M256 64c-105.599 0-192 86.401-192 192 0 105.604 86.401 192 192 192 18.136 0 32-13.864 32-32 0-8.531-3.198-16-8.531-21.333-5.333-5.334-8.531-12.803-8.531-21.334 0-18.135 13.864-32 32-32h38.396c58.667 0 106.667-48 106.667-106.666-0.001-93.865-86.397-170.667-192.001-170.667zM138.667 256c-18.136 0-32-13.864-32-32s13.864-32 32-32c18.135 0 32 13.864 32 32s-13.865 32-32 32zM202.667 170.667c-18.136 0-32-13.865-32-32 0-18.136 13.864-32 32-32 18.135 0 32 13.864 32 32 0 18.135-13.865 32-32 32zM309.333 170.667c-18.135 0-32-13.865-32-32 0-18.136 13.865-32 32-32 18.136 0 32 13.864 32 32 0 18.135-13.864 32-32 32zM373.333 256c-18.135 0-32-13.864-32-32s13.865-32 32-32c18.136 0 32 13.864 32 32s-13.864 32-32 32z"></path>
</svg>
