<?xml version="1.0" encoding="utf-8"?>
<!-- Generated by IcoMoon.io -->
<!DOCTYPE svg PUBLIC "-//W3C//DTD SVG 1.1//EN" "http://www.w3.org/Graphics/SVG/1.1/DTD/svg11.dtd">
<svg version="1.1" xmlns="http://www.w3.org/2000/svg" xmlns:xlink="http://www.w3.org/1999/xlink" width="512" height="512" viewBox="0 0 512 512">
<path d="M256 93.090v-61.090l-80 81.454 80 81.456v-61.093c65.996 0 120 54.982 120 122.183 0 20.363-5 39.714-14.004 57.016l29.004 29.531c15.996-25.457 25-54.988 25-86.547 0-89.599-72.002-162.91-160-162.91zM256 378.184c-66.001 0-120-54.988-120-122.184 0-20.363 5-39.709 13.999-57.020l-28.999-29.526c-16.001 24.436-25 54.982-25 86.546 0 89.599 72.002 162.91 160 162.91v61.090l80-81.453-80-81.457v61.094z"></path>
</svg>
