<?xml version="1.0" encoding="utf-8"?>
<!-- Generated by IcoMoon.io -->
<!DOCTYPE svg PUBLIC "-//W3C//DTD SVG 1.1//EN" "http://www.w3.org/Graphics/SVG/1.1/DTD/svg11.dtd">
<svg version="1.1" xmlns="http://www.w3.org/2000/svg" xmlns:xlink="http://www.w3.org/1999/xlink" width="512" height="512" viewBox="0 0 512 512">
<path d="M330.666 131.202c18.668 0 33.598-14.935 33.598-33.601s-14.93-33.601-33.598-33.601c-18.666 0-33.596 14.935-33.596 33.601s14.93 33.601 33.596 33.601zM386.666 261.334c-51.332 0-93.332 42-93.332 93.333s42 93.333 93.332 93.333c51.334 0 93.334-42 93.334-93.333s-42-93.333-93.334-93.333zM386.666 420c-36.402 0-65.332-28.93-65.332-65.333s28.93-65.333 65.332-65.333c36.404 0 65.334 28.93 65.334 65.333s-28.93 65.333-65.334 65.333zM305.597 224h78.403v-32h-58.845l-34.62-60.134c-5.605-9.333-15.869-15.864-27.070-15.864-8.399 0-16.798 3.732-22.399 9.333l-71.732 69.065c-5.601 5.601-9.333 14-9.333 22.399 0 12.131 9.202 21.465 18.535 27.065l61.464 38.27v85.866h32v-112l-39.333-32 42.929-44.533 30.001 44.533zM125.333 261.334c-51.333 0-93.333 42-93.333 93.333s42 93.333 93.333 93.333c51.333 0 93.333-42 93.333-93.333s-41.999-93.333-93.333-93.333zM125.333 420c-36.399 0-65.333-28.93-65.333-65.333s28.934-65.333 65.333-65.333c36.399 0 65.333 28.93 65.333 65.333s-28.934 65.333-65.333 65.333z"></path>
</svg>
