<?xml version="1.0" encoding="utf-8"?>
<!-- Generated by IcoMoon.io -->
<!DOCTYPE svg PUBLIC "-//W3C//DTD SVG 1.1//EN" "http://www.w3.org/Graphics/SVG/1.1/DTD/svg11.dtd">
<svg version="1.1" xmlns="http://www.w3.org/2000/svg" xmlns:xlink="http://www.w3.org/1999/xlink" width="512" height="512" viewBox="0 0 512 512">
<path fill="#000000" d="M256 152c-57.2 0-104 46.8-104 104s46.8 104 104 104 104-46.8 104-104-46.8-104-104-104zM256 48c-114.399 0-208 93.601-208 208s93.601 208 208 208 208-93.601 208-208-93.601-208-208-208zM256 422.4c-91.518 0-166.4-74.883-166.4-166.4s74.882-166.4 166.4-166.4 166.4 74.882 166.4 166.4-74.882 166.4-166.4 166.4z"></path>
</svg>
