<?xml version="1.0" encoding="utf-8"?>
<!-- Generated by IcoMoon.io -->
<!DOCTYPE svg PUBLIC "-//W3C//DTD SVG 1.1//EN" "http://www.w3.org/Graphics/SVG/1.1/DTD/svg11.dtd">
<svg version="1.1" xmlns="http://www.w3.org/2000/svg" xmlns:xlink="http://www.w3.org/1999/xlink" width="512" height="512" viewBox="0 0 512 512">
<path d="M80 352c0 19.198 13.864 24.531 26.667 36.271v38.396c0 11.729 9.599 21.334 21.333 21.334h21.333c11.734 0 21.334-9.604 21.334-21.334v-21.333h170.666v21.333c0 11.729 9.604 21.334 21.334 21.334h21.333c11.729 0 21.333-9.604 21.333-21.334v-38.396c12.803-11.74 26.667-18.135 26.667-36.271v-203.666c0-74.667-82.136-84.334-176-84.334s-176 9.667-176 84.334v203.666zM160 367.989c-18.136 0-32-13.864-32-32 0-18.135 13.864-32 32-32s32 13.865 32 32c0 18.136-13.864 32-32 32zM352 367.989c-18.136 0-32-13.864-32-32 0-18.135 13.864-32 32-32s32 13.865 32 32c0 18.136-13.864 32-32 32zM384 245.333h-256v-106.666h256v106.666z"></path>
</svg>
