<?xml version="1.0" encoding="utf-8"?>
<!-- Generated by IcoMoon.io -->
<!DOCTYPE svg PUBLIC "-//W3C//DTD SVG 1.1//EN" "http://www.w3.org/Graphics/SVG/1.1/DTD/svg11.dtd">
<svg version="1.1" xmlns="http://www.w3.org/2000/svg" xmlns:xlink="http://www.w3.org/1999/xlink" width="512" height="512" viewBox="0 0 512 512">
<path fill="#000000" d="M331.080 338.205c-22.156 12.594-47.777 19.783-75.084 19.783-27.302 0-52.919-7.182-75.073-19.771-58.77 17.935-103.661 57.783-116.923 109.783h384c-13.255-52-58.146-91.869-116.92-109.795z"></path>
<path fill="#000000" d="M255.996 64c-72.871 0-131.945 59.127-131.945 132.013s59.074 131.972 131.945 131.972 131.945-59.085 131.945-131.972c0-72.886-59.074-132.013-131.945-132.013zM255.996 294.986c-41.958 0-77.813-25.986-92.209-62.986h184.418c-14.396 37-50.252 62.986-92.209 62.986z"></path>
</svg>
