<?xml version="1.0" encoding="utf-8"?>
<!-- Generated by IcoMoon.io -->
<!DOCTYPE svg PUBLIC "-//W3C//DTD SVG 1.1//EN" "http://www.w3.org/Graphics/SVG/1.1/DTD/svg11.dtd">
<svg version="1.1" xmlns="http://www.w3.org/2000/svg" xmlns:xlink="http://www.w3.org/1999/xlink" width="512" height="512" viewBox="0 0 512 512">
<path d="M337.454 232c33.599 0 61.092-27.002 61.092-60s-27.493-60-61.092-60-61.090 27.003-61.090 60c0 32.998 27.491 60 61.090 60zM174.546 232c33.599 0 61.090-27.002 61.090-60s-27.491-60-61.090-60-61.092 27.003-61.092 60c0 32.998 27.493 60 61.092 60zM174.546 276c-47.858 0-142.546 22.998-142.546 70v54h288v-54c0-47.002-97.599-70-145.454-70zM337.454 287.003c-6.105 0-10.325 0-17.454 0.997 23.426 17.002 32 28 32 58v54h128v-54c0-47.002-94.688-58.997-142.546-58.997z"></path>
</svg>
