<?xml version="1.0" encoding="utf-8"?>
<!-- Generated by IcoMoon.io -->
<!DOCTYPE svg PUBLIC "-//W3C//DTD SVG 1.1//EN" "http://www.w3.org/Graphics/SVG/1.1/DTD/svg11.dtd">
<svg version="1.1" xmlns="http://www.w3.org/2000/svg" xmlns:xlink="http://www.w3.org/1999/xlink" width="512" height="512" viewBox="0 0 512 512">
<path fill="#000000" d="M164.852 279.939l61.834-60.251-152.966-147.982c-33.626 32.764-33.626 86.677 0 119.44l91.132 88.793z"></path>
<path fill="#000000" d="M312.389 241.88c33.636 14.802 80.283 4.232 113.91-29.593 41.222-40.165 49.909-98.303 17.363-128.96-31.465-31.71-91.131-23.245-132.354 16.921-34.718 33.825-45.566 79.276-30.374 110.986-47.739 47.568-211.552 207.173-211.552 207.173l30.377 29.593 149.71-145.866 149.708 145.866 30.374-29.593-149.709-145.869 32.547-30.658z"></path>
</svg>
