<?xml version="1.0" encoding="utf-8"?>
<!-- Generated by IcoMoon.io -->
<!DOCTYPE svg PUBLIC "-//W3C//DTD SVG 1.1//EN" "http://www.w3.org/Graphics/SVG/1.1/DTD/svg11.dtd">
<svg version="1.1" xmlns="http://www.w3.org/2000/svg" xmlns:xlink="http://www.w3.org/1999/xlink" width="512" height="512" viewBox="0 0 512 512">
<path d="M376 64v42.667h-40v-42.667h-160v42.667h-40v-42.667h-40v384h40v-42.666h40v42.666h160v-42.666h40v42.666h40v-384h-40zM176 362.667h-40v-42.667h40v42.667zM176 277.334h-40v-42.667h40v42.667zM176 192h-40v-42.666h40v42.666zM376 362.667h-40v-42.667h40v42.667zM376 277.334h-40v-42.667h40v42.667zM376 192h-40v-42.666h40v42.666z"></path>
</svg>
