<?xml version="1.0" encoding="utf-8"?>
<!-- Generated by IcoMoon.io -->
<!DOCTYPE svg PUBLIC "-//W3C//DTD SVG 1.1//EN" "http://www.w3.org/Graphics/SVG/1.1/DTD/svg11.dtd">
<svg version="1.1" xmlns="http://www.w3.org/2000/svg" xmlns:xlink="http://www.w3.org/1999/xlink" width="512" height="512" viewBox="0 0 512 512">
<path d="M341.334 128v234.666c0 46.938-38.396 85.334-85.334 85.334s-85.333-38.396-85.333-85.334v-245.332c0-29.865 23.468-53.334 53.333-53.334 29.864 0 53.333 23.469 53.333 53.334v245.333c0 11.729-9.605 21.333-21.334 21.333s-21.333-9.604-21.333-21.333v-202.667h-32v202.667c0.001 29.864 23.469 53.333 53.334 53.333s53.334-23.469 53.334-53.333v-245.333c0-46.933-38.396-85.334-85.334-85.334s-85.334 38.401-85.334 85.334v245.332c0.001 65.063 52.272 117.334 117.334 117.334s117.334-52.271 117.334-117.334v-234.666h-32z"></path>
</svg>
