<?xml version="1.0" encoding="utf-8"?>
<!-- Generated by IcoMoon.io -->
<!DOCTYPE svg PUBLIC "-//W3C//DTD SVG 1.1//EN" "http://www.w3.org/Graphics/SVG/1.1/DTD/svg11.dtd">
<svg version="1.1" xmlns="http://www.w3.org/2000/svg" xmlns:xlink="http://www.w3.org/1999/xlink" width="512" height="512" viewBox="0 0 512 512">
<path d="M256 32c-123.712 0-224 100.288-224 224s100.288 224 224 224 224-100.288 224-224-100.288-224-224-224zM391.765 391.765c-36.265 36.263-84.48 56.235-135.765 56.235s-99.5-19.972-135.765-56.235c-36.263-36.265-56.235-84.48-56.235-135.765s19.972-99.5 56.235-135.765c36.265-36.263 84.48-56.235 135.765-56.235s99.5 19.972 135.765 56.235c36.263 36.265 56.235 84.48 56.235 135.765s-19.972 99.5-56.235 135.765z"></path>
<path d="M200.043 106.067c-40.631 15.171-73.434 46.382-90.717 85.933h146.674l-55.957-85.933z"></path>
<path d="M412.797 288c2.099-10.34 3.203-21.041 3.203-32 0-36.624-12.314-70.367-33.016-97.334l-71.984 129.334h101.797z"></path>
<path d="M359.973 134.395c-27.966-23.934-64.279-38.395-103.973-38.395-7.966 0-15.794 0.591-23.448 1.715l78.3 126.285 49.121-89.605z"></path>
<path d="M99.204 224c-2.1 10.34-3.204 21.041-3.204 32 0 36.639 12.324 70.394 33.041 97.366l71.959-129.366h-101.796z"></path>
<path d="M311.959 405.932c40.631-15.171 73.433-46.382 90.715-85.932h-146.674l55.959 85.932z"></path>
<path d="M152.046 377.621c27.963 23.924 64.268 38.379 103.954 38.379 7.969 0 15.799-0.592 23.456-1.716l-78.292-126.284-49.118 89.621z"></path>
</svg>
