<?xml version="1.0" encoding="utf-8"?>
<!-- Generated by IcoMoon.io -->
<!DOCTYPE svg PUBLIC "-//W3C//DTD SVG 1.1//EN" "http://www.w3.org/Graphics/SVG/1.1/DTD/svg11.dtd">
<svg version="1.1" xmlns="http://www.w3.org/2000/svg" xmlns:xlink="http://www.w3.org/1999/xlink" width="512" height="512" viewBox="0 0 512 512">
<path fill="#000000" d="M256 307.7l128-115.7h-80v-96h-96.4v96h-79.6z"></path>
<path fill="#000000" d="M465.4 297.2l-71.4-55h-42l62 61.8h-50.6c-2.3 0-4.3 1.2-5.4 2.9l-18.4 45.5h-167.5l-18.4-45.5c-1-1.8-3.1-2.9-5.4-2.9h-50.5l62.2-61.8h-42.2l-71.4 55c-10.6 6.2-15.8 19-14.1 31.6l8.7 66.9c2.3 13.1 9.7 20.3 28.1 20.3h373.8c19.1 0 25.8-7.6 28.1-20.3l8.7-66.9c1.7-12.9-3.7-25.4-14.3-31.6z"></path>
</svg>
