<?xml version="1.0" encoding="utf-8"?>
<!-- Generated by IcoMoon.io -->
<!DOCTYPE svg PUBLIC "-//W3C//DTD SVG 1.1//EN" "http://www.w3.org/Graphics/SVG/1.1/DTD/svg11.dtd">
<svg version="1.1" xmlns="http://www.w3.org/2000/svg" xmlns:xlink="http://www.w3.org/1999/xlink" width="512" height="512" viewBox="0 0 512 512">
<path d="M498.941 93.559c-8.904-8.905-20.245-13.559-33.066-13.559h-297.875c-24.303 0-43.717 9.402-57.706 28.441l-110.294 147.497 110.764 146.991c6.904 8.855 14.424 15.701 22.99 20.417 10.129 5.578 21.651 8.654 34.246 8.654h298c26.191 0 46-22.257 46-49v-256c0-12.821-4.154-24.537-13.059-33.441zM413.442 332.307c1.528 1.51 2.372 3.562 2.372 5.71 0 2.151-0.844 4.203-2.372 5.707l-21.823 21.905c-1.575 1.586-3.625 2.371-5.691 2.371-2.071 0-4.138-0.785-5.695-2.371l-76.23-76.461-76.23 76.461c-1.558 1.586-3.625 2.371-5.695 2.371-2.066 0-4.117-0.785-5.692-2.371l-21.824-21.905c-1.527-1.504-2.373-3.556-2.373-5.707 0-2.148 0.846-4.2 2.373-5.71l76.536-76.307-76.738-76.297c-3.146-3.153-3.146-8.273 0-11.427l21.807-21.919c1.516-1.511 3.552-2.357 5.696-2.357 2.152 0 4.189 0.847 5.691 2.357l76.448 75.533 76.447-75.533c1.504-1.511 3.541-2.357 5.693-2.357 2.143 0 4.179 0.847 5.695 2.357l21.807 21.919c3.146 3.153 3.146 8.273 0 11.427l-76.74 76.297 76.538 76.307z"></path>
</svg>
