<?xml version="1.0" encoding="utf-8"?>
<!-- Generated by IcoMoon.io -->
<!DOCTYPE svg PUBLIC "-//W3C//DTD SVG 1.1//EN" "http://www.w3.org/Graphics/SVG/1.1/DTD/svg11.dtd">
<svg version="1.1" xmlns="http://www.w3.org/2000/svg" xmlns:xlink="http://www.w3.org/1999/xlink" width="512" height="512" viewBox="0 0 512 512">
<path d="M42.1 384h381.1c5.5 0 9.9-4.5 9.9-10v-54h36.9c5.6 0 10.1-4.5 10.1-10v-108c0-5.5-4.5-10-10.1-10h-37v-54c0-5.5-4.3-10-9.9-10h-381c-5.6 0-10.1 4.5-10.1 10v236c0 5.5 4.5 10 10.1 10zM257.4 160l-27.9 81h61.5l-100.4 111 27.9-81h-61.5l100.4-111z"></path>
</svg>
