<?xml version="1.0" encoding="utf-8"?>
<!-- Generated by IcoMoon.io -->
<!DOCTYPE svg PUBLIC "-//W3C//DTD SVG 1.1//EN" "http://www.w3.org/Graphics/SVG/1.1/DTD/svg11.dtd">
<svg version="1.1" xmlns="http://www.w3.org/2000/svg" xmlns:xlink="http://www.w3.org/1999/xlink" width="512" height="512" viewBox="0 0 512 512">
<path fill="#000000" d="M416 160h-32v-16c14.5-3.5 32-24.3 32-48 0-35.3-28.7-64-64-64-16.3 0-31.1 6.1-42.4 16.1-12.4-10.1-28.2-16.1-45.4-16.1-15.8 0-30.4 5.1-42.3 13.7-9.9-8.5-22.9-13.7-37-13.7-17.1 0-32.4 7.6-42.8 19.5-11.7-12-28-19.5-46.1-19.5-35.3 0-64 28.7-64 64 0 16.2 6.1 31 16 42.3 0 0.2 0 0.4 0 0.7v54c0 26.5 21.5 48 48 48v223c0 8.8 7.2 16 16 16h256c8.8 0 16-7.2 16-16v-80h32c35.3 0 64-28.7 64-64v-96c0-35.3-28.7-64-64-64zM327.8 304c-1.6 0-3-0.6-4.3-1.4-2.2-1.4-3.5-4-3.5-6.8v-47.8c0-4.4 3.6-8 8-8s8 3.6 8 8v48.1c0 5-3.8 7.9-8.2 7.9zM335 228.4c-1.2 1.8-3 3-5.1 3.5-2.1 0.4-4.3 0-6-1.1-1.8-1.2-3-3-3.5-5.1-0.4-2.1 0-4.3 1.1-6 1.2-1.8 3-3 5.1-3.5 2.1-0.4 4.3 0 6 1.1 1.8 1.2 3 3 3.5 5.1 0.5 2 0.1 4.2-1.1 6zM352 160v32h-127.8c-0.1-4.3-3.6-7.8-8-7.8s-7.9 3.5-8 7.8h-80.2v-40.6c6.5-3.8 12.3-8.6 17-14.3 1.2-1.5 2.4-3 3.5-4.6 1.5 1.2 3 2.4 4.6 3.4 9.1 6.1 20 9.7 31.7 9.7 6.4 0 12.6-1.1 18.3-3 12.8 20.2 35.3 33.7 61 33.7 22 0 41.7-9.9 54.9-25.4 5.7-6.7 10.2-14.4 13.1-22.9h19.9v32zM382.6 105.2c-2.5-5.5-8.1-9.2-14.6-9.2h-55c0 0-8.7-0.7-8.7 8.2s-2.9 17.1-7.8 23.7c-7.3 9.9-19.1 16.4-32.4 16.4-14.9 0-27.9-8.1-34.8-20.2-1.6-2.7-2.8-5.6-3.7-8.6-0.1-0.6-0.3-1.1-0.4-1.6-2-5.9-7.5-10.2-14.1-10.2-3.9 0-7.5 1.5-10.2 4 0 0 0 0-0.1 0.1-2.4 2.1-5.3 3.7-8.4 4.7-2.4 0.8-5 1.2-7.7 1.2-7.5 0-14.7-4-18.8-8.6-10-11.4-23.7-6.8-29.7-5.5s-12.2 11.7-12.2 11.7c-1.1 2.1-2.5 4-4 5.8-5.9 6.7-14.5 11-24.1 11v81c-8.8 0-16-7.2-16-16v-69.3c-7.7-4.5-13.4-12.1-15.3-21-0.5-2.1-0.7-4.4-0.7-6.7 0-17.6 14.4-32 32-32 11.8 0 23.3 7.7 30.1 15.4s26.7 7.7 33.9 0c6.8-7.3 14.3-15.4 24.8-15.4 6 0 11.6 2.2 15.9 5.8 1.9 1.6 3.6 3.5 4.9 5.6 1.1 1.8 2 4.2 3.1 5.8 2.7 3.4 6.5 5.5 11.2 5.5 4.4 0 8.3-1.9 11-5 0.6-0.7 1.2-1.5 1.7-2.3 2-2.5 4.2-4.8 6.7-6.8 6.8-5.4 15.5-8.6 24.8-8.6 10.6 0 20.2 4.1 27.4 10.9 1.7 1.6 6.7 4.5 13.2 5.1 4.5 0.4 6.1 0.3 8.2 0 10.3-1.3 14.4-4.7 16.4-6.6 5.8-5.8 13.8-9.4 22.6-9.4 17.6 0 32 14.4 32 32 0.2 3.1-0.3 6.2-1.2 9.1zM448 320c0 17.7-14.3 32-32 32h-32v-160h32c17.7 0 32 14.3 32 32v96z"></path>
<path fill="#000000" d="M176.2 168.2c0 4.418-3.582 8-8 8s-8-3.582-8-8c0-4.418 3.582-8 8-8s8 3.582 8 8z"></path>
<path fill="#000000" d="M336.2 168.2c0 4.418-3.582 8-8 8s-8-3.582-8-8c0-4.418 3.582-8 8-8s8 3.582 8 8z"></path>
</svg>
