<?xml version="1.0" encoding="utf-8"?>
<!-- Generated by IcoMoon.io -->
<!DOCTYPE svg PUBLIC "-//W3C//DTD SVG 1.1//EN" "http://www.w3.org/Graphics/SVG/1.1/DTD/svg11.dtd">
<svg version="1.1" xmlns="http://www.w3.org/2000/svg" xmlns:xlink="http://www.w3.org/1999/xlink" width="512" height="512" viewBox="0 0 512 512">
<path d="M270.93 350.601c-0.711-8.181-7.566-14.601-15.93-14.601-7.635 0-14.010 5.352-15.605 12.506l-0.007-0.002-15.612 92.502c-0.503 2.252-0.776 4.591-0.776 6.994 0 17.673 14.327 32 32 32s32-14.327 32-32c0-2.899-0.393-5.705-1.115-8.377l-14.955-89.022z"></path>
<path d="M305.904 355.046l-0.001-0.002-0.003 0.002z"></path>
<path d="M392.875 390.261c-1.718-1.407-3.3-2.881-5.138-3.94l-63.629-47.507c-5.775-3.796-11.997-3.689-16.527 0.85-4.131 4.143-4.686 10.369-1.678 15.381l48.959 65.763c0.946 1.494 2.166 2.799 3.366 4.195 7.802 9.071 25.080 9.588 34.646-0.007 9.571-9.587 9.431-27.010 0.001-34.735z"></path>
<path d="M372.511 335.018h-0.002v0.002z"></path>
<path d="M435.428 322.475l-59.521-2.284c-3.891-0.558-7.4 2.053-8.065 6.011-0.604 3.611 1.347 7.138 4.668 8.816l0.013-0.039c0.041 0.019 0.062 0.006 0.105 0.025l57.717 17.756c8.289 1.93 17.656-2.343 17.656-11.648-0.001-11.784-3.084-17.445-12.573-18.637z"></path>
<path d="M139.222 335.020v-0.002h-0.002z"></path>
<path d="M139.209 334.979l0.013 0.039c3.321-1.679 5.272-5.205 4.668-8.816-0.665-3.958-4.175-6.568-8.065-6.011l-59.521 2.284c-9.491 1.192-12.304 6.853-12.304 18.636 0 9.306 9.098 13.578 17.387 11.648l57.717-17.756c0.042-0.019 0.064-0.006 0.105-0.024z"></path>
<path d="M187.903 338.807l-63.597 47.431c-1.838 1.057-3.569 2.362-5.137 3.931-9.563 9.567-9.566 25.088-0.004 34.65 9.561 9.571 25.055 9.578 34.618 0.007 1.3-1.299 2.405-2.694 3.352-4.185l48.962-65.641c3.007-5 2.452-11.213-1.677-15.346-4.527-4.528-11.708-4.892-16.517-0.847z"></path>
<path d="M352 128c0-61-72.35-96-96-96 12.017 85.553-101.667 119.667-112 192s48 96 48 96c16.333-59.896 72.386-79.997 109.667-105.667 40.666-28 50.333-54.272 50.333-86.333z"></path>
<path d="M352 256c5.030-15.613 4.91-49 0-64-8.999 18.5-26.287 34.3-47.186 48.689-8.584 5.911-19.859 11.443-28.83 16.797-18.714 11.165-34.984 21.848-47.329 36.4 11.346 17.364 28.318 26.114 43.345 26.114 35.999 0 64-14.338 80-64z"></path>
<path d="M152.037 160c11.722-15.952 24.856-25.209 38.19-38.362 13.436-13.254 22.077-22.471 27.464-33.173-10.666-21.331-27.849-26.608-41.691-24.465 2.333 30.334-29.97 46.567-32 68.657-1.227 13.343 2.5 23.343 8.037 27.343z"></path>
</svg>
