<?xml version="1.0" encoding="utf-8"?>
<!-- Generated by IcoMoon.io -->
<!DOCTYPE svg PUBLIC "-//W3C//DTD SVG 1.1//EN" "http://www.w3.org/Graphics/SVG/1.1/DTD/svg11.dtd">
<svg version="1.1" xmlns="http://www.w3.org/2000/svg" xmlns:xlink="http://www.w3.org/1999/xlink" width="512" height="512" viewBox="0 0 512 512">
<path fill="#000000" d="M272 272h-32v-8h-208v176c0 4.4 3.3 8 7.8 8h432.5c4.4 0 7.7-3.6 7.7-8v-176h-208v8z"></path>
<path fill="#000000" d="M472.2 144h-120.2v-30.7c-1-28.2-21.7-49.3-51.2-49.3h-89.6c-29.4 0-50.2 21.1-51.2 49.3v30.7h-120.2c-4.4 0-7.8 3.6-7.8 8v96h208v-8h32v8h208v-96c0-4.4-3.3-8-7.8-8zM320 116.2c0 0.3 0 0.6 0 1v26.8h-128v-26.8c0-0.4 0-0.7 0-1s0-0.6 0-1c0-9.7 8.6-19.2 18.8-19.2h90.4c10.1 0 18.8 9.4 18.8 19.2 0 0.4 0 0.7 0 1z"></path>
</svg>
