<?xml version="1.0" encoding="utf-8"?>
<!-- Generated by IcoMoon.io -->
<!DOCTYPE svg PUBLIC "-//W3C//DTD SVG 1.1//EN" "http://www.w3.org/Graphics/SVG/1.1/DTD/svg11.dtd">
<svg version="1.1" xmlns="http://www.w3.org/2000/svg" xmlns:xlink="http://www.w3.org/1999/xlink" width="512" height="512" viewBox="0 0 512 512">
<path d="M400 32h-288c-8.8 0-16 7.2-16 16v416c0 8.8 7.2 16 16 16h288c8.8 0 16-7.2 16-16v-416c0-8.8-7.2-16-16-16zM144 208h32v32h-32v-32zM144 272h32v32h-32v-32zM144 336h32v32h-32v-32zM240 432h-96v-32h96v32zM240 368h-32v-32h32v32zM240 304h-32v-32h32v32zM240 240h-32v-32h32v32zM304 432h-32v-32h32v32zM304 368h-32v-32h32v32zM304 304h-32v-32h32v32zM304 240h-32v-32h32v32zM368 432h-32v-96h32v96zM368 304h-32v-32h32v32zM368 240h-32v-32h32v32zM368 160h-224v-80h224v80z"></path>
</svg>
