<?xml version="1.0" encoding="utf-8"?>
<!-- Generated by IcoMoon.io -->
<!DOCTYPE svg PUBLIC "-//W3C//DTD SVG 1.1//EN" "http://www.w3.org/Graphics/SVG/1.1/DTD/svg11.dtd">
<svg version="1.1" xmlns="http://www.w3.org/2000/svg" xmlns:xlink="http://www.w3.org/1999/xlink" width="512" height="512" viewBox="0 0 512 512">
<path fill="#000000" d="M430.4 147h-67.5l-40.4-40.8c0 0-0.2-0.2-0.3-0.2l-0.2-0.2c-6-6-14.1-9.8-23.3-9.8h-84c-9.8 0-18.5 4.2-24.6 10.9v0.1l-39.5 40h-69c-18.6 0-33.6 14.6-33.6 33.2v202.1c0 18.6 15 33.7 33.6 33.7h348.8c18.5 0 33.6-15.1 33.6-33.7v-202.1c0-18.6-15.1-33.2-33.6-33.2zM256 365.5c-50.9 0-92.4-41.6-92.4-92.6 0-51.1 41.5-92.6 92.4-92.6 51 0 92.4 41.5 92.4 92.6 0 51-41.4 92.6-92.4 92.6zM424.1 200.5c-7.7 0-14-6.3-14-14.1s6.3-14.1 14-14.1c7.7 0 14 6.3 14 14.1s-6.3 14.1-14 14.1z"></path>
<path fill="#000000" d="M256 202.9c-38.6 0-69.8 31.3-69.8 70 0 38.6 31.2 70 69.8 70 38.5 0 69.8-31.3 69.8-70s-31.3-70-69.8-70z"></path>
</svg>
