<?xml version="1.0" encoding="utf-8"?>
<!-- Generated by IcoMoon.io -->
<!DOCTYPE svg PUBLIC "-//W3C//DTD SVG 1.1//EN" "http://www.w3.org/Graphics/SVG/1.1/DTD/svg11.dtd">
<svg version="1.1" xmlns="http://www.w3.org/2000/svg" xmlns:xlink="http://www.w3.org/1999/xlink" width="512" height="512" viewBox="0 0 512 512">
<path fill="#000000" d="M452 96h-392c-15.5 0-27.9 12.5-28 28v0 264c0.2 15.5 12.5 28 28 28h392c15.6 0 28-12.7 28-28.3v0-263.4c0-15.6-12.4-28.3-28-28.3zM77.1 128h357.7c6.9 0 12.1 5.1 13.1 12v20h-383.9v-20.3c1-6.8 6.3-11.7 13.1-11.7zM434.9 384h-357.8c-6.9 0-12.1-4.9-13.1-11.7v-116.3h384v116c-1 6.9-6.3 12-13.1 12z"></path>
<path fill="#000000" d="M96 304h192v16h-192v-16z"></path>
<path fill="#000000" d="M96 336h96v16h-96v-16z"></path>
<path fill="#000000" d="M352 304h64v48h-64v-48z"></path>
</svg>
