<?xml version="1.0" encoding="utf-8"?>
<!-- Generated by IcoMoon.io -->
<!DOCTYPE svg PUBLIC "-//W3C//DTD SVG 1.1//EN" "http://www.w3.org/Graphics/SVG/1.1/DTD/svg11.dtd">
<svg version="1.1" xmlns="http://www.w3.org/2000/svg" xmlns:xlink="http://www.w3.org/1999/xlink" width="512" height="512" viewBox="0 0 512 512">
<path fill="#000000" d="M256 449.4c28.9 0 56.4-5.7 81.3-15.9 0.6-0.3 1.1-0.5 1.7-0.7 0.1 0 0.2 0 0.2-0.1 3.5-1.3 7.3-2 11.2-2 4.3 0 8.4 0.8 12.1 2.4l84 30.9-22.1-88.4c0-5.3 1.5-10.3 3.9-14.6 0 0 0 0 0 0 0.8-1.3 1.6-2.6 2.5-3.7 20.9-31.3 33-68.5 33-108.4 0.2-111-92.9-200.9-207.8-200.9s-208 89.9-208 200.7c0 110.9 93.1 200.7 208 200.7z"></path>
</svg>
