<?xml version="1.0" encoding="utf-8"?>
<!-- Generated by IcoMoon.io -->
<!DOCTYPE svg PUBLIC "-//W3C//DTD SVG 1.1//EN" "http://www.w3.org/Graphics/SVG/1.1/DTD/svg11.dtd">
<svg version="1.1" xmlns="http://www.w3.org/2000/svg" xmlns:xlink="http://www.w3.org/1999/xlink" width="512" height="512" viewBox="0 0 512 512">
<path fill="#000000" d="M461.6 109.6l-54.9-43.3c-1.7-1.4-3.8-2.4-6.2-2.4s-4.6 1-6.3 2.5l-199.7 256.6c0 0-78.5-75.5-80.7-77.7s-5.1-5.9-9.5-5.9c-4.4 0-6.4 3.1-8.7 5.4-1.7 1.8-29.7 31.2-43.5 45.8-0.8 0.9-1.3 1.4-2 2.1-1.2 1.7-2 3.6-2 5.7 0 2.2 0.8 4 2 5.7l2.8 2.6c0 0 139.3 133.8 141.6 136.1s5.1 5.2 9.2 5.2c4 0 7.3-4.3 9.2-6.2l249.1-320c1.2-1.7 2-3.6 2-5.8 0-2.5-1-4.6-2.4-6.4z"></path>
</svg>
