<?xml version="1.0" encoding="utf-8"?>
<!-- Generated by IcoMoon.io -->
<!DOCTYPE svg PUBLIC "-//W3C//DTD SVG 1.1//EN" "http://www.w3.org/Graphics/SVG/1.1/DTD/svg11.dtd">
<svg version="1.1" xmlns="http://www.w3.org/2000/svg" xmlns:xlink="http://www.w3.org/1999/xlink" width="512" height="512" viewBox="0 0 512 512">
<path d="M256 32c-123.7 0-224 100.3-224 224s100.3 224 224 224c123.7 0 224-100.3 224-224s-100.3-224-224-224zM370.9 181.1l-139.1 178.5c-1.1 1.1-2.9 3.5-5.1 3.5-2.3 0-3.8-1.6-5.1-2.9s-78.9-75.9-78.9-75.9l-1.5-1.5c-0.6-0.9-1.1-2-1.1-3.2s0.5-2.3 1.1-3.2c0.4-0.4 0.7-0.7 1.1-1.2 7.7-8.1 23.3-24.5 24.3-25.5 1.3-1.3 2.4-3 4.8-3 2.5 0 4.1 2.1 5.3 3.3s45 43.3 45 43.3l111.3-143c1-0.8 2.2-1.4 3.5-1.4s2.5 0.5 3.5 1.3l30.6 24.1c0.8 1 1.3 2.2 1.3 3.5 0.1 1.3-0.4 2.4-1 3.3z"></path>
</svg>
