<?xml version="1.0" encoding="utf-8"?>
<!-- Generated by IcoMoon.io -->
<!DOCTYPE svg PUBLIC "-//W3C//DTD SVG 1.1//EN" "http://www.w3.org/Graphics/SVG/1.1/DTD/svg11.dtd">
<svg version="1.1" xmlns="http://www.w3.org/2000/svg" xmlns:xlink="http://www.w3.org/1999/xlink" width="512" height="512" viewBox="0 0 512 512">
<path fill="#000000" d="M161 160.5h192c-1.688-20-9.729-35.45-27.921-40.356-0.446-0.119-1.12-0.424-1.567-0.541-12.004-3.424-21.012-7.653-21.012-20.781v-20.595c0-25.536-20.524-46.227-46.010-46.227-25.466 0-45.99 20.691-45.99 46.227v20.595c0 13.128-8.592 17.169-20.597 20.593-0.447 0.117-0.8 0.61-1.266 0.729-18.191 4.906-25.71 20.356-27.637 40.356zM256.99 64.395c7.615 0 13.791 6.195 13.791 13.832 0 7.654-6.176 13.85-13.791 13.85-7.614 0-13.772-6.195-13.772-13.85 0-7.637 6.158-13.832 13.772-13.832z"></path>
<path fill="#000000" d="M405.611 63.5h-74.111v13.988c0 10.583 9.193 19.012 19.507 19.012h37.212c6.667 0 12.099 5.435 12.44 12.195l0.085 327.1c-0.322 6.432-5.303 11.546-11.514 12.017l-264.418 0.031c-6.211-0.471-11.149-5.695-11.472-12.126l-0.085-327.014c0.322-6.761 5.858-12.203 12.506-12.203h37.231c10.313 0 18.507-8.429 18.507-19.012v-13.988h-73.131c-15.118 0-27.868 12.558-27.868 28.075v360.38c0 15.502 12.75 28.545 27.869 28.545h297.242c15.138 0 26.889-13.043 26.889-28.545v-360.38c0-15.517-11.751-28.075-26.889-28.075z"></path>
<path fill="#000000" d="M144.5 192.5h112v32h-112v-32z"></path>
<path fill="#000000" d="M144.5 384.5h160v32h-160v-32z"></path>
<path fill="#000000" d="M144.5 320.5h129v32h-129v-32z"></path>
<path fill="#000000" d="M144.5 256.5h208v32h-208v-32z"></path>
</svg>
