<?xml version="1.0" encoding="utf-8"?>
<!-- Generated by IcoMoon.io -->
<!DOCTYPE svg PUBLIC "-//W3C//DTD SVG 1.1//EN" "http://www.w3.org/Graphics/SVG/1.1/DTD/svg11.dtd">
<svg version="1.1" xmlns="http://www.w3.org/2000/svg" xmlns:xlink="http://www.w3.org/1999/xlink" width="512" height="512" viewBox="0 0 512 512">
<path d="M255.988 32c-123.703 0-223.988 100.298-223.988 224 0 123.715 100.285 224 223.988 224 123.715 0 224.012-100.285 224.012-224 0-123.702-100.297-224-224.012-224zM391.761 391.765c-10.099 10.098-21.126 18.928-32.886 26.42l-15.946-27.62-13.856 8 15.955 27.636c-24.838 13.030-52.372 20.455-81.027 21.624v-31.825h-16v31.825c-28.656-1.166-56.191-8.59-81.030-21.62l15.958-27.641-13.856-8-15.949 27.625c-11.761-7.492-22.79-16.324-32.889-26.424s-18.93-21.127-26.422-32.889l27.624-15.949-8-13.855-27.641 15.958c-13.030-24.839-20.454-52.374-21.621-81.030h31.825v-16h-31.825c1.167-28.655 8.592-56.19 21.623-81.029l27.638 15.958 8-13.856-27.623-15.948c7.492-11.76 16.322-22.787 26.419-32.885 10.1-10.101 21.129-18.933 32.89-26.426l15.949 27.624 13.856-8-15.958-27.64c24.841-13.033 52.376-20.458 81.031-21.623v31.825h16v-31.824c28.654 1.169 56.188 8.595 81.026 21.626l-15.954 27.634 13.856 8 15.945-27.618c11.76 7.492 22.787 16.323 32.886 26.421 10.1 10.099 18.931 21.126 26.424 32.887l-27.619 15.946 8 13.856 27.636-15.956c13.031 24.839 20.457 52.373 21.624 81.027h-31.824v16h31.824c-1.167 28.655-8.592 56.189-21.622 81.028l-27.637-15.957-8 13.856 27.621 15.947c-7.493 11.764-16.325 22.792-26.425 32.892z"></path>
<path d="M400 241h-115.732c-2.818-5.299-7.083-9.708-12.268-12.708v-68.292h-32v68.292c-9.562 5.534-16 15.866-16 27.708 0 17.673 14.327 32 32 32 11.425 0 21.444-5.992 27.106-15h116.894v-32z"></path>
</svg>
