<?xml version="1.0" encoding="utf-8"?>
<!-- Generated by IcoMoon.io -->
<!DOCTYPE svg PUBLIC "-//W3C//DTD SVG 1.1//EN" "http://www.w3.org/Graphics/SVG/1.1/DTD/svg11.dtd">
<svg version="1.1" xmlns="http://www.w3.org/2000/svg" xmlns:xlink="http://www.w3.org/1999/xlink" width="512" height="512" viewBox="0 0 512 512">
<path d="M437.5 386.6l-130.6-130.6 130.6-130.6c14.1-14.1 14.1-36.8 0-50.9s-36.8-14.1-50.9 0l-130.6 130.6-130.6-130.6c-14.1-14.1-36.8-14.1-50.9 0s-14.1 36.8 0 50.9l130.6 130.6-130.6 130.6c-14.1 14.1-14.1 36.8 0 50.9s36.8 14.1 50.9 0l130.6-130.6 130.6 130.6c14.1 14.1 36.8 14.1 50.9 0 14-14.1 14-36.9 0-50.9z"></path>
</svg>
