<?xml version="1.0" encoding="utf-8"?>
<!-- Generated by IcoMoon.io -->
<!DOCTYPE svg PUBLIC "-//W3C//DTD SVG 1.1//EN" "http://www.w3.org/Graphics/SVG/1.1/DTD/svg11.dtd">
<svg version="1.1" xmlns="http://www.w3.org/2000/svg" xmlns:xlink="http://www.w3.org/1999/xlink" width="512" height="512" viewBox="0 0 512 512">
<path d="M256 33c-123.7 0-224 100.3-224 224s100.3 224 224 224c123.7 0 224-100.3 224-224s-100.3-224-224-224zM364.3 332.5c1.5 1.5 2.3 3.5 2.3 5.6s-0.8 4.2-2.3 5.6l-21.6 21.7c-1.6 1.6-3.6 2.3-5.6 2.3s-4.1-0.8-5.6-2.3l-75.5-75.6-75.4 75.7c-1.5 1.6-3.6 2.3-5.6 2.3s-4.1-0.8-5.6-2.3l-21.6-21.7c-1.5-1.5-2.3-3.5-2.3-5.6s0.8-4.2 2.3-5.6l75.7-76-75.9-75c-3.1-3.1-3.1-8.2 0-11.3l21.6-21.7c1.5-1.5 3.5-2.3 5.6-2.3s4.1 0.8 5.6 2.3l75.7 74.7 75.7-74.7c1.5-1.5 3.5-2.3 5.6-2.3s4.1 0.8 5.6 2.3l21.6 21.7c3.1 3.1 3.1 8.2 0 11.3l-75.9 75 75.6 75.9z"></path>
</svg>
