<?xml version="1.0" encoding="utf-8"?>
<!-- Generated by IcoMoon.io -->
<!DOCTYPE svg PUBLIC "-//W3C//DTD SVG 1.1//EN" "http://www.w3.org/Graphics/SVG/1.1/DTD/svg11.dtd">
<svg version="1.1" xmlns="http://www.w3.org/2000/svg" xmlns:xlink="http://www.w3.org/1999/xlink" width="512" height="512" viewBox="0 0 512 512">
<path fill="#000000" d="M0 64v384h512v-384h-512zM464 255.825c0.045 26.724-1.547 47.143-3.797 80.223s-19.203 56.452-59.106 60.12c-39.896 3.667-95.728 3.952-145.097 3.832-49 0.12-105.198-0.165-145.094-3.832-39.903-3.668-56.855-27.040-59.105-60.12s-3.841-53.499-3.796-80.223c-0.045-26.725 0.095-44.124 3.798-80.224s23.010-56.267 59.106-59.934 90.933-3.667 137.795-3.667c2.431 0 5.296 0 7.296 0 2.437 0 4.871 0 7.302 0 46.862 0 101.698 0 137.795 3.667s55.403 23.833 59.106 59.934 3.842 53.499 3.797 80.224z"></path>
<path fill="#000000" d="M372 283.846v0.766c0 18.639-11.581 29.566-27.003 29.566-15.418 0-25.808-12.309-27.284-29.566 0 0-1.335-9.078-1.335-27.298s1.546-29.759 1.546-29.759c2.711-19.473 12.188-29.566 27.607-29.566 15.367 0 27.584 13.262 27.584 33.388 0.023 0.086 0.010 0.624 0.010 0.624h51.541c0-25-6.309-47.556-18.92-61.746-12.617-14.183-31.403-21.273-56.369-21.273-12.483 0-23.93 1.654-34.33 4.942-10.404 3.295-19.376 9.062-26.916 17.291-7.545 8.234-13.397 19.254-17.555 33.059-4.162 13.809-6.242 31.224-6.242 52.247 0 20.52 1.688 37.684 5.072 51.488 3.377 13.811 8.388 24.83 15.018 33.059 6.632 8.234 14.953 13.935 24.967 17.1 10.010 3.163 21.779 4.748 35.304 4.748 28.604 0 49.089-7.258 61.443-21.318 12.348-14.061 18.528-34.598 18.528-61.598h-52.666c0 0 0 2.876 0 3.846z"></path>
<path fill="#000000" d="M195 283.846v0.766c0 18.639-11.581 29.566-27.003 29.566-15.418 0-25.808-12.309-27.284-29.566 0 0-1.335-9.078-1.335-27.298s1.546-29.759 1.546-29.759c2.711-19.473 12.188-29.566 27.607-29.566 15.367 0 27.584 13.262 27.584 33.388 0.023 0.086 0.010 0.624 0.010 0.624h51.541c0-25-6.309-47.556-18.92-61.746-12.617-14.183-31.403-21.273-56.369-21.273-12.483 0-23.93 1.654-34.33 4.942-10.404 3.295-19.376 9.062-26.916 17.291-7.545 8.234-13.397 19.254-17.555 33.059-4.162 13.809-6.242 31.224-6.242 52.247 0 20.52 1.688 37.684 5.072 51.488 3.377 13.811 8.388 24.83 15.018 33.059 6.632 8.234 14.953 13.935 24.967 17.1 10.010 3.163 21.779 4.748 35.304 4.748 28.604 0 49.089-7.258 61.443-21.318 12.348-14.061 18.528-34.598 18.528-61.598h-52.666c0 0 0 2.876 0 3.846z"></path>
</svg>
