<?xml version="1.0" encoding="utf-8"?>
<!-- Generated by IcoMoon.io -->
<!DOCTYPE svg PUBLIC "-//W3C//DTD SVG 1.1//EN" "http://www.w3.org/Graphics/SVG/1.1/DTD/svg11.dtd">
<svg version="1.1" xmlns="http://www.w3.org/2000/svg" xmlns:xlink="http://www.w3.org/1999/xlink" width="512" height="512" viewBox="0 0 512 512">
<path fill="#000000" d="M330.967 284.104c6.48-6.467 6.48-16.951 0-23.422-6.48-6.467-17.342-6.467-23.823 0l-35.144 34.75v-118.852c0-9.151-6.839-16.56-15.999-16.56-9.162 0-16.001 7.408-16.001 16.56v118.852l-35.005-34.75c-6.481-6.467-17.095-6.467-23.573 0-6.482 6.471-6.539 16.955-0.057 23.422l63.070 63.023c0.020 0.020 0.028 0.037 0.050 0.057 0.725 0.716 1.513 1.367 2.368 1.945 0.102 0.067 0.2 0.134 0.302 0.2 0.322 0.206 0.651 0.403 0.99 0.587 0.117 0.064 0.231 0.133 0.35 0.193 0.421 0.218 0.849 0.423 1.292 0.605 0.002 0.001 0.004 0.001 0.006 0.002 0.405 0.167 0.817 0.308 1.233 0.442 0.112 0.037 0.222 0.085 0.335 0.118 0.151 0.047 0.307 0.074 0.461 0.115 1.424 0.385 2.872 0.588 4.315 0.588s2.89-0.203 4.312-0.588c0.153-0.041 0.312-0.068 0.464-0.115 0.113-0.033 0.224-0.081 0.335-0.118 0.416-0.135 0.829-0.275 1.233-0.442 0.002-0.001 0.004-0.001 0.007-0.002 0.441-0.183 0.87-0.387 1.289-0.604 0.122-0.064 0.24-0.133 0.36-0.198 0.332-0.185 0.658-0.376 0.975-0.579 0.109-0.069 0.217-0.14 0.323-0.212 0.408-0.274 0.806-0.562 1.184-0.872 0.004-0.002 0.007-0.004 0.011-0.006 0.406-0.332 0.791-0.684 1.162-1.051 0.024-0.022 0.051-0.043 0.074-0.066l63.101-63.022z"></path>
<path fill="#000000" d="M168 392c-6.143 0-12.285-2.344-16.971-7.029l-112-112c-9.373-9.373-9.373-24.569 0-33.941l112-112c9.373-9.372 24.568-9.372 33.941 0 9.371 9.372 9.371 24.568 0 33.941l-95.029 95.029 95.029 95.029c9.371 9.372 9.371 24.568 0 33.941-4.687 4.686-10.827 7.030-16.97 7.030z"></path>
<path fill="#000000" d="M344 392c6.143 0 12.285-2.344 16.971-7.029l112-112c9.373-9.373 9.373-24.569 0-33.941l-112-112c-9.373-9.372-24.568-9.372-33.941 0-9.371 9.372-9.371 24.568 0 33.941l95.029 95.029-95.029 95.029c-9.371 9.372-9.371 24.568 0 33.941 4.687 4.686 10.827 7.030 16.97 7.030z"></path>
</svg>
