<?xml version="1.0" encoding="utf-8"?>
<!-- Generated by IcoMoon.io -->
<!DOCTYPE svg PUBLIC "-//W3C//DTD SVG 1.1//EN" "http://www.w3.org/Graphics/SVG/1.1/DTD/svg11.dtd">
<svg version="1.1" xmlns="http://www.w3.org/2000/svg" xmlns:xlink="http://www.w3.org/1999/xlink" width="512" height="512" viewBox="0 0 512 512">
<path d="M168 392c-6.143 0-12.285-2.344-16.971-7.029l-112-112c-9.373-9.373-9.373-24.569 0-33.941l112-112c9.373-9.372 24.568-9.372 33.941 0 9.371 9.372 9.371 24.568 0 33.941l-95.029 95.029 95.029 95.029c9.371 9.373 9.371 24.568 0 33.941-4.687 4.686-10.827 7.030-16.97 7.030z"></path>
<path d="M344 392c6.143 0 12.285-2.344 16.971-7.029l112-112c9.373-9.373 9.373-24.569 0-33.941l-112-112c-9.373-9.372-24.568-9.372-33.941 0-9.371 9.372-9.371 24.568 0 33.941l95.029 95.029-95.029 95.029c-9.371 9.373-9.371 24.568 0 33.941 4.687 4.686 10.827 7.030 16.97 7.030z"></path>
</svg>
