<?xml version="1.0" encoding="utf-8"?>
<!-- Generated by IcoMoon.io -->
<!DOCTYPE svg PUBLIC "-//W3C//DTD SVG 1.1//EN" "http://www.w3.org/Graphics/SVG/1.1/DTD/svg11.dtd">
<svg version="1.1" xmlns="http://www.w3.org/2000/svg" xmlns:xlink="http://www.w3.org/1999/xlink" width="512" height="512" viewBox="0 0 512 512">
<path fill="#000000" d="M256 32c-39 0-75.6 10-107.5 27.4-11.6-16.5-30.8-27.4-52.5-27.4-35.3 0-64 28.7-64 64 0 21.7 10.9 40.9 27.4 52.5-17.4 31.9-27.4 68.5-27.4 107.5 0 123.7 100.3 224 224 224s224-100.3 224-224c0-123.7-100.3-224-224-224zM64 96c0-17.7 14.3-32 32-32 10.5 0 19.8 5 25.6 12.8-17 12.7-32.1 27.8-44.8 44.8-7.8-5.8-12.8-15.1-12.8-25.6zM391.8 391.8c-36.3 36.2-84.5 56.2-135.8 56.2s-99.5-20-135.8-56.2c-36.2-36.3-56.2-84.5-56.2-135.8s20-99.5 56.2-135.8c36.3-36.2 84.5-56.2 135.8-56.2s99.5 20 135.8 56.2c36.2 36.3 56.2 84.5 56.2 135.8s-20 99.5-56.2 135.8z"></path>
<path fill="#000000" d="M352 128c0 0-101.6 83.7-120 104s-72 152-72 152 102.4-82.3 120-104 72-152 72-152z"></path>
</svg>
