<?xml version="1.0" encoding="utf-8"?>
<!-- Generated by IcoMoon.io -->
<!DOCTYPE svg PUBLIC "-//W3C//DTD SVG 1.1//EN" "http://www.w3.org/Graphics/SVG/1.1/DTD/svg11.dtd">
<svg version="1.1" xmlns="http://www.w3.org/2000/svg" xmlns:xlink="http://www.w3.org/1999/xlink" width="512" height="512" viewBox="0 0 512 512">
<path fill="#000000" d="M467.301 168.084c-1.805 0-3.516 0.329-5.070 0.962l-2.281 1.15-175.363 90.934c0 0-0.052 0.023-0.052 0.047-7.56 4.668-12.535 12.506-12.535 21.425v185.854c0 6.382 5.649 11.544 12.69 11.544 2.178 0 4.251-0.513 6.065-1.404 0.155-0.095 0.363-0.188 0.519-0.282l174.99-92.835c8.241-4.504 13.735-12.742 13.735-22.105v-183.792c0.001-6.359-5.7-11.498-12.698-11.498z"></path>
<path fill="#000000" d="M454.273 118.521l-181.7-81.731c0 0-10.659-4.79-16.577-4.79s-16.526 4.79-16.526 4.79l-181.856 81.731c0 0-7.989 3.292-7.989 9.479 0 6.562 8.3 11.5 8.3 11.5l185.484 97.85c3.784 1.687 8.077 2.649 12.587 2.649 4.561 0 8.915-0.963 12.742-2.696l2.539-1.315 182.893-96.536c0 0 7.508-4.036 7.508-11.453 0-6.499-7.405-9.478-7.405-9.478z"></path>
<path fill="#000000" d="M227.466 261.178l-3.992-2.043-173.712-90.088c-1.495-0.634-3.258-0.962-5.071-0.962-6.997 0-12.69 5.138-12.69 11.497v183.792c0 9.388 5.485 17.602 13.727 22.105l0.208 0.141 174.739 92.694c1.918 1.080 4.199 1.687 6.636 1.687 6.989 0 12.69-5.162 12.69-11.544v-185.854c-0.001-8.919-4.977-16.757-12.535-21.425z"></path>
</svg>
