<?xml version="1.0" encoding="utf-8"?>
<!-- Generated by IcoMoon.io -->
<!DOCTYPE svg PUBLIC "-//W3C//DTD SVG 1.1//EN" "http://www.w3.org/Graphics/SVG/1.1/DTD/svg11.dtd">
<svg version="1.1" xmlns="http://www.w3.org/2000/svg" xmlns:xlink="http://www.w3.org/1999/xlink" width="512" height="512" viewBox="0 0 512 512">
<path fill="#000000" d="M256 158.9c-53.7 0-97.2 43.5-97.2 97.2s43.5 97.1 97.2 97.1c53.7 0 97.2-43.5 97.2-97.1 0-53.7-43.5-97.2-97.2-97.2zM256 299.5c-24 0-43.5-19.5-43.5-43.5s19.5-43.5 43.5-43.5c24 0 43.5 19.5 43.5 43.5s-19.5 43.5-43.5 43.5z"></path>
<path fill="#000000" d="M256 32c-123.7 0-224 100.3-224 224s100.3 224 224 224 224-100.3 224-224c0-123.7-100.3-224-224-224zM256 378.8c-67.8 0-122.8-55-122.8-122.8s55-122.8 122.8-122.8c67.8 0 122.8 55 122.8 122.8s-55 122.8-122.8 122.8z"></path>
</svg>
