<?xml version="1.0" encoding="utf-8"?>
<!-- Generated by IcoMoon.io -->
<!DOCTYPE svg PUBLIC "-//W3C//DTD SVG 1.1//EN" "http://www.w3.org/Graphics/SVG/1.1/DTD/svg11.dtd">
<svg version="1.1" xmlns="http://www.w3.org/2000/svg" xmlns:xlink="http://www.w3.org/1999/xlink" width="512" height="512" viewBox="0 0 512 512">
<path fill="#000000" d="M399.3 168.9c-0.7-2.9-2-5-3.5-6.8l-83.7-91.7c-1.9-2.1-4.1-3.1-6.6-4.4-2.9-1.5-6.1-1.6-9.4-1.6h-159.9c-12.4 0-23.7 9.6-23.7 22.9v335.2c0 13.4 11.3 25.9 23.7 25.9h243.1c12.4 0 21.2-12.5 21.2-25.9v-244.1c0-3.6-0.4-6.2-1.2-9.5zM305.5 111l58 63.5h-58v-63.5zM144.5 416.5v-320h129v81.7c0 14.8 13.4 28.3 28.1 28.3h66.9v210h-224z"></path>
</svg>
