<?xml version="1.0" encoding="utf-8"?>
<!-- Generated by IcoMoon.io -->
<!DOCTYPE svg PUBLIC "-//W3C//DTD SVG 1.1//EN" "http://www.w3.org/Graphics/SVG/1.1/DTD/svg11.dtd">
<svg version="1.1" xmlns="http://www.w3.org/2000/svg" xmlns:xlink="http://www.w3.org/1999/xlink" width="512" height="512" viewBox="0 0 512 512">
<path d="M80 144h352v192h-352v-192z"></path>
<path d="M464 96h-416c-8.837 0-16 7.163-16 16v256c0 8.837 6.932 16 15.768 16h416.232c8.837 0 16-7.163 16-16v-256c0-8.837-7.163-16-16-16zM448 352h-384v-224h384v224z"></path>
<path d="M80 480h32l28.147-80h-31.312z"></path>
<path d="M270.83 32h-29.358l-17.301 48h63.928z"></path>
<path d="M371.853 400l28.147 80h32l-28.78-80z"></path>
<path d="M240 400h32v48h-32v-48z"></path>
</svg>
