<?xml version="1.0" encoding="utf-8"?>
<!-- Generated by IcoMoon.io -->
<!DOCTYPE svg PUBLIC "-//W3C//DTD SVG 1.1//EN" "http://www.w3.org/Graphics/SVG/1.1/DTD/svg11.dtd">
<svg version="1.1" xmlns="http://www.w3.org/2000/svg" xmlns:xlink="http://www.w3.org/1999/xlink" width="512" height="512" viewBox="0 0 512 512">
<path fill="#000000" d="M399 320v0c10 0 16.8-7.1 16.8-15.9 0-3.3-1.1-6.1-2.8-9l-137.7-190.4c-4.6-5.3-11.5-8.7-19.3-8.7-7.7 0-14.6 3.4-19.2 8.7l-138 190.8c-1.7 2.6-2.6 5.5-2.6 8.7 0 8.7 6.8 15.8 16.8 15.8v0h286z"></path>
<path fill="#000000" d="M403.7 352h-295.3c-6.8 0-12.4 5.4-12.4 12.2v39.6c0 6.7 5.5 12.2 12.4 12.2h295.3c6.8 0 12.3-5.5 12.3-12.2v-39.6c0-6.8-5.5-12.2-12.3-12.2z"></path>
</svg>
