<?xml version="1.0" encoding="utf-8"?>
<!-- Generated by IcoMoon.io -->
<!DOCTYPE svg PUBLIC "-//W3C//DTD SVG 1.1//EN" "http://www.w3.org/Graphics/SVG/1.1/DTD/svg11.dtd">
<svg version="1.1" xmlns="http://www.w3.org/2000/svg" xmlns:xlink="http://www.w3.org/1999/xlink" width="512" height="512" viewBox="0 0 512 512">
<path d="M496 160c0 35.346-28.654 64-64 64s-64-28.654-64-64c0-35.346 28.654-64 64-64s64 28.654 64 64z"></path>
<path d="M225 160h-191.201c-11.1 0-13.898 3-11.299 10.5 1.5 4.4 8.4 8.1 12.5 10.2 11 5.8 163.799 89.1 169.5 92.1 5.699 3 11.5 4.4 20.5 4.4s14.799-1.4 20.5-4.4c3.79-1.995 72.625-39.497 121.559-66.107-9.465-13.142-15.059-29.26-15.059-46.693h-127z"></path>
<path d="M293.199 273.3l82.201 92.5c2 2 2.898 4.4 1.799 5.601-1.199 1.1-3.799 0.5-5.9-1.4l-98.6-83.2c-14.9 9.601-25.4 16.2-27.199 17.2-7.701 3.9-13.1 4.4-20.5 4.4s-12.801-0.5-20.5-4.4c-1.9-1-12.301-7.6-27.201-17.2l-98.6 83.2c-2 2-4.699 2.6-5.9 1.4-1.199-1.101-0.299-3.601 1.701-5.601l82.1-92.5c-48.7-31.5-123.1-83.9-131.301-88.1-8.799-4.5-9.299 0.8-9.299 4.9 0 4.101 0 205 0 205 0 9.3 13.699 20.9 23.5 20.9h371c9.799 0 21.5-11.7 21.5-20.9 0 0 0-94.398 0-155.1-21.726 0-41.416-8.673-55.832-22.729-26.001 17.902-57.808 39.754-82.969 56.029z"></path>
</svg>
