<?xml version="1.0" encoding="utf-8"?>
<!-- Generated by IcoMoon.io -->
<!DOCTYPE svg PUBLIC "-//W3C//DTD SVG 1.1//EN" "http://www.w3.org/Graphics/SVG/1.1/DTD/svg11.dtd">
<svg version="1.1" xmlns="http://www.w3.org/2000/svg" xmlns:xlink="http://www.w3.org/1999/xlink" width="512" height="512" viewBox="0 0 512 512">
<path fill="#000000" d="M376.4 158.3l71.6-71.7-22.6-22.6-77.6 77.6c-27.8-13.9-58.3-22.6-91.8-22.6-81.9 0-145.7 52.2-224 137 34.8 37.4 66.8 72.7 103.3 98.1l-71.3 71.3 22.6 22.6 76.9-76.9c27 13.7 57 21.9 92.5 21.9 99.9 0 173.4-81.8 224-135.5-28-34.1-62.4-71.8-103.6-99.2zM166.4 256c0-50.4 40.2-91.3 89.6-91.3 19.3 0 37.2 6.2 51.8 16.9l-50.7 50.7c-0.7-2.6-1.1-5.4-1.1-8.3 0-7.9 2.9-15.1 7.6-20.7-2.5-0.4-5-0.6-7.6-0.6-28.8 0-52.3 23.9-52.3 53.3 0 8.6 2 16.8 5.6 24l-27.3 27.4c-9.8-14.7-15.6-32.4-15.6-51.4zM256 347.3c-19.3 0-37.2-6.2-51.8-16.9l27.4-27.4c7.3 4 15.6 6.2 24.4 6.2 28.8 0 52.3-23.9 52.3-53.3 0-2.3-0.2-4.6-0.4-6.9-5.5 4.3-12.3 6.9-19.8 6.9-2.9 0-5.6-0.4-8.3-1.1l50.3-50.3c9.8 14.6 15.6 32.3 15.6 51.4-0.1 50.5-40.3 91.4-89.7 91.4z"></path>
</svg>
