<?xml version="1.0" encoding="utf-8"?>
<!-- Generated by IcoMoon.io -->
<!DOCTYPE svg PUBLIC "-//W3C//DTD SVG 1.1//EN" "http://www.w3.org/Graphics/SVG/1.1/DTD/svg11.dtd">
<svg version="1.1" xmlns="http://www.w3.org/2000/svg" xmlns:xlink="http://www.w3.org/1999/xlink" width="512" height="512" viewBox="0 0 512 512">
<path fill="#000000" d="M256 128c-81.9 0-145.7 48.8-224 128 67.4 67.7 124 128 224 128 99.9 0 173.4-76.4 224-126.6-51.8-58.8-125.2-129.4-224-129.4zM256 347.3c-49.4 0-89.6-41-89.6-91.3 0-50.4 40.2-91.3 89.6-91.3s89.6 41 89.6 91.3c0 50.4-40.2 91.3-89.6 91.3z"></path>
<path fill="#000000" d="M256 224c0-7.9 2.9-15.1 7.6-20.7-2.5-0.4-5-0.6-7.6-0.6-28.8 0-52.3 23.9-52.3 53.3s23.5 53.3 52.3 53.3 52.3-23.9 52.3-53.3c0-2.3-0.2-4.6-0.4-6.9-5.5 4.3-12.3 6.9-19.8 6.9-17.8 0-32.1-14.3-32.1-32z"></path>
</svg>
