<?xml version="1.0" encoding="utf-8"?>
<!-- Generated by IcoMoon.io -->
<!DOCTYPE svg PUBLIC "-//W3C//DTD SVG 1.1//EN" "http://www.w3.org/Graphics/SVG/1.1/DTD/svg11.dtd">
<svg version="1.1" xmlns="http://www.w3.org/2000/svg" xmlns:xlink="http://www.w3.org/1999/xlink" width="512" height="512" viewBox="0 0 512 512">
<path fill="#000000" d="M381 128.6h-248.9c-12.1 0-19.5 0-19.5 20.4v28.1h288v-28.1c0-20.4-7.4-20.4-19.6-20.4z"></path>
<path fill="#000000" d="M333 96.5h-153c-13.1 0-19.5 0.3-19.5 18.7h192c-0.1-18.4-6.4-18.7-19.5-18.7z"></path>
<path fill="#000000" d="M432.4 169.6l-15.9-9.4v32.3h-321v-32.3l-15.2 9.4c-14.3 8.9-17.8 15.3-15 40.9l17.5 184.8c3.7 20.7 15.9 21.2 24 21.2h299.9c8.1 0 20.2-0.5 23.9-21.2l17.2-184.4c2.3-24.4-2-32.8-15.4-41.3z"></path>
</svg>
