<?xml version="1.0" encoding="utf-8"?>
<!-- Generated by IcoMoon.io -->
<!DOCTYPE svg PUBLIC "-//W3C//DTD SVG 1.1//EN" "http://www.w3.org/Graphics/SVG/1.1/DTD/svg11.dtd">
<svg version="1.1" xmlns="http://www.w3.org/2000/svg" xmlns:xlink="http://www.w3.org/1999/xlink" width="512" height="512" viewBox="0 0 512 512">
<path d="M393.267 238.088l-0.231 10.404c-0.814 11.65-3.797 31.912-14.102 54.736 3.251-15.208 4.978-30.982 4.978-47.164 0-12.096-0.958-23.968-2.799-35.544-15.091-94.901-89.626-169.923-184.138-185.518-11.269-2.717-17.927-3.002-17.927-3.002 0.238 0.281 0.465 0.562 0.7 0.844 39.458 47.181 44.1 96.656 37.744 131.85-2.281 12.629-5.978 23.421-9.991 31.605 0 0 3.359-13.911 3.035-29.72-0.293-14.234-3.572-30.006-14.986-38.552 3.497 18.378-0.752 33.501-9.121 47.729-24.739 42.052-85.429 73.63-90.429 151.652v3.836c0 53.692 25.624 98.979 68.719 125.012-6.85-12.344-14.964-35.207-8.733-60.151 3.998 23.669 9.951 36.045 20.879 51.756 8.153 11.721 19.104 19.269 33.095 24.934s29.035 7.205 45.929 7.205c55.809 0 105.228-28.567 133.845-71.952l0.267 0.061v-0.007c16-25.254 26.1-55.5 26.1-88.019-0.001-29.971-8.505-58.012-22.834-81.995z"></path>
</svg>
