<?xml version="1.0" encoding="utf-8"?>
<!-- Generated by IcoMoon.io -->
<!DOCTYPE svg PUBLIC "-//W3C//DTD SVG 1.1//EN" "http://www.w3.org/Graphics/SVG/1.1/DTD/svg11.dtd">
<svg version="1.1" xmlns="http://www.w3.org/2000/svg" xmlns:xlink="http://www.w3.org/1999/xlink" width="512" height="512" viewBox="0 0 512 512">
<path d="M426.4 182.5c-35.8 5.9-94.2 7.5-133-66.1-41.6-79.1-108.8-81.5-148.1-74.3-19.1 3.5-33.4 19.5-33.4 35v196.6c11.3 4.3 23.4-0.2 26.5-0.8 0.8-0.2 1.5-0.3 2.4-0.5 25-5.5 51.4-8.1 116.8 23.3 82 39.3 153.8-33.1 181.6-83.5 2-3.5 8.7-20.2 8.7-36.2-9.7 4-21.5 6.5-21.5 6.5z"></path>
<path d="M88 32h-16c-4.4 0-8 3.6-8 8v432c0 4.4 3.6 8 8 8h16c4.4 0 8-3.6 8-8v-432c0-4.4-3.6-8-8-8z"></path>
</svg>
