<?xml version="1.0" encoding="utf-8"?>
<!-- Generated by IcoMoon.io -->
<!DOCTYPE svg PUBLIC "-//W3C//DTD SVG 1.1//EN" "http://www.w3.org/Graphics/SVG/1.1/DTD/svg11.dtd">
<svg version="1.1" xmlns="http://www.w3.org/2000/svg" xmlns:xlink="http://www.w3.org/1999/xlink" width="512" height="512" viewBox="0 0 512 512">
<path fill="#000000" d="M147.4 451.9c0.4 0.2 0.7 0.5 1.1 0.7 10.9 6 22.5 10.7 34.4 14.8 1.8 0.6 3.6 1.2 5.4 1.8 21.4 6.8 44 10.9 67.7 10.9 123.7 0 224-100.3 224-224 0-84.3-46.6-157.7-115.5-195.9-0.4-0.2-0.7-0.4-1-0.6-10.9-6-22.5-10.7-34.4-14.8-1.8-0.6-3.6-1.2-5.4-1.8-21.4-6.9-44.1-11-67.7-11-123.7 0-224 100.3-224 224 0 84.3 46.6 157.6 115.4 195.9zM118.2 156.6l54.4 54.4 36.3-40.5-52.4-52.4c28-20.2 62.1-32.6 99.4-32.6 9.3 0 18.3 0.9 27.2 2.4 9.8 1.6 19.3 4.1 28.5 7.3 1.8 0.6 3.7 1.2 5.6 1.9 6.2 2.4 12.2 5 18 8.1 54.2 28.5 91.2 85.3 91.2 150.8 0 37.2-12.4 71.3-32.7 99.4l-54.4-54.4-36.3 40.4 52.4 52.4c-28 20.3-62.2 32.7-99.4 32.7-9.3 0-18.4-0.9-27.2-2.4-9.8-1.6-19.3-4.1-28.5-7.3-1.9-0.6-3.8-1.2-5.6-1.9-6.5-2.5-12.9-5.3-19-8.6-53.6-28.7-90.1-85.2-90.1-150.3 0-37.2 12.4-71.3 32.6-99.4z"></path>
<path fill="#000000" d="M209.7 389.8l139.2-154.8h-85.3l38.6-112.8-139.1 154.8h85.3z"></path>
</svg>
