<?xml version="1.0" encoding="utf-8"?>
<!-- Generated by IcoMoon.io -->
<!DOCTYPE svg PUBLIC "-//W3C//DTD SVG 1.1//EN" "http://www.w3.org/Graphics/SVG/1.1/DTD/svg11.dtd">
<svg version="1.1" xmlns="http://www.w3.org/2000/svg" xmlns:xlink="http://www.w3.org/1999/xlink" width="512" height="512" viewBox="0 0 512 512">
<path d="M430.1 192h-348.2c-17.7 0-18.6 9.2-17.6 20.5l13 183c0.9 11.2 3.5 20.5 21.1 20.5h316.2c18 0 20.1-9.2 21.1-20.5l12.1-185.3c0.9-11.2 0-18.2-17.7-18.2z"></path>
<path d="M426.2 143.3c-0.5-12.4-4.5-15.3-15.1-15.3 0 0-121.4 0-143.2 0s-24.4 0.3-40.9-17.4c-13.7-14.8-8.3-14.6-36.6-14.6-22.6 0-75.3 0-75.3 0-17.4 0-23.6-1.5-25.2 16.6-1.5 16.7-5 57.2-5.5 63.4h343.4l-1.6-32.7z"></path>
</svg>
