<?xml version="1.0" encoding="utf-8"?>
<!-- Generated by IcoMoon.io -->
<!DOCTYPE svg PUBLIC "-//W3C//DTD SVG 1.1//EN" "http://www.w3.org/Graphics/SVG/1.1/DTD/svg11.dtd">
<svg version="1.1" xmlns="http://www.w3.org/2000/svg" xmlns:xlink="http://www.w3.org/1999/xlink" width="512" height="512" viewBox="0 0 512 512">
<path fill="#000000" d="M270.2 148.9c0 0.1-0.1 0.1 0 0v0z"></path>
<path fill="#000000" d="M320 166c0-43.2-15-93.2-24-133.7v-0.3h-8l-0.2 116.9c0 6.1-2.9 11.1-9 11.1-5.7 0-8-4.3-8.6-9.9-0.1-0.4 0-0.8 0-1.2l-10.3-116.9h-8l-9 117-0.1 1.1c-0.6 5.6-3.7 9.9-9.5 9.9-6.1 0-9.1-5-9.1-11.1l-0.4-116.9h-8c-8.8 41-23.8 90.9-23.8 134.1 0 25.7 14.6 48.1 36.7 58.2 11.2 5.1 11.3 10.3 11.3 10.3s-16 201.7-16 213.1c0 11.4 4 18.5 9.5 24s14.2 8.2 22.4 8.2c0.1 0 0.1 0 0.2 0s0.1 0 0.2 0c8.2 0 16.8-2.7 22.4-8.2 5.5-5.5 9.3-10.9 9.3-24s-16-213.1-16-213.1-1-5 11.4-10.6c21.6-9.8 36.6-32.2 36.6-58z"></path>
</svg>
