<?xml version="1.0" encoding="utf-8"?>
<!-- Generated by IcoMoon.io -->
<!DOCTYPE svg PUBLIC "-//W3C//DTD SVG 1.1//EN" "http://www.w3.org/Graphics/SVG/1.1/DTD/svg11.dtd">
<svg version="1.1" xmlns="http://www.w3.org/2000/svg" xmlns:xlink="http://www.w3.org/1999/xlink" width="512" height="512" viewBox="0 0 512 512">
<path fill="#000000" d="M256.085 32c-123.79 0-224.096 35.817-224.096 80 0 8.476 3.729 16.642 10.573 24.309l-0.061 0.008c31.907 38.896 149.499 176.683 149.499 215.683v87c0 22.688 28.891 41 64 41s64-18.312 64-41v0-83.088c0-1.241 0.008-2.54 0.008-3.912 0-39 115.992-174.568 150.992-217.938v-0.002c6-7.007 8.977-14.408 8.977-22.060 0-44.183-100.102-80-223.892-80zM256.178 160c-92.058 0-176.112-22-176.112-48s83.053-48 176.112-48c93.060 0 176.111 22.413 176.111 48s-84.053 48-176.111 48z"></path>
</svg>
