<?xml version="1.0" encoding="utf-8"?>
<!-- Generated by IcoMoon.io -->
<!DOCTYPE svg PUBLIC "-//W3C//DTD SVG 1.1//EN" "http://www.w3.org/Graphics/SVG/1.1/DTD/svg11.dtd">
<svg version="1.1" xmlns="http://www.w3.org/2000/svg" xmlns:xlink="http://www.w3.org/1999/xlink" width="512" height="512" viewBox="0 0 512 512">
<path fill="#000000" d="M160 153.3c0 3.7-3 6.7-6.7 6.7h-50.5c-3.7 0-6.7-3-6.7-6.7v-50.5c0-3.7 3-6.7 6.7-6.7h50.5c3.7 0 6.7 3 6.7 6.7v50.5z"></path>
<path fill="#000000" d="M288 153.3c0 3.7-3 6.7-6.7 6.7h-50.5c-3.7 0-6.7-3-6.7-6.7v-50.5c0-3.7 3-6.7 6.7-6.7h50.5c3.7 0 6.7 3 6.7 6.7v50.5z"></path>
<path fill="#000000" d="M416 153.3c0 3.7-3 6.7-6.7 6.7h-50.5c-3.7 0-6.7-3-6.7-6.7v-50.5c0-3.7 3-6.7 6.7-6.7h50.5c3.7 0 6.7 3 6.7 6.7v50.5z"></path>
<path fill="#000000" d="M160 281.3c0 3.7-3 6.7-6.7 6.7h-50.5c-3.7 0-6.7-3-6.7-6.7v-50.5c0-3.7 3-6.7 6.7-6.7h50.5c3.7 0 6.7 3 6.7 6.7v50.5z"></path>
<path fill="#000000" d="M288 281.3c0 3.7-3 6.7-6.7 6.7h-50.5c-3.7 0-6.7-3-6.7-6.7v-50.5c0-3.7 3-6.7 6.7-6.7h50.5c3.7 0 6.7 3 6.7 6.7v50.5z"></path>
<path fill="#000000" d="M416 281.3c0 3.7-3 6.7-6.7 6.7h-50.5c-3.7 0-6.7-3-6.7-6.7v-50.5c0-3.7 3-6.7 6.7-6.7h50.5c3.7 0 6.7 3 6.7 6.7v50.5z"></path>
<path fill="#000000" d="M160 409.3c0 3.7-3 6.7-6.7 6.7h-50.5c-3.7 0-6.7-3-6.7-6.7v-50.5c0-3.7 3-6.7 6.7-6.7h50.5c3.7 0 6.7 3 6.7 6.7v50.5z"></path>
<path fill="#000000" d="M288 409.3c0 3.7-3 6.7-6.7 6.7h-50.5c-3.7 0-6.7-3-6.7-6.7v-50.5c0-3.7 3-6.7 6.7-6.7h50.5c3.7 0 6.7 3 6.7 6.7v50.5z"></path>
<path fill="#000000" d="M416 409.3c0 3.7-3 6.7-6.7 6.7h-50.5c-3.7 0-6.7-3-6.7-6.7v-50.5c0-3.7 3-6.7 6.7-6.7h50.5c3.7 0 6.7 3 6.7 6.7v50.5z"></path>
</svg>
