<?xml version="1.0" encoding="utf-8"?>
<!-- Generated by IcoMoon.io -->
<!DOCTYPE svg PUBLIC "-//W3C//DTD SVG 1.1//EN" "http://www.w3.org/Graphics/SVG/1.1/DTD/svg11.dtd">
<svg version="1.1" xmlns="http://www.w3.org/2000/svg" xmlns:xlink="http://www.w3.org/1999/xlink" width="512" height="512" viewBox="0 0 512 512">
<path fill="#000000" d="M256 32c-123.712 0-224 100.288-224 224s100.288 224 224 224 224-100.288 224-224-100.288-224-224-224zM103.272 253.324c-8.272-5.574-9.249-15.145-3.747-22.207 10.549-13.544 23.725-23.117 44.612-23.117s34.174 9.593 44.655 23.174c5.464 7.076 3.765 17.011-3.787 22.144-2.915 1.975-6.341 2.683-9.922 2.683-5.412 0-10.539-2.119-13.716-6.223-3.398-4.416-7.621-9.777-17.23-9.777-9.561 0-13.818 5.387-17.269 9.821-3.163 4.069-8.274 6.178-13.669 6.179-3.581-0.001-7.013-0.714-9.927-2.677zM394.245 310.945c-23.638 45.774-77.901 73.055-138.241 73.055-61.869 0-117.55-28.235-138.556-73.677-3.663-7.939-0.191-17.383 7.734-21.057 2.137-0.978 4.363-1.463 6.658-1.463 6.163 0 11.818 3.61 14.407 9.199 15.917 34.436 60.023 54.998 109.757 54.998 48.602 0 91.8-20.269 110.053-55.615 2.746-5.301 8.148-8.588 14.104-8.588 2.532 0 5.060 0.621 7.308 1.796 7.732 4.005 10.785 13.591 6.776 21.352zM409.006 253.317c-2.915 1.975-6.341 2.683-9.922 2.683-5.412 0-10.539-2.119-13.717-6.223-3.398-4.416-7.62-9.777-17.23-9.777-9.561 0-13.817 5.387-17.268 9.821-3.163 4.069-8.275 6.178-13.67 6.179-3.581 0-7.014-0.713-9.928-2.676-8.271-5.574-9.248-15.145-3.746-22.207 10.549-13.544 23.725-23.117 44.612-23.117s34.175 9.593 44.656 23.174c5.464 7.076 3.765 17.011-3.787 22.143z"></path>
</svg>
