<?xml version="1.0" encoding="utf-8"?>
<!-- Generated by IcoMoon.io -->
<!DOCTYPE svg PUBLIC "-//W3C//DTD SVG 1.1//EN" "http://www.w3.org/Graphics/SVG/1.1/DTD/svg11.dtd">
<svg version="1.1" xmlns="http://www.w3.org/2000/svg" xmlns:xlink="http://www.w3.org/1999/xlink" width="512" height="512" viewBox="0 0 512 512">
<path d="M256 32c-123.7 0-224 100.3-224 224s100.3 224 224 224c123.7 0 224-100.3 224-224s-100.3-224-224-224zM276.2 358.7c-0.5 17.8-13.7 28.8-30.8 28.3-16.4-0.5-29.3-12.2-28.8-30.1 0.5-17.8 14.1-29.1 30.5-28.6 17.2 0.5 29.7 12.6 29.1 30.4zM324.9 231.4c-4.2 5.9-13.6 13.5-25.4 22.7l-13.1 9c-6.4 4.9-10.4 10.7-12.5 17.3-1.1 3.5-1.9 12.6-2.1 18.7-0.1 1.2-0.8 3.9-4.5 3.9s-35 0-39.1 0c-4.1 0-4.6-2.4-4.5-3.6 0.6-16.6 3-30.3 9.9-41.3 9.3-14.8 35.5-30.4 35.5-30.4 4-3 7.1-6.2 9.5-9.7 4.4-6 8-12.7 8-19.9 0-8.3-2-16.2-7.3-22.8-6.2-7.7-12.9-11.4-25.8-11.4-12.7 0-20.1 6.4-25.4 14.8s-4.4 18.3-4.4 27.3h-48.7c0-34 8.9-55.7 27.7-68.5 12.7-8.7 28.9-12.5 47.8-12.5 24.8 0 44.5 4.6 61.9 17.8 16.1 12.2 24.6 29.4 24.6 52.6 0 14.3-5 26.3-12.1 36z"></path>
</svg>
