<?xml version="1.0" encoding="utf-8"?>
<!-- Generated by IcoMoon.io -->
<!DOCTYPE svg PUBLIC "-//W3C//DTD SVG 1.1//EN" "http://www.w3.org/Graphics/SVG/1.1/DTD/svg11.dtd">
<svg version="1.1" xmlns="http://www.w3.org/2000/svg" xmlns:xlink="http://www.w3.org/1999/xlink" width="512" height="512" viewBox="0 0 512 512">
<path d="M457.6 140.2l-82.5-4-4.8-53.8c-1-11.3-11.1-19.2-22.9-18.3l-296 24.3c-11.8 1-20.3 10.5-19.4 21.7l21.2 235.8c1 11.3 11.2 19.2 22.9 18.3l15-1.2-2.4 45.8c-0.6 12.6 9.2 22.8 22.4 23.5l330.2 15.7c13.2 0.6 24.1-8.6 24.8-21.2l13.9-263.3c0.6-12.5-9.3-22.7-22.4-23.3zM102.6 145.5l-7.1 134.8-17.4 24.7-16-178c0-0.2 0-0.3 0-0.5s0-0.3 0-0.5c0.5-5 4.3-9 9.5-9.4l261-21.4c5.2-0.4 9.7 3 10.5 7.9 0 0.2 0.3 0.2 0.3 0.4 0 0.1 0.3 0.2 0.3 0.4l2.7 30.8-219-10.5c-13.2-0.4-24.2 8.8-24.8 21.3zM436.7 382.4l-46.7-55.3-27.5-32.7c-2.4-2.9-6.3-5.3-10.6-5.5s-7.5 1.5-11.1 4.1l-16.4 11.9c-3.5 2.1-6.2 3.5-9.9 3.3-3.6-0.2-6.8-1.6-9.1-3.8-0.8-0.8-2.3-2.2-3.5-3.4l-42.8-48.9c-3.1-3.9-8.2-6.4-13.8-6.7-5.7-0.3-11.2 2.1-14.8 5.6l-107.9 116.2 0.3-6.8 6.8-128.9 3.3-62.9c0-0.2 0-0.4 0-0.5 0-0.2 0-0.4 0-0.5 1.4-5.4 6.2-9.3 11.9-9l291.2 14c5.8 0.3 10.3 4.7 10.4 10.2 0 0.2 0.3 0.3 0.3 0.5s0.3 0.3 0.3 0.5l-10.4 198.6z"></path>
<path d="M373.2 262.3c19.4 0 35.2-15.8 35.2-35.2s-15.7-35.2-35.2-35.2c-19.4 0-35.2 15.7-35.2 35.2s15.7 35.2 35.2 35.2z"></path>
</svg>
