<?xml version="1.0" encoding="utf-8"?>
<!-- Generated by IcoMoon.io -->
<!DOCTYPE svg PUBLIC "-//W3C//DTD SVG 1.1//EN" "http://www.w3.org/Graphics/SVG/1.1/DTD/svg11.dtd">
<svg version="1.1" xmlns="http://www.w3.org/2000/svg" xmlns:xlink="http://www.w3.org/1999/xlink" width="512" height="512" viewBox="0 0 512 512">
<path d="M310.19 184.432v143.136c0 17.938-14.575 32.514-32.514 32.514h-43.352c-17.939 0-32.514-14.575-32.514-32.514v-143.136c0-17.939 14.575-32.514 32.514-32.514h43.352c17.938 0 32.514 14.575 32.514 32.514zM278.797 182.563v-5.606c0-2.616-0.748-3.737-3.363-3.737h-38.12c-2.616 0-3.363 1.121-3.363 3.737v5.606c0 2.616 0.748 3.363 3.363 3.363h38.12c2.616 0 3.363-0.748 3.363-3.363zM243.293 330.183c0 7.474 5.606 13.081 12.707 13.081 7.474 0 13.081-5.606 13.081-13.081 0-7.101-5.606-12.707-13.081-12.707-6.727 0-12.707 5.606-12.707 12.707z"></path>
</svg>
