<?xml version="1.0" encoding="utf-8"?>
<!-- Generated by IcoMoon.io -->
<!DOCTYPE svg PUBLIC "-//W3C//DTD SVG 1.1//EN" "http://www.w3.org/Graphics/SVG/1.1/DTD/svg11.dtd">
<svg version="1.1" xmlns="http://www.w3.org/2000/svg" xmlns:xlink="http://www.w3.org/1999/xlink" width="512" height="512" viewBox="0 0 512 512">
<path fill="#000000" d="M357.84 192.655c-7.474 3.363-15.697 5.606-23.918 6.727 8.596-5.232 15.322-13.454 18.313-23.171-8.222 4.858-17.191 8.222-26.534 10.090-7.474-8.222-18.686-13.081-30.646-13.081-23.171 0-41.857 18.686-41.857 41.857 0 3.363 0.374 6.353 1.121 9.717-34.756-1.869-65.401-18.313-86.33-43.726-3.737 6.353-5.606 13.454-5.606 20.928 0 14.575 7.475 27.282 18.686 34.756-6.727-0.374-13.454-2.243-19.060-5.232v0.374c0 20.181 14.575 36.999 33.635 41.109-3.363 1.121-7.101 1.495-10.838 1.495-2.616 0-5.232-0.373-7.848-0.748 5.232 16.444 20.928 28.776 39.241 29.151-14.202 11.212-32.514 17.938-51.947 17.938-3.363 0-6.727-0.373-10.090-0.748 18.686 11.959 40.362 18.686 64.28 18.686 76.987 0 118.844-63.906 118.844-118.844 0-1.869 0-3.737 0-5.232 7.848-6.353 14.949-13.828 20.555-22.049z"></path>
</svg>
