<?xml version="1.0" encoding="utf-8"?>
<!-- Generated by IcoMoon.io -->
<!DOCTYPE svg PUBLIC "-//W3C//DTD SVG 1.1//EN" "http://www.w3.org/Graphics/SVG/1.1/DTD/svg11.dtd">
<svg version="1.1" xmlns="http://www.w3.org/2000/svg" xmlns:xlink="http://www.w3.org/1999/xlink" width="512" height="512" viewBox="0 0 512 512">
<path fill="#000000" d="M258.101 56.178c-36.601 0.477-73.746 10.842-106.017 31.444-116.599 74.66-110.144 243.586-13.357 318.609 48.614 37.682 123.028 49.88 189.078 31.861s123.956-67.44 136.348-152.348c12.363-84.406-20.721-133.179-59.269-159.861-20.723-28.785-49.869-49.087-82.644-59.965-20.419-6.778-42.178-10.026-64.139-9.739zM278.692 70.368c13.493 1.284 26.747 4.156 39.374 8.348 19.255 6.391 37.002 16.013 52.313 28.939-32.336-12.982-60.382-14.748-60.382-14.748-0.083-0.004-0.18-0.006-0.279-0.006-3.692 0-6.684 2.993-6.684 6.684 0 3.594 2.836 6.525 6.392 6.678 0.014 0.001 41.918 2.204 80.431 25.461 2.072 1.251 4.075 2.806 6.122 4.174 11.637 16.948 20.060 37.096 24.209 60.522 11.954 66.511-4.58 112.237-32.279 143.444s-67.207 47.766-101.148 53.565c-32.995 5.464-75.608-2.816-109.635-26.991s-59.799-63.689-60.661-122.296c-0.642-58.219 28.887-93.326 62.331-114.782 16.721-10.728 34.475-17.816 49.53-22.121s27.778-5.686 32.974-5.426c0.392 0.016-0.736-1.133-0.139 0.278s1.267 5.237 1.531 10.713c0.526 10.953-0.139 28.601-0.139 53.008 0 24.469 1.053 48.023 0.835 66.504-0.046 3.875-0.514 6.361-0.695 9.739-5.036 0.044-10.838-0.158-14.052 0.556-0.020 0-0.045-0-0.070-0s-0.049 0-0.073 0c-7.678 1.773-13.178 6.98-15.44 12.939s-1.744 12.417 0.696 17.809c2.44 5.391 7.344 10.19 14.052 11.13 6.678 0.936 13.655-2.452 19.895-9.043l0.139 0.139c0.029-0.030-0.028-0.11 0-0.139 4.339-4.575 6.060-10.542 7.235-17.67 0.123-0.748 0.031-1.867 0.139-2.643 9.295 0.129 19.771 0.445 30.331 0.835 24.026 0.888 46.608 2.087 46.608 2.087 0.104 0.006 0.226 0.009 0.348 0.009 3.693 0 6.688-2.994 6.688-6.688 0-3.571-2.799-6.488-6.322-6.678-0.017-0-22.735-1.195-46.904-2.088-10.344-0.382-20.483-0.697-29.774-0.835 0.15-3.216 0.515-5.8 0.557-9.322 0.226-19.139-0.835-42.584-0.835-66.644 0-24.121 0.726-41.506 0.139-53.704-0.293-6.099-0.68-10.845-2.505-15.165-1.808-4.282-6.643-8.218-11.548-8.487-0.043-0.002-0.096 0.002-0.139 0-8.167-0.388-21.233 1.391-37.287 5.983-16.125 4.612-34.947 12.064-53.008 23.652-36.123 23.176-69.145 63.312-68.452 126.192 0.919 62.493 29.268 106.652 66.365 133.009s82.608 35.468 119.513 29.356c36.404-6.221 78.647-23.888 108.939-58.017s48.010-84.848 35.478-154.574c-2.15-12.142-5.798-23.211-10.017-33.809 22.053 25.965 36.209 64.413 27.548 123.548-11.649 79.822-64.548 124.426-126.608 141.356s-133.094 4.948-177.53-29.495c-89.313-69.228-96.16-227.174 12.522-296.765 36.071-23.028 78.893-32.374 119.374-28.522zM261.857 255.273c-0.012 0.072 0.012 0.207 0 0.279-0.988 5.987-2.817 9.734-3.757 10.713 0 0.021-0 0.045-0 0.070s0 0.049 0 0.074c-4.424 4.697-7.154 5.053-8.487 4.866s-2.746-1.245-3.756-3.478c-1.011-2.233-1.106-5.333-0.279-7.513s2.088-3.692 5.982-4.591c0.451-0.101 6.428-0.272 10.295-0.417z"></path>
</svg>
