<?xml version="1.0" encoding="utf-8"?>
<!-- Generated by IcoMoon.io -->
<!DOCTYPE svg PUBLIC "-//W3C//DTD SVG 1.1//EN" "http://www.w3.org/Graphics/SVG/1.1/DTD/svg11.dtd">
<svg version="1.1" xmlns="http://www.w3.org/2000/svg" xmlns:xlink="http://www.w3.org/1999/xlink" width="512" height="512" viewBox="0 0 512 512">
<path fill="#000000" d="M288.291 34.713c-16.084-1.428-30.784 0.523-42.852 5.148s-21.597 11.919-26.852 21.565c-5.256 9.646-5.599 21.621 0.139 32.835 2.659 5.197 6.137 9.174 9.879 12.105-0.28 0.069-0.541 0.225-0.835 0.278-2.885 0.523-6.835-0.104-11.548-1.531-9.424-2.853-20.595-9.37-32.974-7.513-11.012 1.651-19.022 9.043-18.922 17.948 0.1 8.867 8.145 16.096 18.922 17.53 0.047 0.006 0.093-0.006 0.139 0 2.554 0.465 2.504 0.919 2.226 0.279-0.295-0.68 0.149 0.121-1.113 2.505-2.525 4.765-10.215 13.122-20.174 21.565-2.454 2.056-4.347 3.974-5.704 6.679s-1.69 6.641-0.279 9.6c2.823 5.919 7.812 7.486 13.495 9.461 0.645 0.225 2.1 0.475 2.782 0.696-11.337 7.425-21.687 16.199-28.939 27.131-7.843 11.822-11.989 26.107-9.879 41.879 1.737 13.151 7.573 21.755 15.026 26.435s15.374 5.971 22.4 8.348c7.026 2.377 13.191 5.337 18.505 12.243s9.96 18.322 12.105 38.261c2.167 20.875 6.177 36.686 11.548 48.279s12.27 19.211 20.591 22.539c8.322 3.329 17.4 1.429 24.487-3.757s12.813-13.257 16.835-23.374c2.214-5.502 6.476-10.937 11.269-16 0.639 3.954 1.277 7.665 2.505 10.713 1.512 3.759 4.108 7.715 8.904 9.043s9.067-0.807 12.522-3.618c3.455-2.811 6.852-6.723 10.713-12.104 4.825-6.627 8.075-12.144 10.017-16.974s2.825-9.238 1.113-13.774c-1.712-4.536-6.664-7.158-10.713-7.513s-7.931 0.471-12.104 1.948c-0.394 0.139-0.853 0.406-1.252 0.557 2.873-5.866 5.975-13.051 9.043-23.791 1.788-6.258 2.195-11.408 2.783-16.695 13.481 2.157 27.878-2.481 40.626-16.139 11.003-11.601 15.82-22.673 15.721-32.696-0.007-0.728-0.497-1.24-0.557-1.948 5.964-0.674 11.973-1.482 17.392-2.643 10.575-2.316 17.597-1.103 22.539 1.392s8.219 6.537 10.574 11.269c4.709 9.465 4.731 20.869 4.731 20.869-0.001 0.039-0.002 0.087-0.002 0.134 0 3.688 2.99 6.679 6.679 6.679 3.687 0 6.675-2.987 6.679-6.673 0-0 0.411-13.861-6.122-26.992-3.267-6.565-8.518-13.055-16.557-17.113s-18.505-5.308-31.305-2.505v-0.139c-5.747 1.232-12.267 2.177-18.644 2.782-2.019-3.251-4.315-6.215-7.096-8.487-6.459-5.275-14.093-8.191-21.148-8.765-3.527-0.287-7.099 0.005-10.435 1.53s-6.497 4.987-7.096 9.183c0 0.020-0 0.045-0 0.070s0 0.049 0 0.073c-0.897 6.454 3.070 12.657 8.070 15.579s10.865 4.045 17.392 4.591c3.524 0.295 7.466-0.053 11.269-0.139 0.050 0.496 0.273 0.872 0.279 1.392 0.055 5.56-2.627 13.382-12.104 23.374-11.356 12.168-20.426 14.269-30.469 11.965-0.089-0.021-0.19-0.118-0.279-0.139-0.45-4.375-0.603-8.865-2.087-12.661-4.438-11.355-12.84-19.678-22.817-28.522-5.526-4.899-11.067-8.047-16.418-9.461s-11.521-1.204-15.582 3.478c-4.063 4.682-3.32 11.113-0.557 16.835s7.72 11.903 15.582 19.061c9.346 8.654 18.974 15.398 29.217 20.035-0.31 5.094-1.014 10.647-3.061 17.808-4.721 16.524-9.336 24.059-13.079 31.026-1.363 2.537-2.363 5.407-3.339 8.209-10.488 7.947-20.289 18.382-25.322 30.887-3.324 8.36-7.783 14.368-12.105 17.531s-7.904 3.795-11.826 2.226c-3.922-1.569-8.877-6.194-13.357-15.861s-8.233-24.103-10.296-43.965c-2.308-21.466-7.568-35.567-14.887-45.079s-16.654-13.952-24.765-16.695c-8.111-2.743-15.106-4.262-19.618-7.096s-7.524-6.389-8.905-16.835c-1.673-12.5 1.401-23.064 7.792-32.696s16.231-18.132 27.548-25.183c2.602-1.621 5.476-2.851 8.209-4.313 9.086 2.314 16.413 4.137 27.965 7.652 0.020 0 0.045 0 0.070 0s0.049 0 0.073-0c21.244 6.304 43.221 7.63 60.796 5.008 8.788-1.31 16.584-3.655 22.678-7.235s11.040-9.089 11.409-16.279c0.303-5.91-1.952-11.651-5.983-15.444s-9.291-5.889-15.165-7.095c-11.748-2.413-26.807-1.62-44.243 0.417-15.277 1.762-37.74 7.971-59.13 18.643-4.326-1.134-11.855-3.029-14.748-4.035-3.5-1.216-3.977-1.657-4.452-1.809 0.389-0.429 0.374-0.494 1.113-1.113 10.522-8.921 18.998-17.203 23.374-25.461 2.188-4.129 3.829-9.073 1.669-14.052s-7.434-7.362-12.8-8.209c-0.020 0-0.045-0.001-0.070-0.001s-0.049 0-0.073 0.001c-6.513-0.835-7.359-3.451-7.37-4.452s0.716-3.572 7.513-4.591c5.43-0.814 15.964 3.716 27.131 7.096 5.583 1.69 11.497 2.954 17.809 1.808 4.72-0.856 9.132-3.868 12.939-7.93 8.538 0.296 16.403-3.352 22.818-8.209 6.671-5.050 11.905-11.289 15.165-17.531 1.63-3.121 2.885-6.249 3.061-9.739s-1.47-8.233-5.287-10.435c-4.272-2.465-9.581-3.001-13.913-1.391s-7.627 4.677-10.713 8.209c-5.323 6.091-10.505 14.858-16.139 24.070-2.452-1.412-4.873-3.597-7.374-8.487-4.057-7.93-3.704-14.418-0.417-20.452s10.176-11.665 20.035-15.444c19.718-7.557 50.721-7.208 83.061 9.6 32.856 17.077 70.1 46.858 96 86.817s40.659 89.932 29.635 148.731c-19.91 105.608-106.083 167.526-217.321 160.139-128.043-8.219-199.572-120.868-187.548-221.357 16.93-143.26 141.078-182.261 141.078-182.261 2.719-0.907 4.644-3.428 4.644-6.4 0-3.718-3.014-6.731-6.732-6.731-0.746 0-1.464 0.121-2.135 0.346 0.048-0.014-132.212 42.908-150.074 193.377-0.005 0.047 0.005 0.092 0 0.139-12.822 107.8 64.41 227.474 199.792 236.243 0.047 0.003 0.092-0.003 0.139 0 116.646 7.687 210.333-59.519 231.374-171.13 11.682-62.301-4.308-116.036-31.721-158.331s-66.053-73.314-100.87-91.409c-17.667-9.182-35.256-14.014-51.339-15.444zM269.507 77.008c0.272-0.101 0.511 0.188 0.695 0.139-0.216 0.789-0.305 1.364-0.974 2.644-2.111 4.040-6.392 9.419-11.409 13.218-0.675 0.511-1.399 0.664-2.087 1.113 2.783-4.317 6.243-10.094 8.487-12.661 2.312-2.645 4.262-4.072 5.287-4.452zM274.795 167.444c6.791-0.115 12.553 0.205 16.974 1.113s7.245 2.317 8.626 3.618c1.382 1.3 1.951 2.376 1.808 5.148-0.077 1.493-1.015 3.302-4.87 5.565s-10.179 4.288-17.808 5.426c-15.26 2.276-35.829 1.125-55.096-4.591-5.665-1.724-7.954-2.25-13.078-3.618 15.327-5.978 30.407-9.828 40.487-10.992 8.423-0.984 16.165-1.554 22.957-1.669zM344.499 226.018c3.276 0.267 7.7 1.95 11.548 4.452-0.42-0.027-0.983 0.035-1.392 0-5.438-0.456-9.827-1.754-11.826-2.922-1.257-0.734-0.919-1.031-0.974-1.392 0.647-0.138 1.276-0.25 2.644-0.139zM275.351 241.6c-0.779 0.898-0.562 0.135 2.087 0.835s6.723 2.756 10.991 6.539c9.612 8.52 16.069 15.362 19.2 23.374 0.123 0.315 0.025 0.791 0.139 1.113-5.962-3.764-12.063-8.495-18.365-14.331-7.052-6.421-11.070-11.732-12.661-15.026s-0.613-3.402-1.392-2.505zM321.543 344.974c-0.032 0.363 0.257 0.693-0.695 3.061-1.3 3.233-4.074 7.991-8.487 14.052-3.485 4.858-6.363 7.959-8.209 9.461s-1.875 0.925-0.695 1.252c1.18 0.327 0.783 0.693 0-1.252-0.772-1.92-1.6-5.356-2.226-9.878-0.007-0.063 0.007-0.077 0-0.139-0.342-3.084-0.121-4.99 0.139-6.957 5.238-3.746 10.382-6.852 14.608-8.348 2.612-0.925 4.385-1.219 5.565-1.252z"></path>
</svg>
