<?xml version="1.0" encoding="utf-8"?>
<!-- Generated by IcoMoon.io -->
<!DOCTYPE svg PUBLIC "-//W3C//DTD SVG 1.1//EN" "http://www.w3.org/Graphics/SVG/1.1/DTD/svg11.dtd">
<svg version="1.1" xmlns="http://www.w3.org/2000/svg" xmlns:xlink="http://www.w3.org/1999/xlink" width="512" height="512" viewBox="0 0 512 512">
<path d="M173.968 227.784h35.13v113.238h-35.13v-113.238z"></path>
<path d="M191.533 212.088c-11.212 0-20.554-8.97-20.554-20.554 0-11.212 8.97-20.554 20.554-20.554 11.212 0 20.554 8.97 20.554 20.554s-9.343 20.554-20.554 20.554z"></path>
<path d="M341.022 341.022h-35.13v-55.311c0-13.081-0.373-29.898-18.313-29.898-18.313 0-21.302 14.201-21.302 29.15v56.058h-35.13v-113.238h33.635v15.322h0.373c4.858-8.97 16.070-18.313 33.262-18.313 35.503 0 42.231 23.544 42.231 53.816v62.411h0.373z"></path>
</svg>
