<?xml version="1.0" encoding="utf-8"?>
<!-- Generated by IcoMoon.io -->
<!DOCTYPE svg PUBLIC "-//W3C//DTD SVG 1.1//EN" "http://www.w3.org/Graphics/SVG/1.1/DTD/svg11.dtd">
<svg version="1.1" xmlns="http://www.w3.org/2000/svg" xmlns:xlink="http://www.w3.org/1999/xlink" width="512" height="512" viewBox="0 0 512 512">
<path d="M281.5 49c-14.4 1.7-28.5 4.3-41.6 7.6-7.8 1.9-11.2 2.8-28.4 7.7-8.8 2.6-34 11.5-41 14.6-1.1 0.5-4.5 2-7.5 3.3-11.2 4.7-28.6 14.1-38.3 20.6-20.1 13.4-35.4 30.5-44.7 49.7-9.1 19-12.6 38.6-11.7 66 1.1 33.1 8.4 67.9 24.2 115 6 17.9 8 23 16.4 40.5 18.9 39.9 44 64.8 75.1 74.8 14.4 4.7 21.5 5.6 42 5.6 10.7-0.1 20.9-0.4 22.5-0.7 1.7-0.4 6.2-1.2 10-1.7 33.6-4.9 85.2-21.2 117.1-37 42.9-21.4 68-47.9 77.4-82 4-14.2 5-22.9 5-41.9 0-26.8-3.5-50.4-12.7-84.6-5.2-19.5-15.4-50.7-19.3-59-0.5-1.1-1.9-4.3-3.1-7-19.1-43.7-40.1-68.5-69.5-82.2-8.2-3.7-9.5-4.2-22.9-7.4-9.2-2.2-37.5-3.3-49-1.9zM286.5 123.5c6.6 3 9.1 7.1 14.6 23.8 4.2 12.8 5.5 15.8 6.8 15.4 0.9-0.3 7.5-2.6 14.6-5.1 14.4-5.1 17.1-5.4 23.1-2.7 11.2 5.1 15.4 17.6 9.8 28.9-3.2 6.4-6.4 8.4-22.9 14.2-6.6 2.3-12.3 4.5-12.7 4.9s0.3 3.8 1.6 7.6c1.3 3.9 4.9 15.1 8.1 25s6.2 18.4 6.5 18.8c0.4 0.4 5.4-0.9 11.1-2.9 14.8-5.2 19.6-6.2 24.8-5.2 5.9 1.1 10.4 4.7 13.5 11 3.1 6.2 3.3 11.1 0.7 17-3.1 7.1-7.3 10.2-20.3 14.7-6.4 2.3-12 4.1-12.5 4.1s-1.7 0.6-2.7 1.3c-1.7 1.3-1.6 2.1 2.8 15.6 5.2 16.1 5.8 22.8 2.7 29-4.4 8.6-15.8 13.3-23.7 9.8-8.7-3.7-10.9-7-15.9-22.7-5.5-17.5-5.4-17.3-8.4-16.7-2.1 0.3-14.3 4.5-25.1 8.4-0.8 0.3-6.4 2.3-12.4 4.4s-11.4 4.3-11.9 4.8c-0.5 0.5-0.5 1.6 0.1 2.7 1.3 2.4 3.3 8.5 6.7 19.8 4.2 13.9 2.2 22.2-6.9 28.3-6.3 4.3-13.7 4.6-20.2 0.8-6.8-4-8.3-7-16-32.3-2.2-7.4-0.3-7.3-19.6-0.6-13.2 4.6-14 4.8-18.3 3.6-6-1.6-10.1-4.7-13.3-10.1-5-8.5-2.7-20.4 5-26.6 1.8-1.4 9.4-4.7 16.8-7.2s13.7-4.7 13.9-4.9c0.4-0.4-1.4-6.8-5.4-18.9-1.2-3.9-4.2-13-6.5-20.3-2.4-7.2-4.7-13.2-5.2-13.2-0.4 0-4.1 1.2-8.1 2.6-3.9 1.4-9.8 3.4-13.1 4.6-8.3 2.9-16.2 2.2-21.3-1.8-4.9-3.9-8.6-11.3-8.5-17 0-5.6 3.5-12.8 7.7-15.9 2.9-2.2 17.1-8 26.3-10.7 1.8-0.5 3.6-1.6 3.9-2.4s-1.5-7.9-4.1-15.8c-5-15.7-5.5-20.1-2.7-26.1 5-10.7 16.5-15.4 26-10.6 7.1 3.6 9.6 7.8 14.8 24.1 3.2 10.1 5.2 15 6.1 15 0.8 0 5.8-1.5 11.1-3.4 31.9-11.2 39.2-13.9 39.7-14.7 0.2-0.5-1.1-5.5-3-11.1-6.9-20.8-7.1-21.6-5.7-26.7 3.6-13.5 15.8-20 27.6-14.6z"></path>
<path d="M276 217.6c-8.4 3.1-41.7 14.7-43.8 15.1-1.3 0.3-2.6 1.2-2.9 2-0.3 0.7 0.8 5.3 2.5 10.1 2.3 6.8 10.6 32.6 12.8 39.9 0.5 1.8 3.1 1.6 9.9-0.8 25-8.9 37.3-13.2 39.2-13.6 4.1-1 4.2-2.4 0.8-12.8-1.8-5.5-5.5-17-8.2-25.4-2.8-8.5-5.4-15.6-5.9-15.7s-2.5 0.4-4.4 1.2z"></path>
</svg>
