<?xml version="1.0" encoding="utf-8"?>
<!-- Generated by IcoMoon.io -->
<!DOCTYPE svg PUBLIC "-//W3C//DTD SVG 1.1//EN" "http://www.w3.org/Graphics/SVG/1.1/DTD/svg11.dtd">
<svg version="1.1" xmlns="http://www.w3.org/2000/svg" xmlns:xlink="http://www.w3.org/1999/xlink" width="512" height="512" viewBox="0 0 512 512">
<path d="M256.63 2.37c140.040 0 253.565 113.525 253.565 253.565s-113.525 253.565-253.565 253.565c-140.24 0-254.19-113.32-254.19-253.56s113.95-253.57 254.19-253.57zM256.63 31.8c-123.789 0-224.14 100.351-224.14 224.14s100.351 224.14 224.14 224.14c123.34 0 223.51-100.17 223.51-224.14s-100.14-224.14-223.51-224.14zM398.13 341.090c-66.36 102-216.62 102-283.62 0-3.13-5-2.5-8.14 2.5-11.27l11.27-7.51c5-3.13 8.14-2.51 11.27 2.5 55.090 83.9 179.060 83.9 234.15 0 3.13-5 5.64-5.63 11.27-2.5l11.27 7.51c5.020 3.13 5.64 6.25 1.89 11.27zM172.13 164.53c18.16 0 33.18 14.4 33.18 32.56 0 17.54-15 32.56-33.18 32.56-17.53 0-32.56-15-32.56-32.56 0.096-17.936 14.605-32.453 32.53-32.56zM340.55 164.53c0.065-0 0.143-0.001 0.221-0.001 17.861 0 32.34 14.479 32.34 32.34 0 0.077-0 0.155-0.001 0.232-0.32 17.724-14.773 31.977-32.555 31.977s-32.234-14.254-32.555-31.959c-0.001-0.095-0.001-0.173-0.001-0.25 0-17.861 14.479-32.34 32.34-32.34 0.067 0 0.134 0 0.201 0z"></path>
</svg>
