<?xml version="1.0" encoding="utf-8"?>
<!-- Generated by IcoMoon.io -->
<!DOCTYPE svg PUBLIC "-//W3C//DTD SVG 1.1//EN" "http://www.w3.org/Graphics/SVG/1.1/DTD/svg11.dtd">
<svg version="1.1" xmlns="http://www.w3.org/2000/svg" xmlns:xlink="http://www.w3.org/1999/xlink" width="512" height="512" viewBox="0 0 512 512">
<path d="M255.5 2c140.92 0 254.5 114.16 254.5 254.5 0 0.149 0 0.325 0 0.5 0 140.28-113.719 254-254 254-0.176 0-0.352 0-0.528-0-140.313 0-253.882-113.57-253.882-254.5 0-140.34 113.57-254.5 253.91-254.5zM32.5 294h110.6c-3.957-11.076-6.244-23.853-6.244-37.165s2.287-26.089 6.489-37.96l-110.835 0.796c-1.986 11.173-3.122 24.036-3.122 37.165s1.136 25.991 3.314 38.497zM190.090 157.79v-117.79c-72.342 22.814-128.186 78.658-150.558 149.381l117.258 1.619c8.92-13 20.21-24.88 33.3-33.21zM190.090 472.94v-117.14c-13.175-9.064-24.236-20.125-33.023-32.874l-118.067-0.426c22.050 71.96 79.14 129.040 151.090 150.44zM255.5 166.12c-0.012 0-0.026 0-0.040 0-49.893 0-90.34 40.447-90.34 90.34 0 0.014 0 0.028 0 0.042 0 50.538 40.44 90.998 90.38 90.998 0.119 0 0.26 0.001 0.401 0.001 50.037 0 90.6-40.563 90.6-90.6 0-0.141-0-0.282-0.001-0.423-0.020-49.928-40.5-90.358-91-90.358zM218.63 33.51v110.6c11.076-3.958 23.853-6.245 37.165-6.245s26.089 2.287 37.96 6.491l-0.796-110.846c-11.173-1.985-24.036-3.12-37.165-3.12s-25.992 1.135-38.497 3.312zM293 480.080v-110.6c-11.077 3.954-23.854 6.24-37.165 6.24s-26.089-2.286-37.962-6.486l0.797 110.846c11.168 1.705 24.053 2.679 37.165 2.679s25.997-0.974 38.586-2.853zM321.5 40v117.79c13.080 8.33 24.38 20.22 33.3 33.3h117.74c-22.796-72.387-78.663-128.27-149.421-150.649zM472.5 322.46h-117.7c-9.064 13.175-20.125 24.236-32.874 33.022l-0.426 117.457c71.95-21.4 129.040-78.48 151.040-150.44zM368.48 294h110.6c1.986-11.173 3.123-24.036 3.123-37.165s-1.136-25.992-3.315-38.496l-110.408 1.332c3.957 11.076 6.245 23.853 6.245 37.165s-2.287 26.089-6.49 37.961z"></path>
</svg>
