<?xml version="1.0" encoding="utf-8"?>
<!-- Generated by IcoMoon.io -->
<!DOCTYPE svg PUBLIC "-//W3C//DTD SVG 1.1//EN" "http://www.w3.org/Graphics/SVG/1.1/DTD/svg11.dtd">
<svg version="1.1" xmlns="http://www.w3.org/2000/svg" xmlns:xlink="http://www.w3.org/1999/xlink" width="512" height="512" viewBox="0 0 512 512">
<path fill="#000000" d="M168.069 90.981c-23.654-0.937-43.939 3.418-58.017 19.339-14.061 15.9-21.18 40.924-25.044 79.444-0.005 0.049 0.005 0.089 0 0.139-3.463 33.571-8.788 58.608-7.513 80.417-6.532 1.828-13.010 3.644-19.478 6.678-0.839 0.821-1.516 1.805-1.978 2.901-16.388 5.873-39.277 20.796-45.187 43.569-2.954 11.387-0.114 24.583 9.739 35.896s25.955 21.51 50.782 31.165c49.964 19.43 130.018 31.428 207.721 30.469s152.976-14.094 192.974-50.921c22.726-21.087 32.036-41.085 30.748-59.269s-12.738-32.363-26.017-42.852c-26.558-20.98-62.887-30.191-62.887-30.191-0.668-0.179-1.435-0.282-2.226-0.282-4.92 0-8.909 3.988-8.909 8.909 0 4.129 2.809 7.602 6.62 8.612 0.062 0.014 34.077 9.335 56.271 26.866 11.096 8.766 18.54 18.908 19.339 30.192s-4.584 25.956-25.043 44.939c-33.017 30.4-105.335 45.257-181.008 46.192s-154.84-11.389-201.043-29.356c-23.257-9.044-36.956-18.269-43.826-26.156s-7.591-13.557-5.983-19.757c3.218-12.399 21.817-27.389 37.426-34.783 5.032-2.36 10.18-3.632 15.305-5.148 2.752 8.678 6.701 16.902 13.913 23.791 9.546 9.118 22.986 16.399 41.461 23.096 33.69 12.272 96.719 18.908 153.739 15.444 28.51-1.732 55.204-5.95 76.105-14.192 10.45-4.121 19.627-9.225 26.574-16s11.656-15.577 12.382-25.461c0.447-6.252 0.041-11.627-1.808-16.557s-5.546-9.253-10.017-11.548c-8.942-4.589-18.459-3.061-29.218-0.974-21.515 4.174-49.726 13.538-81.392 15.026-42.415 2.153-80.838-6.166-117.565-11.687-23.747-3.57-46.969-5.425-69.844-2.226-0.272-17.726 4.115-41.953 7.513-74.992 0-0.020 0.001-0.045 0.001-0.070s0-0.049-0.001-0.073c3.709-37.079 10.99-58.407 20.731-69.422 9.715-10.986 22.613-14.177 43.826-13.356 0.050 0.002 0.089-0.002 0.139 0 20.868 1.038 32.707 9.066 51.061 20.313 18.398 11.274 42.405 25.077 84.035 34.226 24.524 5.361 40.534 6.649 52.035 4.174 5.75-1.238 10.791-3.66 14.192-8.070s4.026-10.24 2.921-14.887c-2.208-9.293-8.82-16.434-16.695-22.957s-17.401-12.005-26.991-15.026c-30.515-9.536-72.070-11.13-72.070-11.13-0.125-0.007-0.272-0.010-0.419-0.010-4.923 0-8.914 3.991-8.914 8.914 0 4.777 3.757 8.677 8.478 8.903 0.020 0.001 41.165 2.024 67.638 10.296 6.66 2.099 14.666 6.689 20.87 11.826s10.25 11.268 10.713 13.218c0.231 0.975 0.265 0.197 0.418 0s-0.659 0.834-3.896 1.53c-6.459 1.39-21.142 0.893-44.382-4.174-0.048-0.011-0.091 0.011-0.139 0-39.307-8.657-60.52-21.055-78.608-32.139-18.111-11.098-34.207-21.599-59.548-22.817zM379.13 281.728c3.026-0.021 5.041 0.284 5.844 0.695s0.991 0.511 1.531 1.948c0.539 1.437 1.028 4.387 0.695 9.043-0.386 5.253-2.55 9.479-7.096 13.913s-11.479 8.705-20.452 12.243c-17.945 7.077-43.453 11.416-70.817 13.079-54.729 3.325-117.863-4.036-146.505-14.469-0.020 0-0.045-0-0.070-0s-0.049 0-0.073 0c-17.138-6.214-28.159-12.611-35.057-19.2-4.733-4.52-7.312-9.44-9.183-14.748 20.166-2.785 41.248-1.257 64.418 2.226 35.844 5.387 75.751 14.264 121.044 11.965 34.673-1.629 64.674-11.714 83.895-15.443 4.805-0.932 8.8-1.231 11.826-1.252z"></path>
</svg>
