<?xml version="1.0" encoding="utf-8"?>
<!-- Generated by IcoMoon.io -->
<!DOCTYPE svg PUBLIC "-//W3C//DTD SVG 1.1//EN" "http://www.w3.org/Graphics/SVG/1.1/DTD/svg11.dtd">
<svg version="1.1" xmlns="http://www.w3.org/2000/svg" xmlns:xlink="http://www.w3.org/1999/xlink" width="512" height="512" viewBox="0 0 512 512">
<path d="M15.72 213.33c0 40.62 63.88 40.62 63.88 0v-70.43c0-3.28 1-4.26 4.26-4.26h6.88c3.28 0 4.26 1 4.26 4.26v70.43c0 24.57-16.050 41.93-39.64 45.53v137.91c0 3.28-1 4.26-4.26 4.26h-6.88c-3.28 0-4.26-1-4.26-4.26v-137.91c-23.59-3.6-40-21-40-45.53v-70.43c0-3.28 1.31-4.26 4.26-4.26h7.21c3.28 0 4.26 1 4.26 4.26v70.43zM27.84 142.9v66.17c0 3.28 1 4.26 4.26 4.26h5.57c2.95 0 4.26-1 4.26-4.26v-66.17c0-3.28-1.31-4.26-4.26-4.26h-5.57c-3.27 0-4.26 0.99-4.26 4.26zM53.39 142.9v66.17c0 3.28 1 4.26 4.26 4.26h5.57c3.28 0 4.26-1 4.26-4.26v-66.17c0-3.28-1-4.26-4.26-4.26h-5.57c-3.27 0-4.26 0.99-4.26 4.26zM265.33 117.68c83.86 0 152 67.81 152 151.66s-68.14 152-152 152-152-68.14-152-152 68.15-151.66 152.010-151.66zM265.33 133.070c-0.029 0-0.065 0-0.1 0-75.204 0-136.17 60.965-136.17 136.17 0 0.035 0 0.070 0 0.106 0 75.334 60.93 136.595 136.27 136.595s136.27-61.25 136.27-136.6c0-0.029 0-0.065 0-0.1 0-75.204-60.966-136.17-136.17-136.17-0.031 0-0.063 0-0.095 0zM265.33 169.43c55.135 0.108 99.802 44.774 99.91 99.899 0 55.37-44.88 100.25-99.91 100.25-55.267-0.003-100.070-44.807-100.070-100.075 0-55.27 44.805-100.075 100.075-100.075 0.002 0 0.003 0 0.005 0zM265.33 185.16c-46.52 0-84.52 37.67-84.52 84.18-0.006 0.387-0.010 0.843-0.010 1.3 0 46.673 37.837 84.51 84.51 84.51s84.51-37.837 84.51-84.51c0-0.457-0.003-0.913-0.011-1.368 0.041-46.441-37.959-84.112-84.469-84.112zM450.090 396.77c0 3.28 1.31 4.26 4.59 4.26h6.88c3.28 0 4.26-1 4.26-4.26v-88.45h31.78c0.021 0 0.046 0 0.070 0 7.914 0 14.33-6.416 14.33-14.33 0-0.028 0-0.057 0-0.084v-106.786c0-16-5.57-30.46-15.070-40.62-13.76-14.74-28.17-16.38-46.84-16.38v266.65zM465.81 292.93v-146.42c7.787 1.415 14.528 5.161 19.649 10.478 6.891 7.542 10.821 18.012 10.821 30.151v105.79h-30.47z"></path>
</svg>
