<?xml version="1.0" encoding="utf-8"?>
<!-- Generated by IcoMoon.io -->
<!DOCTYPE svg PUBLIC "-//W3C//DTD SVG 1.1//EN" "http://www.w3.org/Graphics/SVG/1.1/DTD/svg11.dtd">
<svg version="1.1" xmlns="http://www.w3.org/2000/svg" xmlns:xlink="http://www.w3.org/1999/xlink" width="512" height="512" viewBox="0 0 512 512">
<path d="M241.066 121.416c-0.996-0.439-3.136-0.7-4.622 0.356s-1.784 2.341-1.956 3.111c-0.344 1.539-0.231 2.448-0.089 3.733s0.471 2.82 0.8 4.534c1.315 6.855 3.941 17.601 6.934 31.022 5.295 23.75 11.193 55.559 12.267 86.489-79.865 2.902-202.649 5.333-217.956 5.333v8.533c16.118 0 138.339-2.423 218.311-5.334 0.003 1.175 0.103 2.387 0.089 3.555-0.556 57.561-28 115.378-28 115.378l-6.222 13.156 12.356-7.644c0 0 60.309-37.32 100-60 66.334-37.824 142.578-63.022 142.578-63.022l-2.666-8.178c0 0-76.822 25.416-144.178 63.822-33.442 19.11-74.142 44.050-88.8 53.067 8.188-20.207 23.043-62.688 23.466-106.489 0.015-1.294-0.173-2.613-0.178-3.911 6.918-0.266 17.515-0.437 23.466-0.711 72.591-3.416 125.866-7.378 125.866-7.378l17.156-1.333-15.822-6.845c0 0-117.066-51.501-169.6-118.489-0.805-1.049-1.239-1.892-3.2-2.755zM244.889 137.327c45.479 52.288 120.082 91.512 150.311 105.956-11.688 0.845-46.094 3.441-108.978 6.4-5.88 0.272-16.444 0.448-23.289 0.711-1.093-31.89-7.106-64.145-12.445-88.089-2.442-10.955-4.19-18.484-5.6-24.978z"></path>
</svg>
