<?xml version="1.0" encoding="utf-8"?>
<!-- Generated by IcoMoon.io -->
<!DOCTYPE svg PUBLIC "-//W3C//DTD SVG 1.1//EN" "http://www.w3.org/Graphics/SVG/1.1/DTD/svg11.dtd">
<svg version="1.1" xmlns="http://www.w3.org/2000/svg" xmlns:xlink="http://www.w3.org/1999/xlink" width="512" height="512" viewBox="0 0 512 512">
<path d="M326.43 27.34c0-5.59 1.68-7.27 7.26-7.27h12.31c5 0 7.27 1.68 7.27 7.27v46.39h66c51.193 0.103 92.662 41.592 92.73 92.784v241.486c0 50.87-41.92 92.23-92.79 92.23h-326.42c-51.43-0.020-92.79-41.38-92.79-92.23v-241.48c0-0.069-0.001-0.149-0.001-0.231 0-51.12 41.441-92.56 92.56-92.56 0.081 0 0.162 0 0.243 0.001h65.988v-46.39c0-5.59 1.68-7.27 7.27-7.27h12.3c5 0 7.27 1.68 7.27 7.27v46.39h140.8v-46.39zM92.79 100.56c-36.432 0.046-65.954 29.567-66 65.995v241.445c0.046 36.433 29.567 65.954 65.996 66h326.425c36.433-0.046 65.954-29.567 66-65.995v-241.484c-0.046-36.433-29.567-65.954-65.995-66h-66.005v29.060c0 5-2.24 7.27-7.27 7.27h-12.3c-5.59 0-7.26-2.24-7.26-7.27v-29.020h-140.81v29.060c0 5-2.23 7.27-7.27 7.27h-12.3c-5.59 0-7.27-2.24-7.27-7.27v-29.060h-66zM158.79 233.030c-0.056 18.499-15.041 33.479-33.535 33.53-18.529 0-33.545-15.017-33.545-33.54s15.016-33.54 33.54-33.54c18.472 0.085 33.422 15.046 33.49 33.513zM158.79 351.53c-0.056 18.499-15.041 33.479-33.535 33.53-0.082 0-0.174 0.001-0.266 0.001-18.38 0-33.28-14.9-33.28-33.28 0-0.089 0.001-0.176 0.001-0.264 0-18.986 14.53-33.526 33.54-33.526 0.063-0 0.137-0 0.211-0 18.38 0 33.28 14.9 33.28 33.28 0 0.091-0 0.183-0.001 0.274zM289.54 233c0 0.009 0 0.019 0 0.030 0 18.523-15.017 33.54-33.54 33.54s-33.54-15.017-33.54-33.54c0-18.523 15.017-33.54 33.54-33.54 18.493 0.051 33.472 15.020 33.54 33.504zM289.54 351.5c-0.325 18.273-15.215 32.961-33.535 32.961s-33.209-14.688-33.535-32.93c-0.004-0.198-0.005-0.396-0.005-0.594 0-18.524 15.017-33.54 33.54-33.54s33.54 15.017 33.54 33.54c0 0.209-0.002 0.417-0.005 0.625zM420.33 233c0 18.524-15.017 33.54-33.54 33.54s-33.54-15.017-33.54-33.54c0-18.523 15.017-33.54 33.54-33.54 18.503 0.051 33.489 15.037 33.54 33.535zM420.33 351.5c-0.325 18.273-15.215 32.961-33.535 32.961s-33.209-14.688-33.534-32.93c-0.003-0.198-0.005-0.396-0.005-0.594 0-18.524 15.017-33.54 33.54-33.54s33.54 15.017 33.54 33.54c0 0.209-0.002 0.417-0.005 0.625z"></path>
</svg>
