<?xml version="1.0" encoding="utf-8"?>
<!-- Generated by IcoMoon.io -->
<!DOCTYPE svg PUBLIC "-//W3C//DTD SVG 1.1//EN" "http://www.w3.org/Graphics/SVG/1.1/DTD/svg11.dtd">
<svg version="1.1" xmlns="http://www.w3.org/2000/svg" xmlns:xlink="http://www.w3.org/1999/xlink" width="512" height="512" viewBox="0 0 512 512">
<path fill="#000000" d="M398.14 50.5h-280.16c-36.408 0-68.48 26.452-68.48 62.86v280.16c0 36.408 32.072 68.98 68.48 68.98h173.466c-0.325-54 0.077-114.134-0.185-166.387-11.064-0.112-22.138-0.684-33.202-0.854 0.041-18.467 0.017-37.317 0.024-55.781 11.057-0.137 22.121-0.163 33.178-0.268 0.338-17.957-0.338-36.025 0.354-53.966 1.103-14.205 6.519-28.563 17.14-38.377 12.859-12.239 31.142-16.397 48.387-16.912 18.233-0.163 36.468-0.076 54.71-0.068 0.072 19.24 0.072 38.482-0.008 57.722-11.789-0.020-23.585 0.023-35.374-0.025-7.468-0.467-15.145 5.198-16.504 12.609-0.177 12.875-0.064 25.757-0.057 38.628 17.285 0.073 34.577-0.020 51.862 0.044-1.264 18.629-3.581 37.168-6.285 55.637-15.272 0.137-30.554 1.514-45.818 1.602-0.129 52.236 0.040 112.395-0.093 166.395h38.564c36.408 0 63.36-32.572 63.36-68.98v-280.159c0.001-36.408-26.951-62.86-63.359-62.86z"></path>
</svg>
