<?xml version="1.0" encoding="utf-8"?>
<!-- Generated by IcoMoon.io -->
<!DOCTYPE svg PUBLIC "-//W3C//DTD SVG 1.1//EN" "http://www.w3.org/Graphics/SVG/1.1/DTD/svg11.dtd">
<svg version="1.1" xmlns="http://www.w3.org/2000/svg" xmlns:xlink="http://www.w3.org/1999/xlink" width="512" height="512" viewBox="0 0 512 512">
<path d="M159.953 298.604v-85.582c0-5.606 1.869-10.838 4.858-14.949l56.806 57.179-57.553 57.927c-2.243-4.485-4.111-9.343-4.111-14.575zM279.545 266.091l2.99-2.99 56.806 57.553c-3.737 2.243-8.222 3.737-13.081 3.737h-140.893c-4.858 0-9.343-1.495-13.454-3.737l57.179-57.553 2.99 2.99c13.081 12.707 34.756 12.707 47.463 0zM339.341 190.972l-67.27 67.644c-8.596 8.596-23.171 8.596-31.767 0l-66.897-67.644c3.737-2.243 8.222-3.363 12.707-3.363h140.894c4.111 0 8.222 1.121 12.333 3.363zM352.047 213.022v85.582c0 5.232-1.868 10.464-4.858 14.575l-57.553-57.553 57.553-57.553c2.99 4.111 4.858 9.343 4.858 14.949z"></path>
</svg>
