<?xml version="1.0" encoding="utf-8"?>
<!-- Generated by IcoMoon.io -->
<!DOCTYPE svg PUBLIC "-//W3C//DTD SVG 1.1//EN" "http://www.w3.org/Graphics/SVG/1.1/DTD/svg11.dtd">
<svg version="1.1" xmlns="http://www.w3.org/2000/svg" xmlns:xlink="http://www.w3.org/1999/xlink" width="512" height="512" viewBox="0 0 512 512">
<path fill="#000000" d="M480 253c-1.7-123.7-103.3-222.6-227-221s-222.6 103.3-221 227c1.7 123.7 103.3 222.6 227 221 123.7-1.7 222.7-103.3 221-227zM256 111.9c17.7 0 32 14.3 32 32s-14.3 32-32 32c-17.7 0-32-14.3-32-32s14.3-32 32-32zM300 395h-88v-11h22v-160h-22v-12h66v172h22v11z"></path>
</svg>
