<?xml version="1.0" encoding="utf-8"?>
<!-- Generated by IcoMoon.io -->
<!DOCTYPE svg PUBLIC "-//W3C//DTD SVG 1.1//EN" "http://www.w3.org/Graphics/SVG/1.1/DTD/svg11.dtd">
<svg version="1.1" xmlns="http://www.w3.org/2000/svg" xmlns:xlink="http://www.w3.org/1999/xlink" width="512" height="512" viewBox="0 0 512 512">
<path fill="#000000" d="M416.349 256.046c-0.001-21.013 13.143-38.948 31.651-46.062-4.887-20.466-12.957-39.7-23.664-57.139-6.375 2.836-13.23 4.254-20.082 4.254-12.621 0-25.238-4.811-34.871-14.442-14.863-14.863-18.248-36.846-10.18-54.97-17.435-10.714-36.663-18.792-57.129-23.687-7.103 18.529-25.047 31.69-46.074 31.69-21.025 0-38.969-13.161-46.073-31.69-20.466 4.895-39.693 12.973-57.128 23.688 8.068 18.122 4.683 40.104-10.181 54.97-9.631 9.631-22.25 14.443-34.871 14.443-6.854 0-13.706-1.419-20.083-4.255-10.706 17.438-18.778 36.671-23.664 57.138 18.509 7.112 31.652 25.049 31.652 46.062 0 21.008-13.132 38.936-31.63 46.054 4.898 20.466 12.976 39.692 23.692 57.128 6.361-2.821 13.198-4.232 20.032-4.232 12.622 0 25.239 4.812 34.871 14.443 14.841 14.841 18.239 36.781 10.215 54.889 17.438 10.71 36.664 18.783 57.13 23.673 7.128-18.479 25.046-31.596 46.038-31.596s38.91 13.115 46.037 31.596c20.468-4.89 39.693-12.964 57.132-23.675-8.023-18.106-4.626-40.046 10.216-54.887 9.629-9.632 22.248-14.444 34.868-14.444 6.836 0 13.67 1.411 20.033 4.233 10.716-17.436 18.794-36.662 23.692-57.128-18.498-7.119-31.629-25.048-31.629-46.054zM256.9 335.9c-44.3 0-80-35.9-80-80s35.7-80 80-80c44.299 0 80 35.899 80 80s-35.701 80-80 80z"></path>
</svg>
