<?xml version="1.0" encoding="utf-8"?>
<!-- Generated by IcoMoon.io -->
<!DOCTYPE svg PUBLIC "-//W3C//DTD SVG 1.1//EN" "http://www.w3.org/Graphics/SVG/1.1/DTD/svg11.dtd">
<svg version="1.1" xmlns="http://www.w3.org/2000/svg" xmlns:xlink="http://www.w3.org/1999/xlink" width="512" height="512" viewBox="0 0 512 512">
<path d="M56 88v336h400v-336h-400zM128 408h-56v-48h56v48zM128 344h-56v-48h56v48zM128 280h-56v-48h56v48zM128 216h-56v-48h56v48zM128 152h-56v-48h56v48zM368 408h-224v-144h224v144zM368 248h-224v-144h224v144zM440 408h-56v-48h56v48zM440 344h-56v-48h56v48zM440 280h-56v-48h56v48zM440 216h-56v-48h56v48zM440 152h-56v-48h56v48z"></path>
</svg>
