<?xml version="1.0" encoding="utf-8"?>
<!-- Generated by IcoMoon.io -->
<!DOCTYPE svg PUBLIC "-//W3C//DTD SVG 1.1//EN" "http://www.w3.org/Graphics/SVG/1.1/DTD/svg11.dtd">
<svg version="1.1" xmlns="http://www.w3.org/2000/svg" xmlns:xlink="http://www.w3.org/1999/xlink" width="512" height="512" viewBox="0 0 512 512">
<path d="M394.6 341.2c-29.5 0-53.4 23.9-53.4 53.4s23.9 53.4 53.4 53.4c29.5 0 53.4-23.9 53.4-53.4s-23.9-53.4-53.4-53.4z"></path>
<path d="M256 341.2c-29.5 0-53.4 23.9-53.4 53.4s23.9 53.4 53.4 53.4c29.5 0 53.4-23.9 53.4-53.4s-23.9-53.4-53.4-53.4z"></path>
<path d="M117.4 341.2c-29.5 0-53.4 23.9-53.4 53.4s23.9 53.4 53.4 53.4c29.5 0 53.4-23.9 53.4-53.4s-23.9-53.4-53.4-53.4z"></path>
<path d="M394.6 202.6c-29.5 0-53.4 23.9-53.4 53.4s23.9 53.4 53.4 53.4c29.5 0 53.4-23.9 53.4-53.4s-23.9-53.4-53.4-53.4z"></path>
<path d="M256 202.6c-29.5 0-53.4 23.9-53.4 53.4s23.9 53.4 53.4 53.4c29.5 0 53.4-23.9 53.4-53.4s-23.9-53.4-53.4-53.4z"></path>
<path d="M117.4 202.6c-29.5 0-53.4 23.9-53.4 53.4s23.9 53.4 53.4 53.4c29.5 0 53.4-23.9 53.4-53.4s-23.9-53.4-53.4-53.4z"></path>
<path d="M394.6 170.8c29.5 0 53.4-23.9 53.4-53.4s-23.9-53.4-53.4-53.4c-29.5 0-53.4 23.9-53.4 53.4s23.9 53.4 53.4 53.4z"></path>
<path d="M256 64c-29.5 0-53.4 23.9-53.4 53.4s23.9 53.4 53.4 53.4c29.5 0 53.4-23.9 53.4-53.4s-23.9-53.4-53.4-53.4z"></path>
<path d="M117.4 64c-29.5 0-53.4 23.9-53.4 53.4s23.9 53.4 53.4 53.4c29.5 0 53.4-23.9 53.4-53.4s-23.9-53.4-53.4-53.4z"></path>
</svg>
