<?xml version="1.0" encoding="utf-8"?>
<!-- Generated by IcoMoon.io -->
<!DOCTYPE svg PUBLIC "-//W3C//DTD SVG 1.1//EN" "http://www.w3.org/Graphics/SVG/1.1/DTD/svg11.dtd">
<svg version="1.1" xmlns="http://www.w3.org/2000/svg" xmlns:xlink="http://www.w3.org/1999/xlink" width="512" height="512" viewBox="0 0 512 512">
<path d="M447.1 256.2c-45.3-52.2-107.9-112.2-191.1-112.2-33.6 0-64.4 9.5-96.9 29.8-27.4 17.2-55.5 41.4-94.1 81.2l-1 1 6.7 6.9c55.1 56.4 102.7 105.1 185.3 105.1 36.5 0 71.9-11.9 108.2-36.4 30.9-20.9 57.2-47.4 78.3-68.8l5.5-5.5-0.9-1.1zM256 160c33.1 0 64.9 9.5 97.2 30.6 23.9 15.6 47.4 36.7 73.7 66.1-38.3 38.7-95.8 95.3-170.9 95.3-34.2 0-64.2-8.4-94.2-28.2-27.5-18.1-52.3-43.3-76.2-67.8 59.1-59.7 108.4-96 170.4-96z"></path>
<path d="M256 336c44.1 0 80-35.9 80-80s-35.9-80-80-80c-44.1 0-80 35.9-80 80s35.9 80 80 80zM256 192.3c35.2 0 64 28.6 64 63.7s-28.8 63.7-64 63.7c-35.2 0-63.9-28.6-63.9-63.7s28.7-63.7 63.9-63.7z"></path>
<path d="M288 256v0c0 17.5-14.4 32-31.8 32s-32.2-15.2-32.2-32.7 15.8-31.3 32-31.3v-16c-26.5 0-47.9 21.6-47.9 48.2s21.5 48.1 47.9 48.1 48-21.6 48-48.1v-0.2h-16z"></path>
</svg>
