<?xml version="1.0" encoding="utf-8"?>
<!-- Generated by IcoMoon.io -->
<!DOCTYPE svg PUBLIC "-//W3C//DTD SVG 1.1//EN" "http://www.w3.org/Graphics/SVG/1.1/DTD/svg11.dtd">
<svg version="1.1" xmlns="http://www.w3.org/2000/svg" xmlns:xlink="http://www.w3.org/1999/xlink" width="512" height="512" viewBox="0 0 512 512">
<path d="M447.1 256.2c-45.3-52.2-107.9-112.2-191.1-112.2-33.6 0-64.4 9.5-96.9 29.8-27.4 17.2-55.5 41.4-94.1 81.2l-1 1 6.7 6.9c55.1 56.4 102.7 105.1 185.3 105.1 36.5 0 71.9-11.9 108.2-36.4 30.9-20.9 57.2-47.4 78.3-68.8l5.5-5.5-0.9-1.1zM256 336c-44.1 0-80-35.9-80-80s35.9-80 80-80c44.1 0 80 35.9 80 80s-35.9 80-80 80z"></path>
<path d="M250.4 226.8c0-6.9 2-13.4 5.5-18.8-26.5 0-47.9 21.6-47.9 48.2s21.5 48.1 47.9 48.1 48-21.5 48-48.1v0c-5.4 3.5-11.9 5.5-18.8 5.5-19.1-0.1-34.7-15.7-34.7-34.9z"></path>
</svg>
