<?xml version="1.0" encoding="utf-8"?>
<!-- Generated by IcoMoon.io -->
<!DOCTYPE svg PUBLIC "-//W3C//DTD SVG 1.1//EN" "http://www.w3.org/Graphics/SVG/1.1/DTD/svg11.dtd">
<svg version="1.1" xmlns="http://www.w3.org/2000/svg" xmlns:xlink="http://www.w3.org/1999/xlink" width="512" height="512" viewBox="0 0 512 512">
<path d="M374.1 128l-13.6 10.3c24.1 32.9 38.5 73.6 38.5 117.7s-14.4 84.8-38.6 117.7l13.6 10.3c26.3-35.7 41.9-80 41.9-128s-15.5-92.3-41.8-128z"></path>
<path d="M320 351.8c20-26.8 32-59.9 32-95.8s-12-69-32-95.8l-13.6 10.1c17.9 24 28.6 53.6 28.6 85.7s-10.7 61.7-28.6 85.7l13.6 10.1z"></path>
<path d="M273.1 319.9c13.7-17.9 21.9-39.9 21.9-63.9s-8.2-46-21.9-63.9l-13.5 9.8c11.6 15.1 18.5 33.8 18.5 54.1s-6.9 38.9-18.5 54.1l13.5 9.8z"></path>
<path d="M153.9 216h-57.9v80h57.9l70.1 56v-192z"></path>
</svg>
