<?xml version="1.0" encoding="utf-8"?>
<!-- Generated by IcoMoon.io -->
<!DOCTYPE svg PUBLIC "-//W3C//DTD SVG 1.1//EN" "http://www.w3.org/Graphics/SVG/1.1/DTD/svg11.dtd">
<svg version="1.1" xmlns="http://www.w3.org/2000/svg" xmlns:xlink="http://www.w3.org/1999/xlink" width="512" height="512" viewBox="0 0 512 512">
<path fill="#000000" d="M359.385 80c-39.419 0-82.214 17.599-103.385 52.8-21.17-35.201-63.966-52.8-103.385-52.8-68.968 0-120.615 43.238-120.615 115.779 0 31.288 12.562 71.924 40.923 105.657 28.359 33.735 45.229 51.7 100.153 88 54.924 36.302 82.924 42.564 82.924 42.564s28-6.262 82.924-42.564c54.923-36.3 71.794-54.265 100.153-88 28.361-33.733 40.923-74.369 40.923-105.657 0-72.541-51.647-115.779-120.615-115.779zM426.83 291.141c-26.852 31.94-42.18 48.895-96.729 84.947-40.237 26.596-65.252 36.301-74.102 39.233-8.85-2.933-33.864-12.639-74.102-39.233-54.548-36.052-69.876-53.006-96.729-84.948-12.065-14.351-21.857-31.274-28.316-48.943-5.79-15.842-8.852-31.893-8.852-46.418 0-30.284 10.131-55.643 29.297-73.335 9.14-8.437 20.158-14.992 32.752-19.484 12.945-4.619 27.266-6.96 42.566-6.96 38.018 0 73.217 17.682 89.674 45.046l13.711 22.798 13.711-22.798c16.458-27.364 51.657-45.046 89.674-45.046 15.3 0 29.621 2.341 42.566 6.959 12.594 4.493 23.612 11.048 32.752 19.484 19.166 17.693 29.297 43.052 29.297 73.336 0 14.525-3.062 30.576-8.854 46.418-6.458 17.668-16.25 34.592-28.316 48.944z"></path>
</svg>
