<?xml version="1.0" encoding="utf-8"?>
<!-- Generated by IcoMoon.io -->
<!DOCTYPE svg PUBLIC "-//W3C//DTD SVG 1.1//EN" "http://www.w3.org/Graphics/SVG/1.1/DTD/svg11.dtd">
<svg version="1.1" xmlns="http://www.w3.org/2000/svg" xmlns:xlink="http://www.w3.org/1999/xlink" width="512" height="512" viewBox="0 0 512 512">
<path fill="#000000" d="M448 288c-15.268 0-28.029 10.695-31.223 25h-59.004l-30.181-90.896c-1.105-3.329-4.246-5.543-7.759-5.478-3.508 0.072-6.559 2.422-7.524 5.795l-54.242 189.319-58.175-349.055c-0.624-3.74-3.787-6.528-7.576-6.679-3.809-0.139-7.161 2.382-8.078 6.061l-62.49 250.933h-89.748v16h96c3.674 0 6.875-2.502 7.763-6.066l54.685-219.591 57.661 345.973c0.615 3.688 3.703 6.459 7.437 6.672 0.153 0.009 0.307 0.013 0.459 0.013 3.549 0 6.699-2.35 7.687-5.797l56.872-198.496 23.845 71.813c1.087 3.271 4.146 5.479 7.593 5.479h65.292c3.89 13.289 16.161 23 30.708 23 17.674 0 32-14.327 32-32s-14.328-32-32.002-32z"></path>
</svg>
