<?xml version="1.0" encoding="utf-8"?>
<!-- Generated by IcoMoon.io -->
<!DOCTYPE svg PUBLIC "-//W3C//DTD SVG 1.1//EN" "http://www.w3.org/Graphics/SVG/1.1/DTD/svg11.dtd">
<svg version="1.1" xmlns="http://www.w3.org/2000/svg" xmlns:xlink="http://www.w3.org/1999/xlink" width="512" height="512" viewBox="0 0 512 512">
<path fill="#000000" d="M359 233.62l-0.106-0.039c-0.136-0.138-0.306-0.443-0.444-0.579l-78.903-79.002c-5.848-6-14.23-10.168-23.547-10.168-11.842 0-22.174 6.168-27.708 16.168h-0.007c0 0-7.109 11.351-18.318 29.249l32.617 39.85c2.947 3.772 3.305 7.895 1.414 9.785l-0.114 0.114c-2.296 2.296-5.894 1.535-9.785-1.414l-35.967-29.439c-23.608 37.693-56.827 90.731-83.671 133.592l19.123 23.362c2.947 3.772 3.305 7.895 1.414 9.785l-0.114 0.114c-2.296 2.296-5.894 1.535-9.785-1.414l-20.22-16.55c-20.005 31.94-34.685 55.377-35.879 57.281v0.003c-3 5.066-5 11.144-5 17.682 0 17.674 14.244 32 31.918 32 7.842 0 14.383-3.398 20.628-7.508l114.842-84.195-28.971-35.395c-2.947-3.772-3.305-7.895-1.414-9.785l0.114-0.114c2.296-2.296 5.894-1.534 9.785 1.415l37.963 31.215c54.985-40.285 106.17-77.633 106.17-77.633h0.005c7.859-6 13.024-15.319 13.024-25.857 0-8.713-3.064-16.75-9.064-22.521v-0.002z"></path>
<path fill="#000000" d="M448 138.781l-16.486-27.694-66.23 38.212 49.231-85.213-27.619-16.086-69.999 121.084 28.588 28.588z"></path>
</svg>
