<?xml version="1.0" encoding="utf-8"?>
<!-- Generated by IcoMoon.io -->
<!DOCTYPE svg PUBLIC "-//W3C//DTD SVG 1.1//EN" "http://www.w3.org/Graphics/SVG/1.1/DTD/svg11.dtd">
<svg version="1.1" xmlns="http://www.w3.org/2000/svg" xmlns:xlink="http://www.w3.org/1999/xlink" width="512" height="512" viewBox="0 0 512 512">
<path d="M368 64h-224c-17.7 0-32 14.3-32 32v320c0 17.7 14.3 32 32 32h224c17.7 0 32-14.3 32-32v-320c0-17.7-14.3-32-32-32zM360 280v128h-48v-128h48zM360 200v48h-48v-48h48zM280 360v48h-48v-48h48zM280 280v48h-48v-48h48zM280 200v48h-48v-48h48zM200 360v48h-48v-48h48zM200 280v48h-48v-48h48zM200 200v48h-48v-48h48zM152 152v-48h208v48h-208z"></path>
</svg>
