<?xml version="1.0" encoding="utf-8"?>
<!-- Generated by IcoMoon.io -->
<!DOCTYPE svg PUBLIC "-//W3C//DTD SVG 1.1//EN" "http://www.w3.org/Graphics/SVG/1.1/DTD/svg11.dtd">
<svg version="1.1" xmlns="http://www.w3.org/2000/svg" xmlns:xlink="http://www.w3.org/1999/xlink" width="512" height="512" viewBox="0 0 512 512">
<path d="M256 64.5c51.1 0 99.2 19.9 135.4 56.1s56.1 84.2 56.1 135.4-19.9 99.2-56.1 135.4-84.2 56.1-135.4 56.1-99.2-19.9-135.4-56.1c-36.1-36.2-56.1-84.3-56.1-135.4s19.9-99.2 56.1-135.4c36.2-36.1 84.3-56.1 135.4-56.1zM256 48c-114.9 0-208 93.1-208 208s93.1 208 208 208c114.9 0 208-93.1 208-208s-93.1-208-208-208v0z"></path>
<path d="M352 160l-223.7 96h127.7v128z"></path>
</svg>
