<?xml version="1.0" encoding="utf-8"?>
<!-- Generated by IcoMoon.io -->
<!DOCTYPE svg PUBLIC "-//W3C//DTD SVG 1.1//EN" "http://www.w3.org/Graphics/SVG/1.1/DTD/svg11.dtd">
<svg version="1.1" xmlns="http://www.w3.org/2000/svg" xmlns:xlink="http://www.w3.org/1999/xlink" width="512" height="512" viewBox="0 0 512 512">
<path fill="#000000" d="M366.195 212.122c1.185-6.528 1.806-13.252 1.806-20.122 0-61.856-50.145-112.001-112.001-112.001s-112.001 50.145-112.001 112.001c0 6.87 0.621 13.594 1.806 20.122-47.189 13.18-81.806 56.484-81.806 107.878 0 61.856 50.145 112.001 112.001 112.001 31.342 0 59.671-12.879 80-33.627 20.329 20.748 48.658 33.627 80 33.627 61.856 0 112.001-50.145 112.001-112.001 0-51.394-34.617-94.697-81.806-107.878zM159.999 192c0-52.935 43.065-96.001 96.001-96.001s96.001 43.066 96.001 96.001c0 5.776-0.513 11.435-1.495 16.933-4.749-0.614-9.59-0.934-14.506-0.934-31.342 0-59.671 12.879-80 33.627-20.329-20.748-48.658-33.627-80-33.627-4.916 0-9.757 0.319-14.506 0.934-0.982-5.498-1.495-11.157-1.495-16.933zM272.001 320c0 19.58-5.896 37.806-16.001 53.006-10.104-15.2-16.001-33.426-16.001-53.006 0-5.776 0.513-11.435 1.495-16.933 4.749 0.614 9.59 0.934 14.506 0.934s9.757-0.319 14.506-0.934c0.982 5.498 1.495 11.157 1.495 16.933zM256 288.001c-3.484 0-6.925-0.191-10.314-0.556 2.626-7.262 6.105-14.119 10.314-20.451 4.21 6.332 7.688 13.189 10.314 20.451-3.389 0.365-6.83 0.556-10.314 0.556zM229.791 284.364c-29.756-8.455-53.666-30.937-64.105-59.81 3.39-0.364 6.83-0.556 10.314-0.556 27.353 0 52.069 11.5 69.572 29.917-6.725 9.189-12.088 19.436-15.781 30.449zM266.428 253.917c17.503-18.418 42.219-29.918 69.572-29.918 3.484 0 6.925 0.191 10.314 0.556-10.439 28.873-34.35 51.354-64.105 59.81-3.693-11.014-9.056-21.261-15.781-30.448zM176 416.001c-52.936 0-96.001-43.065-96.001-96.001 0-43.852 29.555-80.931 69.792-92.364 11.732 34.983 40.265 62.257 76.014 72.243-1.185 6.527-1.806 13.252-1.806 20.121 0 24.717 8.013 47.559 21.573 66.084-17.503 18.417-42.219 29.917-69.572 29.917zM336 416.001c-27.354 0-52.069-11.5-69.572-29.918 13.561-18.524 21.573-41.366 21.573-66.083 0-6.869-0.621-13.594-1.806-20.121 35.749-9.986 64.281-37.26 76.014-72.243 40.237 11.434 69.792 48.513 69.792 92.364 0 52.936-43.065 96.001-96.001 96.001z"></path>
</svg>
