<?xml version="1.0" encoding="utf-8"?>
<!-- Generated by IcoMoon.io -->
<!DOCTYPE svg PUBLIC "-//W3C//DTD SVG 1.1//EN" "http://www.w3.org/Graphics/SVG/1.1/DTD/svg11.dtd">
<svg version="1.1" xmlns="http://www.w3.org/2000/svg" xmlns:xlink="http://www.w3.org/1999/xlink" width="512" height="512" viewBox="0 0 512 512">
<path d="M32 376h283.35c6.186-14.112 20.281-24 36.65-24s30.465 9.888 36.65 24h91.35v32h-91.35c-6.186 14.112-20.281 24-36.65 24s-30.465-9.888-36.65-24h-283.35z"></path>
<path d="M32 240h91.35c6.186-14.112 20.281-24 36.65-24s30.465 9.888 36.65 24h283.35v32h-283.35c-6.186 14.112-20.281 24-36.65 24s-30.465-9.888-36.65-24h-91.35z"></path>
<path d="M32 104h283.35c6.186-14.112 20.281-24 36.65-24s30.465 9.888 36.65 24h91.35v32h-91.35c-6.186 14.112-20.281 24-36.65 24s-30.465-9.888-36.65-24h-283.35z"></path>
</svg>
