<?xml version="1.0" encoding="utf-8"?>
<!-- Generated by IcoMoon.io -->
<!DOCTYPE svg PUBLIC "-//W3C//DTD SVG 1.1//EN" "http://www.w3.org/Graphics/SVG/1.1/DTD/svg11.dtd">
<svg version="1.1" xmlns="http://www.w3.org/2000/svg" xmlns:xlink="http://www.w3.org/1999/xlink" width="512" height="512" viewBox="0 0 512 512">
<path fill="#000000" d="M256 48c34.19 0 66.334 13.314 90.51 37.49s37.49 56.32 37.49 90.51c0 42.92-24.092 107.127-69.67 185.68-22.279 38.396-44.771 71.634-58.332 90.931-13.518-19.232-35.912-52.327-58.161-90.645-45.688-78.685-69.837-142.99-69.837-185.966 0-34.19 13.314-66.334 37.49-90.51s56.32-37.49 90.51-37.49zM256 32c-79.529 0-144 64.471-144 144 0 112 144 304 144 304s144-192 144-304c0-79.529-64.471-144-144-144v0z"></path>
<path fill="#000000" d="M256 112c-35.3 0-64 28.7-64 64s28.7 64 64 64 64-28.7 64-64-28.7-64-64-64zM256 222.9c-25.9 0-46.9-21-46.9-46.9s21-46.9 46.9-46.9 46.9 21 46.9 46.9-21 46.9-46.9 46.9z"></path>
</svg>
