<?xml version="1.0" encoding="utf-8"?>
<!-- Generated by IcoMoon.io -->
<!DOCTYPE svg PUBLIC "-//W3C//DTD SVG 1.1//EN" "http://www.w3.org/Graphics/SVG/1.1/DTD/svg11.dtd">
<svg version="1.1" xmlns="http://www.w3.org/2000/svg" xmlns:xlink="http://www.w3.org/1999/xlink" width="512" height="512" viewBox="0 0 512 512">
<path fill="#000000" d="M236.6 271.6c4.6 5.7 11.5 9.4 19.4 9.4 13.8 0 25-11.2 25-25 0-7.3-3.2-13.8-8.2-18.4-0.6-0.7-1.3-1.5-2.2-2.2 0 0-117.7-87.5-120.3-85.2s85.3 120.2 85.3 120.2c0.2 0.4 0.7 0.8 1 1.2z"></path>
<path fill="#000000" d="M256.2 48v0h-0.2v112h16v-94.7c97.8 8.3 175.3 90.5 175.3 190.5 0 105.5-85.7 191.4-191.2 191.4s-191.3-85.8-191.3-191.3c0-52.8 21.5-100.6 56.1-135.2l-11.9-11.8c-37.7 37.7-61 89.7-61 147.1 0 114.9 93.1 208 208 208s208-93.1 208-208c0-114.9-93-208-207.8-208z"></path>
</svg>
