<?xml version="1.0" encoding="utf-8"?>
<!-- Generated by IcoMoon.io -->
<!DOCTYPE svg PUBLIC "-//W3C//DTD SVG 1.1//EN" "http://www.w3.org/Graphics/SVG/1.1/DTD/svg11.dtd">
<svg version="1.1" xmlns="http://www.w3.org/2000/svg" xmlns:xlink="http://www.w3.org/1999/xlink" width="512" height="512" viewBox="0 0 512 512">
<path fill="#000000" d="M256 48c28.087 0 55.325 5.497 80.958 16.339 24.767 10.476 47.013 25.476 66.12 44.583s34.107 41.354 44.583 66.12c10.842 25.633 16.339 52.871 16.339 80.958s-5.497 55.325-16.339 80.958c-10.476 24.767-25.476 47.013-44.583 66.12s-41.354 34.107-66.12 44.583c-25.633 10.842-52.871 16.339-80.958 16.339s-55.325-5.497-80.958-16.339c-24.767-10.476-47.013-25.476-66.12-44.583s-34.107-41.354-44.583-66.12c-10.842-25.633-16.339-52.871-16.339-80.958s5.497-55.325 16.339-80.958c10.476-24.767 25.476-47.013 44.583-66.12s41.354-34.107 66.12-44.583c25.633-10.842 52.871-16.339 80.958-16.339zM256 32c-123.712 0-224 100.288-224 224s100.288 224 224 224 224-100.288 224-224-100.288-224-224-224v0z"></path>
<path fill="#000000" d="M107.776 320c-25.252 0-41.168-18.448-41.902-19.317-2.841-3.359-2.401-8.371 0.982-11.192 3.374-2.813 8.401-2.388 11.248 0.948 0.604 0.701 14.606 16.597 35.606 13.186 12.104-1.964 28.080-25.681 38.652-41.376 4.251-6.311 7.922-11.761 11.215-15.856 16.773-20.865 33.899-23.333 45.325-21.726 24.139 3.394 44.358 27.498 53.689 49.882 7.454 17.884 19.042 28.256 32.628 29.208 15.408 1.061 31.539-9.885 43.105-29.336 1.228-2.064 2.562-4.496 3.978-7.070 9.482-17.262 23.814-43.35 51.75-43.35 31.146 0 51.957 34.286 52.828 35.746 2.252 3.774 0.996 8.648-2.806 10.885-3.8 2.237-8.708 0.988-10.96-2.786-0.037-0.062-4.493-7.413-11.859-14.568-6.286-6.107-16.108-13.387-27.203-13.387-18.438 0-29.121 19.445-37.705 35.070-1.48 2.696-2.88 5.243-4.245 7.538-14.718 24.751-36.4 38.635-58.010 37.108-19.951-1.398-36.389-15.242-46.284-38.98-10.013-24.020-28.279-38.417-41.149-40.228-10.6-1.494-20.895 3.861-30.578 15.906-2.872 3.573-6.539 9.017-10.421 14.779-13.549 20.114-30.411 45.146-49.37 48.223-2.941 0.477-5.783 0.693-8.514 0.693z"></path>
</svg>
