<?xml version="1.0" encoding="utf-8"?>
<!-- Generated by IcoMoon.io -->
<!DOCTYPE svg PUBLIC "-//W3C//DTD SVG 1.1//EN" "http://www.w3.org/Graphics/SVG/1.1/DTD/svg11.dtd">
<svg version="1.1" xmlns="http://www.w3.org/2000/svg" xmlns:xlink="http://www.w3.org/1999/xlink" width="512" height="512" viewBox="0 0 512 512">
<path fill="#000000" d="M358 233.855l0.413-0.039c-0.137-0.137-0.046-0.101-0.185-0.237l-78.434-78.579c-5.833-6-14.193-10.154-23.485-10.154-11.811 0-22.115 6.154-27.635 16.154h-0.007c0 0-7.090 10.994-18.27 28.874l32.531 39.637c2.939 3.769 3.296 7.801 1.411 9.689l-0.114 0.071c-0.909 0.909-2.021 1.33-3.274 1.33-1.908 0-4.142-0.99-6.485-2.768l-35.872-29.418c-23.546 37.655-56.677 90.634-83.45 133.451l19.072 23.337c2.939 3.77 3.296 7.884 1.41 9.772l-0.114 0.114c-0.911 0.913-2.028 1.342-3.287 1.342-1.905 0-4.136-0.981-6.472-2.755l-21.067-16.533c-19.952 31.908-34.686 55.321-36.686 57.223v0.003c-3 5.062-4.085 11.132-4.085 17.664 0 17.655 14.657 31.967 32.285 31.967 7.821 0 14.57-3.395 20.799-7.5l114.651-84.109-28.838-35.358c-2.94-3.769-3.268-7.887-1.382-9.775l0.128-0.114c0.912-0.912 2.034-1.341 3.294-1.341 1.905 0 4.14 0.981 6.476 2.755l37.864 31.59c54.838-40.246 105.89-77.148 105.89-77.148h0.005c7.839-6 12.473-15.711 12.473-26.238 0-8.704-3.56-17.14-9.56-22.904v-0.003zM345.531 269.834c-2.664 1.934-46.692 33.932-95.764 69.899l-28.806-23.917c-5.245-3.981-10.663-5.998-16.108-5.998-5.465 0-10.592 2.097-14.458 5.909l-0.064 0.062-0.083 0.082-0.083 0.083c-7.808 7.821-7.761 20.823 0.111 30.917l0.11 0.143 0.113 0.138 18.223 22.312-100.656 73.896c-5.066 3.304-8.427 4.657-11.542 4.657-8.822 0-16-7.171-16-15.983 0-3.086 0.694-6.045 2.017-8.623 2.391-3.161 6.6-9.876 18.655-29.351 2.543-4.108 5.252-8.487 8.134-13.129l6.585 5.332 0.2 0.152c5.245 3.981 10.665 6 16.111 6 5.517 0 10.692-2.139 14.571-6.023l0.114-0.113c7.806-7.817 7.756-20.82-0.118-30.916l-0.113-0.144-0.115-0.142-11.814-14.455 67.752-108.346 22.326 18.293c5.254 3.988 10.678 6.010 16.123 6.010 4.954 0 9.631-1.725 13.339-4.89l0.461-0.337 0.871-0.874c7.79-7.803 7.74-20.778-0.118-30.854l-0.12-0.153-25.363-30.689c2.957-4.703 5.457-8.491 7.405-11.488l5.209-8.494c2.777-5.025 7.761-8.157 13.673-8.157 4.367 0 8.76 2.042 12.057 5.43l4.701 4.928h0.122l68.811 69.285v0.376l5.186 4.716c2.793 2.69 4.539 6.782 4.539 11.227 0 5.196-2.258 10.123-6.194 13.229z"></path>
<path fill="#000000" d="M439.994 115.175l-96.416 55.755 66.252-114.938-13.819-7.992-2.488 4.313-70.775 122.785 16.67 16.696 108.556-62.776z"></path>
</svg>
