<?xml version="1.0" encoding="utf-8"?>
<!-- Generated by IcoMoon.io -->
<!DOCTYPE svg PUBLIC "-//W3C//DTD SVG 1.1//EN" "http://www.w3.org/Graphics/SVG/1.1/DTD/svg11.dtd">
<svg version="1.1" xmlns="http://www.w3.org/2000/svg" xmlns:xlink="http://www.w3.org/1999/xlink" width="512" height="512" viewBox="0 0 512 512">
<path d="M160 400c-13.248 0-24 10.752-24 24s10.752 24 24 24 24-10.752 24-24-10.752-24-24-24zM160 432c-4.411 0-8-3.589-8-8s3.589-8 8-8 8 3.589 8 8-3.589 8-8 8z"></path>
<path d="M384.5 400c-13.248 0-24 10.752-24 24s10.752 24 24 24 24-10.752 24-24-10.752-24-24-24zM384.5 432c-4.411 0-8-3.589-8-8s3.589-8 8-8 8 3.589 8 8-3.589 8-8 8z"></path>
<path d="M448 128l-324.823-32.354c-1.628-6.972-4.369-14.66-11.838-20.667-9.314-7.49-24.357-10.979-47.339-10.979v16.001c18.614 0 31.167 2.506 37.312 7.447 4.458 3.585 5.644 8.423 7.165 15.989l-0.024 0.004 42.052 233.638c2.413 14.422 7.194 25.209 13.291 32.986 7.247 9.247 16.737 13.935 28.204 13.935h240v-16h-240c-4.727 0-19.136 0.123-25.749-33.755l-5.429-30.16 271.178-48.085 16-128zM418.59 242.348l-260.601 45.99-31.732-176.3 303.869 30.608-11.536 99.702z"></path>
</svg>
