<?xml version="1.0" encoding="utf-8"?>
<!-- Generated by IcoMoon.io -->
<!DOCTYPE svg PUBLIC "-//W3C//DTD SVG 1.1//EN" "http://www.w3.org/Graphics/SVG/1.1/DTD/svg11.dtd">
<svg version="1.1" xmlns="http://www.w3.org/2000/svg" xmlns:xlink="http://www.w3.org/1999/xlink" width="512" height="512" viewBox="0 0 512 512">
<path fill="#000000" d="M256.9 159.9c-25.701 0-49.801 10-67.9 28.1s-28.1 42.199-28.1 67.9c0 25.699 10 49.699 28.1 67.9 18.1 18.1 42.301 28.1 67.9 28.1 25.699 0 49.799-10 67.9-28.1 18.1-18.102 28.1-42.201 28.1-67.9 0-25.701-10-49.701-28.1-67.9-18.101-18.1-42.2-28.1-67.9-28.1zM256.9 335.9c-44.301 0-80-35.9-80-80s35.699-80 80-80c44.299 0 80 35.899 80 80s-35.701 80-80 80z"></path>
<path fill="#000000" d="M201.787 82.828c4.458 6.628 10.119 12.406 16.775 17.069 11.012 7.715 23.957 11.793 37.438 11.793s26.428-4.078 37.439-11.793c6.654-4.663 12.316-10.441 16.773-17.068 10.326 3.228 20.334 7.378 29.927 12.411-1.532 7.84-1.614 15.93-0.203 23.933 2.333 13.235 8.604 25.269 18.133 34.798 12.335 12.336 28.737 19.129 46.185 19.129 4.242 0 8.424-0.399 12.52-1.195 5.032 9.6 9.181 19.613 12.405 29.947-6.622 4.46-12.396 10.121-17.054 16.776-7.705 11.008-11.777 23.946-11.776 37.418 0 13.467 4.069 26.401 11.768 37.406 4.653 6.651 10.421 12.312 17.036 16.771-3.232 10.34-7.387 20.354-12.428 29.957-4.081-0.789-8.246-1.187-12.472-1.187-17.448 0-33.85 6.795-46.183 19.131-9.515 9.514-15.781 21.527-18.123 34.74-1.415 7.988-1.343 16.065 0.176 23.895-9.607 5.040-19.627 9.192-29.967 12.421-4.461-6.61-10.121-12.374-16.771-17.022-11-7.689-23.928-11.754-37.386-11.754-13.457 0-26.385 4.064-37.385 11.755-6.649 4.648-12.31 10.412-16.771 17.021-10.339-3.228-20.359-7.381-29.966-12.42 1.519-7.829 1.591-15.906 0.176-23.895-2.342-13.214-8.608-25.228-18.123-34.741-12.335-12.336-28.737-19.13-46.185-19.13-4.226 0-8.39 0.396-12.471 1.187-5.040-9.602-9.195-19.618-12.428-29.958 6.615-4.46 12.383-10.119 17.036-16.771 7.699-11.004 11.769-23.939 11.769-37.408 0-13.471-4.072-26.41-11.777-37.418-4.658-6.654-10.432-12.316-17.054-16.776 3.225-10.333 7.372-20.346 12.405-29.946 4.096 0.796 8.277 1.196 12.521 1.196 17.446 0 33.849-6.794 46.185-19.13 9.529-9.53 15.799-21.563 18.133-34.799 1.411-8.003 1.33-16.093-0.203-23.932 9.594-5.032 19.6-9.182 29.926-12.411zM302.074 64c-7.103 18.529-25.047 31.69-46.074 31.69-21.025 0-38.969-13.161-46.073-31.69-20.466 4.895-39.692 12.973-57.128 23.688 8.068 18.122 4.682 40.104-10.182 54.97-9.631 9.631-22.25 14.443-34.87 14.443-6.854 0-13.706-1.419-20.083-4.255-10.706 17.438-18.777 36.671-23.664 57.138 18.51 7.112 31.652 25.049 31.652 46.062 0 21.008-13.133 38.936-31.631 46.054 4.898 20.466 12.977 39.692 23.693 57.128 6.36-2.821 13.197-4.232 20.031-4.232 12.621 0 25.238 4.812 34.871 14.443 14.841 14.841 18.238 36.781 10.215 54.889 17.438 10.71 36.664 18.783 57.131 23.673 7.127-18.479 25.046-31.596 46.037-31.596s38.91 13.115 46.037 31.596c20.468-4.89 39.693-12.964 57.132-23.675-8.023-18.106-4.626-40.046 10.216-54.887 9.629-9.632 22.248-14.444 34.868-14.444 6.836 0 13.67 1.411 20.033 4.233 10.716-17.436 18.794-36.662 23.692-57.128-18.498-7.118-31.63-25.048-31.63-46.054-0.001-21.013 13.143-38.948 31.651-46.062-4.887-20.466-12.957-39.7-23.664-57.139-6.375 2.836-13.23 4.254-20.082 4.254-12.621 0-25.238-4.811-34.871-14.442-14.863-14.863-18.248-36.846-10.18-54.97-17.433-10.714-36.661-18.792-57.127-23.687v0z"></path>
</svg>
