<?xml version="1.0" encoding="utf-8"?>
<!-- Generated by IcoMoon.io -->
<!DOCTYPE svg PUBLIC "-//W3C//DTD SVG 1.1//EN" "http://www.w3.org/Graphics/SVG/1.1/DTD/svg11.dtd">
<svg version="1.1" xmlns="http://www.w3.org/2000/svg" xmlns:xlink="http://www.w3.org/1999/xlink" width="512" height="512" viewBox="0 0 512 512">
<path fill="#000000" d="M456.821 182.377c-20.039-19.589-46.759-30.377-75.236-30.377s-55.195 10.788-75.21 30.354l-39.106 37.885 25.060 24.689 38.843-37.769c13.458-13.095 31.321-20.307 50.299-20.307 18.979 0 36.841 7.212 50.282 20.291 13.363 13.077 20.712 30.468 20.693 48.97-0.019 18.443-7.363 35.75-20.677 48.728-13.458 13.095-31.32 20.307-50.299 20.307s-36.841-7.212-50.291-20.299l-125.533-122.49c-20.155-19.577-46.868-30.359-75.219-30.359-28.477 0-55.195 10.788-75.23 30.373-20.094 19.613-31.174 45.759-31.197 73.62-0.024 27.822 11.055 53.973 31.192 73.63 20.040 19.589 46.759 30.377 75.235 30.377 28.475 0 55.194-10.788 75.223-30.363l38.994-37.909-25.088-24.502-38.829 37.615c-13.458 13.095-31.321 20.307-50.3 20.307-18.977 0-36.839-7.212-50.28-20.291-13.364-13.077-20.714-30.469-20.694-48.971 0.019-18.443 7.363-35.749 20.678-48.727 13.458-13.095 31.32-20.307 50.297-20.307 18.979 0 36.842 7.212 50.292 20.299l125.532 122.489c20.154 19.578 46.867 30.36 75.218 30.36 28.476 0 55.194-10.788 75.213-30.355 20.179-19.573 31.301-45.727 31.317-73.64 0.017-27.838-11.058-53.987-31.179-73.628z"></path>
</svg>
