<?xml version="1.0" encoding="utf-8"?>
<!-- Generated by IcoMoon.io -->
<!DOCTYPE svg PUBLIC "-//W3C//DTD SVG 1.1//EN" "http://www.w3.org/Graphics/SVG/1.1/DTD/svg11.dtd">
<svg version="1.1" xmlns="http://www.w3.org/2000/svg" xmlns:xlink="http://www.w3.org/1999/xlink" width="512" height="512" viewBox="0 0 512 512">
<path d="M144 160h224v-64h-224v64zM160 112h192v32h-192v-32z"></path>
<path d="M368 64h-224c-17.7 0-32 14.3-32 32v320c0 17.7 14.3 32 32 32h224c17.7 0 32-14.3 32-32v-320c0-17.7-14.3-32-32-32zM384 416c0 8.8-7.2 16-16 16h-224c-8.8 0-16-7.2-16-16v-320c0-8.8 7.2-16 16-16h224c8.8 0 16 7.2 16 16v320z"></path>
<path d="M160 240v-48h-16v64h64v-16h-16z"></path>
<path d="M160 320v-48h-16v64h64v-16h-16z"></path>
<path d="M160 400v-48h-16v64h64v-16h-16z"></path>
<path d="M240 240v-48h-16v64h64v-16h-16z"></path>
<path d="M320 240v-48h-16v64h64v-16h-16z"></path>
<path d="M240 320v-48h-16v64h64v-16h-16z"></path>
<path d="M240 400v-48h-16v64h64v-16h-16z"></path>
<path d="M320 400v-128h-16v144h64v-16h-16z"></path>
</svg>
