<?xml version="1.0" encoding="utf-8"?>
<!-- Generated by IcoMoon.io -->
<!DOCTYPE svg PUBLIC "-//W3C//DTD SVG 1.1//EN" "http://www.w3.org/Graphics/SVG/1.1/DTD/svg11.dtd">
<svg version="1.1" xmlns="http://www.w3.org/2000/svg" xmlns:xlink="http://www.w3.org/1999/xlink" width="512" height="512" viewBox="0 0 512 512">
<path d="M256 48c-8.044 0-15.975 0.473-23.782 1.361v0 0c-103.663 11.805-184.218 99.819-184.218 206.639 0 114.863 93.137 208 208 208 106.827 0 194.833-80.553 206.638-184.218v0 0c0.889-7.805 1.362-15.737 1.362-23.782 0-114.863-93.13-208-208-208zM259.939 446.614c-0.539-8.693-1.605-17.305-3.209-25.804l-21.511 6.896-4.885-15.234 22.812-7.314c-2.183-8.056-4.856-15.994-8.020-23.794-1.943-4.794-4.061-9.497-6.341-14.105l-19.464 13.186-8.972-13.247 20.744-14.054c-7.416-12.429-16.149-24.057-26.119-34.803l-16.852 16.853-11.313-11.313 16.852-16.852c-10.442-9.689-21.721-18.202-33.757-25.48l-14.216 20.988-13.247-8.973 13.403-19.788c-4.96-2.491-10.027-4.799-15.206-6.9-7.455-3.021-15.038-5.59-22.725-7.717l-7.5 23.392-15.236-4.885 7.115-22.192c-8.856-1.723-17.835-2.853-26.904-3.412 0.109-5.373 0.438-10.695 0.984-15.953 10.339 0.647 20.639 1.998 30.827 4.068l7.518-23.454 15.237 4.886-7.159 22.328c14.433 4.027 28.542 9.521 42.090 16.494l13.449-19.854 13.248 8.973-12.7 18.748c12.712 7.754 24.815 16.892 36.1 27.411l17.082-17.082 11.314 11.314-17.083 17.082c10.809 11.595 20.156 24.055 28.044 37.151l18.999-12.869 8.973 13.248-20.183 13.67c6.878 13.546 12.289 27.642 16.232 42.058l22.919-7.349 4.885 15.236-24.122 7.734c1.947 9.828 3.231 19.761 3.854 29.727-5.259 0.548-10.582 0.875-15.957 0.985zM410.961 275.293l-8.529 26.604-15.236-4.885 8.174-25.493c-14.124-3.964-27.94-9.329-41.218-16.116l-15.335 22.641-13.248-8.973 14.564-21.499c-12.912-7.826-25.199-17.077-36.644-27.746l-19.205 19.204-11.312-11.314 19.202-19.203c-10.381-11.135-19.427-23.062-27.114-35.59l-21.248 14.393-8.974-13.248 22.335-15.127c-6.881-13.278-12.339-27.099-16.384-41.241l-24.918 7.99-4.885-15.237 25.951-8.321c-2.447-11.663-3.943-23.482-4.522-35.337 5.189-0.644 10.446-1.068 15.754-1.284 0.507 10.743 1.859 21.334 3.972 31.807l19.744-6.359 4.907 15.212-20.789 6.658c2.051 7.218 4.491 14.338 7.333 21.348 2.176 5.363 4.578 10.603 7.174 15.731l17.315-11.729 8.973 13.246-18.477 12.516c7.209 11.846 15.619 22.957 25.174 33.254l14.729-14.731 11.314 11.313-14.732 14.731c10.602 9.836 22.062 18.463 34.302 25.813l12.352-18.235 13.248 8.973-11.512 16.994c4.777 2.383 9.656 4.589 14.635 6.608 7.354 2.982 14.837 5.521 22.421 7.631l6.484-20.22 15.233 4.885-6.104 19.043c10.116 1.984 20.286 3.311 30.626 3.824-0.215 5.312-0.643 10.572-1.285 15.768-11.486-0.564-22.937-1.985-34.245-4.299z"></path>
</svg>
