<?xml version="1.0" encoding="utf-8"?>
<!-- Generated by IcoMoon.io -->
<!DOCTYPE svg PUBLIC "-//W3C//DTD SVG 1.1//EN" "http://www.w3.org/Graphics/SVG/1.1/DTD/svg11.dtd">
<svg version="1.1" xmlns="http://www.w3.org/2000/svg" xmlns:xlink="http://www.w3.org/1999/xlink" width="512" height="512" viewBox="0 0 512 512">
<path fill="#000000" d="M247 96h18v56h-18v-56z"></path>
<path fill="#000000" d="M247 356h18v60h-18v-60z"></path>
<path fill="#000000" d="M360 247h56v18h-56v-18z"></path>
<path fill="#000000" d="M96 247h60v18h-60v-18z"></path>
<path fill="#000000" d="M370.26 352.286l-11.88 11.88-33.8-33.8 11.88-11.88 33.8 33.8z"></path>
<path fill="#000000" d="M193.544 175.48l-11.88 11.88-33.87-33.87 11.88-11.88 33.87 33.87z"></path>
<path fill="#000000" d="M358.335 141.745l11.88 11.88-33.8 33.799-11.88-11.88 33.8-33.799z"></path>
<path fill="#000000" d="M181.563 318.404l11.877 11.881-33.875 33.865-11.877-11.881 33.875-33.865z"></path>
<path fill="#000000" d="M256 331.8c-41.8 0-75.8-34-75.8-75.8s34-75.8 75.8-75.8c41.8 0 75.8 34 75.8 75.8s-34 75.8-75.8 75.8z"></path>
</svg>
