<?xml version="1.0" encoding="utf-8"?>
<!-- Generated by IcoMoon.io -->
<!DOCTYPE svg PUBLIC "-//W3C//DTD SVG 1.1//EN" "http://www.w3.org/Graphics/SVG/1.1/DTD/svg11.dtd">
<svg version="1.1" xmlns="http://www.w3.org/2000/svg" xmlns:xlink="http://www.w3.org/1999/xlink" width="512" height="512" viewBox="0 0 512 512">
<path d="M472 176h-432c-4.411 0-8 3.589-8 8v239c0 13.317 11.683 25 25 25h400c12.683 0 23-11.215 23-25v-239c0-4.411-3.589-8-8-8z"></path>
<path d="M457 96h-242c-2.791 0-4.271-0.585-6.094-2.408l-22.669-22.663c-4.872-4.596-8.876-6.929-17.237-6.929h-112c-13.785 0-25 10.317-25 23v74.376c2.504-0.888 5.195-1.376 8-1.376h432c2.805 0 5.496 0.488 8 1.376v-42.376c0-13.327-9.673-23-23-23z"></path>
</svg>
