<?xml version="1.0" encoding="utf-8"?>
<!-- Generated by IcoMoon.io -->
<!DOCTYPE svg PUBLIC "-//W3C//DTD SVG 1.1//EN" "http://www.w3.org/Graphics/SVG/1.1/DTD/svg11.dtd">
<svg version="1.1" xmlns="http://www.w3.org/2000/svg" xmlns:xlink="http://www.w3.org/1999/xlink" width="512" height="512" viewBox="0 0 512 512">
<path fill="#000000" d="M417.5 160h-61.7c-32.1-36-42.2-48-54.5-48h-88.5c-12.3 0-22.2 12-54.5 48h-13.3v-16h-34v16h-13.5c-17.6 0-33.5 13.2-33.5 30.7v176c0 17.5 15.9 33.3 33.5 33.3h320c17.6 0 30.5-15.8 30.5-33.3v-176c0-17.5-12.9-30.7-30.5-30.7zM432 366.7c0 9.3-6.2 17.3-14.5 17.3h-320c-8.7 0-17.5-8.7-17.5-17.3v-176c0-8.2 8.1-14.7 17.5-14.7h67.8l4.8-3.2c4-4.5 7.7-10 11.1-13.8 11.3-12.7 19.5-21.7 25.3-26.9 4.7-4.2 6.2-4.1 6.2-4.1h88.5c0 0 1.6-0.1 6.7 4.5 6.1 5.5 14.7 16.5 26.6 29.8 2.9 3.3 6 6.8 9.3 10.5l4.8 3.2h68.9c8.8 0 14.5 6 14.5 14.7v176z"></path>
<path fill="#000000" d="M256 189.5c-47.1 0-85.5 38.4-85.5 85.5s38.4 85.5 85.5 85.5 85.5-38.4 85.5-85.5-38.4-85.5-85.5-85.5zM256 344.5c-38.4 0-69.5-31.1-69.5-69.5s31.1-69.5 69.5-69.5 69.5 31.1 69.5 69.5-31.1 69.5-69.5 69.5z"></path>
<path fill="#000000" d="M352 192h17v17h-17v-17z"></path>
<path fill="#000000" d="M288 275c0 17.673-14.327 32-32 32s-32-14.327-32-32c0-17.673 14.327-32 32-32s32 14.327 32 32z"></path>
</svg>
