<?xml version="1.0" encoding="utf-8"?>
<!-- Generated by IcoMoon.io -->
<!DOCTYPE svg PUBLIC "-//W3C//DTD SVG 1.1//EN" "http://www.w3.org/Graphics/SVG/1.1/DTD/svg11.dtd">
<svg version="1.1" xmlns="http://www.w3.org/2000/svg" xmlns:xlink="http://www.w3.org/1999/xlink" width="512" height="512" viewBox="0 0 512 512">
<path d="M192.011 149.661l-34.043 34.041 256.097 256.096 33.935-34.041-255.989-256.096zM212.596 215.702l11.415-11.414 201.468 201.469-11.414 11.414-201.469-201.469z"></path>
<path d="M184 64h16v40h-16v-40z"></path>
<path d="M184 268h16v40h-16v-40z"></path>
<path d="M280 176h40v16h-40v-16z"></path>
<path d="M64 176h40v16h-40v-16z"></path>
<path d="M139.675 122.558l-11.314 11.313-28.284-28.284 11.314-11.314 28.284 28.284z"></path>
<path d="M111.389 278.128l-11.312-11.312 28.284-28.284 11.312 11.312-28.284 28.284z"></path>
<path d="M255.641 133.877l-11.314-11.314 28.284-28.284 11.313 11.314-28.284 28.284z"></path>
</svg>
