<?xml version="1.0" encoding="utf-8"?>
<!-- Generated by IcoMoon.io -->
<!DOCTYPE svg PUBLIC "-//W3C//DTD SVG 1.1//EN" "http://www.w3.org/Graphics/SVG/1.1/DTD/svg11.dtd">
<svg version="1.1" xmlns="http://www.w3.org/2000/svg" xmlns:xlink="http://www.w3.org/1999/xlink" width="512" height="512" viewBox="0 0 512 512">
<path d="M416 319.9v-241.9l-224 34.6v237.2c-9 0-20.9 0.4-43.5 1.3-42.6 1.6-52.5 21.8-52.5 41.3 0 24.9 13.5 43.5 62.6 41.4 52.8-2.3 50.3-49 50.3-82.5v-161.5l191-32v160.6c-9 0-19.9 0.4-42.6 1.3-42.6 1.6-52.5 21.8-52.5 41.3 0 24.9 13 43.5 62.2 41.4 53-2.3 49-49 49-82.5z"></path>
</svg>
