<?xml version="1.0" encoding="utf-8"?>
<!-- Generated by IcoMoon.io -->
<!DOCTYPE svg PUBLIC "-//W3C//DTD SVG 1.1//EN" "http://www.w3.org/Graphics/SVG/1.1/DTD/svg11.dtd">
<svg version="1.1" xmlns="http://www.w3.org/2000/svg" xmlns:xlink="http://www.w3.org/1999/xlink" width="512" height="512" viewBox="0 0 512 512">
<path d="M349.7 189.8c-3.1 3.1-8 3-11.3 0l-74.4-66.4v284.6c0 4.4-3.6 8-8 8s-8-3.6-8-8v-284.6l-74.4 66.3c-3.4 2.9-8.1 3.2-11.2 0.1s-3.3-8.5-0.1-11.4c0 0 87-79.2 88-80s2.8-2.4 5.7-2.4 4.9 1.6 5.7 2.4 88 80 88 80c1.5 1.5 2.3 3.6 2.3 5.7s-0.8 4.1-2.3 5.7z"></path>
</svg>
