<?xml version="1.0" encoding="utf-8"?>
<!-- Generated by IcoMoon.io -->
<!DOCTYPE svg PUBLIC "-//W3C//DTD SVG 1.1//EN" "http://www.w3.org/Graphics/SVG/1.1/DTD/svg11.dtd">
<svg version="1.1" xmlns="http://www.w3.org/2000/svg" xmlns:xlink="http://www.w3.org/1999/xlink" width="512" height="512" viewBox="0 0 512 512">
<path fill="#000000" d="M223.899 32c25.691 145-96.732 142-95.895 288 0.686 119.51 104.975 160 128.143 160 23.166 0 113.88-26 126.931-160 10.633-109.184-72.506-224-159.179-288zM256.147 472c0 0-40.701-35.816-40.701-80s40.555-80 40.555-80 40.332 35.817 40.332 80c-0.001 44.184-40.186 80-40.186 80zM367.153 318.449c-2.823 28.988-9.704 54.523-20.45 75.894-8.749 17.397-20.084 32.114-33.692 43.743-6.522 5.575-13.255 10.115-19.771 13.749 10.039-15.938 19.093-36.72 19.093-59.835 0-50.788-43.842-90.307-45.708-91.963l-10.594-9.41-10.621 9.381c-1.877 1.657-45.963 41.178-45.963 91.992 0 21.842 8.168 41.594 17.636 57.152-7.381-4.326-15.215-9.748-22.986-16.451-14.688-12.67-26.365-27.608-34.708-44.402-10.063-20.255-15.239-43.265-15.383-68.391-0.367-63.986 24.090-95.746 49.983-129.369 24.568-31.903 49.829-64.7 49.458-122.113 32.513 28.827 61.257 63.030 82.822 98.877 31.307 52.047 45.446 104.312 40.884 151.146z"></path>
</svg>
