<?xml version="1.0" encoding="utf-8"?>
<!-- Generated by IcoMoon.io -->
<!DOCTYPE svg PUBLIC "-//W3C//DTD SVG 1.1//EN" "http://www.w3.org/Graphics/SVG/1.1/DTD/svg11.dtd">
<svg version="1.1" xmlns="http://www.w3.org/2000/svg" xmlns:xlink="http://www.w3.org/1999/xlink" width="512" height="512" viewBox="0 0 512 512">
<path fill="#000000" d="M443.827 195.5c-4.383-11.73-11.753-20.212-21.317-24.524-4.389-1.975-8.995-2.976-13.688-2.976-20.025 0-40.372 18.667-50.632 46.454-12.698 34.42-5.315 68.135 17.173 78.423 4.522 2.071 9.365 3.123 14.394 3.123 20.396 0 41.126-17.119 51.581-42.596 7.9-19.283 8.83-40.927 2.489-57.904zM426.214 246.295c-7.836 18.898-22.994 32.098-36.862 32.098-2.809 0-5.488-0.569-7.968-1.694-14.121-6.394-17.862-31.059-8.518-56.152 7.775-20.817 22.448-35.355 35.683-35.355 2.51 0 4.979 0.533 7.34 1.588 6.88 3.067 10.622 9.712 12.551 14.745 4.91 12.807 4.078 29.543-2.226 44.77z"></path>
<path fill="#000000" d="M153.811 214.454c-10.26-27.787-30.607-46.454-50.632-46.454-4.693 0-9.3 1.001-13.689 2.976-9.565 4.312-16.934 12.794-21.317 24.524-6.341 16.977-5.411 38.621 2.49 57.904 10.455 25.477 31.185 42.596 51.581 42.596 5.028 0 9.871-1.052 14.394-3.123 22.488-10.288 29.871-44.003 17.173-78.423zM130.616 276.698c-2.479 1.125-5.16 1.694-7.968 1.694-13.868 0-29.026-13.199-36.862-32.098-6.304-15.227-7.136-31.963-2.226-44.771 1.929-5.033 5.671-11.678 12.551-14.745 2.361-1.055 4.83-1.588 7.34-1.588 13.234 0 27.907 14.538 35.683 35.355 9.345 25.095 5.603 49.76-8.518 56.153z"></path>
<path fill="#000000" d="M198.347 210.601c1.855 0.081 3.727 0.030 5.563-0.151 10.787-1.059 20.54-6.594 28.207-16.008 12.371-15.191 15.806-38.974 13.201-63.439-3.982-37.703-23.849-65.842-50.542-67.003 0 0-3.811 0.008-5.75 0.193-11.776 1.164-22.481 7.283-30.957 17.695-12.291 15.101-18.198 37.57-15.803 60.104 3.936 37.277 28.57 67.412 56.081 68.609zM171.047 91.831c3.923-4.739 10.51-10.577 19.62-11.476 1.143-0.113 2.288-0.146 3.404-0.098 18.207 0.792 31.859 23.271 34.936 52.428 2.146 20.15-0.148 40.055-9.845 51.779-4.874 5.898-10.556 9.204-16.881 9.825-1.081 0.104-2.167 0.133-3.229 0.087-19.257-0.838-37.414-25.091-40.473-54.067-1.968-18.53 2.694-36.653 12.468-48.478z"></path>
<path fill="#000000" d="M256 240c-64 0-128 76.074-128 149.128 0 21.798 10.932 39.331 21.667 46.517 13.258 8.871 22.602 12.355 42.037 12.355 23.093 0 29.325-8.078 40.136-15.205 7.819-5.152 14.572-9.605 24.161-9.605s16.342 4.453 24.16 9.605c10.811 7.127 17.042 15.205 40.136 15.205 19.434 0 28.778-3.484 42.036-12.355 10.735-7.186 21.667-24.719 21.667-46.517 0-73.054-64-149.128-128-149.128zM353.963 420.776c-10.964 7.337-17.366 9.778-33.666 9.778-14.225 0-18.624-3.201-25.911-8.51-1.848-1.344-3.759-2.736-5.946-4.177-8.619-5.682-18.39-12.123-32.439-12.123s-23.82 6.441-32.438 12.121c-2.189 1.442-4.1 2.835-5.947 4.179-7.287 5.309-11.686 8.51-25.911 8.51-16.3 0-22.703-2.441-33.667-9.778-5.643-3.776-14.038-15.32-14.038-31.648 0-30.277 13.377-64.231 35.783-90.823 10.886-12.921 23.517-23.6 36.526-30.885 13.404-7.503 26.758-11.42 39.691-11.42s26.287 3.917 39.691 11.42c13.010 7.285 25.64 17.964 36.525 30.885 22.407 26.591 35.784 60.546 35.784 90.823 0 16.328-8.395 27.872-14.037 31.648z"></path>
<path fill="#000000" d="M308.281 210.265c1.836 0.182 3.709 0.232 5.563 0.151 27.511-1.196 52.146-31.332 56.081-68.607 2.395-22.534-3.514-45.004-15.804-60.104-8.476-10.412-18.783-16.228-30.56-17.392-1.939-0.186-6.146-0.312-6.146-0.312-26.693 1.161-46.561 29.115-50.542 66.817-2.604 24.466 0.83 48.248 13.2 63.439 7.668 9.414 17.421 14.949 28.208 16.008zM283.186 132.501c3.076-29.156 16.729-51.636 34.936-52.428 1.115-0.048 2.261-0.016 3.404 0.098 9.109 0.898 15.696 6.736 19.619 11.476 9.774 11.825 14.436 29.948 12.468 48.479-3.060 28.977-21.216 53.229-40.474 54.067-1.061 0.046-2.146 0.017-3.229-0.087-6.324-0.621-12.007-3.927-16.881-9.825-9.695-11.725-11.99-31.63-9.843-51.78z"></path>
</svg>
