<?xml version="1.0" encoding="utf-8"?>
<!-- Generated by IcoMoon.io -->
<!DOCTYPE svg PUBLIC "-//W3C//DTD SVG 1.1//EN" "http://www.w3.org/Graphics/SVG/1.1/DTD/svg11.dtd">
<svg version="1.1" xmlns="http://www.w3.org/2000/svg" xmlns:xlink="http://www.w3.org/1999/xlink" width="512" height="512" viewBox="0 0 512 512">
<path fill="#000000" d="M256 32c-43.7 0-79 37.5-79 83.5v154.5c0 46 35.3 83.5 79 83.5s79-37.5 79-83.5v-154.5c0-46-35.3-83.5-79-83.5zM319 270c0 37.2-28.3 67.5-63 67.5s-63-30.3-63-67.5v-154.5c0-37.2 28.3-67.5 63-67.5s63 30.3 63 67.5v154.5z"></path>
<path fill="#000000" d="M367 192v79.7c0 60.2-49.8 109.2-110 109.2s-110-49-110-109.2v-79.7h-19v79.7c0 67.2 53 122.6 120 127.5v62.8h-73v18h161v-18h-69v-62.8c66-4.9 117-60.3 117-127.5v-79.7h-17z"></path>
</svg>
