<?xml version="1.0" encoding="utf-8"?>
<!-- Generated by IcoMoon.io -->
<!DOCTYPE svg PUBLIC "-//W3C//DTD SVG 1.1//EN" "http://www.w3.org/Graphics/SVG/1.1/DTD/svg11.dtd">
<svg version="1.1" xmlns="http://www.w3.org/2000/svg" xmlns:xlink="http://www.w3.org/1999/xlink" width="512" height="512" viewBox="0 0 512 512">
<path d="M347.621 64c-40.941 0-79.121 14-91.578 44.495-13.543-30.495-50.635-44.495-91.577-44.495-55.201 0-100.466 25.98-100.466 79v283h22.14c12.86-26.334 44.238-42 78.325-42 40.224 0 73.877 27.528 81.617 64h19.714c7.739-36.472 41.495-64 81.722-64 34.085 0 61.149 11.666 78.429 42h22.053v-283c0-53.020-45.177-79-100.379-79zM248 410.926c-18-25.871-48.73-42.926-83.5-42.926-34.769 0-64.5 10.055-83.5 35.926l-1 0.537v-263.463c3-41.825 40.089-61 84.293-61 45.162 0 82.145 18.708 83.363 61.808-0.017 0.729 0.016 1.459 0.016 2.192l0.328 13.103v253.823zM432 148v255.926c-18-25.871-49.731-35.926-84.5-35.926s-65.5 17.055-83.5 42.926v-266.926c0-44.112 37.659-64 83.587-64 44.203 0 81.413 11.175 84.413 53v15z"></path>
</svg>
