<?xml version="1.0" encoding="utf-8"?>
<!-- Generated by IcoMoon.io -->
<!DOCTYPE svg PUBLIC "-//W3C//DTD SVG 1.1//EN" "http://www.w3.org/Graphics/SVG/1.1/DTD/svg11.dtd">
<svg version="1.1" xmlns="http://www.w3.org/2000/svg" xmlns:xlink="http://www.w3.org/1999/xlink" width="512" height="512" viewBox="0 0 512 512">
<path d="M256 112c97 0 176 62 176 138.3 0 35.9-17.6 69.2-49.5 93.9-32.8 25.4-77.4 39.3-125.5 39.3-28.9 0-51-3-69.7-9.3-0.6-0.2-1.3-0.5-2-0.7-0.3-0.1-0.6-0.2-0.8-0.2-4.7-1.4-9.7-2.1-14.7-2.1-5.6 0-11.1 0.9-16.3 2.6v0l-0.3 0.1c-0.6 0.2-8.9 3.3-11 4.3v0l-39.6 17.2c13.8-43.9 13.8-44.8 13.8-47.6 0-7.1-2.2-14.1-6.3-20.2-0.5-0.7-1-1.4-1.6-2.1-0.7-0.9-1.3-1.7-1.8-2.3-17.4-21.9-26.6-47.1-26.6-73-0.1-76.2 78.9-138.2 175.9-138.2zM256 96c-106.1 0-192 69.1-192 154.3 0 30.7 11.2 59.3 30.4 83.3 0.9 0.9 2.9 3.8 3.6 4.9 0 0-1-1.6-1.1-1.9 0 0 0 0 0 0v0c0 0 0 0 0 0 2.3 3.3 3.6 7.1 3.6 11.2 0 1.4-17.9 58-17.9 58v0c-1.3 4.4 2.1 8.9 7.6 10 0.8 0.2 1.6 0.2 2.4 0.2 1.3 0 2.5-0.2 3.7-0.5l1.6-0.6 50.6-22c0.9-0.4 9-3.5 10-3.9 0 0 0.6-0.2 0.6-0.2s-0.1 0-0.6 0.2c3.4-1.2 7.2-1.8 11.2-1.8 3.6 0 7.1 0.5 10.3 1.5 0.1 0 0.2 0 0.2 0.1 0.5 0.2 1 0.3 1.5 0.5 23.1 7.9 48.4 10.3 75.1 10.3 106 0 191-64.1 191-149.3 0.2-85.2-85.8-154.3-191.8-154.3v0z"></path>
</svg>
