<?xml version="1.0" encoding="utf-8"?>
<!-- Generated by IcoMoon.io -->
<!DOCTYPE svg PUBLIC "-//W3C//DTD SVG 1.1//EN" "http://www.w3.org/Graphics/SVG/1.1/DTD/svg11.dtd">
<svg version="1.1" xmlns="http://www.w3.org/2000/svg" xmlns:xlink="http://www.w3.org/1999/xlink" width="512" height="512" viewBox="0 0 512 512">
<path fill="#000000" d="M340.1 177.3l-124.8 125.7-47.2-47.2-17.8 17.8 56 56c2.5 2.5 5.9 4.5 8.9 4.5s6.3-2 8.8-4.4l133.7-134.4-17.6-18z"></path>
<path fill="#000000" d="M256 48c-114.9 0-208 93.1-208 208s93.1 208 208 208c114.9 0 208-93.1 208-208s-93.1-208-208-208zM256 446.7c-105.1 0-190.7-85.5-190.7-190.7 0-105.1 85.5-190.7 190.7-190.7 105.1 0 190.7 85.5 190.7 190.7 0 105.1-85.6 190.7-190.7 190.7z"></path>
</svg>
