<?xml version="1.0" encoding="utf-8"?>
<!-- Generated by IcoMoon.io -->
<!DOCTYPE svg PUBLIC "-//W3C//DTD SVG 1.1//EN" "http://www.w3.org/Graphics/SVG/1.1/DTD/svg11.dtd">
<svg version="1.1" xmlns="http://www.w3.org/2000/svg" xmlns:xlink="http://www.w3.org/1999/xlink" width="512" height="512" viewBox="0 0 512 512">
<path fill="#000000" d="M462.686 279.369c0.132-1.182 0.257-2.365 0.369-3.554 0.004-0.038 0.007-0.078 0.011-0.117 0.609-6.485 0.934-13.053 0.934-19.698 0-114.863-93.13-208-208-208-7.951 0-15.792 0.462-23.512 1.331-0.089 0.010-0.18 0.018-0.27 0.028 0 0.001 0 0.002 0 0.003-97.011 11.047-173.776 88.837-183.229 186.325-0.001 0-0.003 0-0.004 0-0.072 0.748-0.131 1.497-0.195 2.246-0.136 1.576-0.253 3.157-0.353 4.743-0.026 0.418-0.056 0.835-0.080 1.254-0.064 1.121-0.116 2.245-0.163 3.371-0.011 0.281-0.021 0.562-0.032 0.843-0.097 2.607-0.162 5.224-0.162 7.856 0 114.863 93.137 208 208 208 2.627 0 5.239-0.065 7.843-0.162 0.293-0.011 0.586-0.021 0.878-0.033 1.11-0.046 2.219-0.098 3.324-0.16 0.454-0.025 0.906-0.058 1.359-0.086 1.604-0.103 3.201-0.222 4.795-0.36 0.704-0.061 1.41-0.115 2.113-0.184 0-0.001 0-0.003 0-0.004 97.494-9.452 175.279-86.216 186.326-183.229 0.001 0 0.002 0 0.004 0 0.016-0.137 0.028-0.275 0.044-0.413zM446.665 256c0 2.568-0.066 5.122-0.167 7.666-10.334-0.468-20.552-1.69-30.614-3.664l6.11-19.056-15.232-4.884-6.488 20.235c-7.591-2.112-15.080-4.651-22.442-7.638-4.976-2.018-9.851-4.223-14.625-6.604l11.518-17.003-13.247-8.974-12.359 18.246c-12.241-7.35-23.703-15.977-34.305-25.812l14.73-14.73-11.313-11.313-14.73 14.73c-9.555-10.297-17.964-21.408-25.175-33.254l18.487-12.522-8.972-13.246-17.324 11.735c-2.597-5.131-4.998-10.375-7.174-15.74-2.843-7.009-5.276-14.134-7.327-21.352l20.812-6.673-4.885-15.234-19.711 6.32c-2.104-10.423-3.41-21.014-3.896-31.729 2.544-0.101 5.097-0.167 7.665-0.167 105.131-0.002 190.664 85.532 190.664 190.663zM65.337 256c0-1.317 0.023-2.629 0.050-3.939 9.064 0.559 18.039 1.687 26.891 3.409l-7.115 22.191 15.235 4.885 7.5-23.391c7.692 2.128 15.28 4.696 22.738 7.721 5.175 2.099 10.239 4.404 15.197 6.896l-13.405 19.79 13.246 8.973 14.219-20.992c12.038 7.279 23.32 15.793 33.765 25.483l-16.853 16.853 11.313 11.314 16.854-16.854c9.968 10.744 18.7 22.369 26.114 34.796l-20.753 14.058 8.972 13.246 19.473-13.19c2.283 4.611 4.4 9.317 6.347 14.116 3.161 7.795 5.834 15.729 8.016 23.778l-22.832 7.32 4.884 15.233 21.531-6.903c1.608 8.506 2.679 17.122 3.215 25.822-1.311 0.026-2.622 0.050-3.939 0.050-105.13-0.001-190.664-85.535-190.663-190.665zM275.893 445.629c-0.621-9.974-1.911-19.911-3.859-29.746l24.1-7.727-4.884-15.232-22.896 7.341c-3.946-14.415-9.356-28.51-16.234-42.054l20.172-13.664-8.973-13.246-18.988 12.862c-7.888-13.094-17.233-25.552-28.040-37.145l17.081-17.081-11.313-11.313-17.082 17.081c-11.288-10.521-23.393-19.66-36.108-27.414l12.696-18.743-13.246-8.972-13.446 19.85c-13.548-6.974-27.659-12.467-42.094-16.494l7.158-22.325-15.235-4.885-7.52 23.452c-10.181-2.068-20.477-3.424-30.81-4.067 9.168-88.037 78.492-158.454 166.023-169.311 0.574 11.858 2.095 23.676 4.543 35.339l-25.935 8.316 4.885 15.234 24.903-7.985c4.045 14.144 9.504 27.967 16.386 41.246l-22.322 15.121 8.973 13.246 21.236-14.385c7.688 12.528 16.735 24.455 27.116 35.59l-19.204 19.204 11.313 11.314 19.204-19.205c11.447 10.669 23.735 19.921 36.647 27.745l-14.555 21.486 13.248 8.974 15.328-22.628c13.28 6.789 27.1 12.155 41.229 16.118l-8.168 25.477 15.232 4.884 8.525-26.59c11.301 2.312 22.744 3.754 34.224 4.31-10.856 87.53-81.273 156.853-169.31 166.022z"></path>
</svg>
