<?xml version="1.0" encoding="utf-8"?>
<!-- Generated by IcoMoon.io -->
<!DOCTYPE svg PUBLIC "-//W3C//DTD SVG 1.1//EN" "http://www.w3.org/Graphics/SVG/1.1/DTD/svg11.dtd">
<svg version="1.1" xmlns="http://www.w3.org/2000/svg" xmlns:xlink="http://www.w3.org/1999/xlink" width="512" height="512" viewBox="0 0 512 512">
<path fill="#000000" d="M256 32c-114.826 0-209.456 86.404-222.46 197.739-1.006 8.615-1.54 17.375-1.54 26.261 0 1.783 0.026 3.561 0.067 5.333 2.834 121.248 102.004 218.667 223.933 218.667 105.255 0 193.537-72.602 217.542-170.454 1.337-5.451 2.474-10.979 3.404-16.579 1.997-12.028 3.054-24.373 3.054-36.967 0-123.712-100.288-224-224-224zM462.585 280.352c-7.265-7.807-13.064-16.090-15.702-20.429-0.871-1.47-21.682-35.994-52.828-35.994-27.937 0-42.269 26.269-51.751 43.65-1.415 2.593-2.75 5.041-3.978 7.118-11.566 19.587-27.693 30.608-43.105 29.541-13.586-0.959-25.174-11.403-32.628-29.41-9.331-22.54-29.551-46.812-53.689-50.229-11.428-1.619-28.553 0.866-45.325 21.876-3.293 4.124-6.964 9.612-11.215 15.967-10.572 15.804-26.549 39.686-38.653 41.663-21.020 3.438-35.021-12.596-35.583-13.249l-0.487-0.58-0.587-0.479c-0.208-0.17-15.041-12.417-29.047-33.334 0-0.155-0.006-0.31-0.006-0.464 0-28.087 5.497-55.325 16.339-80.958 10.476-24.767 25.476-47.013 44.583-66.12s41.354-34.107 66.12-44.583c25.632-10.841 52.87-16.338 80.957-16.338s55.325 5.497 80.958 16.339c24.767 10.476 47.013 25.476 66.12 44.583s34.107 41.354 44.583 66.12c10.842 25.633 16.339 52.871 16.339 80.958 0 8.197-0.482 16.318-1.415 24.352z"></path>
</svg>
