<?xml version="1.0" encoding="utf-8"?>
<!-- Generated by IcoMoon.io -->
<!DOCTYPE svg PUBLIC "-//W3C//DTD SVG 1.1//EN" "http://www.w3.org/Graphics/SVG/1.1/DTD/svg11.dtd">
<svg version="1.1" xmlns="http://www.w3.org/2000/svg" xmlns:xlink="http://www.w3.org/1999/xlink" width="512" height="512" viewBox="0 0 512 512">
<path fill="#000000" d="M489.373 256l-41.373 41.373-42.373-41.373-10.814 10.813 53.187 53.187 52.687-52.687z"></path>
<path fill="#000000" d="M459.994 255.509c-0.002-0.577 0.013-1.157 0.007-1.733l-0.029-0.003c-1.201-111.462-92.23-201.773-203.972-201.773-73.59 0-141.753 39.878-177.888 104.071l13.943 7.848c33.304-59.165 96.125-95.919 163.945-95.919 103.273 0 187.355 83.708 187.985 186.836 0.038 6.882-0.281 13.83-1.017 20.831l15.912 1.674c0.755-7.168 1.105-14.286 1.111-21.341h0.009c0-0.164-0.006-0.327-0.006-0.491z"></path>
<path fill="#000000" d="M419.944 348.081c-33.303 59.165-96.124 95.919-163.944 95.919-103.475 0-187.688-84.032-187.993-187.437-0.015-6.686 0.31-13.434 1.024-20.23l-15.912-1.674c-0.754 7.168-1.104 14.286-1.108 21.341h-0.011c0 0.472 0.015 0.939 0.018 1.41 0.006 0.975-0.006 1.952 0.015 2.924l0.022-0.003c2.314 110.494 92.907 199.669 203.945 199.669 73.59 0 141.753-39.878 177.888-104.071l-13.944-7.848z"></path>
<path fill="#000000" d="M64 192l-52.687 52.687 11.314 11.313 41.373-41.373 41.373 41.373 11.314-11.313z"></path>
</svg>
