<?xml version="1.0" encoding="utf-8"?>
<!-- Generated by IcoMoon.io -->
<!DOCTYPE svg PUBLIC "-//W3C//DTD SVG 1.1//EN" "http://www.w3.org/Graphics/SVG/1.1/DTD/svg11.dtd">
<svg version="1.1" xmlns="http://www.w3.org/2000/svg" xmlns:xlink="http://www.w3.org/1999/xlink" width="512" height="512" viewBox="0 0 512 512">
<path d="M189.8 349.7c3.1-3.1 3-8 0-11.3l-66.4-74.4h284.6c4.4 0 8-3.6 8-8s-3.6-8-8-8h-284.6l66.3-74.4c2.9-3.4 3.2-8.1 0.1-11.2s-8.5-3.3-11.4-0.1c0 0-79.2 87-80 88s-2.4 2.8-2.4 5.7 1.6 4.9 2.4 5.7 80 88 80 88c1.5 1.5 3.6 2.3 5.7 2.3s4.1-0.8 5.7-2.3z"></path>
</svg>
