<?xml version="1.0" encoding="utf-8"?>
<!-- Generated by IcoMoon.io -->
<!DOCTYPE svg PUBLIC "-//W3C//DTD SVG 1.1//EN" "http://www.w3.org/Graphics/SVG/1.1/DTD/svg11.dtd">
<svg version="1.1" xmlns="http://www.w3.org/2000/svg" xmlns:xlink="http://www.w3.org/1999/xlink" width="512" height="512" viewBox="0 0 512 512">
<path d="M342.9 165.4l9.1-6.4 9.1 6.4 22.9 14.5v-115.9c-20.7 0-44.5 0-64 0v115.9l22.9-14.5z"></path>
<path d="M432 64c0 0-13.3 0-32 0v146.5l-48-32-48 32v-146.5c-12.1 0-20.6 0-22.4 0-8.1 0-17.6 7.2-17.6 15s0 329 0 329l-8 5.5-8-5.5c0 0 0-322 0-329s-9.2-15-17.6-15-150.4 0-150.4 0c-18.8 0-33 13.3-33 32v286.1c0 18.8 14.2 33.9 33 33.9 0 0 129.5 0 143.3 0s24.7 4.2 24.7 19.4c0 9.1 0 12.6 0 12.6h16c0 0 0-3.4 0-12.6 0-15.3 10.9-19.4 24.7-19.4s143.3 0 143.3 0c18.8 0 33-15.1 33-33.9v-286.1c0-18.7-14.2-32-33-32z"></path>
</svg>
