<?xml version="1.0" encoding="utf-8"?>
<!-- Generated by IcoMoon.io -->
<!DOCTYPE svg PUBLIC "-//W3C//DTD SVG 1.1//EN" "http://www.w3.org/Graphics/SVG/1.1/DTD/svg11.dtd">
<svg version="1.1" xmlns="http://www.w3.org/2000/svg" xmlns:xlink="http://www.w3.org/1999/xlink" width="512" height="512" viewBox="0 0 512 512">
<path fill="#000000" d="M366.194 212.122c1.185-6.528 1.807-13.252 1.807-20.122 0-61.856-50.146-112-112.001-112-61.857 0-112.001 50.144-112.001 112 0 6.87 0.622 13.594 1.806 20.122-47.187 13.18-81.805 56.484-81.805 107.878 0 61.855 50.144 112 112 112 31.341 0 59.67-12.879 80-33.627 20.328 20.748 48.658 33.627 79.999 33.627 61.855 0 112.001-50.145 112.001-112 0-51.394-34.619-94.697-81.806-107.878zM255.998 395.373c-0.484 0.495-0.979 0.982-1.475 1.469-3.201-3.394-6.189-6.987-8.951-10.759-13.561-18.525-21.574-41.366-21.574-66.083 0-6.869 0.622-13.594 1.807-20.121-35.749-9.986-64.281-37.26-76.014-72.243-1.594-4.752-2.872-9.647-3.822-14.659 0.942-0.29 1.882-0.589 2.835-0.854-0.046-0.252-0.085-0.507-0.129-0.759 4.186-1.049 8.463-1.867 12.82-2.43 4.748-0.615 9.589-0.934 14.505-0.934 31.341 0 59.67 12.878 80 33.626 20.328-20.748 48.658-33.626 79.999-33.626 4.916 0 9.757 0.319 14.506 0.934 4.355 0.563 8.633 1.38 12.816 2.429-0.043 0.253-0.082 0.507-0.129 0.76 0.955 0.267 1.895 0.564 2.838 0.855-0.949 5.012-2.229 9.907-3.822 14.658-11.732 34.983-40.266 62.257-76.013 72.242 1.185 6.528 1.807 13.253 1.807 20.122 0 24.717-8.014 47.558-21.574 66.083-2.762 3.772-5.752 7.367-8.953 10.76-0.496-0.487-0.991-0.974-1.477-1.47z"></path>
<path fill="#000000" d="M270.506 303.067c-4.749 0.614-9.59 0.934-14.506 0.934s-9.758-0.319-14.506-0.934c-0.982 5.498-1.496 11.156-1.496 16.933 0 19.58 5.898 37.806 16.002 53.005 10.104-15.199 16.002-33.425 16.002-53.005 0-5.776-0.514-11.435-1.496-16.933z"></path>
<path fill="#000000" d="M346.313 224.555c-3.39-0.364-6.83-0.556-10.314-0.556-27.354 0-52.069 11.5-69.571 29.917 6.725 9.188 12.088 19.434 15.781 30.448 29.755-8.455 53.665-30.936 64.104-59.809z"></path>
<path fill="#000000" d="M266.314 287.445c-2.625-7.262-6.105-14.119-10.314-20.451-4.209 6.332-7.689 13.189-10.314 20.451 3.389 0.364 6.83 0.556 10.314 0.556s6.925-0.191 10.314-0.556z"></path>
<path fill="#000000" d="M176 223.999c-3.484 0-6.925 0.191-10.314 0.556 10.439 28.873 34.349 51.354 64.106 59.81 3.693-11.015 9.055-21.261 15.781-30.448-17.503-18.418-42.22-29.918-69.573-29.918z"></path>
</svg>
