<?xml version="1.0" encoding="utf-8"?>
<!-- Generated by IcoMoon.io -->
<!DOCTYPE svg PUBLIC "-//W3C//DTD SVG 1.1//EN" "http://www.w3.org/Graphics/SVG/1.1/DTD/svg11.dtd">
<svg version="1.1" xmlns="http://www.w3.org/2000/svg" xmlns:xlink="http://www.w3.org/1999/xlink" width="512" height="512" viewBox="0 0 512 512">
<path fill="#000000" d="M397.6 146.7l-1.8-1.7h18.4l8.5 7.8 22.5-22.8-40.8-40.3-23.2 22.3 8.8 9.2v18.6l-5-4.7c-31.3-28.3-70-45.2-113-48.9v-38.2h-32v38h-2c-43.7 3-85 22.5-116 53v-17.8l8.9-9.2-22.9-22.2-40.8 40.2 22.5 22.8 8.5-7.8h17.8c-0.3 0-0.7 0.7-1 1.1-32.8 35.1-51 80.9-51 128.5 0 104.4 86.1 189.4 192.1 189.4 105.8 0 191.9-84.9 191.9-189.3 0-47.6-18-93.1-50.4-128zM256.3 445.7c-95.5 0-173.1-76.7-173.1-170.9 0-94.3 77.7-170.9 173.1-170.9 95.5 0 173.1 76.7 173.1 170.9 0.1 94.2-77.6 170.9-173.1 170.9z"></path>
<path fill="#000000" d="M264 257.3v-129.3h-16v129.4c-12.5 4.3-24 16.5-24 30.3 0 14.7 10 27 24 30.5l8 17.8 8-17.8c14-3.5 24-15.8 24-30.5 0-14.5-10.5-26.7-24-30.4z"></path>
</svg>
