<?xml version="1.0" encoding="utf-8"?>
<!-- Generated by IcoMoon.io -->
<!DOCTYPE svg PUBLIC "-//W3C//DTD SVG 1.1//EN" "http://www.w3.org/Graphics/SVG/1.1/DTD/svg11.dtd">
<svg version="1.1" xmlns="http://www.w3.org/2000/svg" xmlns:xlink="http://www.w3.org/1999/xlink" width="512" height="512" viewBox="0 0 512 512">
<path fill="#000000" d="M48.050 251.556c-0.001 0.039-0.003 0.077-0.004 0.116 0 0 0.002 0 0.003 0 0-0.038 0-0.077 0.001-0.116z"></path>
<path fill="#000000" d="M260.311 463.915c0.066-0.002 0.133-0.006 0.199-0.007-0.066 0.001-0.133 0.001-0.199 0.004 0 0 0 0.001 0 0.003z"></path>
<path fill="#000000" d="M256 48.001c-2.586 0-5.29 0.064-7.852 0.158l-0.148-0.006c0 0.003 0 0.004 0 0.006-5 0.199-10 0.602-16 1.205 0-0.002 0-0.004 0-0.008 0 0.005 0.083 0.008 0.072 0.012-96.974 11.061-173.654 88.975-183.13 186.41-0.004 0.018 0.045 0.222 0.042 0.222 0.003 0 0.004 0 0.007 0-0.513 5-0.826 10-0.936 16-0.001 0-0.003 0-0.004 0l0.003-0.152c-0.028 1.43-0.054 2.777-0.054 4.215 0 114.852 92.977 207.938 207.841 207.938 6.856 0 14.159-0.383 20.159-1.031 0 0.002 0 0.006 0 0.006 0-0.004 0.213-0.008 0.24-0.014 97.436-9.486 175.247-86.086 186.312-183.036 0.004-0.014 0.088 0.074 0.092 0.074-0.002 0-0.006 0-0.008 0 0.889-8 1.363-15.859 1.363-23.904 0.001-114.851-93.129-208.095-207.999-208.095zM130.63 266.853c-20.895-8.474-42.788-13.43-65.244-14.816 0.11-5.374 0.438-10.695 0.986-15.952 52.568 3.275 104.203 24.977 144.375 65.146s61.876 91.797 65.152 144.359c-5.257 0.548-10.579 0.876-15.954 0.985-1.385-22.453-6.342-44.344-14.816-65.236-10.459-25.79-25.834-48.937-45.696-68.795-19.861-19.86-43.010-35.233-68.803-45.691zM297.722 214.265c-40.964-40.959-62.731-93.835-65.332-147.467 5.25-0.652 10.568-1.080 15.941-1.293 1.073 23.65 6.105 46.702 15.007 68.654 10.461 25.79 25.835 48.936 45.696 68.795s43.010 35.232 68.803 45.691c21.954 8.901 45.008 13.933 68.66 15.007-0.213 5.37-0.643 10.689-1.293 15.939-53.64-2.602-106.518-24.366-147.482-65.326z"></path>
</svg>
