<?xml version="1.0" encoding="utf-8"?>
<!-- Generated by IcoMoon.io -->
<!DOCTYPE svg PUBLIC "-//W3C//DTD SVG 1.1//EN" "http://www.w3.org/Graphics/SVG/1.1/DTD/svg11.dtd">
<svg version="1.1" xmlns="http://www.w3.org/2000/svg" xmlns:xlink="http://www.w3.org/1999/xlink" width="512" height="512" viewBox="0 0 512 512">
<path d="M403.1 108.9c-81.2-81.2-212.9-81.2-294.2 0s-81.2 212.9 0 294.2c81.2 81.2 212.9 81.2 294.2 0s81.2-213 0-294.2zM390.8 390.8c-74.3 74.3-195.3 74.3-269.6 0s-74.3-195.3 0-269.6 195.3-74.3 269.6 0c74.4 74.3 74.4 195.3 0 269.6z"></path>
<path d="M340.2 160l-84.4 84.2-84-83.8-11.8 11.8 84 83.8-84 83.8 11.8 11.8 84-83.8 84.4 84.2 11.8-11.8-84.4-84.2 84.4-84.2z"></path>
</svg>
