<?xml version="1.0" encoding="utf-8"?>
<!-- Generated by IcoMoon.io -->
<!DOCTYPE svg PUBLIC "-//W3C//DTD SVG 1.1//EN" "http://www.w3.org/Graphics/SVG/1.1/DTD/svg11.dtd">
<svg version="1.1" xmlns="http://www.w3.org/2000/svg" xmlns:xlink="http://www.w3.org/1999/xlink" width="512" height="512" viewBox="0 0 512 512">
<path d="M417.5 160h-61.725c-32.105-36-42.219-48-54.525-48h-88.5c-12.314 0-22.167 12-54.521 48h-13.229v-16h-34v16h-13.5c-17.645 0-33.5 13.217-33.5 30.684v176.018c0 17.467 15.855 33.298 33.5 33.298h320c17.645 0 30.5-15.831 30.5-33.299v-176.017c0-17.467-12.855-30.684-30.5-30.684zM313.076 330.782c-15.906 13.652-36.176 21.218-57.076 21.218-45.487 0-82.509-36-87.205-78h-29.479l37.534-50 38.87 50h-30.61c4.604 33 34.53 61.965 70.89 61.965 16.859 0 32.701-6.327 45.815-17.356l2.032-1.647 11.599 11.662-2.37 2.158zM335.094 307.225l-38.846-51.225h30.644c-4.617-35-34.548-63.797-70.891-63.797-16.618 0-32.888 6.133-45.814 17.005l-2.033 1.706-11.599-11.61 2.371-2.052c15.905-13.65 36.175-21.206 57.075-21.206 22.333 0 43.548 8.063 59.736 22.839 15.538 14.179 25.229 37.115 27.47 57.115h29.512l-37.625 51.225z"></path>
</svg>
