<?xml version="1.0" encoding="utf-8"?>
<!-- Generated by IcoMoon.io -->
<!DOCTYPE svg PUBLIC "-//W3C//DTD SVG 1.1//EN" "http://www.w3.org/Graphics/SVG/1.1/DTD/svg11.dtd">
<svg version="1.1" xmlns="http://www.w3.org/2000/svg" xmlns:xlink="http://www.w3.org/1999/xlink" width="512" height="512" viewBox="0 0 512 512">
<path fill="#000000" d="M369.269 146h-226.53c-61.198 0-110.739 45.458-110.739 109.418 0 64.001 49.541 110.582 110.739 110.582h226.529c61.222 0 110.732-46.581 110.732-110.582 0-63.96-49.51-109.418-110.731-109.418zM200 266.697c0 2.698-2.421 5.303-5.238 5.303h-34.762v35.139c0 2.83-3.104 4.861-5.803 4.861h-21.427c-2.628 0-4.771-1.918-4.771-4.533v-35.467h-35.138c-2.83 0-4.861-3.104-4.861-5.803v-21.427c0-2.628 1.918-4.771 4.533-4.771h35.467v-34.822c0-2.806 1.854-5.178 4.553-5.178h22.145c2.698 0 5.303 2.421 5.303 5.238v34.763h34.822c2.806 0 5.178 1.854 5.178 4.553v22.144zM319.766 275.486c-10.736 0-19.451-8.587-19.451-19.153 0-10.565 8.715-19.168 19.451-19.168 10.783 0 19.498 8.603 19.498 19.168s-8.715 19.153-19.498 19.153zM362.314 317.301c-10.736 0-19.451-8.529-19.451-19.084 0-10.639 8.715-19.153 19.451-19.153 10.783 0 19.498 8.515 19.498 19.153 0 10.554-8.714 19.084-19.498 19.084zM362.314 233.615c-10.736 0-19.451-8.579-19.451-19.146s8.715-19.169 19.451-19.169c10.783 0 19.498 8.602 19.498 19.169s-8.714 19.146-19.498 19.146zM404.862 275.486c-10.729 0-19.442-8.587-19.442-19.153 0-10.565 8.714-19.168 19.442-19.168 10.737 0 19.452 8.603 19.452 19.168s-8.714 19.153-19.452 19.153z"></path>
</svg>
