<?xml version="1.0" encoding="utf-8"?>
<!-- Generated by IcoMoon.io -->
<!DOCTYPE svg PUBLIC "-//W3C//DTD SVG 1.1//EN" "http://www.w3.org/Graphics/SVG/1.1/DTD/svg11.dtd">
<svg version="1.1" xmlns="http://www.w3.org/2000/svg" xmlns:xlink="http://www.w3.org/1999/xlink" width="512" height="512" viewBox="0 0 512 512">
<path d="M304 79.838c0 26.51-21.49 48-48 48s-48-21.49-48-48c0-26.51 21.49-48 48-48s48 21.49 48 48z"></path>
<path d="M424 144h-336c-13.255 0-24 10.745-24 24s10.745 24 24 24h98.451c5.579 1 13.197 3.837 17.216 14.252 4.651 12.056 2.37 33.606-0.539 51.727l-3.775 21.395c-0.019 0.104-0.039 0.207-0.058 0.311-0.002 0.008-0.002 0.012-0.004 0.020l-30.375 172.268c-2.303 13.053 6.414 25.5 19.467 27.803 13.055 2.301 25.333-6.416 27.634-19.471l20.983-119.957v0.167c0 0 6.25-32.515 18.452-32.515h1.096c12.452 0 18.452 32.515 18.452 32.515v-0.083l20.983 119.913c2.301 13.055 14.663 21.749 27.718 19.448 13.053-2.303 21.728-14.762 19.425-27.814l-30.396-172.276c-0.002-0.008-0.013-0.020-0.015-0.027-0.019-0.104-0.044-0.217-0.063-0.322l-3.777-21.414c-2.909-18.121-5.191-39.631-0.541-51.688 4.020-10.414 11.636-13.252 17.215-14.252h98.451c13.255 0 24-10.745 24-24s-10.745-24-24-24z"></path>
</svg>
