<?xml version="1.0" encoding="utf-8"?>
<!-- Generated by IcoMoon.io -->
<!DOCTYPE svg PUBLIC "-//W3C//DTD SVG 1.1//EN" "http://www.w3.org/Graphics/SVG/1.1/DTD/svg11.dtd">
<svg version="1.1" xmlns="http://www.w3.org/2000/svg" xmlns:xlink="http://www.w3.org/1999/xlink" width="512" height="512" viewBox="0 0 512 512">
<path fill="#000000" d="M368 416h-288v-272h224.117l16-16h-256.117v304h320v-240.117l-16 16z"></path>
<path fill="#000000" d="M237.623 284.084l-9.706-9.707 171.323-171.323-11.313-11.314-179.927 179.911v32.349h32.216l180.045-179.984-11.314-11.286z"></path>
<path fill="#000000" d="M444.213 80.312l-12.465-12.466c-2.664-2.379-6.192-3.846-10.002-3.846-3.812 0-7.304 1.468-9.929 3.85l-12.151 12.15 32.393 32.393 12.15-12.15c2.383-2.625 3.791-6.117 3.791-9.929 0-3.81-1.408-7.339-3.787-10.002z"></path>
</svg>
