<?xml version="1.0" encoding="utf-8"?>
<!-- Generated by IcoMoon.io -->
<!DOCTYPE svg PUBLIC "-//W3C//DTD SVG 1.1//EN" "http://www.w3.org/Graphics/SVG/1.1/DTD/svg11.dtd">
<svg version="1.1" xmlns="http://www.w3.org/2000/svg" xmlns:xlink="http://www.w3.org/1999/xlink" width="512" height="512" viewBox="0 0 512 512">
<path fill="#000000" d="M378.605 133.395c-72.703-72.704-189.224-85.397-261.755-85.395-38.926 0.001-65.191 3.658-65.191 3.658s-29.984 215.227 81.736 326.947c72.704 72.704 189.222 85.395 261.753 85.395 38.927 0 65.193-3.658 65.193-3.658s29.986-215.226-81.736-326.947zM68.124 194.728l126.583-126.582c6.123 0.861 12.164 1.825 18.112 2.899l-141.794 141.793c-1.070-5.937-2.038-11.976-2.901-18.11zM267.312 335.195l28.688-28.688-22.627-22.628-28.688 28.688-11.313-11.312 28.688-28.688-22.627-22.627-28.688 28.688-11.313-11.312 28.688-28.688-22.628-22.628-28.688 28.688-11.313-11.312 28.689-28.689-22.628-22.627-28.688 28.688-11.314-11.313 67.884-67.883 11.313 11.314-28.688 28.688 22.628 22.627 28.688-28.688 11.313 11.313-28.688 28.688 22.628 22.628 28.688-28.688 11.314 11.313-28.688 28.688 22.627 22.627 28.688-28.688 11.313 11.312-28.688 28.688 22.628 22.628 28.688-28.688 11.312 11.313-28.688 28.688 22.627 22.627 28.688-28.688 11.314 11.312-67.883 67.884-11.313-11.313 28.688-28.688-22.628-22.628-28.688 28.688-11.315-11.314zM317.259 443.891c-6.121-0.863-12.159-1.83-18.104-2.906l141.824-141.825c1.071 5.938 2.038 11.977 2.901 18.111l-126.621 126.62z"></path>
</svg>
