<?xml version="1.0" encoding="utf-8"?>
<!-- Generated by IcoMoon.io -->
<!DOCTYPE svg PUBLIC "-//W3C//DTD SVG 1.1//EN" "http://www.w3.org/Graphics/SVG/1.1/DTD/svg11.dtd">
<svg version="1.1" xmlns="http://www.w3.org/2000/svg" xmlns:xlink="http://www.w3.org/1999/xlink" width="512" height="512" viewBox="0 0 512 512">
<path d="M438 187.713l-31.927-55.426-118.073 68.287v-136.574h-64v136.574l-118.073-68.287-31.938 55.426 118.103 68.287-118.094 68.287 31.928 55.426 118.074-68.287v136.574h64v-136.574l118.072 68.287 31.939-55.426-118.103-68.287 118.092-68.287zM416.176 330.125l-15.963 27.866-128.213-73.991v148h-32v-148l-128.213 74-15.969-27.785 128.228-74.197-128.224-74.157 15.964-27.859 128.214 73.998v-148h32v148l128.213-74 15.969 27.785-128.228 74.179 128.222 74.161z"></path>
</svg>
