<?xml version="1.0" encoding="utf-8"?>
<!-- Generated by IcoMoon.io -->
<!DOCTYPE svg PUBLIC "-//W3C//DTD SVG 1.1//EN" "http://www.w3.org/Graphics/SVG/1.1/DTD/svg11.dtd">
<svg version="1.1" xmlns="http://www.w3.org/2000/svg" xmlns:xlink="http://www.w3.org/1999/xlink" width="512" height="512" viewBox="0 0 512 512">
<path d="M112 64v336h16v-320h304v337.143c0 8.205-6.652 14.857-14.857 14.857h-322.286c-8.205 0-14.857-6.652-14.857-14.857v-289.143h16v-16h-32v305.143c0 17.014 13.843 30.857 30.857 30.857h322.285c17.015 0 30.858-13.843 30.858-30.857v-353.143h-336z"></path>
<path d="M160 112h128v16h-128v-16z"></path>
<path d="M160 192h240v16h-240v-16z"></path>
<path d="M160 272h192v16h-192v-16z"></path>
<path d="M160 352h240v16h-240v-16z"></path>
</svg>
