<?xml version="1.0" encoding="utf-8"?>
<!-- Generated by IcoMoon.io -->
<!DOCTYPE svg PUBLIC "-//W3C//DTD SVG 1.1//EN" "http://www.w3.org/Graphics/SVG/1.1/DTD/svg11.dtd">
<svg version="1.1" xmlns="http://www.w3.org/2000/svg" xmlns:xlink="http://www.w3.org/1999/xlink" width="512" height="512" viewBox="0 0 512 512">
<path fill="#000000" d="M400 172.9c0-77.8-66.1-140.9-144-140.9s-144 63.1-144 141c0 31 13.2 59 30.2 83h-0.3c10.9 15 21.4 27.7 31.5 45 22 37.8 18.6 74.3 18.7 81.6v1.4h32v-128l-32-64h16.6l31.4 64v128h32v-128l31.4-64h16.5l-32 64v128h32v-1.4c0-8.9-3.6-43.8 18.4-81.6 10.1-17.3 20.6-30 31.5-45h-0.1c17-24 30.2-52 30.2-83.1z"></path>
<path fill="#000000" d="M224 464h64v16h-64v-16z"></path>
<path fill="#000000" d="M208 432h96v16h-96v-16z"></path>
<path fill="#000000" d="M208 400h96v16h-96v-16z"></path>
</svg>
