<?xml version="1.0" encoding="utf-8"?>
<!-- Generated by IcoMoon.io -->
<!DOCTYPE svg PUBLIC "-//W3C//DTD SVG 1.1//EN" "http://www.w3.org/Graphics/SVG/1.1/DTD/svg11.dtd">
<svg version="1.1" xmlns="http://www.w3.org/2000/svg" xmlns:xlink="http://www.w3.org/1999/xlink" width="512" height="512" viewBox="0 0 512 512">
<path d="M64 400h10.3l19.2-31.2c20.5-32.7 44.9-62.8 75.8-76.6 24.4-10.9 46.7-18.9 86.7-20v79.8l192-128-192-128v80.3c-63 2.8-108.1 20.7-143.3 56.2-52.3 52.7-48.7 119-48.7 135.7 0.1 8.9 0 21.7 0 31.8zM272 192v-64.7l148.1 96.8-148.1 96.7v-64.8c-91 0-144.6 24.6-192.2 105.4 0 0-8.8-169.4 192.2-169.4z"></path>
</svg>
