<?xml version="1.0" encoding="utf-8"?>
<!-- Generated by IcoMoon.io -->
<!DOCTYPE svg PUBLIC "-//W3C//DTD SVG 1.1//EN" "http://www.w3.org/Graphics/SVG/1.1/DTD/svg11.dtd">
<svg version="1.1" xmlns="http://www.w3.org/2000/svg" xmlns:xlink="http://www.w3.org/1999/xlink" width="512" height="512" viewBox="0 0 512 512">
<path fill="#000000" d="M256 32c-123.7 0-224 100.3-224 224s100.3 224 224 224c123.7 0 224-100.3 224-224s-100.3-224-224-224zM403.1 403.1c-19.1 19.1-41.4 34.1-66.1 44.6-25.6 10.8-52.9 16.3-81 16.3s-55.3-5.5-81-16.3c-24.8-10.5-47-25.5-66.1-44.6s-34.1-41.4-44.6-66.1c-10.8-25.7-16.3-52.9-16.3-81s5.5-55.3 16.3-81c10.5-24.8 25.5-47 44.6-66.1s41.4-34.1 66.1-44.6c25.7-10.8 52.9-16.3 81-16.3s55.3 5.5 81 16.3c24.8 10.5 47 25.5 66.1 44.6s34.1 41.4 44.6 66.1c10.8 25.6 16.3 52.9 16.3 81s-5.5 55.3-16.3 81c-10.5 24.7-25.5 47-44.6 66.1z"></path>
<path fill="#000000" d="M264 80c0 4.418-3.582 8-8 8s-8-3.582-8-8c0-4.418 3.582-8 8-8s8 3.582 8 8z"></path>
<path fill="#000000" d="M264 432c0 4.418-3.582 8-8 8s-8-3.582-8-8c0-4.418 3.582-8 8-8s8 3.582 8 8z"></path>
<path fill="#000000" d="M440 256c0 4.418-3.582 8-8 8s-8-3.582-8-8c0-4.418 3.582-8 8-8s8 3.582 8 8z"></path>
<path fill="#000000" d="M88 256c0 4.418-3.582 8-8 8s-8-3.582-8-8c0-4.418 3.582-8 8-8s8 3.582 8 8z"></path>
<path fill="#000000" d="M176 103.6c0 4.418-3.582 8-8 8s-8-3.582-8-8c0-4.418 3.582-8 8-8s8 3.582 8 8z"></path>
<path fill="#000000" d="M352 408.4c0 4.418-3.582 8-8 8s-8-3.582-8-8c0-4.418 3.582-8 8-8s8 3.582 8 8z"></path>
<path fill="#000000" d="M416.4 168c0 4.418-3.582 8-8 8s-8-3.582-8-8c0-4.418 3.582-8 8-8s8 3.582 8 8z"></path>
<path fill="#000000" d="M111.6 344c0 4.418-3.582 8-8 8s-8-3.582-8-8c0-4.418 3.582-8 8-8s8 3.582 8 8z"></path>
<path fill="#000000" d="M111.6 168c0 4.418-3.582 8-8 8s-8-3.582-8-8c0-4.418 3.582-8 8-8s8 3.582 8 8z"></path>
<path fill="#000000" d="M416.4 344c0 4.418-3.582 8-8 8s-8-3.582-8-8c0-4.418 3.582-8 8-8s8 3.582 8 8z"></path>
<path fill="#000000" d="M352 103.6c0 4.418-3.582 8-8 8s-8-3.582-8-8c0-4.418 3.582-8 8-8s8 3.582 8 8z"></path>
<path fill="#000000" d="M176 408.4c0 4.418-3.582 8-8 8s-8-3.582-8-8c0-4.418 3.582-8 8-8s8 3.582 8 8z"></path>
<path fill="#000000" d="M269.9 248c-2.9-5-8.1-7.8-13.4-8l-38-63.4c-2.3-3.8-7.2-5-11-2.7s-5 7.2-2.7 11l37.6 62.9c-2.9 4.8-3.2 11.1-0.2 16.3 1.5 2.5 3.5 4.5 5.9 5.8v122.1c0 4.4 3.6 8 8 8s8-3.6 8-8v-122.1c7.6-4.5 10.2-14.2 5.8-21.9z"></path>
</svg>
