<?xml version="1.0" encoding="utf-8"?>
<!-- Generated by IcoMoon.io -->
<!DOCTYPE svg PUBLIC "-//W3C//DTD SVG 1.1//EN" "http://www.w3.org/Graphics/SVG/1.1/DTD/svg11.dtd">
<svg version="1.1" xmlns="http://www.w3.org/2000/svg" xmlns:xlink="http://www.w3.org/1999/xlink" width="512" height="512" viewBox="0 0 512 512">
<path fill="#000000" d="M320 113v-19.7c0-16.2-13.1-29.3-29.3-29.3h-69.5c-16.1 0-29.2 13.1-29.2 29.3v19.7h-80v15h21.1l23.6 290.7c0 16.2 13.1 29.3 29.3 29.3h141c16.2 0 29.3-13.1 29.3-29.3l23.3-290.7h20.4v-15h-80zM207 93.3c0-8.1 6.2-14.3 14.3-14.3h69.5c8.1 0 14.3 6.2 14.3 14.3v19.7h-98v-19.7h-0.1zM202.7 401l-10.7-241h14.5l10.9 241h-14.7zM263 401h-14v-241h14v241zM309.3 401h-14.6l10.8-241h14.5l-10.7 241z"></path>
</svg>
