<?xml version="1.0" encoding="utf-8"?>
<!-- Generated by IcoMoon.io -->
<!DOCTYPE svg PUBLIC "-//W3C//DTD SVG 1.1//EN" "http://www.w3.org/Graphics/SVG/1.1/DTD/svg11.dtd">
<svg version="1.1" xmlns="http://www.w3.org/2000/svg" xmlns:xlink="http://www.w3.org/1999/xlink" width="512" height="512" viewBox="0 0 512 512">
<path fill="#000000" d="M208 96h16v54h-16v-54z"></path>
<path fill="#000000" d="M64 240h55v16h-55v-16z"></path>
<path fill="#000000" d="M107.5 149.1l11-11.1 31.4 31.6-11 11.1z"></path>
<path fill="#000000" d="M287.4 179.7l-11-11.1 31.3-31.6 11.1 11.1z"></path>
<path fill="#000000" d="M120.5 352.5l-11-11.1 31.4-31.6 11 11.1z"></path>
<path fill="#000000" d="M192.6 294.9c-20.2-8.1-34.6-27.9-34.6-51.1 0-30.3 24.5-55 54.7-55 15.6 0 29.7 6.6 39.6 17.2 4.8-3.5 9.5-6.2 13.6-8.2-12.9-15.1-32-24.7-53.3-24.7-38.7 0-70.3 31.7-70.3 70.7 0 27.4 15.6 51.2 38.3 62.9 3.7-5.2 7.9-9 12-11.8z"></path>
<path fill="#000000" d="M299 239.8c14.5 0 28.1 4.8 39.3 13.9 10.9 8.9 18.6 21.3 21.7 34.9l3.1 14 14.2-1.8c2.1-0.3 4.1-0.4 6.1-0.4 26.9 0 48.8 22.1 48.8 49.2s-21.9 49.2-48.8 49.2h-157.7c-9.5 0-18.5-3.9-25.4-10.8-6.8-7-10.6-16.2-10.6-25.9 0-18.6 14.5-33.8 33.2-36.9 1.6-0.3 8.8-1.2 14.2-1.7 0 0-0.5-5.3-0.6-9.6s-0.1-9.4-0.1-11.5c0.1-34.4 28.1-62.6 62.6-62.6zM299 224c-43.3 0-78.3 35.2-78.3 78.5 0 2.6 0.1 5.2 0.4 7.8-26.4 2.3-47.1 25.5-47.1 52.6 0 28.6 23.2 53.1 51.7 53.1h157.7c35.7 0 64.6-29.9 64.6-65.7s-28.9-65.3-64.6-65.3c-2.7 0-5.4 0-8 0.3-7.9-35-39.1-61.3-76.4-61.3v0z"></path>
</svg>
