<?xml version="1.0" encoding="utf-8"?>
<!-- Generated by IcoMoon.io -->
<!DOCTYPE svg PUBLIC "-//W3C//DTD SVG 1.1//EN" "http://www.w3.org/Graphics/SVG/1.1/DTD/svg11.dtd">
<svg version="1.1" xmlns="http://www.w3.org/2000/svg" xmlns:xlink="http://www.w3.org/1999/xlink" width="512" height="512" viewBox="0 0 512 512">
<path fill="#000000" d="M381.7 225.9c0-97.6-52.5-130.8-101.6-138.2 0-0.5 0.1-1 0.1-1.6 0-12.3-10.9-22.1-24.2-22.1s-23.8 9.8-23.8 22.1c0 0.6 0 1.1 0.1 1.6-49.2 7.5-102 40.8-102 138.4 0 113.8-28.3 126-66.3 158h384c-37.8-32.1-66.3-44.4-66.3-158.2zM107.2 368c8.6-9 16.4-18.4 22.7-31.8 12-25.3 17.4-59.2 17.4-110.2 0-46.4 12.5-80.4 37.1-101.2 22.9-19.3 51.7-23.3 71.8-23.3s48.9 4 71.6 23.3c24.5 20.7 37 54.5 37 100.9 0 83.8 14.9 117.3 40.3 142.3h-297.9z"></path>
<path fill="#000000" d="M256.2 448c26.8 0 48.8-19.9 51.7-43h-103.4c2.8 23.1 24.9 43 51.7 43z"></path>
</svg>
