<?xml version="1.0" encoding="utf-8"?>
<!-- Generated by IcoMoon.io -->
<!DOCTYPE svg PUBLIC "-//W3C//DTD SVG 1.1//EN" "http://www.w3.org/Graphics/SVG/1.1/DTD/svg11.dtd">
<svg version="1.1" xmlns="http://www.w3.org/2000/svg" xmlns:xlink="http://www.w3.org/1999/xlink" width="512" height="512" viewBox="0 0 512 512">
<path d="M272 272l16-48h-72l-15 80h52.3l-29.3 96 88-128z"></path>
<path d="M202.7 208h107.5l-16 48h48.2l-33 48h19c35.7 0 64.6-30.1 64.6-65.9s-28.9-65.5-64.6-65.5c-2.7 0-5.4 0-8 0.3-7.9-35-39.1-61.4-76.4-61.4-43.3 0-78.3 35.2-78.3 78.5 0 2.6 0.1 5.2 0.4 7.8-26.4 2.3-47.1 25.7-47.1 52.8 0 28.6 23.2 53.3 51.7 53.3h14z"></path>
</svg>
