<?xml version="1.0" encoding="utf-8"?>
<!-- Generated by IcoMoon.io -->
<!DOCTYPE svg PUBLIC "-//W3C//DTD SVG 1.1//EN" "http://www.w3.org/Graphics/SVG/1.1/DTD/svg11.dtd">
<svg version="1.1" xmlns="http://www.w3.org/2000/svg" xmlns:xlink="http://www.w3.org/1999/xlink" width="512" height="512" viewBox="0 0 512 512">
<path fill="#000000" d="M378.605 133.395c-72.703-72.704-189.225-85.397-261.755-85.395-38.926 0.001-65.191 3.658-65.191 3.658s-29.984 215.227 81.736 326.947c72.704 72.704 189.222 85.395 261.754 85.395 38.926 0 65.192-3.658 65.192-3.658s29.985-215.226-81.736-326.947zM65.142 65.208c10.995-1.014 29.232-2.208 51.714-2.208h0.144l-0.068-0.071c27.167 0 53.167 1.754 77.792 5.22l-126.6 126.581c-1.025-7.283-1.91-14.697-2.64-22.246-4.586-47.435-2.086-88.228-0.342-107.276zM143.9 368.102c-23.85-23.852-42.793-54.938-56.304-92.396-6.973-19.332-12.51-40.373-16.57-62.866l141.812-141.79c10.672 1.929 21.064 4.191 31.141 6.804 52.027 13.492 93.783 35.708 124.139 66.064 23.851 23.85 42.786 54.928 56.297 92.386 6.974 19.333 12.509 40.375 16.567 62.871l-141.812 141.811c-10.66-1.93-21.041-4.191-31.104-6.801-52.030-13.489-93.806-35.726-124.166-66.083zM446.861 446.868c-10.994 1.012-29.23 2.275-51.71 2.275-27.192 0-53.225-1.77-77.876-5.25l126.607-126.607c1.024 7.279 1.908 14.688 2.638 22.233 4.588 47.437 2.086 88.298 0.341 107.349z"></path>
<path fill="#000000" d="M307.304 317.847l22.625 22.632-28.654 28.652 11.315 11.314 67.881-67.881-11.314-11.314-28.721 28.721-22.625-22.631 28.716-28.717-11.313-11.313-28.715 28.714-22.633-22.638 28.702-28.702-11.313-11.314-28.7 28.7-22.626-22.631 28.697-28.697-11.314-11.313-28.694 28.695-22.631-22.637 28.687-28.687-11.313-11.313-28.685 28.685-22.624-22.63 28.682-28.682-11.313-11.313-67.883 67.882 11.314 11.314 28.693-28.694 22.624 22.63-28.691 28.691 11.313 11.313 28.689-28.689 22.63 22.637-28.678 28.679 11.313 11.313 28.677-28.677 22.626 22.631-28.674 28.674 11.314 11.313 28.671-28.671 22.633 22.638-28.66 28.66 11.314 11.314z"></path>
</svg>
