<?xml version="1.0" encoding="utf-8"?>
<!-- Generated by IcoMoon.io -->
<!DOCTYPE svg PUBLIC "-//W3C//DTD SVG 1.1//EN" "http://www.w3.org/Graphics/SVG/1.1/DTD/svg11.dtd">
<svg version="1.1" xmlns="http://www.w3.org/2000/svg" xmlns:xlink="http://www.w3.org/1999/xlink" width="512" height="512" viewBox="0 0 512 512">
<path fill="#000000" d="M272 272v-64h-32v64h-64v32h64v64h32v-64h64v-32h-48z"></path>
<path fill="#000000" d="M336 128v-32c-0.5-18.2-13.6-32-32.2-32h-99.1c-18.6 0-28.7 13.7-28.7 32v32h-128v320h416v-320h-128zM192 98.1c0-10.2 2.9-18.1 13.7-18.1h97.1c10.4 0 17.2 7.7 17.2 18.1v29.9h-128v-29.9zM352 320h-64v64h-64v-64h-64v-64h64v-64h64v64h64v64z"></path>
</svg>
