<?xml version="1.0" encoding="utf-8"?>
<!-- Generated by IcoMoon.io -->
<!DOCTYPE svg PUBLIC "-//W3C//DTD SVG 1.1//EN" "http://www.w3.org/Graphics/SVG/1.1/DTD/svg11.dtd">
<svg version="1.1" xmlns="http://www.w3.org/2000/svg" xmlns:xlink="http://www.w3.org/1999/xlink" width="512" height="512" viewBox="0 0 512 512">
<path fill="#000000" d="M364.1 256c0 60-48.5 108.2-108.1 108.2s-108.1-48.5-108.1-108.2c0-59.6 48.5-108.1 108.1-108.1v55.8l96-55.7-96-64v44c-70.7 0-128 57.4-128 128.1 0 70.8 57.3 128.1 128 128.1s128-57.1 128-128.1h-19.9z"></path>
<path fill="#000000" d="M256 48c-114.9 0-208 93.1-208 208s93.1 208 208 208c114.9 0 208-93.1 208-208s-93.1-208-208-208zM256 446.7c-105.1 0-190.7-85.5-190.7-190.7 0-105.1 85.5-190.7 190.7-190.7 105.1 0 190.7 85.5 190.7 190.7 0 105.1-85.6 190.7-190.7 190.7z"></path>
</svg>
