<?xml version="1.0" encoding="utf-8"?>
<!-- Generated by IcoMoon.io -->
<!DOCTYPE svg PUBLIC "-//W3C//DTD SVG 1.1//EN" "http://www.w3.org/Graphics/SVG/1.1/DTD/svg11.dtd">
<svg version="1.1" xmlns="http://www.w3.org/2000/svg" xmlns:xlink="http://www.w3.org/1999/xlink" width="512" height="512" viewBox="0 0 512 512">
<path fill="#000000" d="M256 32c-123.7 0-224 100.3-224 224s100.3 224 224 224c123.7 0 224-100.3 224-224s-100.3-224-224-224zM256 72c4.4 0 8 3.6 8 8s-3.6 8-8 8-8-3.6-8-8 3.6-8 8-8zM80 264c-4.4 0-8-3.6-8-8s3.6-8 8-8 8 3.6 8 8c0 4.4-3.6 8-8 8zM107.6 350.9c-3.8 2.2-8.7 0.9-10.9-2.9s-0.9-8.7 2.9-10.9c3.8-2.2 8.7-0.9 10.9 2.9s0.9 8.7-2.9 10.9zM110.5 172c-2.2 3.8-7.1 5.1-10.9 2.9s-5.1-7.1-2.9-10.9 7.1-5.1 10.9-2.9c3.8 2.2 5.1 7.1 2.9 10.9zM164 96.7c3.8-2.2 8.7-0.9 10.9 2.9s0.9 8.7-2.9 10.9c-3.8 2.2-8.7 0.9-10.9-2.9s-0.9-8.7 2.9-10.9zM174.9 412.4c-2.2 3.8-7.1 5.1-10.9 2.9s-5.1-7.1-2.9-10.9c2.2-3.8 7.1-5.1 10.9-2.9s5.1 7.1 2.9 10.9zM256 440c-4.4 0-8-3.6-8-8s3.6-8 8-8 8 3.6 8 8-3.6 8-8 8zM264 269.9v122.1c0 4.4-3.6 8-8 8s-8-3.6-8-8v-122.2c-2.4-1.4-4.4-3.3-5.9-5.8-3-5.2-2.7-11.5 0.2-16.3l-37.6-62.9c-2.3-3.8-1-8.7 2.7-11 3.8-2.3 8.7-1 11 2.7l38 63.4c5.4 0.1 10.6 3 13.4 8 4.5 7.8 1.9 17.5-5.8 22zM348 415.3c-3.8 2.2-8.7 0.9-10.9-2.9s-0.9-8.7 2.9-10.9c3.8-2.2 8.7-0.9 10.9 2.9s0.9 8.7-2.9 10.9zM350.9 107.6c-2.2 3.8-7.1 5.1-10.9 2.9s-5.1-7.1-2.9-10.9c2.2-3.8 7.1-5.1 10.9-2.9s5.1 7.1 2.9 10.9zM415.3 348c-2.2 3.8-7.1 5.1-10.9 2.9s-5.1-7.1-2.9-10.9c2.2-3.8 7.1-5.1 10.9-2.9s5.2 7.1 2.9 10.9zM412.4 174.9c-3.8 2.2-8.7 0.9-10.9-2.9s-0.9-8.7 2.9-10.9c3.8-2.2 8.7-0.9 10.9 2.9 2.3 3.8 0.9 8.7-2.9 10.9zM432 264c-4.4 0-8-3.6-8-8s3.6-8 8-8 8 3.6 8 8c0 4.4-3.6 8-8 8z"></path>
</svg>
