<?xml version="1.0" encoding="utf-8"?>
<!-- Generated by IcoMoon.io -->
<!DOCTYPE svg PUBLIC "-//W3C//DTD SVG 1.1//EN" "http://www.w3.org/Graphics/SVG/1.1/DTD/svg11.dtd">
<svg version="1.1" xmlns="http://www.w3.org/2000/svg" xmlns:xlink="http://www.w3.org/1999/xlink" width="512" height="512" viewBox="0 0 512 512">
<path d="M193.2 381.2l-11.6 11.4 74.5 73.4 74.5-73.4-11.6-11.4-54.7 53.8v-242.1h-16.4v242.1z"></path>
<path d="M399.2 164.4c0-1.2 0.2-2.3 0.2-3.5 0-63.5-52.9-114.9-116.8-114.9-46.1 0-85.8 26.8-104.4 65.4-8.1-4-17.1-6.3-26.8-6.3-29.6 0-54.1 23.3-58.9 51.3-35.2 12-60.6 43.4-60.6 82.4 0 49.1 40.1 89.2 89.6 89.2h91.5v-16h-90.7c-40.9 0-74.2-33.2-74.2-73.7 0-31.4 20.2-57.5 50.2-67.7l8.4-2.8 1.5-8.7c3.6-21.3 22.1-38.8 43.9-38.8 6.9 0 13.7 1.6 19.9 4.7l13.5 6.7 6.5-13.6c16.6-34.4 52.1-56.6 90.4-56.6 55.3 0 100.9 42.8 100.9 97.6 0 13.1-0.2 20.1-0.2 20.1l15.2 0.1c36.7 0.5 65.6 30 65.6 66.4 0 36.3-29.8 66.1-66.5 66.3l-3.2 0.1h-97.2v16h101c45 0 81.9-37.2 81.9-82.1 0-45-35.4-81.5-80.7-81.6z"></path>
</svg>
