<?xml version="1.0" encoding="utf-8"?>
<!-- Generated by IcoMoon.io -->
<!DOCTYPE svg PUBLIC "-//W3C//DTD SVG 1.1//EN" "http://www.w3.org/Graphics/SVG/1.1/DTD/svg11.dtd">
<svg version="1.1" xmlns="http://www.w3.org/2000/svg" xmlns:xlink="http://www.w3.org/1999/xlink" width="512" height="512" viewBox="0 0 512 512">
<path fill="#000000" d="M264 308.988c0-21.975 20.458-38.674 40.247-54.824 7.907-6.453 15.37-12.547 21.519-18.962 26.547-27.697 26.234-51.744 26.234-71.058v-4.144c0-44.25-30.816-124.558-32.020-128h-127.98c-1.203 3.442-32 83.5-32 128v4.144c0 19.273-0.323 43.361 26.225 71.059 6.148 6.415 13.617 12.509 21.523 18.962 19.789 16.15 40.252 32.85 40.252 54.824v155.011h-72v16h160v-16h-72v-155.012zM202.729 48h106.522c5.359 15.99 19.509 62.712 24.836 96h-156.193c5.327-33.288 19.476-80.010 24.835-96zM256 273.416c-2.968 0-5.248-0.92-7.17-2.754 0.001 0.009 0.003 0.018 0.005 0.026-8.804-10.807-20.234-20.158-30.971-28.92-7.517-6.135-14.617-11.929-20.089-17.637-22.054-23.008-21.928-40.916-21.795-59.875 0.010-1.428-0.068-2.849 0.020-4.255h159.98c0.088 1.406 0.010 2.828 0.021 4.255 0.133 18.959 0.259 36.867-21.795 59.875-5.472 5.708-12.57 11.502-20.087 17.637-10.737 8.762-22.165 18.114-30.969 28.92 0.002-0.009 0.009-0.018 0.010-0.026-1.922 1.834-4.16 2.754-7.16 2.754z"></path>
</svg>
