<?xml version="1.0" encoding="utf-8"?>
<!-- Generated by IcoMoon.io -->
<!DOCTYPE svg PUBLIC "-//W3C//DTD SVG 1.1//EN" "http://www.w3.org/Graphics/SVG/1.1/DTD/svg11.dtd">
<svg version="1.1" xmlns="http://www.w3.org/2000/svg" xmlns:xlink="http://www.w3.org/1999/xlink" width="512" height="512" viewBox="0 0 512 512">
<path d="M208 96h16v54h-16v-54z"></path>
<path d="M64 240h55v16h-55v-16z"></path>
<path d="M107.5 149.1l11-11.1 31.4 31.6-11 11.1z"></path>
<path d="M287.4 179.7l-11-11.1 31.3-31.6 11.1 11.1z"></path>
<path d="M120.5 352.5l-11-11.1 31.4-31.6 11 11.1z"></path>
<path d="M299 224c-43.3 0-78.3 35.2-78.3 78.5 0 2.6 0.1 5.2 0.4 7.8-26.4 2.3-47.1 25.5-47.1 52.6 0 28.6 23.2 53.1 51.7 53.1h157.7c35.7 0 64.6-29.9 64.6-65.7s-28.9-65.3-64.6-65.3c-2.7 0-5.4 0-8 0.3-7.9-35-39.1-61.3-76.4-61.3v0z"></path>
<path d="M264.7 196.3c-12.9-14.3-31.4-23.3-52-23.3-38.7 0-70.3 31.7-70.3 70.7 0 27.4 15.6 51.2 38.3 62.9 0 0 0-0.1 0-0.1s0.1 0.1 0.1 0.1c4.5-12.1 11.4-19.8 22.6-25.6 0.2-0.1 0.4-0.2 0.7-0.4 0.2-0.1 0.5-0.2 0.7-0.3-0.2-2.3-0.3-4.7-0.3-7-0.3-31.9 30.2-70.5 61-75.4 0.1-0.1 0.3-0.1 0.4-0.2-0.4-0.4-0.8-0.9-1.2-1.4z"></path>
</svg>
