<?xml version="1.0" encoding="utf-8"?>
<!-- Generated by IcoMoon.io -->
<!DOCTYPE svg PUBLIC "-//W3C//DTD SVG 1.1//EN" "http://www.w3.org/Graphics/SVG/1.1/DTD/svg11.dtd">
<svg version="1.1" xmlns="http://www.w3.org/2000/svg" xmlns:xlink="http://www.w3.org/1999/xlink" width="512" height="512" viewBox="0 0 512 512">
<path fill="#000000" d="M164.466 64c-55.2 0-100.466 25.98-100.466 79v283h22.141c12.86-26.334 44.238-42 78.325-42 40.224 0 73.877 27.528 81.616 64h1.918v-352.654c-17.24-21.395-49.019-31.346-83.534-31.346z"></path>
<path fill="#000000" d="M347.621 64c-34.332 0-66.713 9.851-83.621 31.011v352.989h1.797c7.739-36.472 41.495-64 81.722-64 34.085 0 61.149 11.666 78.429 42h22.052v-283c0-53.020-45.177-79-100.379-79z"></path>
</svg>
