<?xml version="1.0" encoding="utf-8"?>
<!-- Generated by IcoMoon.io -->
<!DOCTYPE svg PUBLIC "-//W3C//DTD SVG 1.1//EN" "http://www.w3.org/Graphics/SVG/1.1/DTD/svg11.dtd">
<svg version="1.1" xmlns="http://www.w3.org/2000/svg" xmlns:xlink="http://www.w3.org/1999/xlink" width="512" height="512" viewBox="0 0 512 512">
<path fill="#000000" d="M301.815 318.608c-13.114 11.029-28.956 17.356-45.815 17.356-36.36 0-66.286-28.965-70.89-61.965h30.61l-38.87-50-37.534 50h29.479c4.696 42 41.717 78 87.205 78 20.9 0 41.17-7.566 57.076-21.218l2.37-2.159-11.599-11.662-2.032 1.648z"></path>
<path fill="#000000" d="M315.736 198.885c-16.188-14.775-37.402-22.839-59.736-22.839-20.9 0-41.169 7.556-57.075 21.206l-2.371 2.052 11.599 11.61 2.033-1.706c12.927-10.872 29.197-17.005 45.814-17.005 36.343 0 66.274 28.797 70.891 63.797h-30.644l38.846 51.225 37.626-51.225h-29.512c-2.241-20-11.932-42.936-27.471-57.115z"></path>
<path fill="#000000" d="M417.5 160h-61.725c-32.105-36-42.219-48-54.525-48h-88.5c-12.314 0-22.167 12-54.521 48h-13.229v-16h-34v16h-13.5c-17.645 0-33.5 13.217-33.5 30.684v176.018c0 17.467 15.855 33.298 33.5 33.298h320c17.645 0 30.5-15.831 30.5-33.299v-176.017c0-17.467-12.855-30.684-30.5-30.684zM432 366.701c0 9.263-6.229 17.299-14.5 17.299h-320c-8.738 0-17.5-8.664-17.5-17.299v-176.017c0-8.166 8.126-14.684 17.5-14.684h60.729c0 0 4.124 0 6.133 0s3.225-0.199 5.768-3.2 7.702-10.008 11.080-13.795c11.296-12.666 19.457-21.915 25.316-27.132 4.746-4.225 6.211-3.873 6.225-3.873h88.5c0.016 0 1.611-0.363 6.709 4.219 6.141 5.521 14.705 16.84 26.558 30.198 2.888 3.255 7.214 8.11 9.317 10.44s4.252 3.143 5.771 3.143 6.17 0 6.17 0h61.724c8.832 0 14.5 5.965 14.5 14.684v176.017z"></path>
</svg>
