<?xml version="1.0" encoding="utf-8"?>
<!-- Generated by IcoMoon.io -->
<!DOCTYPE svg PUBLIC "-//W3C//DTD SVG 1.1//EN" "http://www.w3.org/Graphics/SVG/1.1/DTD/svg11.dtd">
<svg version="1.1" xmlns="http://www.w3.org/2000/svg" xmlns:xlink="http://www.w3.org/1999/xlink" width="512" height="512" viewBox="0 0 512 512">
<path fill="#000000" d="M448 272.754v-32.008l-33.291-8.703-2.601-13.204 27.594-20.905-12.197-29.608-34.392 4.802-7.498-10.603 17.696-29.708-22.594-22.605-30.192 17.404-10.697-7.302 5.298-35.009-29.492-12.303-21.594 28.308-12.297-2.601-8.698-34.709h-31.991l-9.197 34.909-12.098 2.4-21.494-29.008-29.592 12.304 4.799 35.709-11.697 7.202-31.292-18.705-22.594 22.606 18.795 31.508-6.698 10.502-35.49-5.001-12.197 29.608 28.893 21.706-2.399 12.203-34.793 8.903v32.008l34.69 8.903 2.4 12.503-28.394 21.306 12.297 29.508 34.991-5.002 7.099 11.303-17.896 30.608 22.595 22.605 30.192-18.204 11.196 7.302-4.498 34.31 29.592 12.202 20.595-27.807 13.396 2.5 8.799 33.109h31.991l8.298-33.109 13.597-2.601 20.694 27.107 29.593-12.204-4.998-33.708 10.196-7.401 28.992 16.904 22.595-22.606-16.795-28.907 7.896-11.403 33.791 4.802 12.298-29.508-27.193-20.506 2.7-13.503 33.291-8.603zM419.707 320.767l-2.8 6.702-31.891-4.501-18.896 27.807 15.695 27.106-5.198 5.202-27.293-15.904-26.593 18.204 4.799 31.809-6.698 2.802-19.595-25.607-32.892 6.501-7.798 31.209h-7.198l-8.397-31.309-32.592-6.501-19.495 26.406-6.698-2.801 4.399-32.509-27.493-18.304-28.793 17.504-5.099-5.101 16.996-29.108-18.096-27.606-33.191 4.701-2.699-6.603 26.894-20.205-6.199-31.809-32.991-8.502v-7.202l32.991-8.402 6.299-31.608-27.293-20.505 2.699-6.602 33.691 4.801 17.796-26.807-17.996-30.008 4.999-5.001 29.792 17.804 27.893-18.205-4.499-33.809 6.699-2.8 20.294 27.407 31.492-6.102 8.798-33.208h7.198l8.298 33.008 31.691 6.301 20.095-26.807 6.598 2.801-4.999 33.108 27.193 18.105 28.292-16.205 5.1 5.102-16.695 28.007 18.396 27.007 32.491-4.601 2.799 6.702-26.193 19.705 6.498 32.508 31.292 8.102v7.202l-31.391 8.103-6.499 32.709 25.993 19.807z"></path>
<path fill="#000000" d="M256 128c-70.692 0-128 57.308-128 128s57.308 128 128 128 128-57.307 128-128c0-70.692-57.308-128-128-128zM144 256c0-29.916 11.65-58.042 32.804-79.195 21.154-21.155 49.28-32.805 79.196-32.805 7.496 0 14.88 0.732 22.069 2.161l-27.769 103.939-104.155 27.888c-1.418-7.164-2.145-14.52-2.145-21.988zM256 368c-29.917 0-58.042-11.65-79.196-32.804-11.927-11.926-20.831-26.069-26.331-41.499l103.427-27.497 74.935 74.889c-20.277 17.412-45.826 26.911-72.835 26.911zM340.154 329.901l-74.954-75.001 28.050-104.58c15.604 5.487 29.904 14.443 41.945 26.484 21.155 21.154 32.805 49.28 32.805 79.196 0 27.486-9.841 53.457-27.846 73.901z"></path>
</svg>
