<?xml version="1.0" encoding="utf-8"?>
<!-- Generated by IcoMoon.io -->
<!DOCTYPE svg PUBLIC "-//W3C//DTD SVG 1.1//EN" "http://www.w3.org/Graphics/SVG/1.1/DTD/svg11.dtd">
<svg version="1.1" xmlns="http://www.w3.org/2000/svg" xmlns:xlink="http://www.w3.org/1999/xlink" width="512" height="512" viewBox="0 0 512 512">
<path fill="#000000" d="M248 352h16v96h-16v-96z"></path>
<path fill="#000000" d="M399.3 183.6c0-1.2 0.2-2.4 0.2-3.6 0-64.3-52.8-116.4-116.8-116.4-46.1 0-85.8 27.1-104.4 66.3-8.1-4.1-17.1-6.4-26.8-6.4-29.6 0-54.1 23.6-58.9 52-35.2 12.1-60.6 46.7-60.6 86.3 0 49.7 40.1 90.2 89.6 90.2h126.4v-146.2l-54.7 54.5-11.6-11.6 74.5-74.3 74.5 74.3-11.8 11.6-54.9-54.5v146.2h134c45 0 82-37.3 82-82.8s-35.5-85.5-80.7-85.6z"></path>
</svg>
