<?xml version="1.0" encoding="utf-8"?>
<!-- Generated by IcoMoon.io -->
<!DOCTYPE svg PUBLIC "-//W3C//DTD SVG 1.1//EN" "http://www.w3.org/Graphics/SVG/1.1/DTD/svg11.dtd">
<svg version="1.1" xmlns="http://www.w3.org/2000/svg" xmlns:xlink="http://www.w3.org/1999/xlink" width="512" height="512" viewBox="0 0 512 512">
<path fill="#000000" d="M417 278.742v-0.742h29.814c-0.931-23-6.056-45.609-14.831-66.151-8.643-20.228-20.503-38.665-35.257-54.562l-24.867 24.646-11.229-10.992 24.788-24.679c-16.187-14.836-34.86-26.742-55.515-35.392-21.424-8.973-43.903-13.778-66.903-14.684v33.814h-15v-33.814c-23 0.894-44.95 5.699-66.404 14.685-20.353 8.523-38.958 20.457-55.315 35.471l24.796 24.583-0.549 0.549 0.001 0.006-0.29 0.335-10.27 10.203-24.779-24.479c-14.77 15.932-26.604 34.243-35.176 54.309-8.773 20.54-13.897 43.152-14.827 66.152h28.813v16h-28.813c0.926 22 5.915 44.432 14.829 65.297 7.689 18.001 18.398 34.664 31.831 49.926 38.785-37.377 89.958-57.928 144.154-57.928 54.113 0 105.286 20.676 144.154 58.135 13.354-15.175 24.061-31.979 31.83-50.166 8.915-20.868 13.904-43.264 14.829-65.264h-29.814v-15.258zM304 287.938c0 26.467-21.533 48-48 48-10.223 0-19.701-3.223-27.496-8.691l-12.033 12.033-11.312-11.313 11.948-11.948c-5.722-7.902-9.106-17.602-9.106-28.080 0-26.467 21.533-48 48-48 10.002 0 19.297 3.079 26.994 8.334l73.484-65.727 1.414 1.414-62.849 76.11c5.629 7.863 8.956 17.481 8.956 27.868z"></path>
<path fill="#000000" d="M256 64c-123.712 0-224 100.226-224 223.938 0 56.975 21.283 108.97 56.316 148.5 3.551 4.006 7.241 7.82 11.066 11.562h22.193c31.713-39.103 80.144-64.096 134.424-64.096s102.712 24.993 134.425 64.096h22.193c3.825-3.742 7.516-7.557 11.066-11.562 35.033-39.53 56.316-91.525 56.316-148.5 0.001-123.712-100.287-223.938-223.999-223.938zM410.744 420.797c-3.051 3.408-6.392 6.863-10.213 10.564l-0.376 0.365-0.348-0.393c-2.629-2.97-5.493-5.985-8.759-9.22-0.275-0.271-0.555-0.539-0.834-0.807l-0.504-0.485c-17.258-16.766-37.234-29.967-59.375-39.238-23.535-9.856-48.545-14.854-74.336-14.854s-50.801 4.998-74.336 14.854c-22.14 9.271-42.117 22.473-59.375 39.238l-0.504 0.485c-0.279 0.268-0.558 0.535-0.833 0.807-3.266 3.234-6.13 6.25-8.759 9.22l-0.348 0.393-0.377-0.365c-3.821-3.701-7.162-7.156-10.212-10.564-33.514-37.441-51.971-85.629-51.971-135.685 0-54.666 21.502-106.053 60.545-144.694 39.041-38.639 90.952-59.918 146.171-59.918s107.13 21.279 146.17 59.918c39.043 38.642 60.545 90.029 60.545 144.694 0 50.056-18.456 98.243-51.971 135.685z"></path>
<path fill="#000000" d="M288 287.938c0 17.673-14.327 32-32 32s-32-14.327-32-32c0-17.673 14.327-32 32-32s32 14.327 32 32z"></path>
</svg>
