<?xml version="1.0" encoding="utf-8"?>
<!-- Generated by IcoMoon.io -->
<!DOCTYPE svg PUBLIC "-//W3C//DTD SVG 1.1//EN" "http://www.w3.org/Graphics/SVG/1.1/DTD/svg11.dtd">
<svg version="1.1" xmlns="http://www.w3.org/2000/svg" xmlns:xlink="http://www.w3.org/1999/xlink" width="512" height="512" viewBox="0 0 512 512">
<path fill="#000000" d="M189 223.8c14.5 0 28.1 4.8 39.3 13.9 10.9 8.9 18.6 21.3 21.7 34.9l3.1 14 14.2-1.8c2.1-0.3 4.1-0.4 6.1-0.4 26.9 0 48.8 22.1 48.8 49.2s-21.9 49.2-48.8 49.2h-157.7c-9.5 0-18.5-3.9-25.4-10.8-6.8-7-10.6-16.2-10.6-25.9 0-18.6 14.5-33.8 33.2-36.9 1.6-0.3 8.8-1.2 14.2-1.7 0 0-0.5-5.3-0.6-9.6s-0.1-9.4-0.1-11.5c0.1-34.4 28.1-62.6 62.6-62.6zM189 208c-43.3 0-78.3 35.2-78.3 78.5 0 2.6 0.1 5.2 0.4 7.8-26.4 2.4-47.1 25.5-47.1 52.6 0 28.6 23.2 53.1 51.7 53.1h157.7c35.7 0 64.6-29.9 64.6-65.7s-28.9-65.3-64.6-65.3c-2.7 0-5.4 0-8 0.3-7.9-35-39.1-61.3-76.4-61.3v0z"></path>
<path fill="#000000" d="M424.6 305.6c-2 0.1-3.9 0.1-5.9 0.1-32.3 0-62.7-12.6-85.5-35.5s-35.4-53.3-35.4-85.7c0-18.4 4.1-36.2 11.8-52.4 3.4-7.1 7.5-13.9 12.3-20.2-8.4 0.9-16.6 2.7-24.4 5.1-37.2 11.8-67.1 40.2-81 76.5 5.9 1.2 11.6 3 17 5.4 10.1-25.5 29.4-46.4 53.8-58.6-4.6 13.9-7.1 28.7-7.1 44.1 0 27.3 7.9 52.8 21.4 74.2 13.8 21.8 33.5 39.5 56.8 50.9 15.3 7.4 32.2 12.1 50 13.5-14 12.2-31.2 20.9-50 24.8-1.9 6.9-4.9 13.4-8.6 19.3 33.6-3.6 63.3-20.1 84-44.6 5.4-6.3 10.2-13.2 14.2-20.5-7.6 2.1-15.4 3.2-23.4 3.6z"></path>
</svg>
