<?xml version="1.0" encoding="utf-8"?>
<!-- Generated by IcoMoon.io -->
<!DOCTYPE svg PUBLIC "-//W3C//DTD SVG 1.1//EN" "http://www.w3.org/Graphics/SVG/1.1/DTD/svg11.dtd">
<svg version="1.1" xmlns="http://www.w3.org/2000/svg" xmlns:xlink="http://www.w3.org/1999/xlink" width="512" height="512" viewBox="0 0 512 512">
<path d="M248 435l-54.7-53.8-11.7 11.4 74.5 73.4 74.5-73.4-11.8-11.4-54.8 53.8v-107h-16z"></path>
<path d="M399.2 164.4c0-1.2 0.2-2.3 0.2-3.5 0-63.5-52.9-114.9-116.8-114.9-46.1 0-85.8 26.8-104.4 65.4-8.1-4-17.1-6.3-26.8-6.3-29.6 0-54.1 23.3-58.9 51.3-35.2 12-60.6 43.4-60.6 82.4 0 49.1 40.1 89.2 89.6 89.2h126.5v-135h16v135h134c45 0 81.9-37.2 81.9-82.1s-35.4-81.4-80.7-81.5z"></path>
</svg>
