<?xml version="1.0" encoding="utf-8"?>
<!-- Generated by IcoMoon.io -->
<!DOCTYPE svg PUBLIC "-//W3C//DTD SVG 1.1//EN" "http://www.w3.org/Graphics/SVG/1.1/DTD/svg11.dtd">
<svg version="1.1" xmlns="http://www.w3.org/2000/svg" xmlns:xlink="http://www.w3.org/1999/xlink" width="512" height="512" viewBox="0 0 512 512">
<path fill="#000000" d="M400 113.3h-80v-20c0-16.2-13.1-29.3-29.3-29.3h-69.5c-16.1 0-29.2 13.1-29.2 29.3v20h-80v14.7h21.1l23.6 290.7c0 16.2 13.1 29.3 29.3 29.3h141c16.2 0 29.3-13.1 29.3-29.3l23.3-290.7h20.4v-14.7zM206.6 93.3c0-8.1 6.6-14.7 14.6-14.7h69.5c8.1 0 14.6 6.6 14.6 14.7v20h-98.7v-20zM341.6 417.9v0.8c0 8.1-6.6 14.7-14.6 14.7h-141c-8.1 0-14.6-6.6-14.6-14.7v-0.8l-23.7-289.9h217.2l-23.3 289.9z"></path>
<path fill="#000000" d="M249 160h14v241h-14v-241z"></path>
<path fill="#000000" d="M320 160h-14.6l-10.7 241h14.6z"></path>
<path fill="#000000" d="M206.5 160h-14.5l10.7 241h14.6z"></path>
</svg>
