<?xml version="1.0" encoding="utf-8"?>
<!-- Generated by IcoMoon.io -->
<!DOCTYPE svg PUBLIC "-//W3C//DTD SVG 1.1//EN" "http://www.w3.org/Graphics/SVG/1.1/DTD/svg11.dtd">
<svg version="1.1" xmlns="http://www.w3.org/2000/svg" xmlns:xlink="http://www.w3.org/1999/xlink" width="512" height="512" viewBox="0 0 512 512">
<path d="M128 320c26.467 0 48 21.533 48 48s-21.533 48-48 48-48-21.533-48-48 21.533-48 48-48zM128 304c-35.346 0-64 28.654-64 64s28.654 64 64 64 64-28.653 64-64c0-35.346-28.654-64-64-64v0z"></path>
<path d="M383.25 288c44.388 0 80.625 36.112 80.625 80.5s-35.987 79.5-80.375 79.5h-255c-44.388 0-80.5-35.112-80.5-79.5s36.112-80.5 80.5-80.5h254.5zM383.5 272h-255c-53.295 0-96.5 43.205-96.5 96.5s43.205 95.5 96.5 95.5h255c53.295 0 96.5-42.205 96.5-95.5s-43.205-96.5-96.5-96.5v0z"></path>
<path d="M384 96c26.467 0 48 21.533 48 48s-21.533 48-48 48-48-21.533-48-48 21.533-48 48-48zM384 80c-35.346 0-64 28.654-64 64 0 35.347 28.654 64 64 64s64-28.653 64-64c0-35.346-28.654-64-64-64v0z"></path>
<path d="M129 64h254.5c44.388 0 80.5 36.112 80.5 80.5s-36.112 79.5-80.5 79.5h-255c-44.388 0-80.375-35.112-80.375-79.5s36.237-80.5 80.625-80.5zM128.5 48c-53.295 0-96.5 43.205-96.5 96.5s43.205 95.5 96.5 95.5h255c53.295 0 96.5-42.205 96.5-95.5s-43.205-96.5-96.5-96.5h-255z"></path>
</svg>
