<?xml version="1.0" encoding="utf-8"?>
<!-- Generated by IcoMoon.io -->
<!DOCTYPE svg PUBLIC "-//W3C//DTD SVG 1.1//EN" "http://www.w3.org/Graphics/SVG/1.1/DTD/svg11.dtd">
<svg version="1.1" xmlns="http://www.w3.org/2000/svg" xmlns:xlink="http://www.w3.org/1999/xlink" width="512" height="512" viewBox="0 0 512 512">
<path d="M256 48c-114.9 0-208 93.1-208 208s93.1 208 208 208c114.9 0 208-93.1 208-208s-93.1-208-208-208zM150.5 150.5c2.6-2.3 119.9 84.9 119.9 84.9 1 0.7 1.6 1.5 2.2 2.2 5 4.6 8.2 11 8.2 18.3 0 13.7-11.1 24.9-24.9 24.9-7.8 0-14.7-3.7-19.3-9.4-0.4-0.4-0.8-0.7-1.1-1.1 0.1 0.1-87.5-117.4-85-119.8zM256.1 447.2c-105.7 0-191.4-85.7-191.4-191.4 0-52.8 21.4-100.7 56-135.3l11.8 11.8c-31.6 31.6-51.2 75.3-51.2 123.5 0 96.3 78.4 174.7 174.7 174.7s174.5-78.4 174.5-174.7c0-90.3-70.5-165.1-158.5-174v78.2h-16v-95.6c105.7 0 191.5 85.7 191.5 191.4s-85.8 191.4-191.4 191.4z"></path>
</svg>
