<?xml version="1.0" encoding="utf-8"?>
<!-- Generated by IcoMoon.io -->
<!DOCTYPE svg PUBLIC "-//W3C//DTD SVG 1.1//EN" "http://www.w3.org/Graphics/SVG/1.1/DTD/svg11.dtd">
<svg version="1.1" xmlns="http://www.w3.org/2000/svg" xmlns:xlink="http://www.w3.org/1999/xlink" width="512" height="512" viewBox="0 0 512 512">
<path fill="#000000" d="M256 48c-114.863 0-208 93.136-208 208s93.137 208 208 208c114.871 0 208-93.138 208-208s-93.129-208-208-208zM446.664 256c0 0.048-0.002 0.097-0.002 0.145-22.315-1.721-43.989-6.972-64.62-15.699-17.888-7.566-34.453-17.505-49.479-29.634 20.69-29.501 38.442-61.212 52.824-94.715 37.658 34.853 61.277 84.669 61.277 139.903zM372.606 105.261c-0.28 0.676-0.55 1.354-0.835 2.028-13.908 32.883-31.062 63.956-51.286 92.987-1.538-1.449-3.063-2.914-4.563-4.413-19.107-19.107-34.107-41.354-44.583-66.12-8.697-20.563-13.933-42.163-15.671-64.401 0.111 0 0.221-0.004 0.332-0.004 43.884-0.001 84.347 14.911 116.606 39.923zM239.675 66.044c4.431 58.126 31.044 110.041 71.391 147.312-9.495 12.749-19.609 25.076-30.319 36.965-47.554-50.032-104.815-90.746-168.767-119.132 31.636-36.456 76.853-60.814 127.695-65.145zM280.687 273.84c36.229 40.67 65.48 86.438 87.185 136.453-25.4 18.467-55.51 30.829-88.162 34.898-2.272-47.816-19.521-91.707-47.179-127.071 16.952-13.763 33.037-28.553 48.156-44.28zM262.039 270.039c-12.704 12.703-25.977 24.662-39.778 35.87-38.737-42.885-93.831-70.706-155.45-73.635 4.070-32.646 16.432-62.75 34.896-88.146 59.195 25.688 112.445 61.947 158.332 107.833 3.323 3.323 6.59 6.689 9.812 10.089-2.574 2.686-5.174 5.351-7.812 7.989zM65.508 248.23c25.238 1.145 49.436 6.797 71.45 16.109 24.767 10.476 47.013 25.476 66.12 44.583 2.254 2.254 4.445 4.555 6.584 6.895-31.414 23.915-65.427 44.049-101.708 60.182-26.632-32.794-42.618-74.562-42.618-119.999 0-2.604 0.068-5.191 0.172-7.77zM119.067 388.526c35.988-16.434 69.81-36.787 100.914-60.521 11.249 14.372 20.522 30.115 27.68 47.037 9.614 22.729 15.013 46.724 16.114 71.45-2.58 0.104-5.17 0.172-7.775 0.172-53.683 0-102.249-22.311-136.933-58.138zM380.81 400.021c-22.489-50.671-52.72-97.14-89.191-137.909 11.101-12.269 21.634-25.061 31.556-38.336 34.171 27.342 76.521 44.885 122.801 48.363-4.29 50.919-28.665 96.208-65.166 127.882z"></path>
</svg>
