<?xml version="1.0" encoding="utf-8"?>
<!-- Generated by IcoMoon.io -->
<!DOCTYPE svg PUBLIC "-//W3C//DTD SVG 1.1//EN" "http://www.w3.org/Graphics/SVG/1.1/DTD/svg11.dtd">
<svg version="1.1" xmlns="http://www.w3.org/2000/svg" xmlns:xlink="http://www.w3.org/1999/xlink" width="512" height="512" viewBox="0 0 512 512">
<path fill="#000000" d="M359.385 80c-39.419 0-82.214 17.599-103.385 52.8-21.17-35.201-63.966-52.8-103.385-52.8-68.968 0-120.615 43.238-120.615 115.779 0 31.288 12.562 71.924 40.923 105.657 28.359 33.735 45.229 51.7 100.153 88 54.924 36.302 82.924 42.564 82.924 42.564s28-6.262 82.924-42.564c54.923-36.3 71.794-54.265 100.153-88 28.361-33.733 40.923-74.369 40.923-105.657 0-72.541-51.647-115.779-120.615-115.779z"></path>
</svg>
