<?xml version="1.0" encoding="utf-8"?>
<!-- Generated by IcoMoon.io -->
<!DOCTYPE svg PUBLIC "-//W3C//DTD SVG 1.1//EN" "http://www.w3.org/Graphics/SVG/1.1/DTD/svg11.dtd">
<svg version="1.1" xmlns="http://www.w3.org/2000/svg" xmlns:xlink="http://www.w3.org/1999/xlink" width="512" height="512" viewBox="0 0 512 512">
<path fill="#000000" d="M256 48c-114.863 0-208 93.136-208 208s93.137 208 208 208c114.872 0 208-93.138 208-208s-93.13-208-208-208zM297.151 442.179c-13.514 2.657-30.327 4.187-44 4.45-13.198-0.195-26.074-1.735-38.5-4.493-2.144-0.549-4.383-1.138-6.805-1.777l-24.417-65.435 19.645-38.924h105.854l0.57 1.076 19.34 38.852-23.618 64.282c-2.667 0.714-5.358 1.369-8.069 1.969zM189.578 77.28l57.422 39.296v58.147l-70.997 60.067-53.57-24.409-22.332-64.019c22.009-31.204 53.138-55.532 89.477-69.082zM411.564 146.067l-22.432 64.483-53.992 24.388-71.14-60.215v-58.147l57.596-39.415c36.362 13.483 67.905 37.752 89.968 68.906zM66.144 273.414l53.756-46.518 50.098 22.854 19.718 77.287-20.433 38.529-69.86-0.915c-18.348-26.36-30.214-57.546-33.279-91.237zM342.719 365.565l-20.434-38.529 19.752-77.416 49.997-22.781 53.822 46.575c-3.065 33.691-14.932 64.877-33.277 91.236l-69.86 0.915z"></path>
</svg>
