<?xml version="1.0" encoding="utf-8"?>
<!-- Generated by IcoMoon.io -->
<!DOCTYPE svg PUBLIC "-//W3C//DTD SVG 1.1//EN" "http://www.w3.org/Graphics/SVG/1.1/DTD/svg11.dtd">
<svg version="1.1" xmlns="http://www.w3.org/2000/svg" xmlns:xlink="http://www.w3.org/1999/xlink" width="512" height="512" viewBox="0 0 512 512">
<path d="M451.229 188.098c-18.547-18.131-43.279-28.098-69.644-28.098-26.363 0-51.095 9.967-69.642 28.098l-42.229 41.187 13.649 13.447 42.229-41.306c14.933-14.529 34.764-22.573 55.878-22.573s40.946 8.044 55.878 22.573c30.797 30.139 30.797 79.13 0 109.148-14.932 14.529-34.765 22.573-55.878 22.573s-40.945-8.044-55.878-22.573l-125.521-122.476c-18.665-18.131-43.396-28.098-69.644-28.098-26.363 0-51.095 9.967-69.643 28.098-19.169 18.711-28.763 43.343-28.784 67.902-0.021 24.611 9.573 49.149 28.784 67.902 18.548 18.13 43.279 28.098 69.643 28.098 26.365 0 51.095-9.968 69.645-28.098l42.111-41.186-13.647-13.329-42.229 41.187c-14.932 14.529-34.764 22.573-55.879 22.573-21.113 0-40.944-8.044-55.876-22.573-30.799-30.14-30.799-79.13 0-109.148 14.932-14.529 34.763-22.573 55.876-22.573 21.115 0 40.947 8.044 55.879 22.573l125.52 122.477c18.663 18.129 43.395 28.097 69.643 28.097 26.363 0 51.095-9.968 69.643-28.098 19.248-18.672 28.872-43.302 28.887-67.902 0.015-24.601-9.58-49.17-28.771-67.902z"></path>
</svg>
