<?xml version="1.0" encoding="utf-8"?>
<!-- Generated by IcoMoon.io -->
<!DOCTYPE svg PUBLIC "-//W3C//DTD SVG 1.1//EN" "http://www.w3.org/Graphics/SVG/1.1/DTD/svg11.dtd">
<svg version="1.1" xmlns="http://www.w3.org/2000/svg" xmlns:xlink="http://www.w3.org/1999/xlink" width="512" height="512" viewBox="0 0 512 512">
<path fill="#000000" d="M256 48c-75.033 0-144.531 40.658-181.373 106.107l-1.963 3.485 20.915 11.771 1.962-3.485c32.597-57.905 94.080-93.878 160.459-93.878 101.458 0 184 82.542 184 184 0 12.509-1.262 25.007-3.749 37.147l-0.803 3.918 23.511 4.819 0.804-3.919c2.811-13.721 4.237-27.84 4.237-41.965 0-114.691-93.309-208-208-208z"></path>
<path fill="#000000" d="M416.459 346.119c-32.597 57.908-94.080 93.881-160.459 93.881-101.458 0-184-82.542-184-184 0-12.512 1.262-25.011 3.75-37.15l0.803-3.918-23.511-4.819-0.804 3.918c-2.812 13.719-4.238 27.839-4.238 41.969 0 114.691 93.309 208 208 208 75.033 0 144.531-40.658 181.373-106.109l1.963-3.485-20.915-11.771-1.962 3.484z"></path>
<path fill="#000000" d="M384 256l64 64 64-64z"></path>
<path fill="#000000" d="M0 256l64-64 64 64z"></path>
</svg>
