<?xml version="1.0" encoding="utf-8"?>
<!-- Generated by IcoMoon.io -->
<!DOCTYPE svg PUBLIC "-//W3C//DTD SVG 1.1//EN" "http://www.w3.org/Graphics/SVG/1.1/DTD/svg11.dtd">
<svg version="1.1" xmlns="http://www.w3.org/2000/svg" xmlns:xlink="http://www.w3.org/1999/xlink" width="512" height="512" viewBox="0 0 512 512">
<path d="M352 104c8.837 0 16 7.163 16 16s-7.163 16-16 16-16-7.163-16-16 7.163-16 16-16zM352 88c-17.645 0-32 14.355-32 32s14.355 32 32 32 32-14.355 32-32-14.355-32-32-32v0z"></path>
<path d="M352 376c8.837 0 16 7.163 16 16s-7.163 16-16 16-16-7.163-16-16 7.163-16 16-16zM352 360c-17.645 0-32 14.355-32 32s14.355 32 32 32 32-14.355 32-32-14.355-32-32-32v0z"></path>
<path d="M160 240c8.837 0 16 7.163 16 16s-7.163 16-16 16-16-7.163-16-16 7.163-16 16-16zM160 224c-17.645 0-32 14.355-32 32s14.355 32 32 32 32-14.355 32-32-14.355-32-32-32v0z"></path>
<path d="M207.32 248h272.68v16h-272.68c0.439-2.604 0.68-5.273 0.68-8s-0.24-5.396-0.68-8z"></path>
<path d="M112 256c0 2.727 0.24 5.396 0.68 8h-80.68v-16h80.68c-0.44 2.604-0.68 5.273-0.68 8z"></path>
<path d="M399.32 384h80.68v16h-80.68c0.439-2.604 0.68-5.273 0.68-8s-0.24-5.396-0.68-8z"></path>
<path d="M304 392c0 2.727 0.24 5.396 0.68 8h-272.68v-16h272.68c-0.44 2.604-0.68 5.273-0.68 8z"></path>
<path d="M399.32 112h80.68v16h-80.68c0.439-2.604 0.68-5.273 0.68-8s-0.24-5.396-0.68-8z"></path>
<path d="M304.68 112c-0.439 2.604-0.68 5.273-0.68 8s0.24 5.396 0.68 8h-272.68v-16h272.68z"></path>
</svg>
