<?xml version="1.0" encoding="utf-8"?>
<!-- Generated by IcoMoon.io -->
<!DOCTYPE svg PUBLIC "-//W3C//DTD SVG 1.1//EN" "http://www.w3.org/Graphics/SVG/1.1/DTD/svg11.dtd">
<svg version="1.1" xmlns="http://www.w3.org/2000/svg" xmlns:xlink="http://www.w3.org/1999/xlink" width="512" height="512" viewBox="0 0 512 512">
<path fill="#000000" d="M386.2 144c-60.6 0-109.8 50.1-109.8 112 0 40.4 21 75.7 52.5 95.4h-145.8c31.5-19.7 52.5-55 52.5-95.4 0-61.9-49.2-112-109.8-112s-109.8 50.1-109.8 112c0 61.9 49.2 112 109.8 112h260.4c60.6 0 109.8-50.1 109.8-112s-49.2-112-109.8-112zM32.3 256c0-52.6 42-95.4 93.5-95.4 51.6 0 93.5 42.8 93.5 95.4s-42 95.4-93.5 95.4c-51.6 0-93.5-42.8-93.5-95.4zM386.2 351.4c-51.6 0-93.5-42.8-93.5-95.4s42-95.4 93.5-95.4 93.5 42.8 93.5 95.4-41.9 95.4-93.5 95.4z"></path>
<path fill="#000000" d="M384 208c26.5 0 48 21.5 48 48s-21.5 48-48 48-48-21.5-48-48c0-26.5 21.5-48 48-48zM384 192c-35.3 0-64 28.7-64 64s28.7 64 64 64 64-28.7 64-64c0-35.3-28.7-64-64-64v0z"></path>
<path fill="#000000" d="M128 208c26.5 0 48 21.5 48 48s-21.5 48-48 48-48-21.5-48-48c0-26.5 21.5-48 48-48zM128 192c-35.3 0-64 28.7-64 64s28.7 64 64 64 64-28.7 64-64c0-35.3-28.7-64-64-64v0z"></path>
</svg>
