<?xml version="1.0" encoding="utf-8"?>
<!-- Generated by IcoMoon.io -->
<!DOCTYPE svg PUBLIC "-//W3C//DTD SVG 1.1//EN" "http://www.w3.org/Graphics/SVG/1.1/DTD/svg11.dtd">
<svg version="1.1" xmlns="http://www.w3.org/2000/svg" xmlns:xlink="http://www.w3.org/1999/xlink" width="512" height="512" viewBox="0 0 512 512">
<path d="M448 273.001c-21.27 0-39.296 13.999-45.596 32.999h-38.857l-28.361-85.417c-2.176-6.553-8.303-10.956-15.183-10.956-0.112 0-0.224 0-0.335 0.004-7.016 0.145-13.117 4.844-15.049 11.588l-44.484 155.262-52.353-314.108c-1.247-7.48-7.449-14.373-15.782-14.373s-13.693 5.776-15.525 13.135l-60.979 244.865h-99.496v31.999h112c7.348 0 13.75-5.003 15.525-12.134l45.368-182.177 51.324 307.94c1.229 7.377 7.397 11.92 14.864 12.344 0.308 0.018 0.614 0.028 0.919 0.028 7.097 0 13.406-3.701 15.381-10.594l49.744-173.617 15.689 47.252c2.173 6.543 8.292 10.958 15.186 10.958h51.108c6.865 18 24.369 31.001 44.892 31.001 26.511 0 48-22.492 48-49 0-26.509-21.489-46.999-48-46.999z"></path>
</svg>
