<?xml version="1.0" encoding="utf-8"?>
<!-- Generated by IcoMoon.io -->
<!DOCTYPE svg PUBLIC "-//W3C//DTD SVG 1.1//EN" "http://www.w3.org/Graphics/SVG/1.1/DTD/svg11.dtd">
<svg version="1.1" xmlns="http://www.w3.org/2000/svg" xmlns:xlink="http://www.w3.org/1999/xlink" width="512" height="512" viewBox="0 0 512 512">
<path d="M464 256c0-114.863-93.13-208-208-208-114.863 0-208 93.136-208 208 0 114.863 93.137 208 208 208 2.541 0 5.068-0.062 7.587-0.152 0.479-0.017 0.957-0.034 1.435-0.055 0.942-0.040 1.884-0.083 2.823-0.136 0.85-0.047 1.698-0.104 2.547-0.161 0.639-0.044 1.279-0.080 1.917-0.13 1.354-0.104 2.705-0.221 4.055-0.352 0-0.003 0-0.006 0-0.009 97.47-9.474 175.229-86.229 186.274-183.223 0.020-0.001 0.038 0 0.057-0.001 0.604-5.315 1.002-10.667 1.196-16.050-0.016 0.001-0.032 0.001-0.049 0.001 0.095-2.566 0.158-5.141 0.158-7.732zM446.665 256c0 2.568-0.066 5.121-0.167 7.664-23.639-1.076-46.677-6.106-68.616-15.005-25.791-10.458-48.938-25.831-68.797-45.691s-35.233-43.007-45.692-68.797c-8.903-21.956-13.935-45.014-15.006-68.67 2.527-0.1 5.063-0.165 7.614-0.165 105.129-0.001 190.664 85.533 190.664 190.664zM65.337 256c0-1.318 0.023-2.631 0.050-3.942 22.476 1.379 44.388 6.337 65.3 14.817 25.791 10.458 48.938 25.831 68.798 45.691 19.86 19.859 35.232 43.007 45.691 68.798 8.474 20.896 13.43 42.792 14.814 65.249-1.328 0.027-2.656 0.051-3.99 0.051-105.13 0-190.664-85.534-190.663-190.664zM275.943 445.623c-3.273-52.566-24.974-104.198-65.145-144.369-40.186-40.186-91.84-61.889-144.427-65.15 9.172-88.053 78.52-158.478 166.074-169.313 2.595 53.64 24.36 106.525 65.326 147.49 40.949 40.952 93.811 62.713 147.433 65.322-10.853 87.515-81.247 156.829-169.261 166.020z"></path>
</svg>
