<?xml version="1.0" encoding="utf-8"?>
<!-- Generated by IcoMoon.io -->
<!DOCTYPE svg PUBLIC "-//W3C//DTD SVG 1.1//EN" "http://www.w3.org/Graphics/SVG/1.1/DTD/svg11.dtd">
<svg version="1.1" xmlns="http://www.w3.org/2000/svg" xmlns:xlink="http://www.w3.org/1999/xlink" width="512" height="512" viewBox="0 0 512 512">
<path fill="#000000" d="M256 47.959c17.645 0 32 14.351 32 31.991s-14.355 31.99-32 31.99-32-14.351-32-31.99c0-17.64 14.355-31.991 32-31.991zM256 31.964c-26.51 0-48 21.483-48 47.986s21.49 47.985 48 47.985 48-21.483 48-47.985c0-26.503-21.49-47.986-48-47.986v0z"></path>
<path fill="#000000" d="M424 144h-336c-13.255 0-24 10.747-24 24s10.745 24 24 24h100.451c5.549 0 13.197 4.295 17.216 14.708 4.651 12.055 2.37 33.33-0.539 51.444l-3.923 21.26c-0.019 0.104-0.205 0.1-0.205 0.203l-32.229 172.238c-2.303 13.051 6.487 25.494 19.54 27.797 1.408 0.248 2.844 0.367 4.218 0.367 11.357 0 20.917-8.19 22.97-19.836l20.501-119.939v0.166c0 0 7.25-31.408 19.452-31.408h1.096c12.452 0 17.452 31.408 17.452 31.408v-0.082l21.483 119.895c2.052 11.642 12.331 19.815 23.763 19.815 1.387 0 2.855-0.121 4.268-0.368 13.053-2.303 21.821-14.76 19.519-27.811l-32.349-172.251c-0.002-0.008 0.011-0.020 0.009-0.027-0.019-0.104-0.032-0.217-0.052-0.322l-3.771-21.411c-2.909-18.119-5.188-39.083-0.538-51.137 4.019-10.414 12.168-14.709 17.217-14.709h100.451c13.255 0 24-10.747 24-24s-10.745-24-24-24zM88 176.113c-4.411 0-8-3.646-8-8.057s3.589-8.057 8-8.057h336c4.411 0 8 3.59 8 8s-3.589 8-8 8h-101.5c-15.538 0-27.438 14.738-30.982 23.922-4.846 12.557-5.004 31.942-0.388 60.688l-0.009 0.104 0.006 0.11 3.367 19.138 0.562 3.241 32.252 171.628c0.5 2.834-0.62 4.961-1.332 5.977-0.713 1.017-2.335 2.799-5.179 3.301-0.476 0.083-0.955 0.126-1.427 0.126-3.893 0-7.207-2.639-7.883-6.472l-21.232-119.762h-0.015c-0.271-2-1.828-10.050-5.022-18.771-2.278-6.217-4.844-11.034-7.844-15.005-7.091-9.388-15.239-11.224-20.826-11.224h-1.096c-5.47 0-13.503 1.731-20.71 10.938-3.050 3.896-5.729 8.671-8.19 14.802-3.628 9.037-5.505 17.654-5.708 18.613l-0.11 0.369-20.728 119.9c-0.693 3.886-3.75 6.596-7.441 6.596-0.459 0-0.932-0.043-1.403-0.127-2.84-0.5-4.455-2.275-5.165-3.288s-1.824-3.136-1.323-5.975l32.435-172.508 3.797-21.455 0.021-0.126c4.629-28.829 4.527-48.3-0.332-60.891-3.543-9.181-13.576-23.737-31.76-23.737z"></path>
</svg>
