<?xml version="1.0" encoding="utf-8"?>
<!-- Generated by IcoMoon.io -->
<!DOCTYPE svg PUBLIC "-//W3C//DTD SVG 1.1//EN" "http://www.w3.org/Graphics/SVG/1.1/DTD/svg11.dtd">
<svg version="1.1" xmlns="http://www.w3.org/2000/svg" xmlns:xlink="http://www.w3.org/1999/xlink" width="512" height="512" viewBox="0 0 512 512">
<path d="M112 72.8v366.4c0 4.9 3.9 8.8 8.8 8.8h270.4c4.9 0 8.8-3.9 8.8-8.8v-366.4c0-4.9-3.9-8.8-8.8-8.8h-270.4c-4.9 0-8.8 3.9-8.8 8.8zM256 437.6c-7.5 0-13.6-6-13.6-13.5s6.1-13.6 13.6-13.6c7.4 0 13.5 6.1 13.5 13.6 0.1 7.5-6 13.5-13.5 13.5zM144 118.6c0-3.5 2.7-6.6 6-6.6h211.2c3.4 0 6.8 3.1 6.8 6.6v275.2c0 3.5-3.4 6.3-6.8 6.3h-211.2c-3.4 0-6-2.8-6-6.3v-275.2z"></path>
</svg>
