<?xml version="1.0" encoding="utf-8"?>
<!-- Generated by IcoMoon.io -->
<!DOCTYPE svg PUBLIC "-//W3C//DTD SVG 1.1//EN" "http://www.w3.org/Graphics/SVG/1.1/DTD/svg11.dtd">
<svg version="1.1" xmlns="http://www.w3.org/2000/svg" xmlns:xlink="http://www.w3.org/1999/xlink" width="512" height="512" viewBox="0 0 512 512">
<path d="M285.7 32c-3.3 0-6 1.4-8 3.8-18.7 22.9-53.7 80.3-53.7 214.3 0 39.2 33 39.2 32 69.4 0 0.1 0 0.3 0 0.4-2 47.1-14.9 111.1-16 130.3-0.4 15.2 9.7 29.8 24.1 29.8 0.1 0 0.1 0 0.2 0 0 0 0.1 0 0.2 0 14.4 0 23.5-14.4 23.5-29.6v-412.1c0-5-0.5-6.3-2.3-6.3z"></path>
</svg>
