<?xml version="1.0" encoding="utf-8"?>
<!-- Generated by IcoMoon.io -->
<!DOCTYPE svg PUBLIC "-//W3C//DTD SVG 1.1//EN" "http://www.w3.org/Graphics/SVG/1.1/DTD/svg11.dtd">
<svg version="1.1" xmlns="http://www.w3.org/2000/svg" xmlns:xlink="http://www.w3.org/1999/xlink" width="512" height="512" viewBox="0 0 512 512">
<path d="M456.7 378.7c-52.5-8-56.5-15.7-56.5-15.7 10.8-64.9-22.7-147.1-77.4-191.6-72.8-59.2-183.5-16.2-269.7-106.2-20.1-21-8.4 235.5 99.5 332.7 78.9 71 171.8 49.2 197.3 37.6 23.1-10.6 39.3-29.9 39.3-29.9 42.1 13 62.9 12.2 62.9 12.2 14.8 1.8 22.3-36.4 4.6-39.1zM360.6 383.1c-138.2-40.9-242.1-184.5-242.1-184.5s91.2 107.7 252 160.2c0.2 8.1-4.6 19.7-9.9 24.3z"></path>
</svg>
