<?xml version="1.0" encoding="utf-8"?>
<!-- Generated by IcoMoon.io -->
<!DOCTYPE svg PUBLIC "-//W3C//DTD SVG 1.1//EN" "http://www.w3.org/Graphics/SVG/1.1/DTD/svg11.dtd">
<svg version="1.1" xmlns="http://www.w3.org/2000/svg" xmlns:xlink="http://www.w3.org/1999/xlink" width="512" height="512" viewBox="0 0 512 512">
<path fill="#000000" d="M256 32c-70.7 0-128 55.4-128 123.8 0 4.9 0.3 9.7 0.9 14.5 0.6 5.4 1.6 10.6 3 15.7 0.1 0.5 0.3 1.1 0.4 1.6 16.6 62.8 45.3 71.5 58.9 167.6 0 0.2 0.1 0.4 0.1 0.5 1.5 9.2 9.8 12.3 19.8 12.3h89.9c10 0 18.2-3.1 19.7-12.3 0-0.2 0.1-0.4 0.1-0.5 13.6-96.1 42.3-104.7 58.9-167.6 0.2-0.5 0.3-1 0.4-1.6 1.3-5.1 2.3-10.4 3-15.7 0.6-4.7 0.9-9.6 0.9-14.5 0-68.4-57.3-123.8-128-123.8z"></path>
<path fill="#000000" d="M317.8 396.5c0.1-0.2 0.3-0.4 0.4-0.6 1.1-1.7 1.7-3.6 1.7-5.7 0-3.5 1.6-6.2-6.5-6.2h-114.8c-8.1 0-6.5 2.1-6.5 6.2 0 2.1 0.6 4 1.7 5.7 0.1 0.2 0.3 0.4 0.5 0.6 0 0.1 0.1 0.1 0.1 0.2 1.7 2.6 2.7 4.4 2.7 7.6 0 3.1-0.9 4.9-2.6 7.5-0.3 0.4-0.5 0.7-0.7 1-1 1.7-1.6 3.6-1.6 5.6 0 2.1 0.6 4 1.7 5.8 0.1 0.2 0.3 0.4 0.4 0.6 1.8 2.7 2.8 4.5 2.8 7.8 0 3.1-0.9 4.9-2.6 7.4-0.2 0.4-0.5 0.7-0.8 1.1-1 1.7-1.6 3.6-1.6 5.6 0 5.4 4.3 10.1 10.2 11.6 0.3 0.1 0.6 0.1 0.9 0.2 6 1.4 12.2 1.6 18.5 2.5 0.7 0.1 1.4 0.2 2.2 0.3 5.6 1 10.3 3.9 13.4 7.7v0c3.8 5.3 10.8 11 18.8 11 7.6 0 14.3-5.4 18.2-10.4v0c3-4.2 8-7.3 13.9-8.4 0.7-0.1 1.4-0.3 2.2-0.3 6.3-0.9 12.5-1.1 18.5-2.5 0.3-0.1 0.6-0.1 0.9-0.2 5.9-1.6 10.2-6.2 10.2-11.6 0-2-0.6-3.9-1.6-5.6-0.3-0.4-0.5-0.7-0.8-1.1-1.6-2.6-2.6-4.3-2.6-7.4 0-3.2 1-5.1 2.8-7.8 0.1-0.2 0.3-0.4 0.4-0.6 1.1-1.7 1.7-3.7 1.7-5.8 0-2-0.6-3.9-1.6-5.6-0.3-0.3-0.5-0.7-0.7-1-1.6-2.6-2.6-4.3-2.6-7.5s1-5 2.7-7.6c0 0.1 0 0 0.1-0.1z"></path>
</svg>
