<?xml version="1.0" encoding="utf-8"?>
<!-- Generated by IcoMoon.io -->
<!DOCTYPE svg PUBLIC "-//W3C//DTD SVG 1.1//EN" "http://www.w3.org/Graphics/SVG/1.1/DTD/svg11.dtd">
<svg version="1.1" xmlns="http://www.w3.org/2000/svg" xmlns:xlink="http://www.w3.org/1999/xlink" width="512" height="512" viewBox="0 0 512 512">
<path d="M256.5 208h-0.5c0.2 0 0.3 0 0.5 0z"></path>
<path d="M368.5 160h-48.5c0 0 26 17 31.6 48h16.9c17.6 0 31.5 13.9 31.5 31.5v32c0 17.6-13.9 32.5-31.5 32.5h-112c-17.6 0-32.5-14.9-32.5-32.5v-31.5h-48v31.5c0 11.5 2.5 22.5 6.9 32.5 12.6 28.2 40.9 48 73.6 48h112c44.2 0 79.5-36.3 79.5-80.5v-32c0-44.2-35.3-79.5-79.5-79.5z"></path>
<path d="M329.6 208c-12.1-28.3-40.1-48-73.1-48h-112c-44.2 0-80.5 35.3-80.5 79.5v32c0 44.2 36.3 80.5 80.5 80.5h47.5c0 0-25.8-17-32.1-48h-15.4c-17.6 0-32.5-14.9-32.5-32.5v-32c0-17.6 14.9-31.5 32.5-31.5h112c17.6 0 31.5 13.9 31.5 31.5v32c0 0.2 0 0.3 0 0.5h48c0-0.2 0-0.3 0-0.5v-32c0-11.2-2.3-21.9-6.4-31.5z"></path>
</svg>
