<?xml version="1.0" encoding="utf-8"?>
<!-- Generated by IcoMoon.io -->
<!DOCTYPE svg PUBLIC "-//W3C//DTD SVG 1.1//EN" "http://www.w3.org/Graphics/SVG/1.1/DTD/svg11.dtd">
<svg version="1.1" xmlns="http://www.w3.org/2000/svg" xmlns:xlink="http://www.w3.org/1999/xlink" width="512" height="512" viewBox="0 0 512 512">
<path d="M432 240h-80c-8.8 0-16 7.2-16 16s7.2 16 16 16h80c8.8 0 16-7.2 16-16s-7.2-16-16-16z"></path>
<path d="M176 256c0-8.8-7.2-16-16-16h-80c-8.8 0-16 7.2-16 16s7.2 16 16 16h80c8.8 0 16-7.2 16-16z"></path>
<path d="M256 336c-8.8 0-16 7.2-16 16v80c0 8.8 7.2 16 16 16s16-7.2 16-16v-80c0-8.8-7.2-16-16-16z"></path>
<path d="M256 64c-8.8 0-16 7.2-16 16v80c0 8.8 7.2 16 16 16s16-7.2 16-16v-80c0-8.8-7.2-16-16-16z"></path>
<path d="M325.3 216c4.4 7.7 14.2 10.3 21.9 5.9l69.3-40c7.7-4.4 10.3-14.2 5.9-21.9s-14.2-10.3-21.9-5.9l-69.3 40c-7.7 4.5-10.3 14.2-5.9 21.9z"></path>
<path d="M186.7 296c-4.4-7.7-14.2-10.3-21.9-5.9l-69.3 40c-7.7 4.4-10.3 14.2-5.9 21.9s14.2 10.3 21.9 5.9l69.3-40c7.7-4.5 10.3-14.2 5.9-21.9z"></path>
<path d="M317.9 331.1c-4.4-7.7-14.2-10.3-21.9-5.9s-10.3 14.2-5.9 21.9l40 69.3c4.4 7.7 14.2 10.3 21.9 5.9s10.3-14.2 5.9-21.9l-40-69.3z"></path>
<path d="M181.9 95.6c-4.4-7.7-14.2-10.3-21.9-5.9s-10.3 14.2-5.9 21.9l40 69.3c4.4 7.7 14.2 10.3 21.9 5.9s10.3-14.2 5.9-21.9l-40-69.3z"></path>
<path d="M296 186.7c7.7 4.4 17.4 1.8 21.9-5.9l40-69.3c4.4-7.7 1.8-17.4-5.9-21.9-7.7-4.4-17.4-1.8-21.9 5.9l-40 69.3c-4.4 7.7-1.8 17.5 5.9 21.9z"></path>
<path d="M216 325.3c-7.7-4.4-17.4-1.8-21.9 5.9l-40 69.3c-4.4 7.7-1.8 17.4 5.9 21.9 7.7 4.4 17.4 1.8 21.9-5.9l40-69.3c4.4-7.7 1.8-17.5-5.9-21.9z"></path>
<path d="M416.4 330.1l-69.3-40c-7.7-4.4-17.4-1.8-21.9 5.9-4.4 7.7-1.8 17.4 5.9 21.9l69.3 40c7.7 4.4 17.4 1.8 21.9-5.9 4.4-7.7 1.8-17.4-5.9-21.9z"></path>
<path d="M95.6 181.9l69.3 40c7.7 4.4 17.4 1.8 21.9-5.9s1.8-17.4-5.9-21.9l-69.3-40c-7.7-4.4-17.4-1.8-21.9 5.9-4.4 7.7-1.8 17.4 5.9 21.9z"></path>
</svg>
