<?xml version="1.0" encoding="utf-8"?>
<!-- Generated by IcoMoon.io -->
<!DOCTYPE svg PUBLIC "-//W3C//DTD SVG 1.1//EN" "http://www.w3.org/Graphics/SVG/1.1/DTD/svg11.dtd">
<svg version="1.1" xmlns="http://www.w3.org/2000/svg" xmlns:xlink="http://www.w3.org/1999/xlink" width="512" height="512" viewBox="0 0 512 512">
<path d="M320 96c0 35.346-28.654 64-64 64s-64-28.654-64-64c0-35.346 28.654-64 64-64s64 28.654 64 64z"></path>
<path d="M144 256c0 26.51-21.49 48-48 48s-48-21.49-48-48c0-26.51 21.49-48 48-48s48 21.49 48 48z"></path>
<path d="M376 144c0 4.418-3.582 8-8 8s-8-3.582-8-8c0-4.418 3.582-8 8-8s8 3.582 8 8z"></path>
<path d="M180.1 107.6c-19.9-20.1-52.2-20.1-72.1 0s-19.9 52.7 0 72.8c19.9 20.1 52.2 20.1 72.1 0s19.9-52.7 0-72.8z"></path>
<path d="M432 256c0 8.837-7.163 16-16 16s-16-7.163-16-16c0-8.837 7.163-16 16-16s16 7.163 16 16z"></path>
<path d="M393 369c0 13.255-10.745 24-24 24s-24-10.745-24-24c0-13.255 10.745-24 24-24s24 10.745 24 24z"></path>
<path d="M288 416c0 17.673-14.327 32-32 32s-32-14.327-32-32c0-17.673 14.327-32 32-32s32 14.327 32 32z"></path>
<path d="M184 368c0 22.091-17.909 40-40 40s-40-17.909-40-40c0-22.091 17.909-40 40-40s40 17.909 40 40z"></path>
</svg>
