<?xml version="1.0" encoding="utf-8"?>
<!-- Generated by IcoMoon.io -->
<!DOCTYPE svg PUBLIC "-//W3C//DTD SVG 1.1//EN" "http://www.w3.org/Graphics/SVG/1.1/DTD/svg11.dtd">
<svg version="1.1" xmlns="http://www.w3.org/2000/svg" xmlns:xlink="http://www.w3.org/1999/xlink" width="512" height="512" viewBox="0 0 512 512">
<path d="M288 160c0 17.7-14.3 32-32 32v0c-17.7 0-32-14.3-32-32v-96c0-17.7 14.3-32 32-32v0c17.7 0 32 14.3 32 32v96z"></path>
<path d="M256 320c-17.7 0-32 14.3-32 32v96c0 17.7 14.3 32 32 32s32-14.3 32-32v-96c0-17.7-14.3-32-32-32v0z"></path>
<path d="M448 224h-96c-17.7 0-32 14.3-32 32s14.3 32 32 32h96c17.7 0 32-14.3 32-32s-14.3-32-32-32v0z"></path>
<path d="M160 224h-96c-17.7 0-32 14.3-32 32s14.3 32 32 32h96c17.7 0 32-14.3 32-32s-14.3-32-32-32v0z"></path>
<path d="M346.5 210.7c-12.5 12.5-32.8 12.5-45.3 0v0c-12.5-12.5-12.5-32.8 0-45.3l67.9-67.9c12.5-12.5 32.8-12.5 45.3 0v0c12.5 12.5 12.5 32.8 0 45.3l-67.9 67.9z"></path>
<path d="M210.7 301.3c-12.5-12.5-32.8-12.5-45.3 0l-67.9 67.9c-12.5 12.5-12.5 32.8 0 45.3s32.8 12.5 45.3 0l67.9-67.9c12.5-12.6 12.5-32.8 0-45.3v0z"></path>
<path d="M414.4 369.1l-67.9-67.9c-12.5-12.5-32.8-12.5-45.3 0s-12.5 32.8 0 45.3l67.9 67.9c12.5 12.5 32.8 12.5 45.3 0s12.5-32.8 0-45.3v0z"></path>
<path d="M210.7 165.5l-67.9-67.9c-12.5-12.5-32.8-12.5-45.3 0s-12.5 32.8 0 45.3l67.9 67.9c12.5 12.5 32.8 12.5 45.3 0s12.5-32.8 0-45.3v0z"></path>
</svg>
