<?xml version="1.0" encoding="utf-8"?>
<!-- Generated by IcoMoon.io -->
<!DOCTYPE svg PUBLIC "-//W3C//DTD SVG 1.1//EN" "http://www.w3.org/Graphics/SVG/1.1/DTD/svg11.dtd">
<svg version="1.1" xmlns="http://www.w3.org/2000/svg" xmlns:xlink="http://www.w3.org/1999/xlink" width="512" height="512" viewBox="0 0 512 512">
<path fill="#000000" d="M384 176.905v-48.905c0-70.692-57.308-128-128-128s-128 57.308-128 128v48.906c-39.275 35.156-64 86.235-64 143.094 0 106.039 85.962 192 192 192s192-85.961 192-192c0-56.859-24.725-107.938-64-143.095zM160 128c0-52.935 43.065-96 96-96s96 43.065 96 96v25.692c-28.241-16.337-61.027-25.692-96-25.692s-67.759 9.355-96 25.693v-25.693zM256 480c-88.366 0-160-71.634-160-160s71.634-160 160-160 160 71.634 160 160-71.634 160-160 160z"></path>
<path fill="#000000" d="M256 176c-79.529 0-144 64.472-144 144s64.471 144 144 144 144-64.472 144-144-64.471-144-144-144zM378.533 353.487l-24.12-7.896-3.926 12.19 24.161 7.912c-3.661 9.776-8.462 18.965-14.252 27.409l-10.56-7.737-3.74 5.184 10.555 7.734c-6.129 8.047-13.189 15.324-21.028 21.682l-14.982-20.787-10.284 7.532 14.976 20.776c-8.479 5.556-17.657 10.12-27.398 13.532l-3.96-12.294-6.049 1.982 4.924 12.262c-9.515 2.802-19.85 4.529-28.85 5.032v-19h-16v19c-11-0.506-19.705-2.244-29.243-5.065l3.948-11.206-6.25-2.106-3.539 11.224c-9.557-3.393-18.531-7.895-26.864-13.359l14.997-20.774-10.27-7.534-14.977 20.787c-7.809-6.333-14.841-13.575-20.953-21.583l9.556-6.998-3.971-5.507-9.562 7c-5.718-8.381-10.469-17.497-14.093-27.186l24.162-7.914-3.926-12.188-24.121 7.897c-2.49-9.431-3.954-18.488-4.258-29.487h5.364v-6.805l-5.993-0.002c0.223-10.606 0.672-20.88 3.266-30.682l24.921 7.9 4.347-12.188-23.966-7.914c3.585-9.57 8.36-18.583 13.985-26.879l10.339 7.533 3.759-5.184-10.292-7.545c6.221-8.253 13.424-15.707 21.434-22.197l14.984 20.787 10.284-7.536-14.975-20.774c8.405-5.514 17.512-10.050 27.16-13.449l3.955 12.247 6.044-1.98-4.62-12.231c9.578-2.844 18.368-4.594 29.368-5.102v19h16v-19c9 0.498 19.159 2.198 28.585 4.951l-4.761 13.28 6.182 2.106 4.174-13.312c9.696 3.408 18.778 7.957 27.208 13.491l-15.002 20.775 10.267 7.535 14.975-20.787c7.935 6.432 15.069 13.812 21.255 21.977l-11.299 8.268 3.975 5.512 11.276-8.26c5.595 8.271 10.247 17.243 13.816 26.775l-24.165 7.914 3.928 12.188 24.12-7.9c2.586 9.802 5.251 20.075 5.47 30.683l-8.004-0.004v6.808h6.789c-0.303 10.999-1.769 20.057-4.256 29.487z"></path>
<path fill="#000000" d="M337 320c0 44.735-36.265 81-81 81s-81-36.265-81-81c0-44.735 36.265-81 81-81s81 36.265 81 81z"></path>
</svg>
