<?xml version="1.0" encoding="utf-8"?>
<!-- Generated by IcoMoon.io -->
<!DOCTYPE svg PUBLIC "-//W3C//DTD SVG 1.1//EN" "http://www.w3.org/Graphics/SVG/1.1/DTD/svg11.dtd">
<svg version="1.1" xmlns="http://www.w3.org/2000/svg" xmlns:xlink="http://www.w3.org/1999/xlink" width="512" height="512" viewBox="0 0 512 512">
<path d="M366.863 323.883l22.627 22.627 90.51-90.51-90.51-90.51-22.628 22.628 51.883 51.882h-226.745v32h226.745z"></path>
<path d="M391.491 391.766c-36.262 36.263-84.473 56.234-135.755 56.234-51.287 0-99.506-19.971-135.772-56.235-36.267-36.264-55.964-84.48-55.964-135.765 0-51.281 19.697-99.495 55.965-135.761 36.267-36.266 84.485-56.239 135.771-56.239 51.279 0 99.491 19.973 135.755 56.238 2.527 2.528 4.966 5.121 7.333 7.762h40.731c-40.474-58.028-107.709-96-183.819-96-123.715 0-223.736 100.298-223.736 224 0 123.715 100.021 224 223.736 224 76.112 0 143.35-37.97 183.822-96h-40.73c-2.368 2.643-4.807 5.236-7.337 7.766z"></path>
</svg>
