<?xml version="1.0" encoding="utf-8"?>
<!-- Generated by IcoMoon.io -->
<!DOCTYPE svg PUBLIC "-//W3C//DTD SVG 1.1//EN" "http://www.w3.org/Graphics/SVG/1.1/DTD/svg11.dtd">
<svg version="1.1" xmlns="http://www.w3.org/2000/svg" xmlns:xlink="http://www.w3.org/1999/xlink" width="512" height="512" viewBox="0 0 512 512">
<path d="M255.988 32c-95.515 0-177.054 59.804-209.261 144h34.639c9.396-20.484 22.457-39.35 38.868-55.762 36.263-36.265 84.475-56.238 135.754-56.238 51.286 0 99.504 19.973 135.771 56.239 36.268 36.266 56.241 84.48 56.241 135.761 0 51.285-19.973 99.501-56.239 135.765-36.267 36.264-84.486 56.235-135.773 56.235-51.281 0-99.493-19.971-135.755-56.234-16.412-16.412-29.473-35.28-38.871-55.766h-34.637c32.206 84.201 113.746 144 209.264 144 123.714 0 224.011-100.285 224.011-224 0-123.702-100.297-224-224.012-224z"></path>
<path d="M206.863 323.883l22.627 22.627 90.51-90.51-90.51-90.51-22.628 22.628 51.883 51.882h-226.745v32h226.745z"></path>
</svg>
