<?xml version="1.0" encoding="utf-8"?>
<!-- Generated by IcoMoon.io -->
<!DOCTYPE svg PUBLIC "-//W3C//DTD SVG 1.1//EN" "http://www.w3.org/Graphics/SVG/1.1/DTD/svg11.dtd">
<svg version="1.1" xmlns="http://www.w3.org/2000/svg" xmlns:xlink="http://www.w3.org/1999/xlink" width="512" height="512" viewBox="0 0 512 512">
<path fill="#000000" d="M273.4 300.5l-0.3 58c48.9-8.2 86.3-51 86.3-102.5 0-15.9-3.6-31-10-44.5-2.8-5.8-6-11.3-9.8-16.5l47.1-43.5c1.1 1.3 2.1 2.7 3.1 4 20.9 28 33.2 62.8 33.2 100.5 0 1.2 0 2.5 0 3.7-1.5 71.5-47.6 132-111.4 154.6-12.3 4.3-25.2 7.3-38.5 8.7l-0.1 57-102.4-90 102.8-89.5z"></path>
<path fill="#000000" d="M89 252.3c1.6-72.1 48.3-133 112.9-155.2 11.7-4 24-6.8 36.8-8.1l0.1-57 102.3 90-102.7 89.5 0.2-57.9c-48.8 8.3-86 51.1-86 102.4 0 16 3.6 31.1 10.1 44.7 2.7 5.8 6 11.2 9.7 16.3l-47 43.6c-1.3-1.6-2.6-3.3-3.8-5-20.5-27.9-32.6-62.3-32.6-99.6 0-1.2 0-2.5 0-3.7z"></path>
</svg>
