<?xml version="1.0" encoding="utf-8"?>
<!-- Generated by IcoMoon.io -->
<!DOCTYPE svg PUBLIC "-//W3C//DTD SVG 1.1//EN" "http://www.w3.org/Graphics/SVG/1.1/DTD/svg11.dtd">
<svg version="1.1" xmlns="http://www.w3.org/2000/svg" xmlns:xlink="http://www.w3.org/1999/xlink" width="512" height="512" viewBox="0 0 512 512">
<path d="M256 32c-115 0.5-192 77.6-192 199.8 0 48.8 2.1 76.8 14.5 127.8 15.9 65.7 39.1 113.3 39.1 113.3l0.6 1.3c1.9 3.4 5.5 5.8 9.8 5.8 1.4 0 2.7-0.2 4-0.7l1.7-0.8 50.3-20.7 1.8-0.8c3.3-1.9 5.5-5.3 5.5-9.3-0.2-1.4-0.4-2.8-1-4-0.1-0.1-0.1-0.2-0.2-0.4-7-16-27.2-59.2-37-101.1-9.9-41.9-13.5-62.4-13.5-107.7 0-71.1 52.4-122.5 116.4-122.5s116.4 51.4 116.4 122.5c0 45.3-3.7 65.8-13.6 107.7s-30 85.2-37 101.1c-0.1 0.2-0.1 0.3-0.2 0.4-0.6 1.2-0.8 2.6-1 4 0 4 2.2 7.4 5.5 9.3l1.8 0.8 50.3 20.7 1.7 0.8c1.3 0.5 2.6 0.7 4 0.7 4.3 0 7.9-2.4 9.8-5.8l0.6-1.3c0 0 23.2-47.6 39.1-113.3 12.4-51 14.5-79 14.5-127.8 0.1-122.2-76.9-199.3-191.9-199.8zM173 444.2c0.1 0.2 0.2 0.5 0.3 0.7l-42.8 17.6c-5.4-11.8-22.7-51-35.7-104.4l42.5-12.3c9.2 39.2 27.1 79.2 35.7 98.4zM381.4 462.5l-42.8-17.6c0.1-0.2 0.2-0.4 0.3-0.7 8.6-19.2 26.4-59.2 35.6-98.4l42.5 12.3c-12.9 53.4-30.2 92.6-35.6 104.4z"></path>
</svg>
