<?xml version="1.0" encoding="utf-8"?>
<!-- Generated by IcoMoon.io -->
<!DOCTYPE svg PUBLIC "-//W3C//DTD SVG 1.1//EN" "http://www.w3.org/Graphics/SVG/1.1/DTD/svg11.dtd">
<svg version="1.1" xmlns="http://www.w3.org/2000/svg" xmlns:xlink="http://www.w3.org/1999/xlink" width="512" height="512" viewBox="0 0 512 512">
<path d="M480 192v-160h-160l63 63-68.7 68.7c-29.5-22.4-66.4-35.7-106.3-35.7-97.2 0-176 78.8-176 176s78.8 176 176 176 176-78.8 176-176c0-39.9-13.3-76.8-35.7-106.3l68.7-68.7 63 63zM298.5 394.5c-24.2 24.2-56.3 37.5-90.5 37.5s-66.3-13.3-90.5-37.5c-24.2-24.2-37.5-56.3-37.5-90.5s13.3-66.3 37.5-90.5c24.2-24.2 56.3-37.5 90.5-37.5s66.3 13.3 90.5 37.5 37.5 56.3 37.5 90.5-13.3 66.3-37.5 90.5z"></path>
</svg>
