<?xml version="1.0" encoding="utf-8"?>
<!-- Generated by IcoMoon.io -->
<!DOCTYPE svg PUBLIC "-//W3C//DTD SVG 1.1//EN" "http://www.w3.org/Graphics/SVG/1.1/DTD/svg11.dtd">
<svg version="1.1" xmlns="http://www.w3.org/2000/svg" xmlns:xlink="http://www.w3.org/1999/xlink" width="512" height="512" viewBox="0 0 512 512">
<path fill="#000000" d="M256 106.6c20.6 0.1 37.3-16.6 37.3-37.3 0-20.6-16.7-37.3-37.3-37.3s-37.3 16.7-37.3 37.3c0 20.6 16.7 37.3 37.3 37.3z"></path>
<path fill="#000000" d="M293.4 115h-74.8c-28.2 0-46.6 24.8-46.6 48.4v113.6c0 22 31 22 31 0v-105h6v285.6c0 30.4 42 29.4 43 0v-164.6h8v164.7c1.7 31.2 43 28.2 43-0.1v-285.6h5v105c0 22 32 22 32 0v-113.6c0-23.5-18.5-48.4-46.6-48.4z"></path>
</svg>
