<?xml version="1.0" encoding="utf-8"?>
<!-- Generated by IcoMoon.io -->
<!DOCTYPE svg PUBLIC "-//W3C//DTD SVG 1.1//EN" "http://www.w3.org/Graphics/SVG/1.1/DTD/svg11.dtd">
<svg version="1.1" xmlns="http://www.w3.org/2000/svg" xmlns:xlink="http://www.w3.org/1999/xlink" width="512" height="512" viewBox="0 0 512 512">
<path fill="#000000" d="M384 224c-23.637 0-44.307 12.89-55.391 32h-9.609c-42.464 0-79.99-17.904-111.535-53.214-20.356-22.787-33.493-48.869-37.856-58.218 13.692-11.746 22.391-29.155 22.391-48.568 0-35.29-28.71-64-64-64s-64 28.71-64 64c0 23.637 12.89 44.307 32 55.391v209.219c-19.11 11.083-32 31.753-32 55.39 0 35.29 28.71 64 64 64s64-28.71 64-64c0-23.637-12.89-44.307-32-55.391v-114.917c43.553 48.615 98.468 74.308 159 74.308h9.609c11.084 19.11 31.754 32 55.391 32 35.29 0 64-28.71 64-64s-28.71-64-64-64zM128 64c17.673 0 32 14.327 32 32s-14.327 32-32 32-32-14.327-32-32 14.327-32 32-32zM128 448c-17.673 0-32-14.327-32-32s14.327-32 32-32 32 14.327 32 32-14.327 32-32 32zM384 320c-17.673 0-32-14.327-32-32s14.327-32 32-32 32 14.327 32 32-14.327 32-32 32z"></path>
</svg>
