<?xml version="1.0" encoding="utf-8"?>
<!-- Generated by IcoMoon.io -->
<!DOCTYPE svg PUBLIC "-//W3C//DTD SVG 1.1//EN" "http://www.w3.org/Graphics/SVG/1.1/DTD/svg11.dtd">
<svg version="1.1" xmlns="http://www.w3.org/2000/svg" xmlns:xlink="http://www.w3.org/1999/xlink" width="512" height="512" viewBox="0 0 512 512">
<path fill="#000000" d="M256.4 32c-35.1 0.1-65.8 23.2-76.8 59.3-5.6 18.5-3.5 44.8-1.2 54.5s7.3 19.9 13.2 28.3c2.8 4.2 6.7 7.4 11.2 9.2 0.6 0.3 1.3 0.5 2 0.8 3.3 1.1 6.5 2.2 10.1 3.1 11.8 3 27.1 4.7 41.1 4.8v0c0 0 0.6 0 0.7 0 0.3 0 0.3 0 1.3 0v-0.1c14-0.1 27.3-1.7 39.1-4.8 3.6-0.9 6.9-2 10.2-3.1 0.7-0.2 1.3-0.5 1.9-0.8 4.5-1.8 8.4-5 11.2-9.2 5.9-8.4 10.8-18.6 13.2-28.3 2.3-9.7 4.4-36-1.2-54.5-11-36-40.8-59.1-76-59.2z"></path>
<path fill="#000000" d="M295.3 201.1c-0.4 0-0.7 0-1.1 0.1-0.6 0.1-1.3 0.3-1.9 0.4-2 0.4-4.1 0.8-6.1 1.2-9.2 1.5-18.9 2.3-29 2.4-10.1-0.1-22.3-0.9-31-2.4-2.1-0.4-4.2-0.8-6.2-1.2-0.6-0.1-1.3-0.3-1.9-0.4-0.4-0.1-0.8-0.1-1.1-0.1-6.1 0-11 5.3-11.2 11.9 0.1 0.8 0.2 1.6 0.2 2.4 4.8 67.2 16.8 240.7 18.2 252 0 0 2.8 12.7 32.1 12.6 0 0 0 0 0 0 29.2 0.1 32.1-12.6 32.1-12.6 1.4-11.3 13.4-184.8 18.2-252 0-0.8 0.1-1.6 0.2-2.4-0.5-6.6-5.4-11.9-11.5-11.9zM266 281.7c0 6-4.5 10.9-10 10.9s-10-4.9-10-10.9v-32.7c0-6 4.5-10.9 10-10.9s10 4.9 10 10.9v32.7z"></path>
</svg>
