<?xml version="1.0" encoding="utf-8"?>
<!-- Generated by IcoMoon.io -->
<!DOCTYPE svg PUBLIC "-//W3C//DTD SVG 1.1//EN" "http://www.w3.org/Graphics/SVG/1.1/DTD/svg11.dtd">
<svg version="1.1" xmlns="http://www.w3.org/2000/svg" xmlns:xlink="http://www.w3.org/1999/xlink" width="512" height="512" viewBox="0 0 512 512">
<path fill="#000000" d="M329.2 32h-146.3c-30.4 0-54.9 23.4-54.9 52.4v27.6h152v37h-152v43h152v37h-152v43h152v37h-152v41.8c0 29 24.5 52.2 54.9 52.2h30.1v77h86v-77h30.2c30.3 0 54.8-23.2 54.8-52.2v-41.8h-59v-37h59v-43h-59v-37h59v-43h-59v-37h59v-27.6c0-29-24.5-52.4-54.8-52.4z"></path>
</svg>
