<?xml version="1.0" encoding="utf-8"?>
<!-- Generated by IcoMoon.io -->
<!DOCTYPE svg PUBLIC "-//W3C//DTD SVG 1.1//EN" "http://www.w3.org/Graphics/SVG/1.1/DTD/svg11.dtd">
<svg version="1.1" xmlns="http://www.w3.org/2000/svg" xmlns:xlink="http://www.w3.org/1999/xlink" width="512" height="512" viewBox="0 0 512 512">
<path d="M468.7 64h-425.4c-6 0-11.3 5-11.3 11.1v265.7c0 6.2 5.2 11.1 11.3 11.1h425.4c6 0 11.3-5 11.3-11.1v-265.7c0-6.1-5.2-11.1-11.3-11.1zM448 320h-384v-224h384v224z"></path>
<path d="M302.5 448c28-0.5 41.5-3.9 29-12.5-12.5-8.7-28.5-15.3-29-22.5-0.3-3.7-1.7-45-1.7-45h-89.6c0 0-1.5 41.3-1.7 45-0.5 7.1-16.5 13.8-29 22.5s1 12 29 12.5h93z"></path>
</svg>
