<?xml version="1.0" encoding="utf-8"?>
<!-- Generated by IcoMoon.io -->
<!DOCTYPE svg PUBLIC "-//W3C//DTD SVG 1.1//EN" "http://www.w3.org/Graphics/SVG/1.1/DTD/svg11.dtd">
<svg version="1.1" xmlns="http://www.w3.org/2000/svg" xmlns:xlink="http://www.w3.org/1999/xlink" width="512" height="512" viewBox="0 0 512 512">
<path d="M113.7 304c-27.5 0-49.7-21.4-49.7-48 0-26.5 22.2-48 49.7-48 27.6 0 49.8 21.5 49.8 48 0 26.6-22.2 48-49.8 48z"></path>
<path d="M256 304c-27.5 0-49.8-21.4-49.8-48 0-26.5 22.3-48 49.8-48s49.7 21.5 49.7 48c0 26.6-22.2 48-49.7 48z"></path>
<path d="M398.2 304c-27.5 0-49.8-21.4-49.8-48 0-26.5 22.2-48 49.8-48 27.5 0 49.8 21.5 49.8 48 0 26.6-22.2 48-49.8 48z"></path>
</svg>
