<?xml version="1.0" encoding="utf-8"?>
<!-- Generated by IcoMoon.io -->
<!DOCTYPE svg PUBLIC "-//W3C//DTD SVG 1.1//EN" "http://www.w3.org/Graphics/SVG/1.1/DTD/svg11.dtd">
<svg version="1.1" xmlns="http://www.w3.org/2000/svg" xmlns:xlink="http://www.w3.org/1999/xlink" width="512" height="512" viewBox="0 0 512 512">
<path fill="#000000" d="M256 32c-0.46 0-0.917 0.011-1.376 0.015l5.747 0.057c-1.451-0.043-2.907-0.072-4.371-0.072z"></path>
<path fill="#000000" d="M378.553 193.211c-0.195 0.064-0.414 0.16-0.619 0.269-34.234 13.289-76.337 22.52-121.886 22.475-45.52-0.076-87.626-9.398-121.81-22.772-0.19-0.104-0.429-0.192-0.647-0.265-1.531-0.554-3.146-0.897-4.841-0.917-0.254-0.001-0.5-0.013-0.75 0v176.012c0 61.879 57.308 111.987 128 111.987 21.992 0 42.687-4.803 60.766-13.355 0.095-0.045 0.191-0.087 0.286-0.133 0.026-0.013 0.054-0.026 0.080-0.039 4.87-2.344 9.581-4.963 14.122-7.828 31.965-20.37 52.746-53.374 52.746-90.633v-176.012c-0.191-0.008-0.496 0-0.689 0-1.727 0.014-3.219 0.651-4.758 1.211zM317.132 466.424c-0.026 0.013-0.054 0.026-0.080 0.039-0.095 0.045-0.191 0.088-0.286 0.133 0.095-0.045 0.191-0.088 0.286-0.133 0.026-0.013 0.053-0.026 0.080-0.039 4.87-2.342 9.581-4.961 14.122-7.825-4.496 2.864-9.21 5.484-14.122 7.825z"></path>
<path fill="#000000" d="M331.254 458.599c-4.541 2.864-9.252 5.483-14.122 7.825 4.912-2.341 9.626-4.961 14.122-7.825z"></path>
<path fill="#000000" d="M260.371 32.072l-5.747-0.057c-70.058 0.647-126.624 50.532-126.624 111.985v22.708c2.158 2.024 4.593 3.755 7.251 5.115 0.673 0.337 1.386 0.659 2.059 0.996 0.032 0.027 0.077 0.010 0.109 0.036 22.757 10.35 51.429 15.801 83.415 19.006 0.694 0.078 1.397 0.107 2.148 0.12 11.258 0.016 17.014 0.019 17.018-10.57v-85.411c0-8.836 7.164-16 16-16s16 7.164 16 16v86.328c-0.088 9.672 5.926 9.72 17.2 9.749 0.717-0.016 1.415-0.045 2.081-0.105 0.062-0.003 0.141 0.005 0.244-0.020 31.682-3.119 60.143-8.405 82.808-18.59 1.162-0.545 2.291-1.056 3.407-1.581 2.271-1.232 4.365-2.743 6.26-4.466v-23.315c0-60.575-54.961-109.91-123.629-111.928z"></path>
</svg>
