<?xml version="1.0" encoding="utf-8"?>
<!-- Generated by IcoMoon.io -->
<!DOCTYPE svg PUBLIC "-//W3C//DTD SVG 1.1//EN" "http://www.w3.org/Graphics/SVG/1.1/DTD/svg11.dtd">
<svg version="1.1" xmlns="http://www.w3.org/2000/svg" xmlns:xlink="http://www.w3.org/1999/xlink" width="512" height="512" viewBox="0 0 512 512">
<path d="M426 32.1c-2.2 0-5.1 0.6-5.1 0.6l-217.6 33.2c-13.8 3.7-26.3 17.1-27.3 31.6v286.5h-61v-0.1c-28 0-51.1 20-51.1 48s23.1 48 51.3 48h36.2c15.3 0 28.9-6.9 38.3-17.5 0.1-0.1 0.3-0.1 0.4-0.2 0.6-0.6 1-1.5 1.5-2.1 1.3-1.6 2.4-3.2 3.4-5 9.6-14.1 13-32.8 13-41.1v-232l208-38c0 0 0 136 0 192h-60.5c-28.3 0-51.2 19.9-51.2 48s22.9 48 51.2 48h37.2c18.2 0 34.1-6 43.2-21 0 0 0.1 0 0.2 0 9-12 12-30.2 12-54.9 0-24.8 0-302.8 0-302.8-0.1-11.7-10-21.2-22.1-21.2z"></path>
</svg>
