<?xml version="1.0" encoding="utf-8"?>
<!-- Generated by IcoMoon.io -->
<!DOCTYPE svg PUBLIC "-//W3C//DTD SVG 1.1//EN" "http://www.w3.org/Graphics/SVG/1.1/DTD/svg11.dtd">
<svg version="1.1" xmlns="http://www.w3.org/2000/svg" xmlns:xlink="http://www.w3.org/1999/xlink" width="512" height="512" viewBox="0 0 512 512">
<path d="M304 272c0 26.51-21.49 48-48 48s-48-21.49-48-48c0-26.51 21.49-48 48-48s48 21.49 48 48z"></path>
<path d="M480 272h-160c0 23.9-13.1 44.7-32.6 55.7l78.2 136.3c67.5-38.6 114.4-108.7 114.4-192z"></path>
<path d="M256 208c11.7 0 22.7 3.2 32.1 8.7l80.6-138.3c-33.1-19.3-71.6-30.4-112.7-30.4-41.2 0-79.9 11.2-113.1 30.6l79.8 138.8c9.7-6 21.1-9.4 33.3-9.4z"></path>
<path d="M192 272h-160c0 83.3 46.9 153.4 114.4 192l78.2-136.3c-19.5-11-32.6-31.8-32.6-55.7z"></path>
</svg>
