<?xml version="1.0" encoding="utf-8"?>
<!-- Generated by IcoMoon.io -->
<!DOCTYPE svg PUBLIC "-//W3C//DTD SVG 1.1//EN" "http://www.w3.org/Graphics/SVG/1.1/DTD/svg11.dtd">
<svg version="1.1" xmlns="http://www.w3.org/2000/svg" xmlns:xlink="http://www.w3.org/1999/xlink" width="512" height="512" viewBox="0 0 512 512">
<path d="M369.541 32h-227.182c-60.838 0-110.359 50.574-110.359 112.604v222.79c0 62.032 49.521 112.606 110.359 112.606h227.182c60.938 0 110.459-50.574 110.459-112.605v-222.79c0-62.031-49.521-112.605-110.459-112.605zM175 250.954v0.67c0 10.882-9.090 20.376-19.875 20.376h-23.27c-10.782 0-19.855-9.494-19.855-20.376v-103.463c1-10.768 9.193-20.161 19.855-20.161h23.27c10.886 0 19.875 9.847 19.875 20.831v102.123zM297 395.74v2.68c0 11.439-8.872 17.58-20.1 17.58h-41.798c-11.23 0-20.102-8.141-20.102-19.58v-29.317c0-23.33 18.118-42.287 40.999-42.287 22.883 0 41.001 18.957 41.001 42.287v28.637zM400 250.954v0.67c0 10.882-9.071 20.376-19.855 20.376h-24.27c-10.782 0-19.875-9.494-19.875-20.376v-103.463c1-10.768 9.215-20.161 19.875-20.161h24.27c10.784 0 19.855 9.847 19.855 20.831v102.123z"></path>
</svg>
