<?xml version="1.0" encoding="utf-8"?>
<!-- Generated by IcoMoon.io -->
<!DOCTYPE svg PUBLIC "-//W3C//DTD SVG 1.1//EN" "http://www.w3.org/Graphics/SVG/1.1/DTD/svg11.dtd">
<svg version="1.1" xmlns="http://www.w3.org/2000/svg" xmlns:xlink="http://www.w3.org/1999/xlink" width="512" height="512" viewBox="0 0 512 512">
<path d="M149.515 283.349c-51.921 0-83.939 45.661-83.939 95.085 0 22.691-10.071 39.153-33.575 48.104 17.907 34.678 87.777 41.157 117.515 35.797 35.642-6.426 80.077-24.873 90.654-76.969 12.31-60.627-38.736-102.017-90.655-102.017z"></path>
<path d="M467.638 60.356c-12.955-12.948-29.964-17.292-44.92-5.35l-175.12 154.094c-8.648-2.371-16.525-1.869-22.909 2.346l-58.793 48.954c-1.611 1.611-1.545 4.304 0.066 5.914 0.499 0.501 1.064 0.79 1.697 0.98 0.642 0.034 1.264 0.059 1.899 0.103 0.019-0.002 0.036-0.010 0.054-0.014 47.938 3.432 91.034 36.754 89.3 89.506-0.016 0.505-0.029 1.007-0.054 1.516 0.123 0.848 0.5 1.664 1.149 2.315 1.595 1.593 4.168 1.605 5.781 0.044 0.018-0.018 0.037-0.027 0.055-0.044 0.063-0.063 0.106-0.137 0.164-0.2l50.457-57.342c4.216-6.374 4.72-14.24 2.355-22.875l154.169-175.047c11.951-14.948 7.604-31.948-5.35-44.9z"></path>
<path d="M165.887 260.409l0.009-0.009-0.008 0.007z"></path>
</svg>
