<?xml version="1.0" encoding="utf-8"?>
<!-- Generated by IcoMoon.io -->
<!DOCTYPE svg PUBLIC "-//W3C//DTD SVG 1.1//EN" "http://www.w3.org/Graphics/SVG/1.1/DTD/svg11.dtd">
<svg version="1.1" xmlns="http://www.w3.org/2000/svg" xmlns:xlink="http://www.w3.org/1999/xlink" width="512" height="512" viewBox="0 0 512 512">
<path fill="#000000" d="M429 328v-51h51v-42h-51v-51h-42v51h-51v42h51v51z"></path>
<path fill="#000000" d="M416 448c0 0 0-26.4-2.2-40.2-1.8-10.9-16.9-25.3-81.1-48.9-63.2-23.2-59.3-11.9-59.3-54.6 0-27.7 14.1-11.6 23.1-64.2 3.5-20.7 6.3-6.9 13.9-40.1 4-17.4-2.7-18.7-1.9-27s1.6-15.7 3.1-32.7c1.8-21-17.7-76.3-87.6-76.3s-89.4 55.3-87.5 76.4c1.5 16.9 2.3 24.4 3.1 32.7s-5.9 9.6-1.9 27c7.6 33.1 10.4 19.3 13.9 40.1 9 52.6 23.1 36.5 23.1 64.2 0 42.8 3.9 31.5-59.3 54.6-64.2 23.5-79.4 38-81.1 48.9-2.3 13.7-2.3 40.1-2.3 40.1h384z"></path>
</svg>
