<?xml version="1.0" encoding="utf-8"?>
<!-- Generated by IcoMoon.io -->
<!DOCTYPE svg PUBLIC "-//W3C//DTD SVG 1.1//EN" "http://www.w3.org/Graphics/SVG/1.1/DTD/svg11.dtd">
<svg version="1.1" xmlns="http://www.w3.org/2000/svg" xmlns:xlink="http://www.w3.org/1999/xlink" width="512" height="512" viewBox="0 0 512 512">
<path d="M256 32c-123.7 0-224 100.3-224 224s100.3 224 224 224c123.7 0 224-100.3 224-224s-100.3-224-224-224zM391.8 391.8c-32.5 32.5-74.6 51.9-119.8 55.6l-8-63.4h-16l-7.9 63.3c-45.3-3.7-87.4-23.1-119.8-55.6-32.5-32.5-51.9-74.6-55.6-119.8l63.3-7.9v-16l-63.3-7.9c3.7-45.3 23.1-87.4 55.6-119.8 32.5-32.5 74.6-51.9 119.8-55.6l7.9 63.3h16l7.9-63.3c45.3 3.7 87.4 23.1 119.8 55.6 32.5 32.5 51.9 74.6 55.6 119.8l-63.3 7.9v16l63.3 7.9c-3.7 45.3-23.1 87.4-55.5 119.9z"></path>
</svg>
