<?xml version="1.0" encoding="utf-8"?>
<!-- Generated by IcoMoon.io -->
<!DOCTYPE svg PUBLIC "-//W3C//DTD SVG 1.1//EN" "http://www.w3.org/Graphics/SVG/1.1/DTD/svg11.dtd">
<svg version="1.1" xmlns="http://www.w3.org/2000/svg" xmlns:xlink="http://www.w3.org/1999/xlink" width="512" height="512" viewBox="0 0 512 512">
<path d="M394.619 130.445c-42.658-18.924-89.266-28.472-138.649-28.425-49.373-0.047-99.27 10.262-138.641 27.979-7.396 3.312-14.004 8.957-9.296 19.479s147.908 330.522 147.908 330.522l147.621-329.874c2.89-6.876 0.756-15.378-8.943-19.681zM191.983 192.015c-17.67 0-31.995-14.323-31.995-31.993s14.325-31.992 31.995-31.992c17.671 0 31.996 14.323 31.996 31.992s-14.325 31.993-31.996 31.993zM255.975 338.981c-17.671 0-31.995-14.323-31.995-31.993s14.324-31.992 31.995-31.992c17.67 0 31.995 14.322 31.995 31.992s-14.325 31.993-31.995 31.993zM319.965 224.007c-17.67 0-31.995-14.322-31.995-31.992s14.325-31.993 31.995-31.993c17.671 0 31.996 14.323 31.996 31.993s-14.325 31.992-31.996 31.992z"></path>
<path d="M421.79 66c-47.808-20.603-106.867-33.977-165.811-34-58.931 0-116.944 12.136-165.82 33.446-4.329 1.888-10.159 5.57-10.159 13.781 0 2.523 0.907 4.922 0.907 4.922l7.98 19.194c2.531 4.865 7.944 8.18 13.798 8.18 1.645 0 3.936-0.331 6.65-1.476 44.9-18.929 94.471-29.588 146.644-29.564 52.175-0.023 105.63 11.64 146.634 29.561 3.296 1.44 5.173 1.472 6.663 1.472 6.009 0 11.158-3.274 13.727-8.053l8.040-19.342c0.577-1.558 0.957-3.287 0.957-4.768 0-7.353-4.386-10.843-10.21-13.353z"></path>
</svg>
