<?xml version="1.0" encoding="utf-8"?>
<!-- Generated by IcoMoon.io -->
<!DOCTYPE svg PUBLIC "-//W3C//DTD SVG 1.1//EN" "http://www.w3.org/Graphics/SVG/1.1/DTD/svg11.dtd">
<svg version="1.1" xmlns="http://www.w3.org/2000/svg" xmlns:xlink="http://www.w3.org/1999/xlink" width="512" height="512" viewBox="0 0 512 512">
<path fill="#000000" d="M281.7 311.9c0.4-6.9 8.3-4.5 8.3-4.5l62 12.6 128 48.7c0-24-3.8-26.5-9.4-30.7l-182.6-131c0 0-4.9-60-4.9-112.9 0-24.5-11.8-78.1-27.1-78.1s-27.1 54.4-27.1 78.1c0 50.2-4.9 112.9-4.9 112.9l-182.6 131c-7.1 5-9.4 7.7-9.4 30.7l128-48.7 61.9-12.6c0 0 7.9-2.4 8.3 4.5s-1.2 69.1 5.9 102.1c0.9 4.4-2.5 4.7-4.8 7.4l-51.9 32.8c-1.7 1.9-2.5 7.3-2.5 7.3l-1 18.5 68-16 12 32 12-32 68 16-1-18.5c0.1 0-0.7-5.4-2.4-7.3l-51.9-32.8c-2.3-2.7-5.7-3-4.8-7.4 6.9-33 5.5-95.2 5.9-102.1z"></path>
</svg>
