<?xml version="1.0" encoding="utf-8"?>
<!-- Generated by IcoMoon.io -->
<!DOCTYPE svg PUBLIC "-//W3C//DTD SVG 1.1//EN" "http://www.w3.org/Graphics/SVG/1.1/DTD/svg11.dtd">
<svg version="1.1" xmlns="http://www.w3.org/2000/svg" xmlns:xlink="http://www.w3.org/1999/xlink" width="512" height="512" viewBox="0 0 512 512">
<path d="M472 239.2v0c0 0-0.1 0 0 0l-189.9-191.1c0 0 0 0 0 0l-1.4-1.4c0 0-0.5 0-0.5 0-7.5-7.2-16.1-10.9-27.1-11.1v0l-93.8-3.4c-10.1 0.1-20 4.1-27.7 11.8l-27.1 27.2c7.4-6.6 16.6-10 26-10.1l3.8 0.1 89.8 3.3c11 0.2 19.7 3.9 27.2 11.1 0 0 0.4 0 0.5 0l1.4 1.4c0 0 0 0 0 0l189.8 191.1c0 0 0 0 0 0v0c10 10.8 10.7 28.2 0 38.9l29-28.9c10.6-10.7 10-28.1 0-38.9z"></path>
<path d="M428 282.5c0 0 0.3 0 0.3 0l-189.7-191.1c0 0 0 0 0 0l-1.3-1.4c0 0-0.3 0-0.3 0-7.5-7.2-15.9-10.9-26.9-11.1v0l-94.1-3.4c-9.2 0.1-18.2 3.4-25.6 9.8-0.3 0.3-0.7 0.6-1 0.9-0.4 0.4-0.8 0.8-1.2 1.2l-44.3 44.5c-8.1 8.1-11.9 18.9-11.9 29.5 0 0 0 0 0 0.1l0.1 3.8 5.9 87.9c0 0.1 0 0.1 0 0.2v1.7c0 0 0 0 0 0 1 7.9 4.2 15.6 9.6 22l5.1 4.9 189.1 191.2c10.7 9.4 27.1 9 37.3-1.3l13.1-13.2c0.5-0.4 0.9-0.8 1.4-1.3l26.9-27c-0.2 0.1-0.3 0.2-0.5 0.4l108.3-109.3c10.6-10.7 10.7-28.2-0.3-39v0zM110.6 139.5c6.6-4 14.3-6.3 22.6-6.3 23.9 0 43.4 19.4 43.4 43.4 0 8.3-2.3 16-6.3 22.6-7.6 12.5-21.3 20.8-37 20.8-23.9 0-43.4-19.4-43.4-43.4-0.1-15.8 8.2-29.5 20.7-37.1z"></path>
</svg>
