<?xml version="1.0" encoding="utf-8"?>
<!-- Generated by IcoMoon.io -->
<!DOCTYPE svg PUBLIC "-//W3C//DTD SVG 1.1//EN" "http://www.w3.org/Graphics/SVG/1.1/DTD/svg11.dtd">
<svg version="1.1" xmlns="http://www.w3.org/2000/svg" xmlns:xlink="http://www.w3.org/1999/xlink" width="512" height="512" viewBox="0 0 512 512">
<path d="M471 261.4v0c0 0 0 0 0 0l-210.1-211.6c0 0 0 0 0 0l-1.5-1.5c0 0-0.4 0-0.4 0-8.3-7.9-17.9-12-29.9-12.3v0l-104.1-3.9c-11.2 0.2-22.2 4.5-30.7 13.1l-49.2 49.1c-9 9-13.1 20.9-13.1 32.7 0 0 0 0 0 0.1l0.3 4.2 6.7 97.3c0 0.1 0 0.2 0 0.2v1.9c0 0 0 0 0 0 1 8.7 4.5 17.3 10.4 24.4l5.5 5.4 209.4 211.9c11.9 10.5 30 10 41.3-1.4l165.4-166.6c11.8-11.8 12-31.1 0-43zM144 192c-26.5 0-48-21.5-48-48s21.5-48 48-48 48 21.5 48 48-21.5 48-48 48z"></path>
</svg>
