<?xml version="1.0" encoding="utf-8"?>
<!-- Generated by IcoMoon.io -->
<!DOCTYPE svg PUBLIC "-//W3C//DTD SVG 1.1//EN" "http://www.w3.org/Graphics/SVG/1.1/DTD/svg11.dtd">
<svg version="1.1" xmlns="http://www.w3.org/2000/svg" xmlns:xlink="http://www.w3.org/1999/xlink" width="512" height="512" viewBox="0 0 512 512">
<path fill="#000000" d="M423.8 128h-39.8v-64h-256v64h-39.8c-27.9 0-56.2 16.9-56.2 54.6v123.8c0 38 28.3 61.6 56.2 61.6 0 0 30.4 0 39.8 0v112h256v-112c10.3 0 39.8 0 39.8 0 27.9 0 56.2-22.6 56.2-53.6v-131.8c0-35.7-28.2-54.6-56.2-54.6zM368 464h-224v-176h224v176zM368 128h-224v-48h224v48zM416 192h-17v-16h17v16z"></path>
<path fill="#000000" d="M160 320h192v16h-192v-16z"></path>
<path fill="#000000" d="M160 368h192v16h-192v-16z"></path>
<path fill="#000000" d="M160 416h192v16h-192v-16z"></path>
</svg>
