<?xml version="1.0" encoding="utf-8"?>
<!-- Generated by IcoMoon.io -->
<!DOCTYPE svg PUBLIC "-//W3C//DTD SVG 1.1//EN" "http://www.w3.org/Graphics/SVG/1.1/DTD/svg11.dtd">
<svg version="1.1" xmlns="http://www.w3.org/2000/svg" xmlns:xlink="http://www.w3.org/1999/xlink" width="512" height="512" viewBox="0 0 512 512">
<path d="M320 256c0 35.346-28.654 64-64 64s-64-28.654-64-64c0-35.346 28.654-64 64-64s64 28.654 64 64z"></path>
<path d="M144 256c0-36.9 18.553-69.208 46.314-87.034l-23.141-24.512c-6.26 4.608-12.18 9.833-17.684 15.663-24.175 25.612-37.489 59.664-37.489 95.883s13.314 70.271 37.49 95.883c5.504 5.829 11.424 11.055 17.684 15.662l23.141-24.511c-27.762-17.826-46.315-50.134-46.315-87.034z"></path>
<path d="M368 256c0 36.9-18.553 69.208-46.314 87.034l23.141 24.511c6.26-4.607 12.18-9.833 17.684-15.662 24.175-25.612 37.489-59.664 37.489-95.883s-13.314-70.271-37.49-95.882c-5.504-5.83-11.424-11.055-17.684-15.663l-23.141 24.512c27.762 17.825 46.315 50.133 46.315 87.033z"></path>
<path d="M64 256c0-55.578 25.251-104.907 64.263-135.817l-22.83-24.183c-5.999 5-11.739 10.396-17.197 16.178-17.622 18.669-31.462 40.417-41.134 64.641-10.021 25.098-15.102 51.737-15.102 79.181s5.081 54.084 15.102 79.181c9.672 24.226 23.512 45.973 41.134 64.642 5.458 5.781 11.198 11.177 17.197 16.178l22.829-24.183c-39.011-30.911-64.262-80.24-64.262-135.818z"></path>
<path d="M448 256c0 55.578-25.251 104.907-64.262 135.817l22.828 23.848c6-5.001 11.74-10.062 17.198-15.843 17.622-18.669 31.462-40.416 41.134-64.642 10.020-25.096 15.102-51.737 15.102-79.18 0-27.444-5.082-54.083-15.102-79.181-9.672-24.225-23.512-45.972-41.134-64.641-5.457-5.782-11.198-11.178-17.198-16.178l-22.829 24.183c39.012 30.91 64.263 80.239 64.263 135.817z"></path>
</svg>
