<?xml version="1.0" encoding="utf-8"?>
<!-- Generated by IcoMoon.io -->
<!DOCTYPE svg PUBLIC "-//W3C//DTD SVG 1.1//EN" "http://www.w3.org/Graphics/SVG/1.1/DTD/svg11.dtd">
<svg version="1.1" xmlns="http://www.w3.org/2000/svg" xmlns:xlink="http://www.w3.org/1999/xlink" width="512" height="512" viewBox="0 0 512 512">
<path d="M416 352l96-111.9h-64.7c-2.3-27.9-10.5-54-23.5-77.3-27.4-49.2-75.8-85.1-133-95.6-0.7-0.1-1.5-0.3-2.2-0.4-0.5-0.1-0.9-0.2-1.4-0.2-10.1-1.7-20.6-2.6-31.2-2.6-0.1 0-0.3 0-0.4 0 0 0 0 0 0 0-90.9 0.2-167 63.6-186.7 148.6 0 0 0 0.1 0 0.1-0.3 1.1-0.5 2.2-0.7 3.3-0.1 0.5-0.2 0.9-0.3 1.4-0.1 0.7-0.3 1.4-0.4 2.1-0.2 0.9-0.3 1.7-0.5 2.6-0.1 0.4-0.1 0.7-0.2 1.1-0.2 1.2-0.4 2.4-0.6 3.6 0 0.1 0 0.1 0 0.2-1 6.3-1.6 12.7-1.9 19.1 0 0.3 0 0.6 0 0.8-0.1 1.4-0.1 2.7-0.2 4.1 0 1.6-0.1 3.3-0.1 5s0 3.3 0.1 5c0 1.4 0.1 2.7 0.2 4.1 0 0.3 0 0.6 0 0.9 0.3 6.5 1 12.9 1.9 19.1 0 0.1 0 0.1 0 0.2 0.2 1.2 0.4 2.4 0.6 3.6 0.1 0.4 0.1 0.7 0.2 1.1 0.2 0.9 0.3 1.8 0.5 2.6 0.1 0.7 0.3 1.4 0.4 2.1 0.1 0.5 0.2 1 0.3 1.4 0.2 1.1 0.5 2.2 0.7 3.2 0 0 0 0.1 0 0.1 19.7 85 96.1 148.4 187.1 148.6 42.9-0.1 83.1-14.2 116.9-40.7l7.5-5.9-43.2-46.2-6.2 4.6c-22.1 16.3-47.5 24.2-75 24.2-70.6 0-128-57-128-128s57.4-128 128-128c66.4 0 122.8 46.6 129.5 112h-73.5l104 112z"></path>
</svg>
