<?xml version="1.0" encoding="utf-8"?>
<!-- Generated by IcoMoon.io -->
<!DOCTYPE svg PUBLIC "-//W3C//DTD SVG 1.1//EN" "http://www.w3.org/Graphics/SVG/1.1/DTD/svg11.dtd">
<svg version="1.1" xmlns="http://www.w3.org/2000/svg" xmlns:xlink="http://www.w3.org/1999/xlink" width="512" height="512" viewBox="0 0 512 512">
<path d="M352 32l-82.9 176.612c39.996 3.608 75.273 23.554 99.096 53.128l63.804-133.74-80-96z"></path>
<path d="M160 32l82.9 176.612c-39.996 3.608-75.273 23.554-99.096 53.128l-63.804-133.74 80-96z"></path>
<path d="M269.092 32h-93.092l52.572 112h54.856l52.572-112z"></path>
<path d="M256 224c-70.692 0-128 57.308-128 128s57.308 128 128 128 128-57.308 128-128-57.308-128-128-128zM256 448c-53.020 0-96-42.98-96-96s42.98-96 96-96 96 42.98 96 96-42.98 96-96 96z"></path>
<path d="M256 264c-48.523 0-88 39.477-88 88s39.477 88 88 88 88-39.477 88-88-39.477-88-88-88z"></path>
</svg>
