<?xml version="1.0" encoding="utf-8"?>
<!-- Generated by IcoMoon.io -->
<!DOCTYPE svg PUBLIC "-//W3C//DTD SVG 1.1//EN" "http://www.w3.org/Graphics/SVG/1.1/DTD/svg11.dtd">
<svg version="1.1" xmlns="http://www.w3.org/2000/svg" xmlns:xlink="http://www.w3.org/1999/xlink" width="512" height="512" viewBox="0 0 512 512">
<path d="M256 72c-48.523 0-88 39.477-88 88s39.477 88 88 88 88-39.477 88-88-39.477-88-88-88z"></path>
<path d="M256 32c-70.692 0-128 57.308-128 128s57.308 128 128 128 128-57.308 128-128-57.308-128-128-128zM256 256c-53.020 0-96-42.98-96-96s42.98-96 96-96 96 42.98 96 96-42.98 96-96 96z"></path>
<path d="M147.092 254.21l-83.092 145.79h96l48 80 81.641-179.961c-10.793 2.584-22.056 3.961-33.641 3.961-43.505 0-82.503-19.293-108.908-49.79z"></path>
<path d="M364.908 254.211c-15.077 17.412-34.26 31.172-56.043 39.774l-44.752 98.092 39.887 87.923 48-80h96l-83.092-145.789z"></path>
</svg>
