<?xml version="1.0" encoding="utf-8"?>
<!-- Generated by IcoMoon.io -->
<!DOCTYPE svg PUBLIC "-//W3C//DTD SVG 1.1//EN" "http://www.w3.org/Graphics/SVG/1.1/DTD/svg11.dtd">
<svg version="1.1" xmlns="http://www.w3.org/2000/svg" xmlns:xlink="http://www.w3.org/1999/xlink" width="512" height="512" viewBox="0 0 512 512">
<path d="M256 32c-123.712 0-224 100.288-224 224s100.288 224 224 224 224-100.288 224-224-100.288-224-224-224zM145.062 291.696c-1.551 4.952-5.62 8.724-10.693 10.606-3.358 1.246-6.816 1.774-10.236 0.938-8.866-2.185-13.916-10.907-11.255-19.443 5.101-16.379 14.22-29.995 33.802-37.263s35.265-2.877 49.868 6.15c7.615 4.707 10.029 14.019 4.214 22.123-2.049 2.854-5.019 4.717-8.376 5.963-5.059 1.876-10.584 1.678-14.965-1.036-4.778-2.957-10.643-6.526-19.607-3.199-9.009 3.343-11.102 9.839-12.752 15.161zM345.156 381.454c-2.789 1.946-5.982 2.881-9.144 2.881-5.053 0-10.023-2.388-13.134-6.845-0.175-0.251-18.878-25.49-66.878-25.49-47.98 0-66.704 25.239-66.879 25.49-3.111 4.457-8.083 6.845-13.135 6.845-3.161 0-6.354-0.935-9.143-2.881-7.246-5.058-9.021-15.031-3.963-22.278 1.106-1.586 27.859-39.176 93.12-39.176 65 0 92.013 37.59 93.119 39.176 5.058 7.247 3.283 17.22-3.963 22.278zM388.029 303.24c-3.42 0.837-6.879 0.309-10.236-0.938-5.073-1.883-9.143-5.654-10.693-10.606-1.649-5.322-3.742-11.818-12.752-15.161-8.964-3.327-14.829 0.242-19.607 3.199-4.381 2.714-9.906 2.912-14.965 1.036-3.357-1.246-6.327-3.108-8.376-5.963-5.815-8.104-3.401-17.416 4.214-22.123 14.604-9.027 30.286-13.418 49.868-6.15s28.702 20.884 33.802 37.263c2.66 8.536-2.389 17.259-11.255 19.443z"></path>
</svg>
