<?xml version="1.0" encoding="utf-8"?>
<!-- Generated by IcoMoon.io -->
<!DOCTYPE svg PUBLIC "-//W3C//DTD SVG 1.1//EN" "http://www.w3.org/Graphics/SVG/1.1/DTD/svg11.dtd">
<svg version="1.1" xmlns="http://www.w3.org/2000/svg" xmlns:xlink="http://www.w3.org/1999/xlink" width="512" height="512" viewBox="0 0 512 512">
<path fill="#000000" d="M405.178 115.667c13.314-32.667 17.309-64-5.326-83.667l-144.126 192-16.976 23c0 0-27.627 40.011-37.28 58.667s-19.306 39.333-27.294 54c-7.010 12.871-10.438 15.221-14.322 11.548-0.506-0.591-1.026-1.168-1.553-1.736-0.037-0.047-0.073-0.090-0.11-0.138-1.143-1.472-2.75-3.002-4.635-4.467-9.361-8.079-21.008-12.874-33.636-12.874-30.883 0-55.92 28.653-55.92 64s25.037 64 55.92 64c25.282 0 46.635-19.205 53.553-45.561l-0.004 0.043c0 0 13.355-41.482 32.661-71.482s49.596-43 49.596-43l31.954-32c0 0 104.183-139.666 117.498-172.333zM119.92 448c-15.418 0-27.918-14.353-27.918-32s12.5-32 27.918-32c15.419 0 27.918 14.353 27.918 32s-12.499 32-27.918 32zM256 288c-8.836 0-16-7.163-16-16s7.164-16 16-16c8.837 0 16 7.164 16 16s-7.163 16-16 16z"></path>
<path fill="#000000" d="M207.28 265.255c9.18-14.114 17.671-26.43 18.304-27.346l0.143-0.208 0.15-0.203 17.053-23.104 2.941-3.918-133.975-178.476c-22.634 19.667-18.64 51-5.326 83.667 9.953 24.42 70.679 108.623 100.71 149.588z"></path>
<path fill="#000000" d="M391.828 352c-12.628 0-24.275 4.795-33.637 12.874-1.885 1.465-3.492 2.995-4.635 4.467-0.037 0.048-0.072 0.091-0.109 0.138-0.526 0.568-1.047 1.146-1.553 1.736-3.884 3.673-7.312 1.323-14.322-11.548-7.988-14.667-17.641-35.344-27.294-54-1.77-3.421-4.146-7.561-6.843-12.038-1.272 1.712-2.264 3.043-2.932 3.938l-0.688 0.924-0.813 0.815-28.688 28.729c10.433 6.855 24.565 18.276 35.306 34.965 19.305 30 32.66 71.482 32.66 71.482l-0.004-0.043c6.917 26.356 28.27 45.561 53.552 45.561 30.883 0 56.172-28.653 56.172-64s-25.289-64-56.172-64zM391.828 448c-15.42 0-27.918-14.353-27.918-32s12.498-32 27.918-32c15.418 0 27.918 14.353 27.918 32s-12.5 32-27.918 32z"></path>
</svg>
