<?xml version="1.0" encoding="utf-8"?>
<!-- Generated by IcoMoon.io -->
<!DOCTYPE svg PUBLIC "-//W3C//DTD SVG 1.1//EN" "http://www.w3.org/Graphics/SVG/1.1/DTD/svg11.dtd">
<svg version="1.1" xmlns="http://www.w3.org/2000/svg" xmlns:xlink="http://www.w3.org/1999/xlink" width="512" height="512" viewBox="0 0 512 512">
<path d="M445 386.7l-84.8-85.9c13.8-24.1 21-50.9 21-77.9 0-87.6-71.2-158.9-158.6-158.9s-158.6 71.3-158.6 158.9c0 87.6 71.2 158.9 158.6 158.9 27.9 0 55.5-7.7 80.1-22.4l84.4 85.6c1.9 1.9 4.6 3.1 7.3 3.1s5.4-1.1 7.3-3.1l43.3-43.8c4-4.1 4-10.5 0-14.5zM222.6 125.9c53.4 0 96.8 43.5 96.8 97s-43.4 97-96.8 97c-53.4 0-96.8-43.5-96.8-97s43.4-97 96.8-97z"></path>
</svg>
