<?xml version="1.0" encoding="utf-8"?>
<!-- Generated by IcoMoon.io -->
<!DOCTYPE svg PUBLIC "-//W3C//DTD SVG 1.1//EN" "http://www.w3.org/Graphics/SVG/1.1/DTD/svg11.dtd">
<svg version="1.1" xmlns="http://www.w3.org/2000/svg" xmlns:xlink="http://www.w3.org/1999/xlink" width="512" height="512" viewBox="0 0 512 512">
<path d="M370.1 181.3h28.9v47.3l81-83.2-81-81.4v54h-28.9c-82.7 0-129.4 61.9-170.6 116.5-37 49.1-69 95.4-120.6 95.4h-46.9v63.3h46.9c82.7 0 129.4-65.8 170.6-120.4 37-49.1 68.9-91.5 120.6-91.5zM153.2 217.5c3.5-4.6 7.1-9.3 10.7-14.1 8.8-11.6 18-23.9 28-36.1-29.6-27.9-65.3-48.5-113-48.5h-46.9v63.3c0 0 13.3-0.6 46.9 0 32.5 0.7 52.9 14.1 74.3 35.4zM399 330.4h-28.9c-31.5 0-55.7-15.8-78.2-39.3-2.2 3-4.5 6-6.8 9-9.9 13.1-20.5 27.2-32.2 41.1 30.4 29.9 67.2 52.5 117.2 52.5h28.9v54.3l81-81.4-81-83.2v47z"></path>
</svg>
