<?xml version="1.0" encoding="utf-8"?>
<!-- Generated by IcoMoon.io -->
<!DOCTYPE svg PUBLIC "-//W3C//DTD SVG 1.1//EN" "http://www.w3.org/Graphics/SVG/1.1/DTD/svg11.dtd">
<svg version="1.1" xmlns="http://www.w3.org/2000/svg" xmlns:xlink="http://www.w3.org/1999/xlink" width="512" height="512" viewBox="0 0 512 512">
<path fill="#000000" d="M436.3 96h-8.1c-6.7 0-12.2 5-12.2 11.7v113.5l-187.1-122.5c-2.5-1.7-5.1-2.3-8.1-2.3-8.3 0-15.4 7-15.4 17v63.1l-118.5-78.2c-2.5-1.7-5.1-2.3-8.1-2.3-8.3 0-14.9 7.4-14.9 17.4v286c0 10 6.7 16.5 15 16.5 3.1 0 5.4-1.2 8.2-2.9l118.3-77.6v64c0 10 7.2 16.5 15.5 16.5 3.1 0 5.5-1.2 8.2-2.9l186.9-122.2v113c0 6.7 5.4 12.2 12.2 12.2h8.1c6.7 0 11.7-5.5 11.7-12.2v-296.1c0-6.7-4.9-11.7-11.7-11.7z"></path>
</svg>
