<?xml version="1.0" encoding="utf-8"?>
<!-- Generated by IcoMoon.io -->
<!DOCTYPE svg PUBLIC "-//W3C//DTD SVG 1.1//EN" "http://www.w3.org/Graphics/SVG/1.1/DTD/svg11.dtd">
<svg version="1.1" xmlns="http://www.w3.org/2000/svg" xmlns:xlink="http://www.w3.org/1999/xlink" width="512" height="512" viewBox="0 0 512 512">
<path d="M387.547 203.724c-41.135-27.326-82.225-54.721-123.261-82.195-5.844-3.912-11.12-3.802-16.938 0.095-40.785 27.313-81.818 54.546-122.724 81.676-5.103 3.384-7.624 7.575-7.624 13.716v79.729c0 6.174 2.484 10.342 7.594 13.73 40.906 27.13 81.841 54.361 122.625 81.676 5.81 3.891 11.131 4.055 16.984 0.137 41.035-27.474 82.145-54.873 123.286-82.188 4.858-3.226 7.511-7.309 7.511-13.094v-80.623c0-5.716-2.775-9.553-7.453-12.659zM268 152.484l93.055 62.218-39.751 26.467c-0.919 0.603-2.923 0.604-3.839 0-15.944-10.501-31.816-21.113-47.627-31.815-1.033-0.699-1.828-2.319-1.838-3.52v-53.35zM244 152.765v51.706c-0.024 1.825-1.313 4.316-2.799 5.334-15.258 10.451-30.655 20.701-46.109 30.86-1.17 0.77-3.547 1.148-4.566 0.485-13.116-8.531-26.087-17.284-39.787-26.443 31.228-20.818 93.261-61.942 93.261-61.942zM141 237.116l29.622 19.771-29.622 19.838v-39.609zM244 361.317c0 0-62.034-41.412-93.196-62.187l38.871-26.154c2.072-1.442 3.473-1.344 5.502 0.029 15.32 10.36 30.74 20.572 46.062 30.93 1.208 0.815 2.749 2.371 2.761 3.596v53.786zM258.949 282.892c-1.824 1.108-4.512 1.046-6.26-0.111l-38.842-25.865c0 0 17.108-11.493 25.356-17.023 4.701-3.152 9.346-6.393 14.164-9.355 1.132-0.696 3.532-0.97 4.743-0.168 5.773 3.829 39.854 26.53 39.854 26.53l-39.015 25.992zM268 361.102v-51.346c-0.026-2.871 0.449-4.602 2.861-6.189 15.198-10.006 30.332-20.11 45.386-30.332 2.335-1.586 3.92-1.623 6.265-0.019l38.527 25.882-93.039 62.004zM370 276.676l-29.59-19.743 29.59-19.873v39.616z"></path>
<path d="M256 64c51.285 0 99.5 19.972 135.765 56.235 36.263 36.265 56.235 84.48 56.235 135.765s-19.972 99.5-56.235 135.765c-36.265 36.263-84.48 56.235-135.765 56.235s-99.5-19.972-135.765-56.235c-36.263-36.265-56.235-84.48-56.235-135.765s19.972-99.5 56.235-135.765c36.265-36.263 84.48-56.235 135.765-56.235zM256 32c-123.712 0-224 100.288-224 224s100.288 224 224 224 224-100.288 224-224-100.288-224-224-224v0z"></path>
</svg>
