<?xml version="1.0" encoding="utf-8"?>
<!-- Generated by IcoMoon.io -->
<!DOCTYPE svg PUBLIC "-//W3C//DTD SVG 1.1//EN" "http://www.w3.org/Graphics/SVG/1.1/DTD/svg11.dtd">
<svg version="1.1" xmlns="http://www.w3.org/2000/svg" xmlns:xlink="http://www.w3.org/1999/xlink" width="512" height="512" viewBox="0 0 512 512">
<path d="M241.239 303.936c-15.322-10.357-30.742-20.569-46.062-30.93-2.030-1.373-3.43-1.472-5.502-0.029l-38.871 26.154c31.162 20.774 93.196 62.186 93.196 62.186v-53.786c-0.012-1.224-1.553-2.78-2.761-3.595z"></path>
<path d="M195.092 240.666c15.454-10.16 30.851-20.409 46.109-30.86 1.486-1.018 2.775-3.509 2.799-5.334v-51.706c0 0-62.033 41.124-93.262 61.942 13.7 9.159 26.671 17.913 39.787 26.443 1.020 0.662 3.396 0.284 4.567-0.485z"></path>
<path d="M269.838 209.354c15.811 10.703 31.683 21.314 47.627 31.815 0.916 0.604 2.92 0.602 3.839 0l39.751-26.467-93.055-62.218v53.35c0.010 1.201 0.805 2.821 1.838 3.52z"></path>
<path d="M258.109 230.369c-1.21-0.802-3.611-0.528-4.743 0.168-4.817 2.962-9.463 6.203-14.164 9.355-8.248 5.53-25.356 17.023-25.356 17.023l38.842 25.865c1.748 1.157 4.436 1.22 6.26 0.111l39.014-25.993c0.001 0-34.079-22.701-39.853-26.529z"></path>
<path d="M141 237.116v39.609l29.622-19.838z"></path>
<path d="M256 32c-123.712 0-224 100.288-224 224s100.288 224 224 224 224-100.288 224-224-100.288-224-224-224zM395 297.006c0 5.785-2.652 9.868-7.511 13.094-41.142 27.314-82.251 54.714-123.286 82.188-5.854 3.918-11.174 3.754-16.984-0.137-40.783-27.314-81.719-54.546-122.625-81.676-5.11-3.389-7.594-7.557-7.594-13.73v-79.729c0-6.141 2.521-10.332 7.624-13.716 40.906-27.13 81.939-54.363 122.724-81.676 5.818-3.896 11.094-4.007 16.938-0.095 41.036 27.474 82.126 54.869 123.261 82.195 4.678 3.106 7.453 6.943 7.453 12.66v80.622z"></path>
<path d="M316.247 273.234c-15.054 10.222-30.188 20.326-45.386 30.332-2.412 1.588-2.888 3.318-2.861 6.189v51.346l93.039-62.004-38.527-25.882c-2.345-1.604-3.93-1.567-6.265 0.019z"></path>
<path d="M370 276.676v-39.616l-29.59 19.873z"></path>
</svg>
