<?xml version="1.0" encoding="utf-8"?>
<!-- Generated by IcoMoon.io -->
<!DOCTYPE svg PUBLIC "-//W3C//DTD SVG 1.1//EN" "http://www.w3.org/Graphics/SVG/1.1/DTD/svg11.dtd">
<svg version="1.1" xmlns="http://www.w3.org/2000/svg" xmlns:xlink="http://www.w3.org/1999/xlink" width="512" height="512" viewBox="0 0 512 512">
<path fill="#000000" d="M310.143 64c31.337 0 59.096 2.607 88.137 8.364l-5.060 34.148c-29.405-4.319-55.659-6.429-79.853-6.429-35.025 0-58.535 6.153-74.129 19.365-19.096 16.179-21.238 38.98-21.238 54.722v18.83h136.051l-2.383 16h-133.668v80h121.752l-2.384 16h-119.368v27.83c0 19.546 2.338 44.061 21.084 60.274 15.042 13.010 37.921 18.812 74.258 18.812 24.534 0 50.197-2.055 79.771-6.42l5.014 34.138c-29.031 5.759-56.741 8.366-87.977 8.366-52.591 0-91.43-9.080-115.565-26.987-21.97-16.302-32.585-40.652-32.585-74.443v-41.57h-50v-16h50v-80h-50v-16h50v-27.57c0-33.791 10.613-58.142 32.582-74.442 24.133-17.908 62.97-26.988 115.561-26.988zM310.209 48c-114.73 0-164.209 41.225-164.209 117.43v11.57h-50v48h50v48h-50v48h50v25.57c0 76.204 49.481 117.43 164.211 117.43 35.25 0 67.777-3.123 105.789-11.866l-9.411-64.96c-37.323 6.244-66.942 8.742-93.206 8.742-64.275 0-79.383-18.739-79.383-63.086v-11.83h117.162l7.148-48h-124.31v-48h131.461l7.149-48h-138.61v-2.83c0-35.92 15.159-58.086 79.434-58.086 26.264 0 55.959 2.498 93.281 8.742l9.285-64.826c-38.012-8.743-70.542-12-105.791-12v0z"></path>
</svg>
