<?xml version="1.0" encoding="utf-8"?>
<!-- Generated by IcoMoon.io -->
<!DOCTYPE svg PUBLIC "-//W3C//DTD SVG 1.1//EN" "http://www.w3.org/Graphics/SVG/1.1/DTD/svg11.dtd">
<svg version="1.1" xmlns="http://www.w3.org/2000/svg" xmlns:xlink="http://www.w3.org/1999/xlink" width="512" height="512" viewBox="0 0 512 512">
<path fill="#000000" d="M70.7 164.5l169.2 81.7c4.4 2.1 10.3 3.2 16.1 3.2s11.7-1.1 16.1-3.2l169.2-81.7c8.9-4.3 8.9-11.3 0-15.6l-169.2-81.7c-4.4-2.1-10.3-3.2-16.1-3.2s-11.7 1.1-16.1 3.2l-169.2 81.7c-8.9 4.3-8.9 11.3 0 15.6zM246.8 81.6c1.6-0.8 4.9-1.6 9.2-1.6s7.5 0.8 9.2 1.6l155.5 75.1-155.5 75.1c-1.6 0.8-4.9 1.6-9.2 1.6s-7.5-0.8-9.2-1.6l-155.5-75.1 155.5-75.1z"></path>
<path fill="#000000" d="M441.3 248.2c0 0-30.9-14.9-35-16.9s-5.2-1.9-9.5 0.1-124.8 60.2-124.8 60.2c-4.5 2.1-10.3 3.2-16.1 3.2s-11.7-1.1-16.1-3.2c0 0-117.3-56.6-122.8-59.3-6-2.9-7.7-2.9-13.1-0.3-5.6 2.7-33.4 16.1-33.4 16.1-8.9 4.3-8.9 11.3 0 15.6l169.2 81.7c4.4 2.1 10.3 3.2 16.1 3.2s11.7-1.1 16.1-3.2l169.2-81.7c9.1-4.2 9.1-11.2 0.2-15.5zM265.2 331.1c-1.6 0.8-4.9 1.6-9.2 1.6s-7.5-0.8-9.2-1.6l-155.5-75.1 18.9-9.1 122.7 59.3c6.4 3.1 14.6 4.8 23.1 4.8s16.6-1.7 23.1-4.8l122.7-59.3 18.9 9.1-155.5 75.1z"></path>
<path fill="#000000" d="M441.3 347.5c0 0-30.9-14.9-35-16.9s-5.2-1.9-9.5 0.1-124.7 60.3-124.7 60.3c-4.5 2.1-10.3 3.2-16.1 3.2s-11.7-1.1-16.1-3.2c0 0-117.3-56.6-122.8-59.3-6-2.9-7.7-2.9-13.1-0.3-5.6 2.7-33.4 16.1-33.4 16.1-8.9 4.3-8.9 11.3 0 15.6l169.2 81.7c4.4 2.2 10.3 3.2 16.1 3.2s11.7-1.1 16.1-3.2l169.2-81.7c9-4.3 9-11.3 0.1-15.6zM265.2 430.4c-1.6 0.8-4.9 1.6-9.2 1.6s-7.5-0.8-9.2-1.6l-155.5-75.1 18.9-9.1 122.7 59.3c6.4 3.1 14.6 4.8 23.1 4.8s16.6-1.7 23.1-4.8l122.7-59.3 18.9 9.1-155.5 75.1z"></path>
</svg>
