<?xml version="1.0" encoding="utf-8"?>
<!-- Generated by IcoMoon.io -->
<!DOCTYPE svg PUBLIC "-//W3C//DTD SVG 1.1//EN" "http://www.w3.org/Graphics/SVG/1.1/DTD/svg11.dtd">
<svg version="1.1" xmlns="http://www.w3.org/2000/svg" xmlns:xlink="http://www.w3.org/1999/xlink" width="512" height="512" viewBox="0 0 512 512">
<path fill="#000000" d="M256 64c-106 0-192 86-192 192 0 106.1 86 192 192 192s192-85.9 192-192c0-106-86-192-192-192zM256 415.5c-88.1 0-159.5-71.4-159.5-159.5s71.4-159.5 159.5-159.5c88.1 0 159.5 71.4 159.5 159.5s-71.4 159.5-159.5 159.5z"></path>
<path fill="#000000" d="M306.3 246.7c23.4-2.2 50.9-2.9 77.2-2.4-2.3-25.4-12-48.7-27-67.6-16.5 14.9-38 28.1-63.3 39 4.6 10 8.9 20.4 13.1 31z"></path>
<path fill="#000000" d="M335.4 155.6c-21.8-17.3-49.4-27.6-79.4-27.6-5.1 0-10.2 0.3-15.2 0.9 13.8 17.7 26.7 37.6 38.6 59.5 21.7-9.2 40.6-20.3 56-32.8z"></path>
<path fill="#000000" d="M205.9 138.2c-34.1 14.5-60.7 43.4-72 79.1 41.1-0.7 79.6-7 113.4-17.3-12.6-23-26.6-43.7-41.4-61.8z"></path>
<path fill="#000000" d="M383 272.2c-22.3-0.6-46-0.2-66.9 1.5 4.1 12.3 8.1 24.9 11.5 37.9 3.8 14.6 7 29.1 9.6 43.4 24.6-20.3 41.6-49.6 45.8-82.8z"></path>
<path fill="#000000" d="M258 256.1c3.9-1.6 8.8-3 14.3-4.3-3.4-8.3-7.1-16.4-10.8-24.3-39.1 12.6-84.6 20.3-133.3 21.3-0.1 2.4-0.2 4.8-0.2 7.3 0 29.1 9.7 55.9 26 77.4 24.9-32.5 60.9-59.3 104-77.4z"></path>
<path fill="#000000" d="M282.6 278.2c-6.9 1.5-12.9 3.2-17.4 5.3-37.1 16.8-68.3 41.6-90.4 71.5 22.1 18.2 50.4 29 81.2 29 18.5 0 36-3.9 51.8-10.9-2.7-15.1-6-30.3-10-45.7-4.4-16.9-9.6-33.4-15.2-49.2z"></path>
</svg>
