<?xml version="1.0" encoding="utf-8"?>
<!-- Generated by IcoMoon.io -->
<!DOCTYPE svg PUBLIC "-//W3C//DTD SVG 1.1//EN" "http://www.w3.org/Graphics/SVG/1.1/DTD/svg11.dtd">
<svg version="1.1" xmlns="http://www.w3.org/2000/svg" xmlns:xlink="http://www.w3.org/1999/xlink" width="512" height="512" viewBox="0 0 512 512">
<path d="M209.877 154.114c-4.258-11.323-9.176-10.515-12.45-10.639-3.277-0.121-6.146-0.061-10.573 0.011-3.746 0.061-9.882 1.026-15.232 6.413-5.357 5.378-20.366 18.312-21.404 45.725-1.031 27.408 18.080 54.643 20.749 58.455 2.667 3.826 36.494 63.236 92.719 87.67 56.231 24.427 56.525 16.981 66.84 16.435 10.325-0.54 33.726-12.246 38.899-25.073s5.588-23.979 4.271-26.358c-1.316-2.371-5-3.911-10.51-6.9-5.516-2.995-32.595-17.498-37.673-19.55-5.081-2.044-8.787-3.108-12.742 2.329-3.957 5.422-15.191 17.569-18.596 21.168-3.42 3.6-6.711 3.934-12.226 0.93-5.5-2.988-23.373-9.548-44.098-29.317-16.126-15.38-26.711-34.043-29.779-39.736-3.069-5.697-0.020-8.604 2.9-11.269 2.618-2.407 5.857-6.301 8.792-9.449 2.919-3.148 3.949-5.43 5.961-9.083 2.007-3.645 1.2-6.932-0.102-9.771-1.303-2.838-11.49-30.668-15.746-41.991z"></path>
<path d="M260.062 64c50.249 0 97.478 19.402 132.982 54.632 35.438 35.164 54.956 81.901 54.956 131.6 0 49.694-19.518 96.43-54.956 131.596-35.507 35.232-82.735 54.637-132.982 54.637-31.806 0-63.24-8.023-90.906-23.201l-12.017-6.593-74.515 23.671 24.173-71.3-7.771-12.763c-17.593-28.898-26.892-62.111-26.892-96.047 0-49.699 19.518-96.436 54.957-131.601 35.505-35.229 82.728-54.631 132.971-54.631zM260.062 32c-121.457 0-219.928 97.701-219.928 218.232 0 41.229 11.532 79.791 31.559 112.687l-39.693 117.081 121.764-38.682c31.508 17.285 67.745 27.146 106.298 27.146 121.473 0 219.938-97.715 219.938-218.232 0-120.531-98.465-218.232-219.938-218.232v0z"></path>
</svg>
