<?xml version="1.0" encoding="utf-8"?>
<!-- Generated by IcoMoon.io -->
<!DOCTYPE svg PUBLIC "-//W3C//DTD SVG 1.1//EN" "http://www.w3.org/Graphics/SVG/1.1/DTD/svg11.dtd">
<svg version="1.1" xmlns="http://www.w3.org/2000/svg" xmlns:xlink="http://www.w3.org/1999/xlink" width="512" height="512" viewBox="0 0 512 512">
<path fill="#000000" d="M447.659 96h-383.318c-17.837 0-32.341 14.484-32.341 32.308v255.349c0 17.836 14.504 32.343 32.341 32.343h383.318c17.837 0 32.341-14.507 32.341-32.344v-255.348c0-17.824-14.504-32.308-32.341-32.308zM284.023 352h-56.048v-96l-42.040 53.878-42.022-53.878v96h-56.044v-192h56.044l42.022 67.98 42.040-67.98h56.048v192zM367.68 352l-69.635-96h42v-96h56.043v96h42.027l-70.435 96z"></path>
</svg>
