<?xml version="1.0" encoding="utf-8"?>
<!-- Generated by IcoMoon.io -->
<!DOCTYPE svg PUBLIC "-//W3C//DTD SVG 1.1//EN" "http://www.w3.org/Graphics/SVG/1.1/DTD/svg11.dtd">
<svg version="1.1" xmlns="http://www.w3.org/2000/svg" xmlns:xlink="http://www.w3.org/1999/xlink" width="512" height="512" viewBox="0 0 512 512">
<path d="M188.8 255.925c0 36.946 30.243 67.178 67.2 67.178s67.199-30.231 67.199-67.178c0-36.945-30.242-67.179-67.199-67.179s-67.2 30.234-67.2 67.179z"></path>
<path d="M476.752 217.795c-0.009 0.005-0.016 0.038-0.024 0.042-1.701-9.877-4.040-19.838-6.989-28.838h-0.107c2.983 9 5.352 19 7.072 29h-0.002c-1.719-10-4.088-20-7.070-29h-155.39c19.044 17 31.358 40.175 31.358 67.052 0 16.796-4.484 31.284-12.314 44.724l-102.242 177.677c0 0-0.009 0.264-0.014 0.264l-0.010 0.284c0.005 0 0.009 0 0.015 0l-0.005-0.262c8.203 0.92 16.531 1.262 24.97 1.262 6.842 0 13.609-0.393 20.299-1.002 10.135-0.911 20.077-2.519 29.777-4.733 99.604-22.74 173.924-111.861 173.924-218.324 0-12.999-1.121-25.753-3.248-38.146z"></path>
<path d="M256 345.496c-33.601 0-61.601-17.91-77.285-44.785l-102.846-177.9c-10.293 13.896-19.015 29.022-25.903 45.123-11.559 27.011-17.966 56.752-17.966 87.991 0 62.695 25.784 119.36 67.316 160.009 29.342 28.719 66.545 49.433 108.088 58.619l0.029-0.051 77.683-134.604c-8.959 3.358-19.031 5.598-29.116 5.598z"></path>
<path d="M91.292 104.575l77.35 133.25c7.841-40.312 43.673-71.825 87.358-71.825h205.172c-6.921-15-15.594-30.324-25.779-43.938 0.039 0.021 0.078 0.053 0.117 0.074 10.134 13.576 18.768 28.864 25.662 43.864h0.172c-6.884-15-15.514-30.38-25.668-43.99-0.115-0.060-0.229-0.168-0.342-0.257-40.859-54.486-105.975-89.753-179.334-89.753-26.372 0-51.673 4.569-75.172 12.936-34.615 12.327-65.303 32.917-89.687 59.406l0.142 0.243c0.003-0.004 0.006-0.007 0.009-0.010z"></path>
</svg>
