<?xml version="1.0" encoding="utf-8"?>
<!-- Generated by IcoMoon.io -->
<!DOCTYPE svg PUBLIC "-//W3C//DTD SVG 1.1//EN" "http://www.w3.org/Graphics/SVG/1.1/DTD/svg11.dtd">
<svg version="1.1" xmlns="http://www.w3.org/2000/svg" xmlns:xlink="http://www.w3.org/1999/xlink" width="512" height="512" viewBox="0 0 512 512">
<path d="M376.764 32c0 0-205.353 0-238.223 0-32.875 0-42.541 24.798-42.541 40.414 0 15.627 0 379.64 0 379.64 0 17.591 9.425 24.117 14.718 26.267 5.299 2.155 19.916 3.971 28.673-6.168 0 0 112.469-130.895 114.4-132.834 2.921-2.93 2.921-2.93 5.844-2.93 5.844 0 49.192 0 72.767 0 30.574 0 35.49-21.869 38.684-34.752 2.659-10.789 32.489-163.962 42.452-212.559 7.605-37.085-1.793-57.078-36.774-57.078zM371.086 301.637c2.659-10.789 32.489-163.962 42.452-212.559zM362.692 96.67l-9.999 51.734c-1.195 5.65-8.287 11.595-14.863 11.595-6.575 0-95.917 0-95.917 0-10.44 0.001-17.913 6.139-17.913 16.603v13.448c0 10.473 7.519 17.894 17.965 17.894 0 0 74.482 0 81.848 0 7.374 0 14.61 8.109 13.016 16.005-1.602 7.908-9.086 46.569-9.984 50.89-0.902 4.328-5.845 11.725-14.611 11.725-7.388 0-64.269 0-64.269 0-11.705 0-15.244 1.533-23.074 11.293-7.837 9.77-78.256 94.592-78.256 94.592-0.713 0.822-1.41 0.584-1.41-0.312v-296.241c0-6.684 5.793-14.523 14.479-14.523 0 0 183.713 0 191.173 0 7.035-0.001 13.611 6.631 11.815 15.297z"></path>
</svg>
