<?xml version="1.0" encoding="utf-8"?>
<!-- Generated by IcoMoon.io -->
<!DOCTYPE svg PUBLIC "-//W3C//DTD SVG 1.1//EN" "http://www.w3.org/Graphics/SVG/1.1/DTD/svg11.dtd">
<svg version="1.1" xmlns="http://www.w3.org/2000/svg" xmlns:xlink="http://www.w3.org/1999/xlink" width="512" height="512" viewBox="0 0 512 512">
<path fill="#000000" d="M182.8 384v-171.1h-54.9v171.1h54.9zM157.4 187c18.3 0 29.7-13.1 29.7-29.5-0.3-16.7-11.4-29.5-29.4-29.5s-29.7 12.8-29.7 29.5c0 16.4 11.4 29.5 29 29.5h0.4z"></path>
<path fill="#000000" d="M320.6 209c-29.1 0-41.6 16.4-49.6 27.8v-23.8h-55v171h55v-97.4c0-5 0.4-10 1.9-13.5 4-10 13-20.3 28.2-20.3 19.9 0 27.9 15.3 27.9 37.7v93.5h55v-99.9c0-51.3-27.2-75.1-63.4-75.1z"></path>
<path fill="#000000" d="M417.2 64h-320.4c-17.5 0-32.8 12.6-32.8 29.9v321.1c0 17.4 15.3 32.9 32.8 32.9h320.3c17.6 0 30.8-15.6 30.8-32.9v-321.1c0.1-17.3-13.2-29.9-30.7-29.9zM414 416c-1.1 0-313.1 0-314.9 0s-3.1-1.4-3.1-3.1 0-313.8 0-314.9 1-2 2-2 315 0 316 0 2 1 2 2c0 23.3 0 314.9 0 316 0 0.9-0.9 2-2 2z"></path>
</svg>
