<?xml version="1.0" encoding="utf-8"?>
<!-- Generated by IcoMoon.io -->
<!DOCTYPE svg PUBLIC "-//W3C//DTD SVG 1.1//EN" "http://www.w3.org/Graphics/SVG/1.1/DTD/svg11.dtd">
<svg version="1.1" xmlns="http://www.w3.org/2000/svg" xmlns:xlink="http://www.w3.org/1999/xlink" width="512" height="512" viewBox="0 0 512 512">
<path d="M288 192v-38.1c0-17.2 3.8-25.9 30.5-25.9h33.5v-64h-55.9c-68.5 0-91.1 31.4-91.1 85.3v42.7h-45v64h45v192h83v-192h56.4l7.6-64h-64zM330.2 240h-58.2v192h-51v-192h-45v-32h45v-58.7c0-24.5 5.4-41.2 15.5-51.8 11.2-12 31.1-17.5 59.6-17.5h39.9v32h-17.5c-12 0-27.5 1.1-37.1 11.7-8.1 9-9.4 20.1-9.4 30.1v54.2h62l-3.8 32z"></path>
</svg>
