<?xml version="1.0" encoding="utf-8"?>
<!-- Generated by IcoMoon.io -->
<!DOCTYPE svg PUBLIC "-//W3C//DTD SVG 1.1//EN" "http://www.w3.org/Graphics/SVG/1.1/DTD/svg11.dtd">
<svg version="1.1" xmlns="http://www.w3.org/2000/svg" xmlns:xlink="http://www.w3.org/1999/xlink" width="512" height="512" viewBox="0 0 512 512">
<path d="M448 32h-80l-112 221.128-112-221.128h-80l112.368 208h-48.368v48h73.564l14.436 31v17h-88v48h88v96h80v-96h88v-48h-88v-17l14.891-31h73.109v-48h-48.289l112.289-208zM368 256v16h-67l-21 43v37h88v16h-88v96h-48v-96h-88v-16h88v-35.75l-20-44.25h-68v-16h59.197l-112.368-208h43.171l122 240 122-240h43.18l-112.289 208h59.109z"></path>
</svg>
