<?xml version="1.0" encoding="utf-8"?>
<!-- Generated by IcoMoon.io -->
<!DOCTYPE svg PUBLIC "-//W3C//DTD SVG 1.1//EN" "http://www.w3.org/Graphics/SVG/1.1/DTD/svg11.dtd">
<svg version="1.1" xmlns="http://www.w3.org/2000/svg" xmlns:xlink="http://www.w3.org/1999/xlink" width="512" height="512" viewBox="0 0 512 512">
<path d="M290.9 145.9l-64.4-49.9 64.6 102.8z"></path>
<path d="M329 96v164h-35.9l-63.2-98 1.7 98h-40.6v-107.1l-37.1-29.1c1 1.2 2.1 2.4 3 3.6 10 13.8 15 30.7 15 50.5 0 48.9-30.5 82-76.8 82h-63.1l200.1 156h247.9v-201.2l-151-118.7zM464 400h-226.3l-159.1-124h16.5c13.5 0 26.2-2.7 37.7-7.4s21.4-11.8 29.8-20.7c4.8-5.1 9.4-11 12.4-17.1v45.2h73l-0.3-16.5-0.7-41.9 32.6 50.7 4.7 7.6h60.7v-146.6l0.2 0.3 118.8 92.8v177.6z"></path>
<path d="M90.6 150.4c11 0 23.7 3.2 23.7 28.8 0 6.9-1 16.3-6 21.8-3.6 3.9-9.6 6-17.7 6h-3.6v-57h3zM90.7 134h-19.7v89h19.5c26 0 39.9-15.6 39.9-43.9 0-28.8-14.3-45.1-39.7-45.1v0z"></path>
</svg>
