<?xml version="1.0" encoding="utf-8"?>
<!-- Generated by IcoMoon.io -->
<!DOCTYPE svg PUBLIC "-//W3C//DTD SVG 1.1//EN" "http://www.w3.org/Graphics/SVG/1.1/DTD/svg11.dtd">
<svg version="1.1" xmlns="http://www.w3.org/2000/svg" xmlns:xlink="http://www.w3.org/1999/xlink" width="512" height="512" viewBox="0 0 512 512">
<path fill="#000000" d="M177 77.1l-113 73.9 78.3 63 113.7-70.8-79-66.1zM91.4 153.3l84.5-56.8 52.9 46-85.4 52.5-52-41.7z"></path>
<path fill="#000000" d="M369.8 213l-113.8 71.1 79 66.1 19-12.6v20.2l-98 59.2-98-58.5v-20.5l19 12.2 79-66.1-113.8-71.1-78.2 63.3 78 51.5v39.4l114 67.8 114-68.5v-39.2l78-51.2-78.2-63.1zM143.4 230.9l85.4 55.4-52.9 44.1-84.5-55.8 52-43.7zM283.2 286.3l85.4-55.4 52.1 43.6-84.5 55.8-53-44z"></path>
<path fill="#000000" d="M448 151l-113-73.9-79 66.1 113.8 70.8 78.2-63zM283.2 142.6l52.9-46 84.5 56.8-52 41.6-85.4-52.4z"></path>
</svg>
