<?xml version="1.0" encoding="utf-8"?>
<!-- Generated by IcoMoon.io -->
<!DOCTYPE svg PUBLIC "-//W3C//DTD SVG 1.1//EN" "http://www.w3.org/Graphics/SVG/1.1/DTD/svg11.dtd">
<svg version="1.1" xmlns="http://www.w3.org/2000/svg" xmlns:xlink="http://www.w3.org/1999/xlink" width="512" height="512" viewBox="0 0 512 512">
<path d="M119.9 336.1c-30.8 0-55.9 25.1-55.9 55.8 0 30.8 25.1 55.6 55.9 55.6 30.9 0 55.9-24.9 55.9-55.6s-25-55.8-55.9-55.8zM119.9 431.5c-22 0-39.9-17.8-39.9-39.6 0-21.9 17.9-39.8 39.9-39.8s39.9 17.9 39.9 39.8c0 21.8-17.9 39.6-39.9 39.6z"></path>
<path d="M64 192v79.9c48 0 94.1 14.2 128 48.1s48 79.9 48 128h80c0-139.9-116-256-256-256zM303.5 432h-48c-3.1-49.7-21-92.1-52.2-123.3-31.2-31.3-73.3-49.2-123.3-52.3v-47.8c26 1.8 52.1 8 76.7 18.5 28.5 12.2 54.2 29.6 76.4 51.8s39.6 47.9 51.8 76.4c10.6 24.6 16.8 50.3 18.6 76.7z"></path>
<path d="M64 64v79.9c171 0 303.9 133 303.9 304.1h80.1c0-211.7-172-384-384-384zM291.4 220.5c-56-56.1-130.4-88.5-211.4-92.3v-47.9c190 8.2 343.5 161.5 351.7 351.7h-48.2c-3.8-80.9-36.2-155.5-92.1-211.5z"></path>
</svg>
