<?xml version="1.0" encoding="utf-8"?>
<!-- Generated by IcoMoon.io -->
<!DOCTYPE svg PUBLIC "-//W3C//DTD SVG 1.1//EN" "http://www.w3.org/Graphics/SVG/1.1/DTD/svg11.dtd">
<svg version="1.1" xmlns="http://www.w3.org/2000/svg" xmlns:xlink="http://www.w3.org/1999/xlink" width="512" height="512" viewBox="0 0 512 512">
<path d="M208 88.001h-80v212.498c0 52.58-18.032 67.261-49.412 67.261-14.705 0-27.948-2.521-38.25-6.063l-8.338 62.207c14.7 5.062 37.259 8.096 54.907 8.096 72.048 0 121.093-33.871 121.093-130.98v-213.019z"></path>
<path d="M382.463 80c-77.443 0-126.463 43.998-126.463 102.154 0 50.083 37.751 81.44 92.641 101.665 39.7 14.158 55.392 26.808 55.392 47.539 0 22.756-18.139 37.425-52.448 37.425-31.863 0-60.789-10.64-80.394-21.255v-0.021l-15.191 63.22c18.639 10.638 53.441 21.255 91.167 21.255 90.687-0.002 132.833-48.552 132.833-105.698 0-48.55-26.958-79.9-85.278-102.163-43.139-17.191-61.27-26.795-61.27-48.542 0-17.2 15.688-32.869 48.043-32.869 31.846 0 53.744 10.707 66.505 17.291l19.125-64c-20-8.781-46.937-16.001-84.662-16.001v0z"></path>
</svg>
