<?xml version="1.0" encoding="utf-8"?>
<!-- Generated by IcoMoon.io -->
<!DOCTYPE svg PUBLIC "-//W3C//DTD SVG 1.1//EN" "http://www.w3.org/Graphics/SVG/1.1/DTD/svg11.dtd">
<svg version="1.1" xmlns="http://www.w3.org/2000/svg" xmlns:xlink="http://www.w3.org/1999/xlink" width="512" height="512" viewBox="0 0 512 512">
<path d="M508.6 148.8c0-45-33.1-81.2-74-81.2-55.4-2.6-111.9-3.6-169.6-3.6-3 0-6 0-9 0s-6 0-9 0c-57.6 0-114.2 1-169.6 3.6-40.8 0-73.9 36.4-73.9 81.4-2.5 35.6-3.6 71.2-3.5 106.8-0.1 35.6 1 71.2 3.4 106.9 0 45 33.1 81.5 73.9 81.5 58.2 2.7 117.9 3.9 178.6 3.8 60.8 0.2 120.3-1 178.6-3.8 40.9 0 74-36.5 74-81.5 2.4-35.7 3.5-71.3 3.4-107 0.2-35.6-0.9-71.2-3.3-106.9zM207 353.9v-196.5l145 98.2-145 98.3z"></path>
</svg>
