<?xml version="1.0" encoding="utf-8"?>
<!-- Generated by IcoMoon.io -->
<!DOCTYPE svg PUBLIC "-//W3C//DTD SVG 1.1//EN" "http://www.w3.org/Graphics/SVG/1.1/DTD/svg11.dtd">
<svg version="1.1" xmlns="http://www.w3.org/2000/svg" xmlns:xlink="http://www.w3.org/1999/xlink" width="512" height="512" viewBox="0 0 512 512">
<path d="M384.6 68.4c-11.3 0-22.5-0.8-32.6-4.4l-96 160-96-160c-10.1 3.6-20.7 4.4-32 4.4-11.1 0-22.1-0.9-32-4.4l128 212.7v171.3c10-3.5 20.8-4.4 32-4.4s22 0.9 32 4.4v-171l128-213c-9.9 3.4-20.3 4.4-31.4 4.4zM274.2 268.5l-2.2 4v155.7c-5-0.6-11.2-0.7-16-0.7s-10 0.1-16 0.7v-155.9l-2.4-3.8-110.6-184.1c0.3 0 0.7 0 1 0 7.6 0 16-0.3 24.7-1.9l89.8 149.8 13.4 22.8 14-22.9 89.8-149.9c9 1.6 17.6 1.7 24.8 1.7 0.2 0 0.3 0 0.5 0l-110.8 184.5z"></path>
</svg>
