<?xml version="1.0" encoding="utf-8"?>
<!-- Generated by IcoMoon.io -->
<!DOCTYPE svg PUBLIC "-//W3C//DTD SVG 1.1//EN" "http://www.w3.org/Graphics/SVG/1.1/DTD/svg11.dtd">
<svg version="1.1" xmlns="http://www.w3.org/2000/svg" xmlns:xlink="http://www.w3.org/1999/xlink" width="512" height="512" viewBox="0 0 512 512">
<path d="M119.9 336.1c-30.8 0-55.9 25.1-55.9 55.8 0 30.8 25.1 55.6 55.9 55.6 30.9 0 55.9-24.9 55.9-55.6s-25-55.8-55.9-55.8z"></path>
<path d="M64 192v79.9c48 0 94.1 14.2 128 48.1s48 79.9 48 128h80c0-139.9-116-256-256-256z"></path>
<path d="M64 64v79.9c171 0 303.9 133 303.9 304.1h80.1c0-211.7-172-384-384-384z"></path>
</svg>
