<?xml version="1.0" encoding="utf-8"?>
<!-- Generated by IcoMoon.io -->
<!DOCTYPE svg PUBLIC "-//W3C//DTD SVG 1.1//EN" "http://www.w3.org/Graphics/SVG/1.1/DTD/svg11.dtd">
<svg version="1.1" xmlns="http://www.w3.org/2000/svg" xmlns:xlink="http://www.w3.org/1999/xlink" width="512" height="512" viewBox="0 0 512 512">
<path fill="#000000" d="M265 96c65.3 0 118.7 1.1 168.1 3.3h1.4c23.1 0 42 22 42 49.1v1.1l0.1 1.1c2.3 34 3.4 69.3 3.4 104.9v0 0c0.1 35.6-1.1 70.9-3.4 104.9l-0.1 1.1v1.1c0 13.8-4.7 26.6-13.4 36.1-7.8 8.6-18 13.4-28.6 13.4h-1.6c-52.9 2.5-108.8 3.8-166.4 3.8-3.5 0-7.1 0-10.6 0v0c-3.6 0-7.2 0-10.8 0-57.8 0-113.7-1.3-166.2-3.7h-1.6c-10.6 0-20.7-4.8-28.5-13.4-8.6-9.5-13.4-22.3-13.4-36.1v-1.1l-0.1-1.1c-2.4-34.1-3.5-69.4-3.3-104.7v-0.2c-0.1-35.3 1-70.5 3.3-104.6l0.1-1.1v-1.1c0-27.2 18.8-49.3 41.9-49.3h1.4c49.5-2.3 102.9-3.3 168.2-3.3h18.1zM265 64c-3 0-6 0-9 0s-6 0-9 0c-57.6 0-114.2 0.8-169.6 3.3-40.8 0-73.9 36.3-73.9 81.3-2.5 35.8-3.6 71.4-3.5 107.1-0.1 35.7 0.9 71.3 3.4 107 0 45 33.1 81.6 73.9 81.6 54.8 2.6 110.7 3.8 167.8 3.8 3.6 0 7.3 0 10.9 0s7.2 0 10.7 0c57.1 0 113-1.2 167.9-3.8 40.9 0 74-36.6 74-81.6 2.4-35.7 3.5-71.4 3.4-107.1 0.1-35.7-1-71.3-3.4-107.1 0-45-33.1-81.1-74-81.1-55.4-2.6-111.9-3.4-169.6-3.4v0z"></path>
<path fill="#000000" d="M207 353.8v-196.4l145 98.2-145 98.2z"></path>
</svg>
