<?xml version="1.0" encoding="utf-8"?>
<!-- Generated by IcoMoon.io -->
<!DOCTYPE svg PUBLIC "-//W3C//DTD SVG 1.1//EN" "http://www.w3.org/Graphics/SVG/1.1/DTD/svg11.dtd">
<svg version="1.1" xmlns="http://www.w3.org/2000/svg" xmlns:xlink="http://www.w3.org/1999/xlink" width="512" height="512" viewBox="0 0 512 512">
<path d="M398.484 164.452l-27.399 137.185c1.763-7.151 15.46-76.844 27.399-137.185z"></path>
<path d="M376.764 32c0 0-205.353 0-238.223 0-32.875 0-42.541 24.798-42.541 40.414 0 15.627 0 379.64 0 379.64 0 17.591 9.425 24.117 14.718 26.267 5.299 2.155 19.916 3.971 28.673-6.168 0 0 112.469-131.090 114.4-133.027 2.921-2.931 2.921-3.125 5.844-3.125 5.843 0 49.192 0 72.766 0 30.575 0 35.49-21.676 38.684-34.559l27.399-137.087c6.074-30.702 11.693-58.938 15.053-75.325 7.606-37.086-1.793-57.030-36.773-57.030zM376.426 96c0 0-31.575 156.209-36.034 176.834-5.392 24.937-7.642 31.166-33.392 31.166-17.605 0-62.375 0-62.375 0-2.747 0-3.868-0.147-6.049 2.041-1.443 1.447-78.168 89.562-78.168 89.562-19.034 23.396-26.909 31.795-29.033 31.795s-3.375 0-3.375-38.408v-297.282c0-24.674 0.3-27.708 29.198-27.708 24.55 0 194.802 0 194.802 0 30 0 30.834 0.833 24.426 32z"></path>
<path d="M398.484 164.452l15.053-75.374c-3.359 16.388-8.978 44.672-15.053 75.374z"></path>
<path d="M328.573 96c-5.571 0-157.995 0-157.995 0-6.487 0-10.578 5.594-10.578 10.586v231.255c0 0.67 0.402 0.975 0.935 0.36 0 0 48.202-55.725 54.056-63.021 5.848-7.289 8.491-8.182 17.233-8.182 0 0 56.695 0 62.212 0 6.549 0 10.24-5.75 10.913-8.982 0.671-3.228 10.536-48.213 11.732-54.119 1.191-5.897-4.214-11.898-9.722-11.898-5.5 0-64.805 0-64.805 0-7.803 0-7.554-5.653-7.554-13.476v-5.512c0-7.815-0.282-13.012 7.516-13.012 0 0 70.403 0 75.313 0 4.911 0 10.208-4.442 11.102-8.662l8.468-44.042c1.34-6.472-3.571-11.295-8.826-11.295z"></path>
</svg>
