<?xml version="1.0" encoding="utf-8"?>
<!-- Generated by IcoMoon.io -->
<!DOCTYPE svg PUBLIC "-//W3C//DTD SVG 1.1//EN" "http://www.w3.org/Graphics/SVG/1.1/DTD/svg11.dtd">
<svg version="1.1" xmlns="http://www.w3.org/2000/svg" xmlns:xlink="http://www.w3.org/1999/xlink" width="512" height="512" viewBox="0 0 512 512">
<path d="M416 80c0 35.346-71.635 64-160 64s-160-28.654-160-64c0-35.346 71.635-64 160-64s160 28.654 160 64z"></path>
<path d="M256 440c88.365 0 152-28.654 152-64v-128c0 28.581-41.612 52.783-104.26 61.002-2.502 24.158-22.92 42.998-47.74 42.998s-45.238-18.84-47.74-42.998c-62.648-8.219-104.26-32.421-104.26-61.002v128c0 35.346 63.634 64 152 64z"></path>
<path d="M256 160c-88.366 0-160-28.654-160-64 0 0 0 32.834 8 40v96c0 28.732 42.049 53.042 105.25 61.134 4.926-21.273 23.979-37.134 46.75-37.134s41.824 15.861 46.75 37.134c63.201-8.092 105.25-32.402 105.25-61.134v-96c8-8.25 8-40 8-40 0 35.346-71.635 64-160 64z"></path>
<path d="M408 392c0 35.346-63.635 64-152 64s-152-28.654-152-64v23.999l-8 16.001c0 6.994 2.815 13.725 8 20.025 21.016 25.537 81.121 43.975 152 43.975s130.984-18.438 152-43.975c5.186-6.301 8-13.031 8-20.025l-8-16.001v-23.999z"></path>
</svg>
