<?xml version="1.0" encoding="utf-8"?>
<!-- Generated by IcoMoon.io -->
<!DOCTYPE svg PUBLIC "-//W3C//DTD SVG 1.1//EN" "http://www.w3.org/Graphics/SVG/1.1/DTD/svg11.dtd">
<svg version="1.1" xmlns="http://www.w3.org/2000/svg" xmlns:xlink="http://www.w3.org/1999/xlink" width="512" height="512" viewBox="0 0 512 512">
<path fill="#000000" d="M320 160c0-64-26.5-128-64-128s-64 64-64 128v0c0.9 25 15.7 54.3 36.6 64.3 0.5 0.2 0.9 0.4 1.4 0.6 0 0 0 0 0.1 0 3.4 1.9 9.8 5.5 9.8 9.7 0 0-16 198.7-16 210.1s5 20.5 10.5 26c5.5 5.5 13.1 9.2 21.3 9.2 0.1 0 0.1 0 0.2 0s0.1 0 0.2 0c8.2 0 15.8-3.7 21.4-9.2 5.5-5.5 10.3-12.9 10.3-26s-16-210.1-16-210.1c0-4.2 6.4-7.9 9.8-9.8l1.7-0.9c21.6-9.9 36.7-37.9 36.7-63.9z"></path>
</svg>
