<?xml version="1.0" encoding="utf-8"?>
<!-- Generated by IcoMoon.io -->
<!DOCTYPE svg PUBLIC "-//W3C//DTD SVG 1.1//EN" "http://www.w3.org/Graphics/SVG/1.1/DTD/svg11.dtd">
<svg version="1.1" xmlns="http://www.w3.org/2000/svg" xmlns:xlink="http://www.w3.org/1999/xlink" width="512" height="512" viewBox="0 0 512 512">
<path fill="#000000" d="M480 208.2c0 20.5-16.6 37.2-37.2 37.2-20.5 0-37.2-16.6-37.2-37.2 0-20.5 16.6-37.2 37.2-37.2 20.5 0 37.2 16.7 37.2 37.2zM442.6 139c-38.1 0-69 30.7-69.4 68.7l-43.2 62c-1.8-0.2-3.6-0.3-5.4-0.3-9.7 0-18.7 2.7-26.4 7.3l-195.8-78.7c-5.1-23.2-25.9-40.7-50.6-40.7-28.5-0.1-51.8 23.3-51.8 51.8s23.3 51.8 51.8 51.8c9.7 0 18.7-2.7 26.4-7.3l195.8 78.6c5.1 23.3 25.8 40.8 50.6 40.8 26.8 0 49-20.6 51.5-46.7l66.5-48.6c38.3 0 69.4-31 69.4-69.3s-31.1-69.4-69.4-69.4zM442.6 161.9c25.7 0 46.5 20.9 46.5 46.5 0 25.7-20.9 46.4-46.5 46.4-25.7 0-46.5-20.8-46.5-46.4 0-25.7 20.8-46.5 46.5-46.5zM51.8 170.9c14.6 0 27.3 8.2 33.7 20.2l-18.9-7.6v0.1c-15.3-5.5-32.2 2-38.3 17.1-6.1 15.2 0.9 32.3 15.7 38.9v0.1l16.1 6.4c-2.6 0.6-5.4 0.9-8.2 0.9-21.1 0-38.1-17-38.1-38.1-0.1-20.9 16.9-38 38-38zM324.6 283.1c21.1 0 38.1 17 38.1 38.1s-17 38.1-38.1 38.1c-14.7 0-27.4-8.2-33.7-20.3 6.3 2.5 12.5 5 18.8 7.6 15.5 6.2 33.2-1.3 39.4-16.8s-1.3-33.1-16.9-39.4l-15.9-6.4c2.8-0.5 5.5-0.9 8.3-0.9z"></path>
</svg>
