<?xml version="1.0" encoding="utf-8"?>
<!-- Generated by IcoMoon.io -->
<!DOCTYPE svg PUBLIC "-//W3C//DTD SVG 1.1//EN" "http://www.w3.org/Graphics/SVG/1.1/DTD/svg11.dtd">
<svg version="1.1" xmlns="http://www.w3.org/2000/svg" xmlns:xlink="http://www.w3.org/1999/xlink" width="512" height="512" viewBox="0 0 512 512">
<path fill="#000000" d="M303 335.6v-257.2c0-25.7-21-46.5-47-46.5s-47 20.8-47 46.5v256.8c-20 14.5-32.9 38.2-32.9 64.9 0 44.2 36 80 80.2 80s79.8-35.8 79.8-80c-0.1-26.5-13.1-50-33.1-64.5zM241 78.4c0-8 6.7-14.5 15-14.5s15 6.5 15 14.5v49.6h-30v-49.6zM272 288h-16v-16h16v16zM272 256h-16v-64h16v64z"></path>
</svg>
