<?xml version="1.0" encoding="utf-8"?>
<!-- Generated by IcoMoon.io -->
<!DOCTYPE svg PUBLIC "-//W3C//DTD SVG 1.1//EN" "http://www.w3.org/Graphics/SVG/1.1/DTD/svg11.dtd">
<svg version="1.1" xmlns="http://www.w3.org/2000/svg" xmlns:xlink="http://www.w3.org/1999/xlink" width="512" height="512" viewBox="0 0 512 512">
<path fill="#000000" d="M352 160c52.934 0 96 43.065 96 96s-43.066 96-96 96h-192c-52.935 0-96-43.065-96-96s43.065-96 96-96h192zM352 128h-192c-70.692 0-128 57.308-128 128s57.308 128 128 128h192c70.692 0 128-57.308 128-128s-57.308-128-128-128v0z"></path>
<path fill="#000000" d="M160 208c26.467 0 48 21.533 48 48s-21.533 48-48 48-48-21.533-48-48c0-26.467 21.533-48 48-48zM160 176c-44.183 0-80 35.817-80 80s35.817 80 80 80 80-35.817 80-80-35.817-80-80-80v0z"></path>
</svg>
