<?xml version="1.0" encoding="utf-8"?>
<!-- Generated by IcoMoon.io -->
<!DOCTYPE svg PUBLIC "-//W3C//DTD SVG 1.1//EN" "http://www.w3.org/Graphics/SVG/1.1/DTD/svg11.dtd">
<svg version="1.1" xmlns="http://www.w3.org/2000/svg" xmlns:xlink="http://www.w3.org/1999/xlink" width="512" height="512" viewBox="0 0 512 512">
<path fill="#000000" d="M368 0v40h69.873l-93.046 91.97c-8.529-8.249-15.132-12.586-15.132-12.586-20.854-14.69-46.273-23.384-73.695-23.384-34.525 0-65.86 13.669-88.903 35.894l-17.333-17.131 35.833-35.833-32.527-32.527-36.022 36.021-42.921-42.424h69.873v-40h-144v144h40v-76.194l46.085 45.582-35.683 35.682 32.526 32.526 35.862-35.861 22.185 21.942c-8.395 17.065-13.118 36.267-13.118 56.578 0 62.629 45.143 114.734 104.143 125.995v51.75h-72v46h72v64h48v-64h72v-46h-72v-51.75c58-11.261 104.222-63.397 104.222-126.025 0-20.202-4.794-39.738-13.094-56.649l100.872-99.77v76.194h40v-144h-144zM255.929 304.402c-44.156 0-80.079-35.968-80.079-80.178 0-44.211 35.923-80.18 80.079-80.18s80.078 35.969 80.078 80.18-35.923 80.178-80.078 80.178z"></path>
</svg>
