<?xml version="1.0" encoding="utf-8"?>
<!-- Generated by IcoMoon.io -->
<!DOCTYPE svg PUBLIC "-//W3C//DTD SVG 1.1//EN" "http://www.w3.org/Graphics/SVG/1.1/DTD/svg11.dtd">
<svg version="1.1" xmlns="http://www.w3.org/2000/svg" xmlns:xlink="http://www.w3.org/1999/xlink" width="512" height="512" viewBox="0 0 512 512">
<path d="M341 128v-29c0-19.1-14.5-35-34.5-35h-101.1c-19.9 0-34.4 15.9-34.4 35v29h-91v32h9.2c0 0 5.4 0.6 8.2 3.4s3.9 9 3.9 9l19 241.7c1.5 29.4 1.5 33.9 36 33.9h199.4c34.5 0 34.5-4.4 36-33.8l19-241.6c0 0 1.1-6.3 3.9-9.1s8.2-3.4 8.2-3.4h9.2v-32h-91v-0.1zM192 99c0-9.6 7.8-15 17.7-15h91.7c9.9 0 18.6 5.5 18.6 15v29h-128v-29zM183.5 384l-10.3-192h20.3l10.5 192h-20.5zM267.1 384h-22v-192h22v192zM328.7 384h-20.4l10.5-192h20.3l-10.4 192z"></path>
</svg>
