<?xml version="1.0" encoding="utf-8"?>
<!-- Generated by IcoMoon.io -->
<!DOCTYPE svg PUBLIC "-//W3C//DTD SVG 1.1//EN" "http://www.w3.org/Graphics/SVG/1.1/DTD/svg11.dtd">
<svg version="1.1" xmlns="http://www.w3.org/2000/svg" xmlns:xlink="http://www.w3.org/1999/xlink" width="512" height="512" viewBox="0 0 512 512">
<path d="M376.2 288c0 0.1 0 0.2 0 0.4 0-0.2 0-0.3 0-0.4v0z"></path>
<path d="M136.2 288c0 0.1 0 0.2 0 0.4 0-0.2 0-0.3 0-0.4v0z"></path>
<path d="M272 48.8c0-0.3 0-0.5 0-0.8 0-8.8-7.2-16-16-16s-16 7.2-16 16c0 0.2 0 0.5 0 0.7-116.3 8-208 103.1-208 221.4 0 3.6 0.2 14.2 0.4 17.8 2.7-26.3 24.7-51.7 51.7-51.7 28.7 0 51.9 23.1 52.1 51.7v0c0.2-28.6 23.4-51.7 52.1-51.7 26.5 0 50.9 21.1 51.7 45.5v134.3c0 17.9-14.1 32-32 32-17.1 0-31-14.4-31-32 0-8.8-7.2-16-16-16s-16 7.2-16 16c0 35.3 28.3 64 63 64 17.3 0 33.5-6.7 45.5-18.8 11.9-12 18.5-28.1 18.5-45.2v-135.3c3.3-32.7 23.4-44.4 52.1-44.4s51.9 23.1 52.1 51.7v0c0.2-28.6 23.4-51.7 52.1-51.7 26.1 0 47.6 26.7 51.4 51.7 0.1-2.8 0.2-9.1 0.2-11.8 0.1-118.4-91.7-218.9-207.9-227.4z"></path>
</svg>
