<?xml version="1.0" encoding="utf-8"?>
<!-- Generated by IcoMoon.io -->
<!DOCTYPE svg PUBLIC "-//W3C//DTD SVG 1.1//EN" "http://www.w3.org/Graphics/SVG/1.1/DTD/svg11.dtd">
<svg version="1.1" xmlns="http://www.w3.org/2000/svg" xmlns:xlink="http://www.w3.org/1999/xlink" width="512" height="512" viewBox="0 0 512 512">
<path d="M86.4 480h339.2c12.3 0 22.4-9.9 22.4-22.1v-211.9c0-12.2-10-22-22.4-22h-264.6v-30.9c0-27.3 9.9-61.1 28.1-80.3v0-0.3c17.6-18.6 41.9-29.5 66.8-29.5h0.2c24.9 0 49.2 10.9 66.8 29.5v0.3c11.3 11.9 19.4 29.3 24 47.3h53.4c-5.9-31.3-19.7-61.8-39.2-82.4-26.2-27.8-63.7-45.7-105-45.7-0.1 0-0.1 0-0.1 0s-0.1 0-0.1 0c-41.3 0-79 17.9-105.3 45.6-26.4 27.8-42.6 73.9-42.6 115.4v31h-21.6c-12.4 0-22.4 9.9-22.4 22v211.9c0 12.2 10 22.1 22.4 22.1z"></path>
</svg>
