<?xml version="1.0" encoding="utf-8"?>
<!-- Generated by IcoMoon.io -->
<!DOCTYPE svg PUBLIC "-//W3C//DTD SVG 1.1//EN" "http://www.w3.org/Graphics/SVG/1.1/DTD/svg11.dtd">
<svg version="1.1" xmlns="http://www.w3.org/2000/svg" xmlns:xlink="http://www.w3.org/1999/xlink" width="512" height="512" viewBox="0 0 512 512">
<path d="M398.1 233.2c0-1.2 0.2-2.4 0.2-3.6 0-65-51.8-117.6-115.7-117.6-46.1 0-85.7 27.4-104.3 67-8.1-4.1-17.2-6.5-26.8-6.5-29.5 0-54.1 21.9-58.8 50.5-35.4 12.2-60.7 46.1-60.7 86 0 50.2 40.1 91 89.5 91h102.5v-80h-48.2l80.2-83.7 80.2 83.6h-48.2v80h110.3c45.2 0 81.7-37.5 81.7-83.4s-36.7-83.2-81.9-83.3z"></path>
</svg>
