<?xml version="1.0" encoding="utf-8"?>
<!-- Generated by IcoMoon.io -->
<!DOCTYPE svg PUBLIC "-//W3C//DTD SVG 1.1//EN" "http://www.w3.org/Graphics/SVG/1.1/DTD/svg11.dtd">
<svg version="1.1" xmlns="http://www.w3.org/2000/svg" xmlns:xlink="http://www.w3.org/1999/xlink" width="512" height="512" viewBox="0 0 512 512">
<path fill="#000000" d="M231 407.8v-303.5l-94.9 87.7h-104.1v128h104.1z"></path>
<path fill="#000000" d="M287.1 355.7c20.5-27.9 32.8-62.3 32.8-99.7s-12.3-71.8-32.8-99.7l-20.4 15.3c17.4 23.6 27.8 52.7 27.8 84.4 0 31.6-10.4 60.8-27.8 84.3l20.4 15.4z"></path>
<path fill="#000000" d="M353.7 401.7c30-40.7 48-91.1 48-145.7s-18-104.9-48-145.7l-20.4 15.3c26.9 36.4 43 81.5 43 130.4s-16.1 93.9-43 130.3l20.4 15.4z"></path>
<path fill="#000000" d="M396.7 79.4c36.4 49.3 57.9 110.5 57.9 176.6s-21.5 127.2-57.9 176.6l20.5 15.4c39.4-53.6 62.8-120 62.8-192s-23.4-138.4-62.8-192l-20.5 15.4z"></path>
</svg>
