<?xml version="1.0" encoding="utf-8"?>
<!-- Generated by IcoMoon.io -->
<!DOCTYPE svg PUBLIC "-//W3C//DTD SVG 1.1//EN" "http://www.w3.org/Graphics/SVG/1.1/DTD/svg11.dtd">
<svg version="1.1" xmlns="http://www.w3.org/2000/svg" xmlns:xlink="http://www.w3.org/1999/xlink" width="512" height="512" viewBox="0 0 512 512">
<path fill="#000000" d="M272 191.997l48 48-48 48-48-48 48-48z"></path>
<path fill="#000000" d="M208.007 256l48.001 48.001-175.998 175.998-48.001-48.001 175.998-175.998z"></path>
<path fill="#000000" d="M256 32h32v64h-32v-64z"></path>
<path fill="#000000" d="M385.132 149.497l-22.627-22.627 45.254-45.254 22.627 22.627-45.253 45.254z"></path>
<path fill="#000000" d="M113.606 104.234l22.627-22.627 45.255 45.255-22.627 22.627-45.255-45.255z"></path>
<path fill="#000000" d="M362.505 353.126l22.627-22.627 45.255 45.255-22.627 22.627-45.255-45.255z"></path>
<path fill="#000000" d="M416 224h64v32h-64v-32z"></path>
</svg>
