<?xml version="1.0" encoding="utf-8"?>
<!-- Generated by IcoMoon.io -->
<!DOCTYPE svg PUBLIC "-//W3C//DTD SVG 1.1//EN" "http://www.w3.org/Graphics/SVG/1.1/DTD/svg11.dtd">
<svg version="1.1" xmlns="http://www.w3.org/2000/svg" xmlns:xlink="http://www.w3.org/1999/xlink" width="512" height="512" viewBox="0 0 512 512">
<path fill="#000000" d="M256.1 96v0c-79.9 0-155.7 29.9-213.9 84.1l-10.2 9.5 51.5 51 9.6-8.8c44.5-40.9 102.3-63.5 162.8-63.5s118.4 22.6 162.8 63.5l9.6 8.8 9.3-9.2 42.2-41.8-10.2-9.5c-58-54.2-133.9-84.1-213.5-84.1z"></path>
<path fill="#000000" d="M397.4 256.4c-38.8-35.1-88.9-54.4-141.1-54.4h-8.9l-0.1 0.2c-49.2 2-96 21.1-132.6 54.2l-10.5 9.5 51.9 51.4 9.6-8.4c25.3-22.2 57.4-34.5 90.3-34.5 33.1 0 65.2 12.3 90.5 34.5l9.6 8.4 9.1-9 42.8-42.4-10.6-9.5z"></path>
<path fill="#000000" d="M256.2 416l73-72.2-11.6-9.5c-15.4-11.4-32.4-20-61.5-20-29 0-44.9 9.4-61.5 20l-11.5 9.5 10.6 10.5 52.8 52.2 9.7 9.5z"></path>
</svg>
