<?xml version="1.0" encoding="utf-8"?>
<!-- Generated by IcoMoon.io -->
<!DOCTYPE svg PUBLIC "-//W3C//DTD SVG 1.1//EN" "http://www.w3.org/Graphics/SVG/1.1/DTD/svg11.dtd">
<svg version="1.1" xmlns="http://www.w3.org/2000/svg" xmlns:xlink="http://www.w3.org/1999/xlink" width="512" height="512" viewBox="0 0 512 512">
<path fill="#000000" d="M190.4 148.6l-29.4 104.3c-6.3 22.8 20.7 31.7 27.3 10.3l26.3-96.2h7.4l-45.2 169h42.2v127c0 23 32 23 32 0v-127h10v127c0 23 31 23 31 0v-127h43.4l-46.2-169h8.4l26.3 96.2c6.5 21.9 33.3 12.5 27.3-10.2l-29.4-104.4c-4-11.8-18.2-32.6-42-33.6h-47.3c-24.6 1-38.7 21.6-42.1 33.6z"></path>
<path fill="#000000" d="M292.6 69.2c0-20.6-16.4-37.3-36.6-37.3s-36.6 16.7-36.6 37.3c0 20.6 16.4 37.3 36.6 37.3s36.6-16.7 36.6-37.3z"></path>
</svg>
