<?xml version="1.0" encoding="utf-8"?>
<!-- Generated by IcoMoon.io -->
<!DOCTYPE svg PUBLIC "-//W3C//DTD SVG 1.1//EN" "http://www.w3.org/Graphics/SVG/1.1/DTD/svg11.dtd">
<svg version="1.1" xmlns="http://www.w3.org/2000/svg" xmlns:xlink="http://www.w3.org/1999/xlink" width="512" height="512" viewBox="0 0 512 512">
<path d="M126.8 248.3c39.7-58.6 77.9-92.8 77.9-92.8s-42.1-48.9-92.8-67.4l-3.3-0.8c-46.9 41.1-76.6 101.4-76.6 168.7 0 50.7 16.9 97.5 45.2 135 0-4.4 0.6-70.3 49.6-142.7z"></path>
<path d="M480 256c0-67.3-29.7-127.6-76.6-168.7l-3.2 0.9c-50.7 18.5-92.9 67.4-92.9 67.4s38.2 34.2 77.9 92.8c49 72.4 49.6 138.3 49.5 142.7 28.5-37.6 45.3-84.4 45.3-135.1z"></path>
<path d="M201.2 80.9c29.3 13.1 54.6 34.6 54.6 34.6s25.5-21.4 54.8-34.6c36.8-16.5 64.9-11.3 72.3-9.5-36.1-24.8-79.8-39.4-126.9-39.4s-90.8 14.6-126.9 39.4c7.2-1.8 35.2-7.1 72.1 9.5z"></path>
<path d="M358.7 292.9c-46.3-56.9-102.9-93.9-102.9-93.9s-56.3 37-102.7 93.9c-39.8 48.9-54.6 84.8-62.6 107.8l-1.3 4.8c41 45.7 100.5 74.5 166.8 74.5s125.8-28.8 166.8-74.5l-1.4-4.8c-8-23-22.9-58.9-62.7-107.8z"></path>
</svg>
